<?xml version="1.0" encoding="UTF-8"?><svg id="Layer_2" xmlns="http://www.w3.org/2000/svg" viewBox="0 0 429.2822 282.8779"><defs><style>.cls-1,.cls-2{stroke:#404041;}.cls-1,.cls-2,.cls-3{fill:none;stroke-miterlimit:10;}.cls-4{fill:#404041;}.cls-2{stroke-dasharray:0 0 9 11;}.cls-3{stroke:#1e64c8;stroke-width:2px;}</style></defs><g id="Layer_17"><g><g><g><g><g><line class="cls-1" x1="36.4294" y1="269.0005" x2="36.4294" y2="26.3825"/><polygon class="cls-4" points="40.1692 27.4768 36.4294 21.0004 32.6897 27.4768 40.1692 27.4768"/></g><g><line class="cls-1" x1="35.979" y1="268.5005" x2="399.5969" y2="268.9932"/><polygon class="cls-4" points="398.4976 272.7314 404.979 269.0005 398.5076 265.252 398.4976 272.7314"/></g></g><g><path class="cls-4" d="M3.2549,17.4707l2.6318-5.8652h1.8047l-3.8613,7.8203h-1.6445L.7793,11.6055h1.6914l.7842,5.8652Z"/><path class="cls-4" d="M10.125,13.5068c.5117,.0068,.9531,.1387,1.3242,.3945,.3701,.2559,.6426,.6094,.8164,1.0586s.2354,.9482,.1846,1.4951c-.082,.9238-.4033,1.6719-.9639,2.2432s-1.252,.8496-2.0752,.835c-.5059-.0068-.9424-.1367-1.3105-.3896-.3691-.252-.6416-.6025-.8164-1.0498-.1758-.4473-.2383-.9414-.1885-1.4824,.0928-.96,.4189-1.7227,.9775-2.2881s1.2422-.8379,2.0518-.8164Zm-1.5303,3.6543c.0068,.3428,.0869,.6143,.2412,.8125s.3701,.3008,.6494,.3076c.4658,.0146,.8311-.1992,1.0957-.6406,.2656-.4414,.3887-1.0215,.3711-1.7402-.0146-.3428-.0977-.6172-.25-.8232-.1523-.2051-.3691-.3115-.6523-.3193-.4512-.0137-.8115,.1982-1.082,.6357-.2705,.4385-.3945,1.0273-.373,1.7676Z"/><path class="cls-4" d="M14.4863,19.4258h-1.5254l1.4336-8.25h1.5195l-1.4277,8.25Z"/><path class="cls-4" d="M18.8408,12.1855l-.252,1.4287h.9668l-.1992,1.1387h-.9668l-.4941,2.9111c-.0215,.1826-.0068,.3223,.043,.4189,.0508,.0967,.1719,.1484,.3652,.1553,.0576,.0039,.2119-.0049,.4629-.0264l-.1074,1.1865c-.2695,.0898-.5586,.1309-.8711,.124-.4971-.0068-.8682-.1631-1.1113-.4678-.2432-.3037-.3438-.7158-.3008-1.2344l.5-3.0674h-.8223l.1992-1.1387h.8213l.2471-1.4287h1.5195Z"/><path class="cls-4" d="M22.79,19.4258c-.0469-.1465-.0664-.3223-.0596-.5264-.4365,.4365-.9307,.6484-1.4824,.6338-.5088-.0068-.9297-.1729-1.2646-.4971s-.4922-.7236-.4707-1.2002c.0254-.6338,.291-1.1201,.7979-1.458,.5068-.3389,1.1865-.5078,2.0381-.5078l.709,.0107,.0762-.3496c.0215-.1172,.0264-.2305,.0156-.3379-.0176-.168-.0811-.2998-.1904-.3945s-.2539-.1445-.4326-.1484c-.2363-.0068-.4365,.0518-.6016,.1748-.165,.124-.2705,.3018-.3164,.5342l-1.5205,.0059c.0254-.5547,.2803-1.0049,.7656-1.3506s1.084-.5146,1.7959-.5078c.6592,.0146,1.1748,.21,1.5469,.5879,.373,.3779,.5283,.8643,.4678,1.458l-.4463,2.7832-.0264,.3438c-.0068,.2539,.0234,.4688,.0908,.6445l-.0049,.1016h-1.4873Zm-1.166-1.0684c.4365,.0137,.8184-.1758,1.1445-.5703l.1875-1.0039-.5264-.0059c-.5586,.0146-.9619,.1846-1.208,.5107-.0898,.1182-.1455,.2627-.167,.4346-.0283,.1934,.0117,.3467,.1211,.46,.1094,.1123,.2588,.1709,.4482,.1748Z"/><path class="cls-4" d="M25.4912,16.5146c.1074-.8984,.3994-1.6279,.8779-2.1885,.4775-.5605,1.0801-.8359,1.8076-.8242,.6191,.0137,1.0811,.2373,1.3848,.6709l.1992-.5635,1.3906,.0049-.9502,5.6123c-.1035,.7734-.4336,1.3867-.9883,1.8379s-1.2422,.6689-2.0625,.6543c-.4014-.0068-.7842-.0938-1.1494-.2598-.3652-.167-.666-.3945-.9023-.6855l.752-.9238c.3369,.4268,.7588,.6465,1.2676,.6611,.3936,.0146,.7305-.0889,1.0098-.3086,.2793-.2207,.4688-.5312,.5693-.9326l.0859-.3486c-.4229,.4229-.8975,.627-1.4229,.6123-.5664-.0068-1.0156-.2178-1.3486-.6309-.333-.4141-.5156-.9521-.5479-1.6143-.0107-.2188-.002-.4766,.0273-.7734Zm1.4873,.6377c0,.3369,.0703,.6064,.2119,.8096,.1416,.2021,.3467,.3096,.6152,.3193,.4121,.0146,.7773-.1611,1.0957-.5264l.4512-2.4639c-.1543-.3369-.4385-.5127-.8535-.5273-.3867-.0107-.7148,.1455-.9834,.4678-.2686,.3232-.4365,.752-.5049,1.2861-.0254,.2617-.0361,.4736-.0322,.6348Z"/><path class="cls-4" d="M34.1064,19.5332c-.5088-.0039-.959-.1279-1.3516-.373-.3916-.2451-.6846-.582-.8779-1.0098s-.2686-.9004-.2256-1.416l.0156-.2148c.0547-.5654,.2188-1.084,.4941-1.5566,.2764-.4727,.6309-.8379,1.0645-1.0938,.4326-.2559,.9121-.377,1.4395-.3623,.748,.0146,1.3145,.29,1.6992,.8262s.5312,1.2148,.4375,2.0352l-.0859,.6621h-3.5605c-.0146,.376,.0771,.6768,.2734,.9023,.1973,.2256,.4658,.3418,.8066,.3486,.5508,.0146,1.0342-.2002,1.4492-.6445l.6934,.8594c-.2188,.3301-.5332,.5869-.9453,.7715s-.8535,.2725-1.3262,.2656Zm.4824-4.7754c-.2793-.0068-.5264,.0811-.7432,.2637s-.4111,.5-.583,.9512h2.084l.0322-.1406c.0215-.1426,.0234-.2793,.0049-.4082-.0352-.207-.123-.3691-.2627-.4854s-.3174-.1768-.5322-.1807Z"/></g><g><path class="cls-4" d="M411.5898,273.3818h-2.3203l-1.1279,6.5156h-1.5732l1.127-6.5156h-2.293l.2305-1.3047h6.1875l-.2305,1.3047Z"/><path class="cls-4" d="M412.9014,279.8975h-1.5254l1.0098-5.8115h1.5254l-1.0098,5.8115Zm-.3389-7.2891c-.0068-.2393,.0713-.4385,.2363-.5957s.3633-.2363,.5967-.2363c.2285-.0068,.4277,.0625,.5957,.209,.168,.1475,.2559,.3369,.2637,.5703,.0068,.2217-.0674,.415-.2236,.5801-.1553,.1641-.3584,.25-.6094,.2578-.2256,.0068-.4238-.0615-.5938-.2051-.1699-.1426-.2588-.3359-.2656-.5801Z"/><path class="cls-4" d="M416.6016,274.0811l-.124,.6602c.4688-.5225,1.0361-.7773,1.7021-.7627,.3584,.0068,.6562,.0898,.8926,.2471s.3955,.3711,.4775,.6387c.5117-.6045,1.1133-.9004,1.8047-.8857,.5332,.0107,.9355,.1934,1.2061,.5479s.3838,.8662,.3408,1.5361l-.0107,.1338-.6172,3.7012h-1.5205l.6182-3.7158c.0137-.1328,.0195-.2559,.0156-.3711-.0254-.376-.2402-.5693-.6445-.5811-.415,0-.7715,.2227-1.0684,.667l-.0166,.124-.6768,3.877h-1.5146l.6182-3.7012c.0137-.1318,.0195-.2559,.0156-.3701-.0254-.3799-.2383-.5752-.6387-.585-.3838-.0117-.7295,.1699-1.0371,.542l-.7246,4.1143h-1.5156l1.0049-5.8115,1.4131-.0049Z"/><path class="cls-4" d="M426.2373,280.0049c-.5088-.0039-.959-.1279-1.3516-.373-.3916-.2451-.6846-.582-.8779-1.0098s-.2686-.9004-.2256-1.416l.0156-.2148c.0547-.5654,.2188-1.084,.4941-1.5566,.2764-.4727,.6309-.8379,1.0645-1.0938,.4326-.2559,.9121-.377,1.4395-.3623,.748,.0146,1.3145,.29,1.6992,.8262s.5312,1.2148,.4375,2.0352l-.0859,.6621h-3.5605c-.0146,.376,.0771,.6768,.2734,.9023,.1973,.2256,.4658,.3418,.8066,.3486,.5508,.0146,1.0342-.2002,1.4492-.6445l.6934,.8594c-.2188,.3301-.5332,.5869-.9453,.7715s-.8535,.2725-1.3262,.2656Zm.4824-4.7754c-.2793-.0068-.5264,.0811-.7432,.2637s-.4111,.5-.583,.9512h2.084l.0322-.1406c.0215-.1426,.0234-.2793,.0049-.4082-.0352-.207-.123-.3691-.2627-.4854s-.3174-.1768-.5322-.1807Z"/></g></g><g><line class="cls-2" x1="36.479" y1="84.0005" x2="404.979" y2="84.0005"/><line class="cls-2" x1="181.1942" y1="268.5003" x2="181.1942" y2="20.0004"/><line class="cls-2" x1="280.9283" y1="268.5003" x2="280.9283" y2="20.0004"/></g><path class="cls-3" d="M398.3611,268.72l-95.2935-.7195c-4.2166,0,3.1032-.1003-16-.5-27,1-24.1626-169.4644-24.1626-169.4644-.0165-.1337,.0165-.1337,0,0l-10.6952,111.1041c-.017,.137-.2172,.1321-.2274-.0056l-8.8116-119.4732c-.0103-.1401-.2153-.1417-.2278-.0017l-14.6605,164.4717c-.0129,.1448-.2273,.1358-.2281-.0095l-.976-178.651c-.0008-.1438-.212-.1549-.2279-.012l-11.6697,105.2712c-.015,.1355-.212,.1356-.2272,0l-11.3032-101.1976c-.0145-.13-.2007-.1376-.2257-.0092l-10.2497,52.473c-.0239,.1221-.198,.1236-.2239,.0019,0,0-.3834-48.0743-9.3834-48.0743-1,0-6.946-.0905-7-.0905H35.979"/></g><g><path class="cls-4" d="M78.4717,9.3652c0-.3877-.1367-.6846-.4102-.8926-.2734-.207-.7656-.4258-1.4766-.6562-.7109-.2295-1.2734-.4561-1.6885-.6797-1.1299-.6104-1.6953-1.4336-1.6953-2.4678,0-.5381,.1514-1.0176,.4551-1.4385,.3027-.4219,.7383-.751,1.3047-.9883,.5684-.2373,1.2051-.3555,1.9111-.3555,.7109,0,1.3447,.1289,1.9004,.3867,.5557,.2568,.9873,.6201,1.2959,1.0898,.3066,.4697,.4609,1.0029,.4609,1.5996h-2.0508c0-.4561-.1436-.8105-.4307-1.0625-.2871-.2539-.6904-.3799-1.21-.3799-.501,0-.8906,.1064-1.1689,.3174-.2783,.2129-.417,.4912-.417,.8379,0,.3232,.1631,.5947,.4883,.8135,.3262,.2188,.8057,.4238,1.4395,.6152,1.167,.3506,2.0166,.7861,2.5498,1.3057s.7998,1.167,.7998,1.9414c0,.8613-.3262,1.5371-.9775,2.0273-.6514,.4893-1.5293,.7344-2.6318,.7344-.7656,0-1.4629-.1406-2.0918-.4199-.6289-.2812-1.1084-.665-1.4395-1.1523-.3301-.4873-.4951-1.0527-.4951-1.6953h2.0576c0,1.0986,.6562,1.6475,1.9688,1.6475,.4873,0,.8682-.0986,1.1416-.2979,.2734-.1973,.4102-.4746,.4102-.8301Z"/><path class="cls-4" d="M89.3398,9.29l.9707-4.71h1.9072l-1.8867,7.3965h-1.6543l-1.4014-4.6553-1.4014,4.6553h-1.6475l-1.8867-7.3965h1.9072l.9639,4.7031,1.3535-4.7031h1.4287l1.3467,4.71Z"/><path class="cls-4" d="M94.3018,2.666c0-.2959,.0986-.54,.2979-.7314,.1973-.1914,.4678-.2871,.8096-.2871,.3369,0,.6064,.0957,.8066,.2871s.3008,.4355,.3008,.7314c0,.3008-.1016,.5469-.3037,.7383-.2031,.1914-.4707,.2871-.8037,.2871s-.6006-.0957-.8037-.2871c-.2021-.1914-.3037-.4375-.3037-.7383Zm2.0986,9.3105h-1.9824V4.5801h1.9824v7.3965Z"/><path class="cls-4" d="M101.5127,2.7617v1.8184h1.2646v1.4492h-1.2646v3.6914c0,.2734,.0527,.4697,.1572,.5879s.3057,.1777,.6016,.1777c.2188,0,.4121-.0156,.5811-.0479v1.4971c-.3877,.1182-.7861,.1777-1.1963,.1777-1.3857,0-2.0918-.6992-2.1191-2.0986v-3.9854h-1.0801v-1.4492h1.0801v-1.8184h1.9756Z"/><path class="cls-4" d="M108.0742,10.5205c.3643,0,.6611-.1006,.8887-.3008s.3467-.4668,.3555-.7998h1.8525c-.0049,.501-.1416,.9609-.4102,1.377-.2686,.418-.6367,.7412-1.1035,.9707-.4678,.2305-.9834,.3457-1.5488,.3457-1.0576,0-1.8916-.3359-2.502-1.0078-.6104-.6729-.916-1.6016-.916-2.7861v-.1299c0-1.1396,.3027-2.0488,.9092-2.7275s1.4375-1.0186,2.4951-1.0186c.9248,0,1.667,.2637,2.2246,.7891,.5586,.5273,.8428,1.2275,.8516,2.1025h-1.8525c-.0088-.3848-.1279-.6973-.3555-.9385-.2275-.2402-.5283-.3604-.9023-.3604-.46,0-.8076,.168-1.042,.5029-.2354,.3359-.3525,.8799-.3525,1.6328v.2061c0,.7617,.1162,1.3096,.3486,1.6426s.5859,.5,1.0596,.5Z"/><path class="cls-4" d="M115.3457,5.3867c.5244-.6289,1.1826-.9434,1.9756-.9434,1.6045,0,2.418,.9316,2.4404,2.7959v4.7373h-1.9756V7.2939c0-.4238-.0908-.7373-.2734-.9404-.1826-.2021-.4854-.3037-.9092-.3037-.5791,0-.998,.2236-1.2578,.6699v5.2568h-1.9756V1.4766h1.9756v3.9102Z"/><path class="cls-4" d="M134.0811,8.1553c0,.7793-.1523,1.4678-.458,2.0645s-.7412,1.0576-1.3096,1.3809c-.5664,.3232-1.2109,.4854-1.9307,.4854-.7246,0-1.3701-.1592-1.9385-.4785-.5664-.3193-1.0059-.7734-1.3154-1.3633-.3096-.5908-.4668-1.2705-.4717-2.041v-.3555c0-.7842,.1523-1.4746,.458-2.0713s.7402-1.0586,1.3057-1.3838c.5654-.3262,1.2148-.4893,1.9482-.4893,.7197,0,1.3613,.1592,1.9248,.4785,.5625,.3193,1,.7764,1.3125,1.3701,.3115,.5957,.4697,1.2803,.4746,2.0547v.3486Zm-1.9824-.3105c0-.7559-.1514-1.3359-.4551-1.7412-.3027-.4053-.7275-.6074-1.2744-.6074-.5654,0-.9951,.2021-1.2881,.6074-.2949,.4053-.4414,.9854-.4414,1.7412v.3135c0,.7422,.1504,1.3203,.4512,1.7344s.7314,.6211,1.292,.6211c.5283,0,.9463-.2051,1.2549-.6143,.3066-.4092,.4609-.9971,.4609-1.7617v-.293Z"/><path class="cls-4" d="M141.6543,8.873h-3.3428v3.1035h-1.9824V4.0127h5.6875v1.5928h-3.7051v1.6748h3.3428v1.5928Z"/><path class="cls-4" d="M149.3574,8.873h-3.3428v3.1035h-1.9824V4.0127h5.6875v1.5928h-3.7051v1.6748h3.3428v1.5928Z"/></g><g><path class="cls-4" d="M318.4717,9.3652c0-.3877-.1367-.6846-.4102-.8926-.2734-.207-.7656-.4258-1.4766-.6562-.7109-.2295-1.2734-.4561-1.6885-.6797-1.1299-.6104-1.6953-1.4336-1.6953-2.4678,0-.5381,.1514-1.0176,.4551-1.4385,.3027-.4219,.7383-.751,1.3047-.9883,.5684-.2373,1.2051-.3555,1.9111-.3555,.7109,0,1.3447,.1289,1.9004,.3867,.5557,.2568,.9873,.6201,1.2959,1.0898,.3066,.4697,.4609,1.0029,.4609,1.5996h-2.0508c0-.4561-.1436-.8105-.4307-1.0625-.2871-.2539-.6904-.3799-1.21-.3799-.501,0-.8906,.1064-1.1689,.3174-.2783,.2129-.417,.4912-.417,.8379,0,.3232,.1631,.5947,.4883,.8135,.3262,.2188,.8057,.4238,1.4395,.6152,1.167,.3506,2.0166,.7861,2.5498,1.3057s.7998,1.167,.7998,1.9414c0,.8613-.3262,1.5371-.9775,2.0273-.6514,.4893-1.5293,.7344-2.6318,.7344-.7656,0-1.4629-.1406-2.0918-.4199-.6289-.2812-1.1084-.665-1.4395-1.1523-.3301-.4873-.4951-1.0527-.4951-1.6953h2.0576c0,1.0986,.6562,1.6475,1.9688,1.6475,.4873,0,.8682-.0986,1.1416-.2979,.2734-.1973,.4102-.4746,.4102-.8301Z"/><path class="cls-4" d="M329.3398,9.29l.9707-4.71h1.9072l-1.8867,7.3965h-1.6543l-1.4014-4.6553-1.4014,4.6553h-1.6475l-1.8867-7.3965h1.9072l.9639,4.7031,1.3535-4.7031h1.4287l1.3467,4.71Z"/><path class="cls-4" d="M334.3018,2.666c0-.2959,.0986-.54,.2979-.7314,.1973-.1914,.4678-.2871,.8096-.2871,.3369,0,.6064,.0957,.8066,.2871s.3008,.4355,.3008,.7314c0,.3008-.1016,.5469-.3037,.7383-.2031,.1914-.4707,.2871-.8037,.2871s-.6006-.0957-.8037-.2871c-.2021-.1914-.3037-.4375-.3037-.7383Zm2.0986,9.3105h-1.9824V4.5801h1.9824v7.3965Z"/><path class="cls-4" d="M341.5127,2.7617v1.8184h1.2646v1.4492h-1.2646v3.6914c0,.2734,.0527,.4697,.1572,.5879s.3057,.1777,.6016,.1777c.2188,0,.4121-.0156,.5811-.0479v1.4971c-.3877,.1182-.7861,.1777-1.1963,.1777-1.3857,0-2.0918-.6992-2.1191-2.0986v-3.9854h-1.0801v-1.4492h1.0801v-1.8184h1.9756Z"/><path class="cls-4" d="M348.0742,10.5205c.3643,0,.6611-.1006,.8887-.3008s.3467-.4668,.3555-.7998h1.8525c-.0049,.501-.1416,.9609-.4102,1.377-.2686,.418-.6367,.7412-1.1035,.9707-.4678,.2305-.9834,.3457-1.5488,.3457-1.0576,0-1.8916-.3359-2.502-1.0078-.6104-.6729-.916-1.6016-.916-2.7861v-.1299c0-1.1396,.3027-2.0488,.9092-2.7275s1.4375-1.0186,2.4951-1.0186c.9248,0,1.667,.2637,2.2246,.7891,.5586,.5273,.8428,1.2275,.8516,2.1025h-1.8525c-.0088-.3848-.1279-.6973-.3555-.9385-.2275-.2402-.5283-.3604-.9023-.3604-.46,0-.8076,.168-1.042,.5029-.2354,.3359-.3525,.8799-.3525,1.6328v.2061c0,.7617,.1162,1.3096,.3486,1.6426s.5859,.5,1.0596,.5Z"/><path class="cls-4" d="M355.3457,5.3867c.5244-.6289,1.1826-.9434,1.9756-.9434,1.6045,0,2.418,.9316,2.4404,2.7959v4.7373h-1.9756V7.2939c0-.4238-.0908-.7373-.2734-.9404-.1826-.2021-.4854-.3037-.9092-.3037-.5791,0-.998,.2236-1.2578,.6699v5.2568h-1.9756V1.4766h1.9756v3.9102Z"/><path class="cls-4" d="M374.0811,8.1553c0,.7793-.1523,1.4678-.458,2.0645s-.7412,1.0576-1.3096,1.3809c-.5664,.3232-1.2109,.4854-1.9307,.4854-.7246,0-1.3701-.1592-1.9385-.4785-.5664-.3193-1.0059-.7734-1.3154-1.3633-.3096-.5908-.4668-1.2705-.4717-2.041v-.3555c0-.7842,.1523-1.4746,.458-2.0713s.7402-1.0586,1.3057-1.3838c.5654-.3262,1.2148-.4893,1.9482-.4893,.7197,0,1.3613,.1592,1.9248,.4785,.5625,.3193,1,.7764,1.3125,1.3701,.3115,.5957,.4697,1.2803,.4746,2.0547v.3486Zm-1.9824-.3105c0-.7559-.1514-1.3359-.4551-1.7412-.3027-.4053-.7275-.6074-1.2744-.6074-.5654,0-.9951,.2021-1.2881,.6074-.2949,.4053-.4414,.9854-.4414,1.7412v.3135c0,.7422,.1504,1.3203,.4512,1.7344s.7314,.6211,1.292,.6211c.5283,0,.9463-.2051,1.2549-.6143,.3066-.4092,.4609-.9971,.4609-1.7617v-.293Z"/><path class="cls-4" d="M383.4316,11.9766h-1.9756l-3.1445-4.9629v4.9629h-1.9824V4.0127h1.9824l3.1445,4.9697V4.0127h1.9756v7.9639Z"/></g><g><path class="cls-4" d="M193.2988,7.9092h-3.9375v4.0674h-2.0508V2.0234h6.4805v1.6611h-4.4297v2.5703h3.9375v1.6543Z"/><path class="cls-4" d="M198.0557,11.9766h-1.9824V1.4766h1.9824V11.9766Z"/><path class="cls-4" d="M205.2324,11.2246c-.4873,.5928-1.1621,.8887-2.0234,.8887-.793,0-1.3975-.2275-1.8154-.6836-.416-.4561-.6299-1.123-.6387-2.0029V4.5801h1.9756v4.7842c0,.7705,.3506,1.1562,1.0527,1.1562,.6699,0,1.1299-.2324,1.3809-.6982V4.5801h1.9824v7.3965h-1.8594l-.0547-.752Z"/><path class="cls-4" d="M212.833,10.5205c.3643,0,.6611-.1006,.8887-.3008s.3467-.4668,.3555-.7998h1.8525c-.0049,.501-.1416,.9609-.4102,1.377-.2686,.418-.6367,.7412-1.1035,.9707-.4678,.2305-.9834,.3457-1.5488,.3457-1.0576,0-1.8916-.3359-2.502-1.0078-.6104-.6729-.916-1.6016-.916-2.7861v-.1299c0-1.1396,.3027-2.0488,.9092-2.7275s1.4375-1.0186,2.4951-1.0186c.9248,0,1.667,.2637,2.2246,.7891,.5586,.5273,.8428,1.2275,.8516,2.1025h-1.8525c-.0088-.3848-.1279-.6973-.3555-.9385-.2275-.2402-.5283-.3604-.9023-.3604-.46,0-.8076,.168-1.042,.5029-.2354,.3359-.3525,.8799-.3525,1.6328v.2061c0,.7617,.1162,1.3096,.3486,1.6426s.5859,.5,1.0596,.5Z"/><path class="cls-4" d="M220.543,2.7617v1.8184h1.2646v1.4492h-1.2646v3.6914c0,.2734,.0527,.4697,.1572,.5879s.3057,.1777,.6016,.1777c.2188,0,.4121-.0156,.5811-.0479v1.4971c-.3877,.1182-.7861,.1777-1.1963,.1777-1.3857,0-2.0918-.6992-2.1191-2.0986v-3.9854h-1.0801v-1.4492h1.0801v-1.8184h1.9756Z"/><path class="cls-4" d="M228.457,11.2246c-.4873,.5928-1.1621,.8887-2.0234,.8887-.793,0-1.3975-.2275-1.8154-.6836-.416-.4561-.6299-1.123-.6387-2.0029V4.5801h1.9756v4.7842c0,.7705,.3506,1.1562,1.0527,1.1562,.6699,0,1.1299-.2324,1.3809-.6982V4.5801h1.9824v7.3965h-1.8594l-.0547-.752Z"/><path class="cls-4" d="M237.2676,11.9766c-.0908-.1777-.1572-.3984-.1982-.6631-.4785,.5332-1.1006,.7998-1.8662,.7998-.7246,0-1.3252-.21-1.8008-.6289-.4766-.4189-.7148-.9482-.7148-1.5859,0-.7842,.291-1.3857,.8711-1.8047,.582-.4189,1.4209-.6309,2.5195-.6357h.9092v-.4238c0-.3418-.0879-.6152-.2627-.8203-.1758-.2051-.4531-.3076-.8311-.3076-.333,0-.5938,.0801-.7822,.2393-.1895,.1592-.2842,.3779-.2842,.6562h-1.9756c0-.4287,.1318-.8252,.3965-1.1895s.6377-.6504,1.1211-.8584c.4834-.207,1.0254-.3105,1.627-.3105,.9111,0,1.6348,.2285,2.1699,.6875,.5361,.457,.8037,1.1016,.8037,1.9307v3.2061c.0049,.7021,.1025,1.2324,.2939,1.5928v.1162h-1.9961Zm-1.6338-1.374c.292,0,.5605-.0654,.8066-.1943,.2461-.1309,.4287-.3047,.5469-.5234v-1.2715h-.7383c-.9893,0-1.5156,.3418-1.5791,1.0254l-.0068,.1162c0,.2461,.0869,.4492,.2598,.6084s.4102,.2393,.7109,.2393Z"/><path class="cls-4" d="M243.9727,2.7617v1.8184h1.2646v1.4492h-1.2646v3.6914c0,.2734,.0527,.4697,.1572,.5879s.3057,.1777,.6016,.1777c.2188,0,.4121-.0156,.5811-.0479v1.4971c-.3877,.1182-.7861,.1777-1.1963,.1777-1.3857,0-2.0918-.6992-2.1191-2.0986v-3.9854h-1.0801v-1.4492h1.0801v-1.8184h1.9756Z"/><path class="cls-4" d="M247.4443,2.666c0-.2959,.0986-.54,.2979-.7314,.1973-.1914,.4678-.2871,.8096-.2871,.3369,0,.6064,.0957,.8066,.2871s.3008,.4355,.3008,.7314c0,.3008-.1016,.5469-.3037,.7383-.2031,.1914-.4707,.2871-.8037,.2871s-.6006-.0957-.8037-.2871c-.2021-.1914-.3037-.4375-.3037-.7383Zm2.0986,9.3105h-1.9824V4.5801h1.9824v7.3965Z"/><path class="cls-4" d="M251.9824,8.21c0-.7334,.1416-1.3877,.4238-1.9619s.6895-1.0186,1.2207-1.333c.5303-.3145,1.1465-.4717,1.8486-.4717,.998,0,1.8125,.3057,2.4443,.916,.6309,.6104,.9824,1.4404,1.0557,2.4883l.0137,.5059c0,1.1348-.3164,2.0449-.9502,2.7305-.6338,.6865-1.4834,1.0293-2.5498,1.0293s-1.917-.3418-2.5537-1.0254c-.6348-.6836-.9531-1.6133-.9531-2.7891v-.0889Zm1.9756,.1406c0,.7021,.1318,1.2402,.3965,1.6123s.6426,.5576,1.1348,.5576c.4785,0,.8525-.1836,1.1211-.5508,.2686-.3682,.4033-.9551,.4033-1.7637,0-.6885-.1348-1.2227-.4033-1.6016s-.6475-.5684-1.1348-.5684c-.4834,0-.8564,.1885-1.1211,.5645-.2646,.377-.3965,.96-.3965,1.75Z"/><path class="cls-4" d="M263.1445,4.5801l.0615,.8545c.5283-.6611,1.2373-.9912,2.126-.9912,.7842,0,1.3672,.2305,1.75,.6904s.5791,1.1484,.5879,2.0645v4.7783h-1.9756V7.2461c0-.4189-.0908-.7236-.2734-.9121-.1826-.1895-.4854-.2842-.9092-.2842-.5557,0-.9727,.2373-1.251,.7109v5.2158h-1.9756V4.5801h1.8594Z"/><path class="cls-4" d="M274.293,9.9326c0-.2412-.1201-.4316-.3584-.5713-.2402-.1387-.624-.2627-1.1523-.3721-1.7588-.3691-2.6387-1.1162-2.6387-2.2422,0-.6562,.2725-1.2041,.8164-1.6436,.5449-.4404,1.2568-.6602,2.1367-.6602,.9385,0,1.6895,.2207,2.252,.6631,.5635,.4424,.8447,1.0166,.8447,1.7227h-1.9756c0-.2822-.0908-.5166-.2734-.7002-.1826-.1855-.4668-.2773-.8545-.2773-.333,0-.5898,.0752-.7725,.2256s-.2734,.3418-.2734,.5742c0,.2188,.1035,.3955,.3105,.5303,.208,.1338,.5576,.25,1.0498,.3477,.4922,.0986,.9072,.209,1.2441,.332,1.0439,.3828,1.5654,1.0459,1.5654,1.9893,0,.6748-.2891,1.2197-.8682,1.6377-.5791,.416-1.3262,.625-2.2422,.625-.6201,0-1.1699-.1104-1.6514-.332-.4805-.2207-.8574-.5234-1.1309-.9082-.2734-.3857-.4102-.8018-.4102-1.248h1.873c.0186,.3506,.1484,.6201,.3896,.8066s.5654,.2803,.9707,.2803c.3779,0,.6641-.0713,.8584-.2158,.1934-.1426,.29-.3311,.29-.5635Z"/></g></g></g></svg>