<?xml version="1.0" encoding="UTF-8"?><svg id="Layer_2" xmlns="http://www.w3.org/2000/svg" viewBox="0 0 315.5 254.596"><defs><style>.cls-1{fill:#a7d4c5;}.cls-1,.cls-2,.cls-3,.cls-4,.cls-5,.cls-6,.cls-7{stroke:#404041;}.cls-1,.cls-2,.cls-4,.cls-5,.cls-6,.cls-7{stroke-miterlimit:10;}.cls-2{fill:#fff1a3;}.cls-3{stroke-linejoin:round;}.cls-3,.cls-5{stroke-linecap:round;}.cls-3,.cls-6{fill:#e2e4e6;}.cls-8{fill:#404041;}.cls-4{fill:#fff;}.cls-4,.cls-9{opacity:.4;}.cls-5{fill:none;stroke-width:2px;}.cls-7{fill:#f6a6b0;}</style></defs><g id="Layer_21"><g><g class="cls-9"><path class="cls-6" d="M247.3929,254.096H10.4656c-5.5038,0-9.9656-4.4772-9.9656-10V77.3844c0-5.5228,4.4617-10,9.9656-10H185.8296s4.9921,.4512,5.4081-3.8022c.0329-.3364,.333-.5811,.6709-.5797,3.7321,.0149,22.015,.1022,25.6387,.1195,.336,.0016,.6189,.2512,.6574,.5851,.3797,3.2956,3.9659,3.6513,4.2736,3.6758,.0171,.0014,.0296,.0015,.0467,.0015h24.8679c5.5038,0,9.9656,4.4772,9.9656,10v46.3433s-.3075,10.5446,9.9781,10.9792c.3665,.0155,.6635,.3058,.6635,.6726v55.5143c0,.366-.2955,.655-.6611,.6723-10.986,.521-10.0328,14.0532-9.9824,14.6845,.0015,.0184,.0019,.032,.0019,.0505v37.7949c0,5.5228-4.4617,10-9.9656,10Z"/><g><polygon class="cls-3" points="175.6055 31.6544 175.6055 34.1072 180.2246 34.1072 192.165 46.0477 192.165 60.6854 194.5178 60.6854 194.5178 45.1072 181.0629 31.6523 175.6055 31.6544"/><polygon class="cls-3" points="204.372 60.625 206.3297 60.625 206 43.125 211.0962 38.1902 211.0962 34.625 209 34.625 209 37.4437 203.7902 41.9152 204.372 60.625"/><polygon class="cls-3" points="199.8578 60.625 197.9 60.625 197.9 37.9262 193.1336 32.9742 193.1336 29.0888 195.2298 29.0888 195.2298 32.0542 199.9309 36.9384 199.8578 60.625"/><polygon class="cls-3" points="208.372 61.125 210.3297 61.125 210.3297 45.208 219 37.125 219 34.125 217.25 34.125 217.1594 36.2844 208.2988 44.4066 208.372 61.125"/></g><g><polygon class="cls-3" points="272.8583 153.1585 272.8583 155.7466 302.355 155.7466 308.79 162.0476 314.5 162.0476 314.5 159.2765 309.9855 159.2765 303.6386 153.0618 272.8583 153.1585"/><polygon class="cls-3" points="306.483 114.625 303.5985 114.625 303.5985 121.1419 289.557 137.9884 272.3435 137.9884 272.3435 141.3078 290.6629 141.3078 306.4854 122.3246 306.483 114.625"/><polygon class="cls-3" points="272.4146 148.8419 272.4146 146.0797 299.1075 146.0797 304.9309 139.3549 309.5 139.3549 309.5 142.3123 306.0128 142.3123 300.2691 148.9451 272.4146 148.8419"/><polygon class="cls-3" points="272.8582 159.1584 272.8582 161.7465 300.2299 161.7465 306.2014 168.0476 315 168.125 315 165.2765 307.3107 165.2765 301.421 159.0618 272.8582 159.1584"/><polygon class="cls-3" points="272.8582 165.1584 272.8582 167.7465 298.6061 167.7465 304.2233 174.0476 315 174.125 315 171.2765 305.2669 171.2765 299.7266 165.0617 272.8582 165.1584"/><polygon class="cls-3" points="272.8582 171.1531 272.8582 173.5984 297.0787 173.5984 310 188.125 315 188.125 315 185.125 311 185.125 298.1327 171.0617 272.8582 171.1531"/><polygon class="cls-3" points="272.8582 177.1531 272.8582 179.5984 295.6418 179.5984 307.7966 194.125 315 194.125 315 191.125 309 191.125 296.6333 177.0617 272.8582 177.1531"/><polygon class="cls-3" points="307.4974 207.0962 304.5598 207.0962 304.5598 201.0316 292 185.3544 272.7278 185.3544 272.7278 182.2654 293 182.2654 307.4999 199.931 307.4974 207.0962"/></g><g><path class="cls-8" d="M240.6064,16.2764h-2.7285l-.8066,1.6113h-1.7344l4.1787-7.8203h1.4561l1.4873,7.8203h-1.6064l-.2461-1.6113Zm-2.084-1.3047h1.8848l-.4404-2.9121-1.4443,2.9121Z"/><path class="cls-8" d="M245.9678,16.749c.2793,.0068,.5117-.0693,.6973-.2285,.1865-.1592,.3086-.3711,.3652-.6367l1.4238-.0049c-.0254,.4082-.1533,.7754-.3838,1.1006-.2314,.3262-.5391,.5801-.9238,.7637-.3848,.1816-.791,.2676-1.2168,.2578-.7051-.0117-1.2637-.2549-1.6758-.7305-.4121-.4766-.6104-1.1104-.5967-1.9023l.0166-.2949,.0049-.0586c.0977-.9453,.416-1.6953,.957-2.248,.54-.5537,1.208-.8193,2.0029-.7979,.6553,.0146,1.1758,.2285,1.5605,.6416,.3848,.4141,.5732,.959,.5664,1.6357h-1.4131c0-.3115-.0674-.5566-.2031-.7354-.1367-.1797-.3408-.2764-.6133-.291-.7227-.0215-1.1611,.5068-1.3154,1.585-.0537,.3906-.0732,.7197-.0596,.9883,.0361,.627,.3047,.9453,.8066,.9561Z"/><path class="cls-8" d="M252.3867,10.6475l-.252,1.4287h.9668l-.1992,1.1387h-.9668l-.4941,2.9111c-.0215,.1826-.0068,.3223,.043,.4189,.0508,.0967,.1719,.1484,.3652,.1553,.0576,.0039,.2119-.0049,.4629-.0264l-.1074,1.1865c-.2695,.0898-.5586,.1309-.8711,.124-.4971-.0068-.8682-.1631-1.1113-.4678-.2432-.3037-.3438-.7158-.3008-1.2344l.5-3.0674h-.8223l.1992-1.1387h.8213l.2471-1.4287h1.5195Z"/><path class="cls-8" d="M256.8467,17.2861c-.4297,.4834-.9639,.7197-1.6016,.709-.5586-.0068-.9805-.208-1.2676-.6016-.2861-.3936-.3965-.9131-.332-1.5576l.6279-3.7598h1.5146l-.6387,3.7803c-.0146,.1182-.0166,.2295-.0059,.333,.0361,.3584,.2344,.5439,.5957,.5537,.4697,.0146,.8584-.166,1.166-.543l.7246-4.124h1.5254l-1.0098,5.8115h-1.4121l.1133-.6016Z"/><path class="cls-8" d="M262.9111,17.8877c-.0469-.1465-.0664-.3223-.0596-.5264-.4365,.4365-.9307,.6484-1.4824,.6338-.5088-.0068-.9297-.1729-1.2646-.4971s-.4922-.7236-.4707-1.2002c.0254-.6338,.291-1.1201,.7979-1.458,.5068-.3389,1.1865-.5078,2.0381-.5078l.709,.0107,.0762-.3496c.0215-.1172,.0264-.2305,.0156-.3379-.0176-.168-.0811-.2998-.1904-.3945s-.2539-.1445-.4326-.1484c-.2363-.0068-.4365,.0518-.6016,.1748-.165,.124-.2705,.3018-.3164,.5342l-1.5205,.0059c.0254-.5547,.2803-1.0049,.7656-1.3506s1.084-.5146,1.7959-.5078c.6592,.0146,1.1748,.21,1.5469,.5879,.373,.3779,.5283,.8643,.4678,1.458l-.4463,2.7832-.0264,.3438c-.0068,.2539,.0234,.4688,.0908,.6445l-.0049,.1016h-1.4873Zm-1.166-1.0684c.4365,.0137,.8184-.1758,1.1445-.5703l.1875-1.0039-.5264-.0059c-.5586,.0146-.9619,.1846-1.208,.5107-.0898,.1182-.1455,.2627-.167,.4346-.0283,.1934,.0117,.3467,.1211,.46,.1094,.1123,.2588,.1709,.4482,.1748Z"/><path class="cls-8" d="M268.6699,10.6475l-.252,1.4287h.9668l-.1992,1.1387h-.9668l-.4941,2.9111c-.0215,.1826-.0068,.3223,.043,.4189,.0508,.0967,.1719,.1484,.3652,.1553,.0576,.0039,.2119-.0049,.4629-.0264l-.1074,1.1865c-.2695,.0898-.5586,.1309-.8711,.124-.4971-.0068-.8682-.1631-1.1113-.4678-.2432-.3037-.3438-.7158-.3008-1.2344l.5-3.0674h-.8223l.1992-1.1387h.8213l.2471-1.4287h1.5195Z"/><path class="cls-8" d="M272.6943,11.9688c.5117,.0068,.9531,.1387,1.3242,.3945,.3701,.2559,.6426,.6094,.8164,1.0586s.2354,.9482,.1846,1.4951c-.082,.9238-.4033,1.6719-.9639,2.2432s-1.252,.8496-2.0752,.835c-.5059-.0068-.9424-.1367-1.3105-.3896-.3691-.252-.6416-.6025-.8164-1.0498-.1758-.4473-.2383-.9414-.1885-1.4824,.0928-.96,.4189-1.7227,.9775-2.2881s1.2422-.8379,2.0518-.8164Zm-1.5303,3.6543c.0068,.3428,.0869,.6143,.2412,.8125s.3701,.3008,.6494,.3076c.4658,.0146,.8311-.1992,1.0957-.6406,.2656-.4414,.3887-1.0215,.3711-1.7402-.0146-.3428-.0977-.6172-.25-.8232-.1523-.2051-.3691-.3115-.6523-.3193-.4512-.0137-.8115,.1982-1.082,.6357-.2705,.4385-.3945,1.0273-.373,1.7676Z"/><path class="cls-8" d="M279.71,13.5322c-.208-.0361-.3779-.0547-.5098-.0547-.541-.0137-.9688,.1885-1.2842,.6074l-.6709,3.8027h-1.5156l1.0098-5.8115,1.4238-.0049-.1396,.709c.3652-.5488,.8164-.8223,1.3535-.8223,.1504,0,.3262,.0254,.5264,.0752l-.1934,1.499Z"/></g><g><rect class="cls-6" x="199.625" y=".5" width="31.5" height="31.5" rx="10.7265" ry="10.7265"/><circle class="cls-7" cx="215.375" cy="16.25" r="12.5"/></g></g><rect class="cls-4" x="5.9562" y="72.0067" width="244.9846" height="177.4671" rx="10" ry="10"/><g><rect class="cls-1" x="135.1511" y="167.0271" width="108.6038" height="74.9592" rx="10" ry="10"/><g><path class="cls-8" d="M176.3955,198.8516c0-.2793,.1826-.4189,.5488-.4189h.8623c.0713,0,.1416,.0049,.21,.0146,.0684,.0107,.1279,.0205,.1797,.0303,.0508,.0107,.0986,.0332,.1445,.0693,.0459,.0352,.085,.0605,.1182,.0762s.0674,.0498,.1035,.1025c.0352,.0537,.0605,.0879,.0762,.1035,.0146,.0156,.0391,.0596,.0723,.1338,.0332,.0732,.0518,.1152,.0576,.126,.0049,.0098,.0225,.0566,.0527,.1406,.0312,.084,.0459,.1309,.0459,.1416l2.9229,7.9502c.1016-.3867,1.0654-3.0264,2.8916-7.9199,.0713-.209,.124-.3525,.1602-.4316,.0352-.0781,.0947-.1699,.1787-.2744s.1855-.1738,.3057-.21c.1191-.0352,.2734-.0527,.4619-.0527h.6562c.3555,0,.5332,.1396,.5332,.4189,0,.0615-.0195,.1553-.0605,.2822l-3.4414,9.2324c-.0605,.168-.1074,.2891-.1406,.3623-.0332,.0742-.0879,.1631-.1641,.2676s-.1748,.1768-.2939,.2168c-.1201,.041-.2734,.0615-.4619,.0615h-1.4268c-.1172,0-.2236-.0078-.3203-.0225-.0967-.0156-.1797-.0479-.248-.0957-.0684-.0488-.123-.083-.1641-.1035-.041-.0195-.084-.0742-.1299-.1641-.0459-.0889-.0771-.1436-.0947-.1641-.0186-.0195-.0479-.0869-.0879-.2021-.041-.1143-.0615-.1768-.0615-.1865l-3.4258-9.2021c-.041-.127-.0605-.2207-.0605-.2822Z"/><path class="cls-8" d="M188.8467,208.4121v-9.293c0-.458,.2363-.6865,.71-.6865h1.2744c.4268,0,.7344,.1445,.9229,.4346,.0811,.1377,.6133,1.4111,1.5947,3.8223s1.5391,3.8359,1.6709,4.2734c.1016-.377,1.1289-2.9502,3.082-7.7217,.082-.1885,.1465-.3232,.1953-.4043,.0479-.082,.1475-.1689,.2969-.2637,.1504-.0938,.3447-.1406,.584-.1406h1.3887c.4678,0,.7041,.2393,.71,.7168v9.377c0,.2393-.0469,.4238-.1416,.5537-.0938,.1299-.2881,.1943-.584,.1943h-.4951c-.1787,0-.3193-.0225-.4238-.0684s-.1738-.1211-.21-.2256c-.0352-.1045-.0557-.1855-.0605-.2441-.0059-.0586-.0078-.1484-.0078-.2705v-7.6455c0-.0508-.0029-.123-.0078-.2178-.0049-.0938-.0078-.166-.0078-.2168-.1016,.4775-1.1191,3.0488-3.0518,7.7139-.1475,.3555-.2988,.583-.4541,.6826s-.3672,.1484-.6367,.1484h-.3135c-.1367,0-.2529-.0068-.3467-.0225-.0947-.0156-.1816-.0518-.2637-.1104-.0811-.0586-.1455-.1084-.1943-.1494-.0479-.04-.1055-.1328-.1719-.2783-.0654-.1445-.1201-.2646-.1641-.3584-.043-.0938-.1113-.2646-.2061-.5117-.0938-.2461-.1768-.4512-.248-.6133l-1.625-4.0215c-.5186-1.3633-.8164-2.1895-.8926-2.4795v8.1719c0,.4775-.2344,.7168-.7021,.7168h-.5107c-.1787,0-.3193-.0225-.4238-.0684s-.1748-.1211-.2139-.2256c-.0381-.1045-.0596-.1875-.0645-.252-.0049-.0635-.0078-.1689-.0078-.3164Z"/></g></g><g><rect class="cls-2" x="12.7517" y="167.0271" width="108.6038" height="74.9592" rx="10" ry="10"/><g><path class="cls-8" d="M45.1143,200.5312v-9.3926c0-.498,.2188-.7471,.6562-.7471h3.7539c.6152,0,1.165,.0352,1.6484,.1064s.9824,.2217,1.499,.4502,.9463,.5391,1.2891,.9307c.3438,.3916,.625,.9287,.8438,1.6104s.3281,1.4873,.3281,2.418c0,.9668-.1348,1.7998-.4043,2.499s-.5908,1.2266-.9619,1.5801-.835,.6318-1.3926,.835c-.5566,.2031-1.0225,.3232-1.3955,.3584-.374,.0361-.8027,.0537-1.2861,.0537h-3.8535c-.2285,0-.4062-.0469-.5332-.1416-.1279-.0938-.1914-.2803-.1914-.5605Zm2.1748-.6406h1.7324c.5078,0,.9307-.0176,1.2666-.0537,.335-.0352,.709-.1523,1.1211-.3506s.7422-.4805,.9922-.8467c.3555-.5391,.541-1.3457,.5566-2.4189v-.1758c0-.498-.0127-.9043-.0381-1.2168s-.0977-.6807-.2178-1.1025c-.1191-.4219-.293-.7578-.5225-1.0068-.2285-.25-.5645-.4707-1.0068-.6641s-.9766-.2998-1.6025-.3203h-2.2656l-.0156,.4502v7.7061Z"/><path class="cls-8" d="M56.5674,197.5938c0-1.2715,.3398-2.2197,1.0205-2.8457,.6797-.626,1.6123-.9385,2.7979-.9385,.6582,0,1.2207,.0967,1.6865,.29s.8223,.459,1.0684,.7969c.2461,.3389,.4209,.6963,.5254,1.0723,.1045,.377,.1572,.7939,.1572,1.251,0,.4482-.2363,.6719-.71,.6719h-4.4561c.041,1.582,.7002,2.373,1.9795,2.373,.4805,0,.9189-.0752,1.3174-.2256,.3975-.1494,.7227-.3164,.9766-.5,.2529-.1826,.4023-.2793,.4473-.2891h.0674l.084,.0303c.0557,.0508,.0996,.168,.1299,.3506,.0312,.1836,.0459,.3535,.0459,.5117l.0176,.2285c0,.1377-.0889,.252-.2656,.3438-.8486,.457-1.7988,.6885-2.8506,.6943-1.3232,0-2.3271-.3232-3.0117-.9697-.6855-.6455-1.0273-1.5938-1.0273-2.8457Zm2.1055-.7168h3.2275c-.0303-.6055-.1494-1.0771-.3574-1.416-.209-.3379-.5938-.5068-1.1572-.5068-1.0156,0-1.5859,.6406-1.7129,1.9229Z"/><path class="cls-8" d="M65.0205,200.5166v-9.8428c0-.2295,.0498-.4072,.1484-.5342,.0996-.127,.2891-.1914,.5684-.1914h.6875c.457,0,.6865,.2295,.6865,.6885v3.8984c.6562-.4229,1.3809-.6338,2.1748-.6338,1.4863,0,2.417,.7051,2.793,2.1172,.1162,.4287,.1748,.9893,.1748,1.6816v.0459c0,.7109-.0977,1.3135-.293,1.8086s-.4619,.873-.7998,1.1348c-.3369,.2617-.6875,.4463-1.0508,.5557-.3623,.1094-.7627,.1641-1.1982,.1641-.6562,0-1.2471-.1982-1.7705-.5957-.0811,.168-.167,.2803-.2559,.3359s-.2324,.084-.4307,.084h-.7178c-.4775,0-.7168-.2393-.7168-.7168Zm2.1367-.8604l.0527,.0605c.041,.04,.0693,.0693,.084,.0879,.0156,.0176,.0459,.0469,.0918,.0869,.0459,.041,.085,.0713,.1182,.0918,.0332,.0195,.0752,.0488,.126,.0869s.1006,.0645,.1484,.0801c.0488,.0156,.1035,.0332,.1641,.0527,.0615,.0205,.1289,.0361,.2021,.0459,.0742,.0107,.1514,.0156,.2334,.0156,.3359,0,.6201-.0596,.8545-.1787,.2334-.1191,.4053-.251,.5146-.3955s.1943-.3555,.2559-.6318c.0605-.2764,.0957-.4941,.1025-.6543,.0078-.1602,.0117-.3916,.0117-.6963v-.1211c0-.3096-.0059-.5557-.0186-.7383s-.0449-.4043-.0957-.666c-.0508-.2607-.1289-.4609-.2324-.6006-.1045-.1396-.2607-.2637-.4697-.373-.208-.1084-.458-.1631-.748-.1631-.4883,0-.9531,.1826-1.3955,.5479v4.0625Z"/><path class="cls-8" d="M73.7637,199.0586v-4.2949c0-.458,.2295-.6875,.6875-.6875h.7168c.2285,0,.4004,.0479,.5146,.1416,.1152,.0938,.1768,.1758,.1875,.2441,.0098,.0684,.0205,.1738,.0303,.3164v4.1582c0,.041-.0029,.1035-.0078,.1875s-.0078,.1455-.0078,.1865c0,.458,.0576,.7627,.1719,.916,.1143,.1523,.3906,.2285,.8281,.2285,.417,0,.7949-.1533,1.1328-.4619,.3389-.3076,.5078-.8379,.5078-1.5908v-3.5098c0-.1572,.0059-.2754,.0186-.3545s.0293-.1338,.0498-.1641,.0664-.084,.1377-.1602c.1182-.0918,.2969-.1377,.5361-.1377h.6895c.46,0,.6943,.2188,.7041,.6562v5.8291c0,.4482-.2344,.6719-.7041,.6719h-.7354c-.4287,0-.6436-.2285-.6436-.6865-.3555,.3457-.7109,.5762-1.0635,.6904-.3545,.1143-.7695,.1719-1.248,.1719-.458,0-.8516-.0498-1.1826-.1494-.3311-.0986-.5791-.2168-.7441-.3545s-.2949-.3232-.3887-.5566c-.0947-.2344-.1494-.4375-.1641-.6104-.0156-.1729-.0234-.3994-.0234-.6797Z"/><path class="cls-8" d="M81.9736,202.2422c0-.6523,.2998-1.1338,.9004-1.4463-.2852-.4014-.4277-.8086-.4277-1.2207,0-.4443,.1484-.8789,.4434-1.3027l-.0166-.0312c-.4219-.4775-.6328-1.0576-.6328-1.7383,0-.3008,.04-.584,.1191-.8496s.2217-.5391,.4268-.8223c.2041-.2832,.5322-.5088,.9824-.6777,.4512-.168,1.001-.252,1.6514-.252h.0459c.4199,0,.7783,.0342,1.0752,.1025s.5176,.1348,.6611,.1982c.1426,.0635,.2354,.0957,.2764,.0957,.0293,0,.1387-.0322,.3301-.0957,.1904-.0635,.4424-.1299,.7539-.1982s.6123-.1025,.9023-.1025c.1475,0,.2422,.04,.2822,.1191,.041,.0801,.0869,.2744,.1377,.584,.0098,.082,.0225,.1494,.0381,.2002,.0098,.2012-.0791,.3018-.2666,.3018-.0205,0-.0781-.0078-.1719-.0225-.0947-.0156-.2227-.0283-.3857-.0381-.1621-.0107-.3379-.0156-.5264-.0156l-.4043,.0156c.2393,.4951,.3594,.9766,.3594,1.4414,0,1.7295-1.0312,2.5947-3.0938,2.5947-.666,0-1.2656-.1064-1.7988-.3193-.0654,.1191-.0967,.2207-.0967,.3037,0,.5039,.3145,.7578,.9453,.7627h1.377c.3916,0,.708,.0059,.9492,.0156s.5361,.0371,.8857,.082c.3486,.0459,.6289,.1191,.8398,.2217,.2109,.1035,.4219,.2393,.6338,.4102,.2109,.1699,.3652,.3936,.4629,.6689s.1475,.6035,.1475,.9844c0,.9072-.4727,1.5449-1.416,1.9121-.5674,.2197-1.376,.3291-2.4258,.3291-.2324,0-.4248-.0029-.5771-.0078-.1514-.0049-.374-.0176-.665-.0381-.292-.0205-.5459-.0625-.7627-.126s-.4473-.1426-.6895-.2373-.457-.2275-.6426-.3975c-.1855-.1719-.3301-.3662-.4336-.5859-.1289-.2549-.1934-.5283-.1934-.8184Zm1.6094-.0303c0,.7314,.7725,1.0967,2.3164,1.0967h.0605c.5762,0,1.0381-.0615,1.3877-.1855,.3486-.123,.5732-.2549,.6719-.3936,.0996-.1387,.1494-.291,.1494-.457,0-.2979-.1719-.501-.5156-.6094s-.8906-.1631-1.6396-.1631h-1.5361c-.4385,0-.7109,.1084-.8174,.3262-.0518,.1006-.0771,.2295-.0771,.3857Zm.748-5.5957c0,.4355,.0693,.7646,.209,.9873s.4404,.334,.9014,.334c.4668,0,.7764-.0986,.9316-.2959,.1543-.1973,.2314-.5391,.2314-1.0254v-.25c0-.4453-.0723-.7764-.2168-.9941s-.4395-.3262-.8857-.3262c-.4561,0-.7656,.0986-.9277,.2959s-.2432,.5391-.2432,1.0244v.25Z"/><path class="cls-8" d="M39.9443,215.9971v-9.293c0-.458,.2363-.6865,.71-.6865h1.2744c.4268,0,.7344,.1445,.9229,.4346,.0811,.1377,.6133,1.4111,1.5947,3.8223s1.5391,3.8359,1.6709,4.2734c.1016-.377,1.1289-2.9502,3.082-7.7217,.082-.1885,.1465-.3232,.1953-.4043,.0479-.082,.1475-.1689,.2969-.2637,.1504-.0938,.3447-.1406,.584-.1406h1.3887c.4678,0,.7041,.2393,.71,.7168v9.377c0,.2393-.0469,.4238-.1416,.5537-.0938,.1299-.2881,.1943-.584,.1943h-.4951c-.1787,0-.3193-.0225-.4238-.0684s-.1738-.1211-.21-.2256c-.0352-.1045-.0557-.1855-.0605-.2441-.0059-.0586-.0078-.1484-.0078-.2705v-7.6455c0-.0508-.0029-.123-.0078-.2178-.0049-.0938-.0078-.166-.0078-.2168-.1016,.4775-1.1191,3.0488-3.0518,7.7139-.1475,.3555-.2988,.583-.4541,.6826s-.3672,.1484-.6367,.1484h-.3135c-.1367,0-.2529-.0068-.3467-.0225-.0947-.0156-.1816-.0518-.2637-.1104-.0811-.0586-.1455-.1084-.1943-.1494-.0479-.04-.1055-.1328-.1719-.2783-.0654-.1445-.1201-.2646-.1641-.3584-.043-.0938-.1113-.2646-.2061-.5117-.0938-.2461-.1768-.4512-.248-.6133l-1.625-4.0215c-.5186-1.3633-.8164-2.1895-.8926-2.4795v8.1719c0,.4775-.2344,.7168-.7021,.7168h-.5107c-.1787,0-.3193-.0225-.4238-.0684s-.1748-.1211-.2139-.2256c-.0381-.1045-.0596-.1875-.0645-.252-.0049-.0635-.0078-.1689-.0078-.3164Z"/><path class="cls-8" d="M54.2666,213.3574c0-.748,.1016-1.3877,.3047-1.9189s.4824-.9385,.8379-1.2207,.7305-.4834,1.124-.6035c.3936-.1191,.8291-.1787,1.3066-.1787,.2695,0,.5068,.0049,.7129,.0146,.2061,.0107,.4561,.0449,.751,.1035s.5518,.1396,.7705,.2441,.4482,.2559,.6895,.4541c.2422,.1982,.4404,.4326,.5947,.7021,.1553,.2695,.2822,.6152,.3818,1.0371,.0986,.4229,.1484,.8984,.1484,1.4268,0,2.4062-1.2656,3.6113-3.7959,3.6172-2.5508-.0059-3.8262-1.2314-3.8262-3.6777Zm2.1357,.1602c.0107,.2695,.0205,.4717,.0312,.6064,.0098,.1348,.0469,.3311,.1104,.5879s.1484,.4502,.2529,.5791c.1045,.1299,.2656,.25,.4854,.3594,.2188,.1094,.4854,.1641,.7988,.1641s.5801-.0547,.7988-.1641c.2197-.1094,.3838-.2354,.4941-.3779,.1094-.1426,.1943-.3359,.2559-.5801,.0605-.2441,.0967-.4512,.1064-.6221,.0107-.1699,.0156-.3877,.0156-.6523v-.541c0-.2188-.0049-.3828-.0156-.4922-.0098-.1094-.0273-.2734-.0527-.4922s-.0752-.3906-.1494-.5156c-.0742-.124-.1709-.2578-.291-.4004-.1191-.1426-.2783-.2441-.4775-.3047-.1992-.0615-.4336-.0918-.7031-.0918-.3213,0-.5947,.0566-.8184,.1719-.2246,.1143-.3887,.2412-.4932,.3809-.1045,.1406-.1865,.3486-.2451,.626s-.0908,.4912-.0957,.6406c-.0049,.1504-.0078,.3809-.0078,.6904v.4277Z"/><path class="cls-8" d="M63.3154,216.1572v-5.8291c0-.1982,.042-.3545,.126-.4697,.084-.1143,.1689-.1816,.2559-.2021,.0869-.0195,.1934-.0303,.3203-.0303h.626c.1016,0,.1816,.0049,.2402,.0156,.0586,.0098,.1318,.0332,.2217,.0684,.0889,.0361,.1533,.1035,.1943,.2021,.04,.0996,.0605,.2275,.0605,.3857v.3125c.7188-.7168,1.5645-1.0781,2.5371-1.083,.377,0,.7031,.0342,.9785,.1025s.4941,.1729,.6572,.3125c.1631,.1406,.2939,.2764,.3936,.4082,.0996,.1328,.167,.3154,.2021,.5498,.0361,.2344,.0586,.4209,.0693,.5605,.0098,.1406,.0146,.335,.0146,.584v4.1279c0,.458-.2246,.6865-.6738,.6865h-.7344c-.2812,0-.4727-.0596-.5752-.1797-.1016-.1191-.1523-.2881-.1523-.5068v-4.2803c0-.1582-.0029-.2783-.0078-.3623s-.0234-.1885-.0537-.3135c-.0303-.124-.0762-.2207-.1367-.29-.0615-.0684-.1533-.1279-.2754-.1787s-.2695-.0762-.4424-.0762c-.4375,0-.792,.1318-1.0645,.3965-.2715,.2646-.4541,.5547-.5449,.8701-.0615,.2285-.0947,.5078-.0996,.8389v3.25c0,.0205-.0029,.0498-.0078,.0879s-.0205,.1074-.0459,.2061c-.0254,.0996-.0586,.1846-.0986,.2559-.041,.0713-.1113,.1357-.21,.1943-.0996,.0586-.2178,.0879-.3545,.0879h-.6875c-.4883,0-.7324-.2344-.7324-.7021Z"/><path class="cls-8" d="M72.0293,207.0781v-.7783c0-.168,.0176-.3037,.0527-.4082,.0361-.1045,.1006-.1787,.1943-.2217,.0947-.043,.1641-.0674,.21-.0723s.127-.0127,.2441-.0234h.7939c.2188,0,.3936,.0498,.5264,.1494,.1318,.0986,.1982,.291,.1982,.5762v.8086c0,.0811-.0088,.1562-.0264,.2246-.0186,.0693-.04,.126-.0654,.1719s-.0557,.0879-.0908,.126c-.0361,.0381-.0732,.0645-.1113,.0801s-.0801,.0303-.126,.0459c-.0449,.0156-.0811,.0225-.1064,.0225s-.0586,.0059-.0996,.0156h-.877c-.2188,0-.3926-.0498-.5225-.1484-.1299-.0996-.1943-.2891-.1943-.5684Zm.0605,9.0029v-5.6768c0-.4678,.2285-.7021,.6865-.7021h.6406c.2295,0,.4033,.042,.5234,.126,.1191,.084,.1895,.1729,.21,.2676,.0195,.0938,.0303,.2227,.0303,.3848v5.6768c0,.4678-.2295,.7021-.6865,.7021h-.7178c-.2188,0-.3828-.0518-.4922-.1562s-.1689-.1973-.1787-.2783c-.0107-.082-.0156-.1963-.0156-.3438Z"/><path class="cls-8" d="M75.4922,210.2666c0-.376,.2227-.5645,.667-.5645h.3633v-1.3428c0-.4678,.2559-.7021,.7666-.7021h.5654c.4756,0,.7129,.2344,.7129,.7021v1.3428h1.4062c.1855,0,.335,.042,.4473,.126,.1133,.084,.1816,.1621,.207,.2334s.0371,.1436,.0371,.2168c0,.0742-.0117,.1475-.0371,.2217-.0254,.0732-.0918,.1494-.1992,.2285s-.249,.1182-.4248,.1182h-1.4365v3.1211c0,.0508-.0029,.1182-.0078,.2021s-.0078,.1514-.0078,.2021c0,.5547,.0518,.9336,.1562,1.1367s.2715,.3057,.5,.3057c.29,0,.5928-.0918,.9082-.2754,.3154-.1826,.4834-.2744,.5039-.2744,.0703,0,.1357,.0723,.1943,.2178,.0586,.1445,.1025,.291,.1338,.4385l.0303,.2061c0,.1982-.3262,.3994-.9766,.6025-.6514,.2031-1.2764,.3057-1.876,.3057-.7744,0-1.2754-.377-1.502-1.1299-.0928-.3096-.1426-.7832-.1475-1.4189v-3.6396h-.3184c-.4434,0-.666-.1934-.666-.5801Z"/><path class="cls-8" d="M81.9092,213.3574c0-.748,.1016-1.3877,.3047-1.9189s.4824-.9385,.8379-1.2207,.7305-.4834,1.124-.6035c.3936-.1191,.8291-.1787,1.3066-.1787,.2695,0,.5068,.0049,.7129,.0146,.2061,.0107,.4561,.0449,.751,.1035s.5518,.1396,.7705,.2441,.4482,.2559,.6895,.4541c.2422,.1982,.4404,.4326,.5947,.7021,.1553,.2695,.2822,.6152,.3818,1.0371,.0986,.4229,.1484,.8984,.1484,1.4268,0,2.4062-1.2656,3.6113-3.7959,3.6172-2.5508-.0059-3.8262-1.2314-3.8262-3.6777Zm2.1357,.1602c.0107,.2695,.0205,.4717,.0312,.6064,.0098,.1348,.0469,.3311,.1104,.5879s.1484,.4502,.2529,.5791c.1045,.1299,.2656,.25,.4854,.3594,.2188,.1094,.4854,.1641,.7988,.1641s.5801-.0547,.7988-.1641c.2197-.1094,.3838-.2354,.4941-.3779,.1094-.1426,.1943-.3359,.2559-.5801,.0605-.2441,.0967-.4512,.1064-.6221,.0107-.1699,.0156-.3877,.0156-.6523v-.541c0-.2188-.0049-.3828-.0156-.4922-.0098-.1094-.0273-.2734-.0527-.4922s-.0752-.3906-.1494-.5156c-.0742-.124-.1709-.2578-.291-.4004-.1191-.1426-.2783-.2441-.4775-.3047-.1992-.0615-.4336-.0918-.7031-.0918-.3213,0-.5947,.0566-.8184,.1719-.2246,.1143-.3887,.2412-.4932,.3809-.1045,.1406-.1865,.3486-.2451,.626s-.0908,.4912-.0957,.6406c-.0049,.1504-.0078,.3809-.0078,.6904v.4277Z"/><path class="cls-8" d="M90.4932,216.1875v-5.8594c0-.2998,.0645-.4922,.1943-.5762s.3037-.126,.5225-.126h.5195c.2793,0,.4883,.0654,.625,.1963,.0713,.0811,.1123,.1641,.1221,.249,.0107,.0859,.0205,.3223,.0312,.709,.249-.3418,.5498-.6152,.9043-.8193,.3525-.2031,.6318-.3271,.835-.3701,.2031-.042,.3838-.0635,.542-.0635h.0146c.1377,0,.2246,.0264,.2598,.0791s.0537,.1416,.0537,.2676v.8613c0,.1162-.0254,.209-.0762,.2793-.0615,.0508-.1992,.0908-.4121,.1191-.2139,.0273-.4043,.0674-.5723,.1182-.3564,.1279-.6641,.3213-.9238,.5811-.2588,.2607-.4268,.5615-.5029,.9033-.0312,.1377-.0459,.3359-.0459,.5967v2.7461c0,.2197-.0156,.3623-.0459,.4287-.0303,.0654-.1094,.1523-.2363,.2598-.1279,.0615-.2725,.0918-.4355,.0918h-.6709c-.2803,0-.4668-.0625-.5605-.1865-.0947-.125-.1416-.2861-.1416-.4854Z"/></g></g><g class="cls-9"><rect class="cls-7" x="12.7896" y="78.8719" width="230.9653" height="74.9592" rx="10" ry="10"/><g><g><path class="cls-8" d="M87.7803,117.8125c0-.0713,.0205-.1699,.0605-.2969l3.3115-9.4082c.082-.2393,.1914-.418,.3281-.5381,.1377-.1191,.3564-.1787,.6562-.1787h1.4121c.1875,0,.3438,.0195,.4688,.0605s.2295,.126,.3125,.2559c.084,.1299,.1367,.2188,.1572,.2666,.0195,.0488,.0605,.167,.1221,.3555l3.2344,9.2168c.041,.127,.0615,.2158,.0615,.2666,0,.2803-.1934,.4199-.5801,.4199h-.8242c-.0908,0-.1738-.0029-.248-.0078-.0732-.0049-.1445-.0254-.2129-.0605-.0693-.0361-.124-.0674-.1641-.0957-.041-.0283-.0879-.085-.1416-.1719-.0537-.0859-.0957-.1592-.126-.2168-.0303-.0586-.0752-.1631-.1338-.3135-.0586-.1494-.1055-.2793-.1406-.3887-.0361-.1094-.0928-.2764-.1719-.5s-.1484-.4248-.21-.6025h-4.4561c-.0713,.1885-.1455,.4043-.2246,.6484s-.1387,.4229-.1797,.5381c-.04,.1143-.0898,.2461-.1484,.3965s-.1084,.2568-.1484,.3203c-.041,.0635-.0908,.1348-.1494,.2139s-.1182,.1279-.1787,.1484c-.0615,.0205-.1338,.041-.2178,.0615s-.1816,.0303-.2939,.0303h-.5801c-.3965,0-.5947-.1396-.5947-.4199Zm3.1895-3.2803h3.5176c-1.0635-3.042-1.6484-4.7715-1.7549-5.1885-.1025,.376-.6895,2.1055-1.7627,5.1885Z"/><path class="cls-8" d="M99.5146,120.5596v-8.7666c0-.4785,.2344-.7178,.7021-.7178h.6562c.3965,0,.6357,.1631,.7168,.4883,.707-.4375,1.4727-.6582,2.2969-.6631,1.4297,0,2.3271,.6992,2.6934,2.0977,.1113,.4375,.168,.9873,.168,1.6484v.084c0,.707-.0967,1.3105-.29,1.8115-.1934,.502-.459,.8828-.7979,1.1445-.3379,.2627-.6885,.4482-1.0527,.5576-.3633,.1094-.7637,.1641-1.2012,.1641-.6357,0-1.2207-.1934-1.7549-.5801v2.7012c0,.29-.0605,.4863-.1797,.5908s-.3037,.1562-.5527,.1562h-.7178c-.458,0-.6865-.2383-.6865-.7168Zm2.1367-3.8916l.084,.0918c.0605,.0508,.1064,.0928,.1367,.126,.0312,.0332,.083,.0791,.1562,.1377,.0742,.0586,.1475,.1006,.2217,.126,.0732,.0254,.1631,.0508,.2666,.0762,.1045,.0254,.2129,.0381,.3252,.0381,.6152,0,1.0674-.2295,1.3574-.6865,.2695-.4277,.4072-1.0732,.4121-1.9385v-.1904c0-1.5518-.5312-2.3271-1.5947-2.3271-.1016,0-.1982,.0049-.29,.0146-.0908,.0107-.1777,.0293-.2588,.0576-.082,.0283-.1494,.0518-.2021,.0723-.0537,.0205-.1201,.0537-.1992,.0996-.0781,.0459-.1279,.0732-.1484,.084-.0205,.0098-.0713,.043-.1523,.0986l-.1143,.0918v4.0283Z"/><path class="cls-8" d="M108.2744,120.5596v-8.7666c0-.4785,.2344-.7178,.7021-.7178h.6562c.3965,0,.6357,.1631,.7168,.4883,.707-.4375,1.4727-.6582,2.2969-.6631,1.4297,0,2.3271,.6992,2.6934,2.0977,.1113,.4375,.168,.9873,.168,1.6484v.084c0,.707-.0967,1.3105-.29,1.8115-.1934,.502-.459,.8828-.7979,1.1445-.3379,.2627-.6885,.4482-1.0527,.5576-.3633,.1094-.7637,.1641-1.2012,.1641-.6357,0-1.2207-.1934-1.7549-.5801v2.7012c0,.29-.0605,.4863-.1797,.5908s-.3037,.1562-.5527,.1562h-.7178c-.458,0-.6865-.2383-.6865-.7168Zm2.1367-3.8916l.084,.0918c.0605,.0508,.1064,.0928,.1367,.126,.0312,.0332,.083,.0791,.1562,.1377,.0742,.0586,.1475,.1006,.2217,.126,.0732,.0254,.1631,.0508,.2666,.0762,.1045,.0254,.2129,.0381,.3252,.0381,.6152,0,1.0674-.2295,1.3574-.6865,.2695-.4277,.4072-1.0732,.4121-1.9385v-.1904c0-1.5518-.5312-2.3271-1.5947-2.3271-.1016,0-.1982,.0049-.29,.0146-.0908,.0107-.1777,.0293-.2588,.0576-.082,.0283-.1494,.0518-.2021,.0723-.0537,.0205-.1201,.0537-.1992,.0996-.0781,.0459-.1279,.0732-.1484,.084-.0205,.0098-.0713,.043-.1523,.0986l-.1143,.0918v4.0283Z"/><path class="cls-8" d="M117.0332,117.5303v-9.8428c0-.4883,.2188-.7344,.6562-.7402h.7168c.4785,0,.7178,.2373,.7178,.71v9.8125c0,.127-.0049,.2266-.0156,.2969-.0098,.0713-.0352,.1465-.0762,.2256s-.1104,.1357-.21,.1719c-.0986,.0352-.2324,.0586-.4004,.0684h-.6406c-.2393,0-.4238-.0469-.5537-.1416-.1299-.0938-.1943-.2803-.1943-.5605Z"/><path class="cls-8" d="M120.9561,108.4512v-.7783c0-.168,.0176-.3037,.0527-.4082,.0361-.1045,.1006-.1787,.1943-.2217,.0947-.043,.1641-.0674,.21-.0723s.127-.0127,.2441-.0234h.7939c.2188,0,.3936,.0498,.5264,.1494,.1318,.0986,.1982,.291,.1982,.5762v.8086c0,.0811-.0088,.1562-.0264,.2246-.0186,.0693-.04,.126-.0654,.1719s-.0557,.0879-.0908,.126c-.0361,.0381-.0732,.0645-.1113,.0801s-.0801,.0303-.126,.0459c-.0449,.0156-.0811,.0225-.1064,.0225s-.0586,.0059-.0996,.0156h-.877c-.2188,0-.3926-.0498-.5225-.1484-.1299-.0996-.1943-.2891-.1943-.5684Zm.0605,9.0029v-5.6768c0-.4678,.2285-.7021,.6865-.7021h.6406c.2295,0,.4033,.042,.5234,.126,.1191,.084,.1895,.1729,.21,.2676,.0195,.0938,.0303,.2227,.0303,.3848v5.6768c0,.4678-.2295,.7021-.6865,.7021h-.7178c-.2188,0-.3828-.0518-.4922-.1562s-.1689-.1973-.1787-.2783c-.0107-.082-.0156-.1963-.0156-.3438Z"/><path class="cls-8" d="M124.625,114.6689c0-2.5732,1.2695-3.8604,3.8076-3.8604,.9053,0,1.75,.2139,2.5332,.6406,.0811,.0508,.124,.1348,.1299,.252-.0508,.8135-.1787,1.2207-.3818,1.2207-.0713,0-.2344-.1045-.4883-.3125-.2549-.209-.501-.3564-.7402-.4424-.2695-.0918-.6709-.1377-1.2051-.1377-.2803,.0098-.5215,.0771-.7256,.2021-.2031,.125-.3545,.2656-.4531,.4238-.0996,.1572-.1787,.3613-.2373,.6104s-.0898,.4482-.0947,.5986c-.0059,.1504-.0078,.3447-.0078,.584v.2969c0,.2598,.0049,.4736,.0146,.6416,.0107,.168,.0449,.376,.1035,.625,.0586,.25,.1426,.4502,.252,.6035,.1094,.1523,.2705,.2861,.4844,.4004s.4707,.1719,.7705,.1719c.376,0,.7207-.0498,1.0342-.1494,.3125-.0986,.5518-.208,.7168-.3281,.165-.1191,.3193-.2334,.4619-.3428s.2441-.1689,.3047-.1797l.0762,.0156c.0615,.04,.0986,.0977,.1113,.1719,.0127,.0732,.0439,.3799,.0947,.9189v.1299c0,.1475-.1035,.2773-.3125,.3887-.7627,.3975-1.6074,.5957-2.5332,.5957-2.4775-.0059-3.7158-1.252-3.7158-3.7393Z"/><path class="cls-8" d="M132.1641,116.0889c0-.4072,.1211-.7607,.3643-1.0605,.2432-.3008,.5352-.5342,.876-.7021,.3398-.168,.7432-.3018,1.209-.4004,.4658-.0996,.8691-.1641,1.21-.1953,.3408-.0303,.6846-.0459,1.0332-.0459v-.3193c0-.4355-.0742-.7803-.2207-1.0332-.1475-.2529-.4443-.3789-.8906-.3789-.4082,0-.7793,.0527-1.1133,.1572-.335,.1045-.582,.2217-.7432,.3506-.1602,.1289-.3115,.248-.4541,.3574-.1426,.1104-.248,.165-.3154,.165l-.0615-.0107-.0625-.0312c-.0312-.0508-.0596-.1777-.085-.3809-.0264-.2031-.0449-.3887-.0547-.5557l-.0234-.2666c0-.0508,.0039-.0889,.0117-.1143s.0273-.0547,.0586-.0879c.0303-.0332,.0537-.0547,.0693-.0645s.0615-.0303,.1357-.0615c.0752-.0303,.1338-.0557,.1758-.0771,.751-.3496,1.5723-.5244,2.4619-.5244,1.1895,0,2.0283,.2236,2.5156,.6709,.4883,.4482,.7314,1.0938,.7314,1.9385v4.1123c0,.4678-.2354,.7021-.707,.7021h-.7529c-.2305,0-.3955-.0625-.4961-.1865-.0996-.125-.1494-.2715-.1494-.4395-.6914,.5293-1.5,.7959-2.4268,.8018-.7012,0-1.2598-.2402-1.6748-.7217-.4141-.4805-.6211-1.0127-.6211-1.5977Zm2.0898,0c0,.2998,.0996,.5703,.2969,.8125,.1982,.2412,.457,.3623,.7764,.3623,.3545,0,.6982-.1123,1.0303-.3359s.499-.5898,.499-1.0986v-1.2207c-.3203,.0303-.5947,.0635-.8262,.0986-.2305,.0361-.502,.1035-.8135,.2021-.3125,.0996-.5508,.251-.7148,.4541-.165,.2041-.248,.4453-.248,.7256Z"/><path class="cls-8" d="M140.2588,111.6396c0-.376,.2227-.5645,.667-.5645h.3633v-1.3428c0-.4678,.2559-.7021,.7666-.7021h.5654c.4756,0,.7129,.2344,.7129,.7021v1.3428h1.4062c.1855,0,.335,.042,.4473,.126,.1133,.084,.1816,.1621,.207,.2334s.0371,.1436,.0371,.2168c0,.0742-.0117,.1475-.0371,.2217-.0254,.0732-.0918,.1494-.1992,.2285s-.249,.1182-.4248,.1182h-1.4365v3.1211c0,.0508-.0029,.1182-.0078,.2021s-.0078,.1514-.0078,.2021c0,.5547,.0518,.9336,.1562,1.1367s.2715,.3057,.5,.3057c.29,0,.5928-.0918,.9082-.2754,.3154-.1826,.4834-.2744,.5039-.2744,.0703,0,.1357,.0723,.1943,.2178,.0586,.1445,.1025,.291,.1338,.4385l.0303,.2061c0,.1982-.3262,.3994-.9766,.6025-.6514,.2031-1.2764,.3057-1.876,.3057-.7744,0-1.2754-.377-1.502-1.1299-.0928-.3096-.1426-.7832-.1475-1.4189v-3.6396h-.3184c-.4434,0-.666-.1934-.666-.5801Z"/><path class="cls-8" d="M147.0879,108.4512v-.7783c0-.168,.0176-.3037,.0527-.4082,.0361-.1045,.1006-.1787,.1943-.2217,.0947-.043,.1641-.0674,.21-.0723s.127-.0127,.2441-.0234h.7939c.2188,0,.3936,.0498,.5264,.1494,.1318,.0986,.1982,.291,.1982,.5762v.8086c0,.0811-.0088,.1562-.0264,.2246-.0186,.0693-.04,.126-.0654,.1719s-.0557,.0879-.0908,.126c-.0361,.0381-.0732,.0645-.1113,.0801s-.0801,.0303-.126,.0459c-.0449,.0156-.0811,.0225-.1064,.0225s-.0586,.0059-.0996,.0156h-.877c-.2188,0-.3926-.0498-.5225-.1484-.1299-.0996-.1943-.2891-.1943-.5684Zm.0605,9.0029v-5.6768c0-.4678,.2285-.7021,.6865-.7021h.6406c.2295,0,.4033,.042,.5234,.126,.1191,.084,.1895,.1729,.21,.2676,.0195,.0938,.0303,.2227,.0303,.3848v5.6768c0,.4678-.2295,.7021-.6865,.7021h-.7178c-.2188,0-.3828-.0518-.4922-.1562s-.1689-.1973-.1787-.2783c-.0107-.082-.0156-.1963-.0156-.3438Z"/><path class="cls-8" d="M150.6592,114.7305c0-.748,.1016-1.3877,.3047-1.9189s.4824-.9385,.8379-1.2207,.7305-.4834,1.124-.6035c.3936-.1191,.8291-.1787,1.3066-.1787,.2695,0,.5068,.0049,.7129,.0146,.2061,.0107,.4561,.0449,.751,.1035s.5518,.1396,.7705,.2441,.4482,.2559,.6895,.4541c.2422,.1982,.4404,.4326,.5947,.7021,.1553,.2695,.2822,.6152,.3818,1.0371,.0986,.4229,.1484,.8984,.1484,1.4268,0,2.4062-1.2656,3.6113-3.7959,3.6172-2.5508-.0059-3.8262-1.2314-3.8262-3.6777Zm2.1357,.1602c.0107,.2695,.0205,.4717,.0312,.6064,.0098,.1348,.0469,.3311,.1104,.5879s.1484,.4502,.2529,.5791c.1045,.1299,.2656,.25,.4854,.3594,.2188,.1094,.4854,.1641,.7988,.1641s.5801-.0547,.7988-.1641c.2197-.1094,.3838-.2354,.4941-.3779,.1094-.1426,.1943-.3359,.2559-.5801,.0605-.2441,.0967-.4512,.1064-.6221,.0107-.1699,.0156-.3877,.0156-.6523v-.541c0-.2188-.0049-.3828-.0156-.4922-.0098-.1094-.0273-.2734-.0527-.4922s-.0752-.3906-.1494-.5156c-.0742-.124-.1709-.2578-.291-.4004-.1191-.1426-.2783-.2441-.4775-.3047-.1992-.0615-.4336-.0918-.7031-.0918-.3213,0-.5947,.0566-.8184,.1719-.2246,.1143-.3887,.2412-.4932,.3809-.1045,.1406-.1865,.3486-.2451,.626s-.0908,.4912-.0957,.6406c-.0049,.1504-.0078,.3809-.0078,.6904v.4277Z"/><path class="cls-8" d="M159.707,117.5303v-5.8291c0-.1982,.042-.3545,.126-.4697,.084-.1143,.1689-.1816,.2559-.2021,.0869-.0195,.1934-.0303,.3203-.0303h.626c.1016,0,.1816,.0049,.2402,.0156,.0586,.0098,.1318,.0332,.2217,.0684,.0889,.0361,.1533,.1035,.1943,.2021,.04,.0996,.0605,.2275,.0605,.3857v.3125c.7188-.7168,1.5645-1.0781,2.5371-1.083,.377,0,.7031,.0342,.9785,.1025s.4941,.1729,.6572,.3125c.1631,.1406,.2939,.2764,.3936,.4082,.0996,.1328,.167,.3154,.2021,.5498,.0361,.2344,.0586,.4209,.0693,.5605,.0098,.1406,.0146,.335,.0146,.584v4.1279c0,.458-.2246,.6865-.6738,.6865h-.7344c-.2812,0-.4727-.0596-.5752-.1797-.1016-.1191-.1523-.2881-.1523-.5068v-4.2803c0-.1582-.0029-.2783-.0078-.3623s-.0234-.1885-.0537-.3135c-.0303-.124-.0762-.2207-.1367-.29-.0615-.0684-.1533-.1279-.2754-.1787s-.2695-.0762-.4424-.0762c-.4375,0-.792,.1318-1.0645,.3965-.2715,.2646-.4541,.5547-.5449,.8701-.0615,.2285-.0947,.5078-.0996,.8389v3.25c0,.0205-.0029,.0498-.0078,.0879s-.0205,.1074-.0459,.2061c-.0254,.0996-.0586,.1846-.0986,.2559-.041,.0713-.1113,.1357-.21,.1943-.0996,.0586-.2178,.0879-.3545,.0879h-.6875c-.4883,0-.7324-.2344-.7324-.7021Z"/></g><g><line class="cls-5" x1="182.3658" y1="112.0255" x2="182.3658" y2="119.0372"/><line class="cls-5" x1="178.1952" y1="112.0255" x2="178.1952" y2="119.0372"/></g></g></g></g></g></svg>