<?xml version="1.0" encoding="UTF-8"?><svg id="Layer_2" xmlns="http://www.w3.org/2000/svg" xmlns:xlink="http://www.w3.org/1999/xlink" viewBox="0 0 452.554 377"><defs><style>.cls-1,.cls-2{fill:#fff;}.cls-3{fill:#404041;}.cls-4{stroke-width:2px;}.cls-4,.cls-5{fill:none;}.cls-4,.cls-2{stroke:#fff;stroke-miterlimit:10;}.cls-6{clip-path:url(#clippath);}.cls-7{fill:#a7ddef;}.cls-7,.cls-8{opacity:.6;}.cls-8{fill:#f6a6b0;}</style><clipPath id="clippath"><rect class="cls-5" x="140" width="184" height="377"/></clipPath></defs><g id="Layer_18"><g class="cls-6"><image width="353" height="1765" transform="translate(148 -453.5) scale(.4986)" xlink:href="code.png"/></g><rect class="cls-8" x="5" y="62.5" width="130" height="49"/><rect class="cls-7" y="260.5" width="140" height="49"/><g><g><path class="cls-3" d="M40.2832,82.0576h4.6699v1.7666h-6.8691v-10.6738h2.1992v8.9072Z"/><path class="cls-3" d="M46.9453,79.7852c0-.7871,.1523-1.4883,.4551-2.1045s.7393-1.0928,1.3086-1.4297,1.2305-.5059,1.9834-.5059c1.0703,0,1.9434,.3271,2.6201,.9824,.6777,.6553,1.0547,1.5449,1.1328,2.6689l.0146,.542c0,1.2168-.3398,2.1934-1.0186,2.9287-.6797,.7363-1.5908,1.1035-2.7344,1.1035s-2.0566-.3662-2.7383-1.0996-1.0234-1.7305-1.0234-2.9912v-.0947Zm2.1191,.1504c0,.7539,.1416,1.3301,.4248,1.7285,.2842,.3994,.6895,.5986,1.2178,.5986,.5127,0,.9131-.1973,1.2021-.5908,.2881-.3945,.4326-1.0244,.4326-1.8906,0-.7393-.1445-1.3125-.4326-1.7188-.2891-.4062-.6943-.6094-1.2168-.6094-.5186,0-.9189,.2021-1.2031,.6064-.2832,.4033-.4248,1.0283-.4248,1.876Z"/><path class="cls-3" d="M60.2666,82.2627c.3906,0,.708-.1074,.9521-.3223,.2451-.2158,.3721-.501,.3818-.8584h1.9863c-.0049,.5381-.1514,1.0303-.4395,1.4775-.2891,.4473-.6836,.7939-1.1846,1.041s-1.0537,.3701-1.6602,.3701c-1.1338,0-2.0283-.3604-2.6836-1.0811-.6543-.7207-.9824-1.7168-.9824-2.9873v-.1396c0-1.2217,.3252-2.1973,.9756-2.9248,.6494-.7285,1.542-1.0928,2.6758-1.0928,.9922,0,1.7881,.2822,2.3867,.8467s.9023,1.3164,.9121,2.2549h-1.9863c-.0098-.4131-.1367-.748-.3818-1.0059-.2441-.2588-.5664-.3877-.9668-.3877-.4941,0-.8672,.1807-1.1182,.54-.252,.3594-.3779,.9434-.3779,1.751v.2207c0,.8174,.125,1.4043,.374,1.7617s.6279,.5361,1.1367,.5361Z"/><path class="cls-3" d="M70.5938,83.8242c-.0977-.1904-.168-.4277-.2119-.7109-.5137,.5713-1.1807,.8574-2.002,.8574-.7773,0-1.4209-.2246-1.9316-.6748-.5107-.4492-.7666-1.0156-.7666-1.7002,0-.8408,.3125-1.4863,.9355-1.9355s1.5234-.6768,2.7012-.6816h.9756v-.4551c0-.3662-.0947-.6592-.2832-.8799-.1875-.2197-.4844-.3291-.8906-.3291-.3564,0-.6367,.085-.8389,.2559-.2031,.1719-.3047,.4062-.3047,.7041h-2.1182c0-.459,.1416-.8848,.4248-1.2754,.2832-.3916,.6846-.6982,1.2021-.9199,.5186-.2227,1.0996-.334,1.7451-.334,.9775,0,1.7529,.2461,2.3271,.7373,.5752,.4912,.8623,1.1816,.8623,2.0703v3.4385c.0049,.7529,.1094,1.3223,.3145,1.708v.125h-2.1406Zm-1.752-1.4736c.3125,0,.6016-.0693,.8652-.209s.459-.3262,.5869-.5605v-1.3643h-.792c-1.0605,0-1.625,.3672-1.6934,1.1006l-.0078,.124c0,.2637,.0928,.4814,.2783,.6523,.1855,.1719,.4404,.2568,.7627,.2568Z"/><path class="cls-3" d="M77.7852,73.9414v1.9502h1.3564v1.5547h-1.3564v3.959c0,.293,.0557,.5029,.168,.6299,.1133,.127,.3281,.1904,.6455,.1904,.2344,0,.4424-.0166,.623-.0508v1.6055c-.415,.127-.8428,.1904-1.2832,.1904-1.4854,0-2.2432-.75-2.2725-2.251v-4.2734h-1.1582v-1.5547h1.1582v-1.9502h2.1191Z"/><path class="cls-3" d="M81.5078,73.8389c0-.3174,.1064-.5791,.3193-.7842s.502-.3076,.8682-.3076c.3623,0,.6504,.1025,.8652,.3076s.3232,.4668,.3232,.7842c0,.3232-.1094,.5869-.3262,.792-.2178,.2051-.5049,.3076-.8623,.3076-.3564,0-.6436-.1025-.8613-.3076-.2168-.2051-.3262-.4688-.3262-.792Zm2.251,9.9854h-2.126v-7.9326h2.126v7.9326Z"/><path class="cls-3" d="M86.374,79.7852c0-.7871,.1523-1.4883,.4551-2.1045s.7393-1.0928,1.3086-1.4297,1.2305-.5059,1.9834-.5059c1.0703,0,1.9434,.3271,2.6201,.9824,.6777,.6553,1.0547,1.5449,1.1328,2.6689l.0146,.542c0,1.2168-.3398,2.1934-1.0186,2.9287-.6797,.7363-1.5908,1.1035-2.7344,1.1035s-2.0566-.3662-2.7383-1.0996-1.0234-1.7305-1.0234-2.9912v-.0947Zm2.1191,.1504c0,.7539,.1416,1.3301,.4248,1.7285,.2842,.3994,.6895,.5986,1.2178,.5986,.5127,0,.9131-.1973,1.2021-.5908,.2881-.3945,.4326-1.0244,.4326-1.8906,0-.7393-.1445-1.3125-.4326-1.7188-.2891-.4062-.6943-.6094-1.2168-.6094-.5186,0-.9189,.2021-1.2031,.6064-.2832,.4033-.4248,1.0283-.4248,1.876Z"/><path class="cls-3" d="M98.3457,75.8916l.0664,.917c.5664-.709,1.3271-1.0635,2.2803-1.0635,.8398,0,1.4658,.2471,1.876,.7402,.4111,.4941,.6211,1.2324,.6309,2.2139v5.125h-2.1191v-5.0732c0-.4492-.0977-.7754-.293-.9785s-.5205-.3047-.9746-.3047c-.5967,0-1.0439,.2549-1.3418,.7627v5.5938h-2.1191v-7.9326h1.9941Z"/><path class="cls-3" d="M25.6484,101.8418h-2.1992v-10.6738h2.1992v10.6738Z"/><path class="cls-3" d="M30.6982,93.9092l.0664,.917c.5664-.709,1.3271-1.0635,2.2803-1.0635,.8398,0,1.4658,.2471,1.876,.7402,.4111,.4941,.6211,1.2324,.6309,2.2139v5.125h-2.1191v-5.0732c0-.4492-.0977-.7754-.293-.9785s-.5205-.3047-.9746-.3047c-.5967,0-1.0439,.2549-1.3418,.7627v5.5938h-2.1191v-7.9326h1.9941Z"/><path class="cls-3" d="M38.0273,97.8174c0-1.2373,.2773-2.2217,.833-2.9551,.5547-.7334,1.3125-1.0996,2.2764-1.0996,.7715,0,1.4092,.2881,1.9131,.8652v-4.0469h2.126v11.2607h-1.9131l-.1035-.8428c-.5273,.6592-1.207,.9893-2.0371,.9893-.9336,0-1.6826-.3672-2.2471-1.1035-.5654-.7354-.8477-1.7578-.8477-3.0674Zm2.1191,.1572c0,.7441,.1299,1.3145,.3887,1.7109s.6348,.5947,1.1289,.5947c.6553,0,1.1172-.2764,1.3857-.8301v-3.1348c-.2637-.5527-.7207-.8301-1.3711-.8301-1.0215,0-1.5322,.8301-1.5322,2.4893Z"/><path class="cls-3" d="M51.6709,101.9883c-1.1631,0-2.1104-.3564-2.8408-1.0703s-1.0957-1.6641-1.0957-2.8516v-.2051c0-.7969,.1533-1.5098,.4609-2.1377,.3086-.6279,.7441-1.1113,1.3086-1.4512,.5654-.3398,1.209-.5098,1.9326-.5098,1.085,0,1.9385,.3418,2.5615,1.0264,.624,.6846,.9355,1.6543,.9355,2.9102v.8652h-5.0518c.0684,.5186,.2754,.9336,.6191,1.2471,.3447,.3125,.7812,.4688,1.3096,.4688,.8154,0,1.4531-.2959,1.9131-.8867l1.041,1.165c-.3174,.4502-.748,.8008-1.29,1.0527-.543,.251-1.1436,.377-1.8037,.377Zm-.2422-6.5176c-.4199,0-.7607,.1426-1.0225,.4277-.2617,.2842-.4287,.6924-.502,1.2217h2.9473v-.1689c-.0107-.4717-.1377-.8359-.3818-1.0938s-.5908-.3867-1.041-.3867Z"/><path class="cls-3" d="M64.4766,97.9492c0,1.2217-.2773,2.2002-.832,2.9355-.5547,.7363-1.3037,1.1035-2.2471,1.1035-.8018,0-1.4492-.2783-1.9424-.8359v3.7393h-2.1191v-10.9824h1.9648l.0732,.7773c.5137-.6162,1.1826-.9238,2.0088-.9238,.9775,0,1.7373,.3623,2.2803,1.085,.543,.7236,.8135,1.7207,.8135,2.9912v.1104Zm-2.1182-.1543c0-.7383-.1309-1.3076-.3926-1.708s-.6416-.6016-1.1396-.6016c-.665,0-1.1221,.2549-1.3711,.7627v3.248c.2588,.5225,.7207,.7842,1.3857,.7842,1.0117,0,1.5176-.8281,1.5176-2.4854Z"/><path class="cls-3" d="M70.6416,101.9883c-1.1631,0-2.1104-.3564-2.8408-1.0703s-1.0957-1.6641-1.0957-2.8516v-.2051c0-.7969,.1533-1.5098,.4609-2.1377,.3086-.6279,.7441-1.1113,1.3086-1.4512,.5654-.3398,1.209-.5098,1.9326-.5098,1.085,0,1.9385,.3418,2.5615,1.0264,.624,.6846,.9355,1.6543,.9355,2.9102v.8652h-5.0518c.0684,.5186,.2754,.9336,.6191,1.2471,.3447,.3125,.7812,.4688,1.3096,.4688,.8154,0,1.4531-.2959,1.9131-.8867l1.041,1.165c-.3174,.4502-.748,.8008-1.29,1.0527-.543,.251-1.1436,.377-1.8037,.377Zm-.2422-6.5176c-.4199,0-.7607,.1426-1.0225,.4277-.2617,.2842-.4287,.6924-.502,1.2217h2.9473v-.1689c-.0107-.4717-.1377-.8359-.3818-1.0938s-.5908-.3867-1.041-.3867Z"/><path class="cls-3" d="M78.2568,93.9092l.0664,.917c.5664-.709,1.3271-1.0635,2.2803-1.0635,.8398,0,1.4658,.2471,1.876,.7402,.4111,.4941,.6211,1.2324,.6309,2.2139v5.125h-2.1191v-5.0732c0-.4492-.0977-.7754-.293-.9785s-.5205-.3047-.9746-.3047c-.5967,0-1.0439,.2549-1.3418,.7627v5.5938h-2.1191v-7.9326h1.9941Z"/><path class="cls-3" d="M85.5869,97.8174c0-1.2373,.2773-2.2217,.833-2.9551,.5547-.7334,1.3125-1.0996,2.2764-1.0996,.7715,0,1.4092,.2881,1.9131,.8652v-4.0469h2.126v11.2607h-1.9131l-.1035-.8428c-.5273,.6592-1.207,.9893-2.0371,.9893-.9336,0-1.6826-.3672-2.2471-1.1035-.5654-.7354-.8477-1.7578-.8477-3.0674Zm2.1191,.1572c0,.7441,.1299,1.3145,.3887,1.7109s.6348,.5947,1.1289,.5947c.6553,0,1.1172-.2764,1.3857-.8301v-3.1348c-.2637-.5527-.7207-.8301-1.3711-.8301-1.0215,0-1.5322,.8301-1.5322,2.4893Z"/><path class="cls-3" d="M99.2295,101.9883c-1.1631,0-2.1104-.3564-2.8408-1.0703s-1.0957-1.6641-1.0957-2.8516v-.2051c0-.7969,.1533-1.5098,.4609-2.1377,.3086-.6279,.7441-1.1113,1.3086-1.4512,.5654-.3398,1.209-.5098,1.9326-.5098,1.085,0,1.9385,.3418,2.5615,1.0264,.624,.6846,.9355,1.6543,.9355,2.9102v.8652h-5.0518c.0684,.5186,.2754,.9336,.6191,1.2471,.3447,.3125,.7812,.4688,1.3096,.4688,.8154,0,1.4531-.2959,1.9131-.8867l1.041,1.165c-.3174,.4502-.748,.8008-1.29,1.0527-.543,.251-1.1436,.377-1.8037,.377Zm-.2422-6.5176c-.4199,0-.7607,.1426-1.0225,.4277-.2617,.2842-.4287,.6924-.502,1.2217h2.9473v-.1689c-.0107-.4717-.1377-.8359-.3818-1.0938s-.5908-.3867-1.041-.3867Z"/><path class="cls-3" d="M106.8457,93.9092l.0664,.917c.5664-.709,1.3271-1.0635,2.2803-1.0635,.8398,0,1.4658,.2471,1.876,.7402,.4111,.4941,.6211,1.2324,.6309,2.2139v5.125h-2.1191v-5.0732c0-.4492-.0977-.7754-.293-.9785s-.5205-.3047-.9746-.3047c-.5967,0-1.0439,.2549-1.3418,.7627v5.5938h-2.1191v-7.9326h1.9941Z"/><path class="cls-3" d="M117.042,91.959v1.9502h1.3564v1.5547h-1.3564v3.959c0,.293,.0557,.5029,.168,.6299,.1133,.127,.3281,.1904,.6455,.1904,.2344,0,.4424-.0166,.623-.0508v1.6055c-.415,.127-.8428,.1904-1.2832,.1904-1.4854,0-2.2432-.75-2.2725-2.251v-4.2734h-1.1582v-1.5547h1.1582v-1.9502h2.1191Z"/></g><g><path class="cls-3" d="M13.6826,280.8242h-2.1992l-4.2812-7.0234v7.0234h-2.1992v-10.6738h2.1992l4.2891,7.0371v-7.0371h2.1914v10.6738Z"/><path class="cls-3" d="M16.335,276.7852c0-.7871,.1523-1.4883,.4551-2.1045s.7393-1.0928,1.3086-1.4297,1.2305-.5059,1.9834-.5059c1.0703,0,1.9434,.3271,2.6201,.9824,.6777,.6553,1.0547,1.5449,1.1328,2.6689l.0146,.542c0,1.2168-.3398,2.1934-1.0186,2.9287-.6797,.7363-1.5908,1.1035-2.7344,1.1035s-2.0566-.3662-2.7383-1.0996-1.0234-1.7305-1.0234-2.9912v-.0947Zm2.1191,.1504c0,.7539,.1416,1.3301,.4248,1.7285,.2842,.3994,.6895,.5986,1.2178,.5986,.5127,0,.9131-.1973,1.2021-.5908,.2881-.3945,.4326-1.0244,.4326-1.8906,0-.7393-.1445-1.3125-.4326-1.7188-.2891-.4062-.6943-.6094-1.2168-.6094-.5186,0-.9189,.2021-1.2031,.6064-.2832,.4033-.4248,1.0283-.4248,1.876Z"/><path class="cls-3" d="M28.3066,272.8916l.0664,.917c.5664-.709,1.3271-1.0635,2.2803-1.0635,.8398,0,1.4658,.2471,1.876,.7402,.4111,.4941,.6211,1.2324,.6309,2.2139v5.125h-2.1191v-5.0732c0-.4492-.0977-.7754-.293-.9785s-.5205-.3047-.9746-.3047c-.5967,0-1.0439,.2549-1.3418,.7627v5.5938h-2.1191v-7.9326h1.9941Z"/><path class="cls-3" d="M40.0859,277.1074h-4.127v-1.708h4.127v1.708Z"/><path class="cls-3" d="M45.5254,270.9414v1.9502h1.3564v1.5547h-1.3564v3.959c0,.293,.0557,.5029,.168,.6299,.1133,.127,.3281,.1904,.6455,.1904,.2344,0,.4424-.0166,.623-.0508v1.6055c-.415,.127-.8428,.1904-1.2832,.1904-1.4854,0-2.2432-.75-2.2725-2.251v-4.2734h-1.1582v-1.5547h1.1582v-1.9502h2.1191Z"/><path class="cls-3" d="M53.7207,274.8789c-.2891-.0391-.543-.0586-.7627-.0586-.8018,0-1.3271,.2705-1.5762,.8135v5.1904h-2.1191v-7.9326h2.002l.0586,.9463c.4248-.7285,1.0137-1.0928,1.7666-1.0928,.2344,0,.4541,.0322,.6602,.0957l-.0293,2.0381Z"/><path class="cls-3" d="M60.3174,280.8242c-.0977-.1904-.168-.4277-.2119-.7109-.5137,.5713-1.1807,.8574-2.002,.8574-.7773,0-1.4209-.2246-1.9316-.6748-.5107-.4492-.7666-1.0156-.7666-1.7002,0-.8408,.3125-1.4863,.9355-1.9355s1.5234-.6768,2.7012-.6816h.9756v-.4551c0-.3662-.0947-.6592-.2832-.8799-.1875-.2197-.4844-.3291-.8906-.3291-.3564,0-.6367,.085-.8389,.2559-.2031,.1719-.3047,.4062-.3047,.7041h-2.1182c0-.459,.1416-.8848,.4248-1.2754,.2832-.3916,.6846-.6982,1.2021-.9199,.5186-.2227,1.0996-.334,1.7451-.334,.9775,0,1.7529,.2461,2.3271,.7373,.5752,.4912,.8623,1.1816,.8623,2.0703v3.4385c.0049,.7529,.1094,1.3223,.3145,1.708v.125h-2.1406Zm-1.752-1.4736c.3125,0,.6016-.0693,.8652-.209s.459-.3262,.5869-.5605v-1.3643h-.792c-1.0605,0-1.625,.3672-1.6934,1.1006l-.0078,.124c0,.2637,.0928,.4814,.2783,.6523,.1855,.1719,.4404,.2568,.7627,.2568Z"/><path class="cls-3" d="M66.9209,272.8916l.0664,.917c.5664-.709,1.3271-1.0635,2.2803-1.0635,.8398,0,1.4658,.2471,1.876,.7402,.4111,.4941,.6211,1.2324,.6309,2.2139v5.125h-2.1191v-5.0732c0-.4492-.0977-.7754-.293-.9785s-.5205-.3047-.9746-.3047c-.5967,0-1.0439,.2549-1.3418,.7627v5.5938h-2.1191v-7.9326h1.9941Z"/><path class="cls-3" d="M78.8779,278.6318c0-.2588-.1289-.4629-.3857-.6113-.2559-.1494-.668-.2832-1.2354-.4004-1.8867-.3955-2.8291-1.1973-2.8291-2.4043,0-.7041,.292-1.291,.876-1.7627s1.3477-.708,2.291-.708c1.0068,0,1.8115,.2373,2.415,.7109,.6035,.4746,.9053,1.0898,.9053,1.8477h-2.1182c0-.3027-.0977-.5537-.293-.751-.1963-.1982-.501-.2969-.917-.2969-.3564,0-.6328,.0801-.8281,.2412s-.293,.3672-.293,.6162c0,.2344,.1104,.4238,.333,.5684,.2227,.1436,.5977,.2686,1.126,.374,.5273,.1045,.9717,.2236,1.334,.3555,1.1191,.4102,1.6787,1.1211,1.6787,2.1328,0,.7236-.3105,1.3086-.9307,1.7559-.6211,.4473-1.4229,.6709-2.4053,.6709-.6641,0-1.2549-.1182-1.7705-.3555s-.9199-.5615-1.2129-.9746-.4404-.8594-.4404-1.3379h2.0088c.0195,.376,.1592,.6641,.418,.8643,.2588,.2012,.6064,.3008,1.041,.3008,.4062,0,.7129-.0771,.9199-.2305,.208-.1543,.3125-.3555,.3125-.6055Z"/><path class="cls-3" d="M84.0811,280.8242v-6.3779h-1.1797v-1.5547h1.1797v-.6738c0-.8896,.2559-1.5801,.7666-2.0713s1.2256-.7373,2.1445-.7373c.293,0,.6523,.0488,1.0771,.1465l-.0215,1.6426c-.1758-.0439-.3916-.0654-.6455-.0654-.7969,0-1.1953,.373-1.1953,1.1211v.6377h1.5762v1.5547h-1.5762v6.3779h-2.126Z"/><path class="cls-3" d="M93.5596,280.9707c-1.1631,0-2.1104-.3564-2.8408-1.0703s-1.0957-1.6641-1.0957-2.8516v-.2051c0-.7969,.1533-1.5098,.4609-2.1377,.3086-.6279,.7441-1.1113,1.3086-1.4512,.5654-.3398,1.209-.5098,1.9326-.5098,1.085,0,1.9385,.3418,2.5615,1.0264,.624,.6846,.9355,1.6543,.9355,2.9102v.8652h-5.0518c.0684,.5186,.2754,.9336,.6191,1.2471,.3447,.3125,.7812,.4688,1.3096,.4688,.8154,0,1.4531-.2959,1.9131-.8867l1.041,1.165c-.3174,.4502-.748,.8008-1.29,1.0527-.543,.251-1.1436,.377-1.8037,.377Zm-.2422-6.5176c-.4199,0-.7607,.1426-1.0225,.4277-.2617,.2842-.4287,.6924-.502,1.2217h2.9473v-.1689c-.0107-.4717-.1377-.8359-.3818-1.0938s-.5908-.3867-1.041-.3867Z"/><path class="cls-3" d="M103.6836,274.8789c-.2891-.0391-.543-.0586-.7627-.0586-.8018,0-1.3271,.2705-1.5762,.8135v5.1904h-2.1191v-7.9326h2.002l.0586,.9463c.4248-.7285,1.0137-1.0928,1.7666-1.0928,.2344,0,.4541,.0322,.6602,.0957l-.0293,2.0381Z"/><path class="cls-3" d="M110.2793,280.8242c-.0977-.1904-.168-.4277-.2119-.7109-.5137,.5713-1.1807,.8574-2.002,.8574-.7773,0-1.4209-.2246-1.9316-.6748-.5107-.4492-.7666-1.0156-.7666-1.7002,0-.8408,.3125-1.4863,.9355-1.9355s1.5234-.6768,2.7012-.6816h.9756v-.4551c0-.3662-.0947-.6592-.2832-.8799-.1875-.2197-.4844-.3291-.8906-.3291-.3564,0-.6367,.085-.8389,.2559-.2031,.1719-.3047,.4062-.3047,.7041h-2.1182c0-.459,.1416-.8848,.4248-1.2754,.2832-.3916,.6846-.6982,1.2021-.9199,.5186-.2227,1.0996-.334,1.7451-.334,.9775,0,1.7529,.2461,2.3271,.7373,.5752,.4912,.8623,1.1816,.8623,2.0703v3.4385c.0049,.7529,.1094,1.3223,.3145,1.708v.125h-2.1406Zm-1.752-1.4736c.3125,0,.6016-.0693,.8652-.209s.459-.3262,.5869-.5605v-1.3643h-.792c-1.0605,0-1.625,.3672-1.6934,1.1006l-.0078,.124c0,.2637,.0928,.4814,.2783,.6523,.1855,.1719,.4404,.2568,.7627,.2568Z"/><path class="cls-3" d="M122.082,276.9316c0,1.2705-.2715,2.2617-.8145,2.9727-.542,.7109-1.2998,1.0664-2.2725,1.0664-.8604,0-1.5469-.3301-2.0596-.9893l-.0957,.8428h-1.9062v-11.2607h2.1191v4.0391c.4883-.5713,1.1309-.8574,1.9277-.8574,.9678,0,1.7266,.3555,2.2764,1.0664,.5498,.7119,.8252,1.7119,.8252,3.0029v.1172Zm-2.1191-.1543c0-.8018-.127-1.3867-.3809-1.7559s-.6328-.5537-1.1367-.5537c-.6738,0-1.1387,.2764-1.3926,.8291v3.1299c.2588,.5576,.7285,.8359,1.4072,.8359,.6846,0,1.1338-.3369,1.3496-1.0117,.1025-.3223,.1533-.8135,.1533-1.4736Z"/><path class="cls-3" d="M126.8242,280.8242h-2.126v-11.2607h2.126v11.2607Z"/><path class="cls-3" d="M133.4209,280.9707c-1.1631,0-2.1104-.3564-2.8408-1.0703s-1.0957-1.6641-1.0957-2.8516v-.2051c0-.7969,.1533-1.5098,.4609-2.1377,.3086-.6279,.7441-1.1113,1.3086-1.4512,.5654-.3398,1.209-.5098,1.9326-.5098,1.085,0,1.9385,.3418,2.5615,1.0264,.624,.6846,.9355,1.6543,.9355,2.9102v.8652h-5.0518c.0684,.5186,.2754,.9336,.6191,1.2471,.3447,.3125,.7812,.4688,1.3096,.4688,.8154,0,1.4531-.2959,1.9131-.8867l1.041,1.165c-.3174,.4502-.748,.8008-1.29,1.0527-.543,.251-1.1436,.377-1.8037,.377Zm-.2422-6.5176c-.4199,0-.7607,.1426-1.0225,.4277-.2617,.2842-.4287,.6924-.502,1.2217h2.9473v-.1689c-.0107-.4717-.1377-.8359-.3818-1.0938s-.5908-.3867-1.041-.3867Z"/><path class="cls-3" d="M35.0049,294.9346h-1.752v3.9072h-2.1992v-10.6738h3.9658c1.2617,0,2.2334,.2803,2.918,.8428,.6846,.5615,1.0264,1.3564,1.0264,2.3828,0,.7285-.1572,1.335-.4727,1.8213s-.793,.874-1.4336,1.1621l2.3096,4.3623v.1025h-2.3604l-2.002-3.9072Zm-1.752-1.7822h1.7744c.5518,0,.9795-.1396,1.2832-.4209,.3027-.2812,.4541-.6689,.4541-1.1621,0-.5039-.1426-.8994-.4287-1.1875-.2861-.2891-.7246-.4326-1.3164-.4326h-1.7666v3.2031Z"/><path class="cls-3" d="M45.3486,298.9883c-1.1631,0-2.1104-.3564-2.8408-1.0703s-1.0957-1.6641-1.0957-2.8516v-.2051c0-.7969,.1533-1.5098,.4609-2.1377,.3086-.6279,.7441-1.1113,1.3086-1.4512,.5654-.3398,1.209-.5098,1.9326-.5098,1.085,0,1.9385,.3418,2.5615,1.0264,.624,.6846,.9355,1.6543,.9355,2.9102v.8652h-5.0518c.0684,.5186,.2754,.9336,.6191,1.2471,.3447,.3125,.7812,.4688,1.3096,.4688,.8154,0,1.4531-.2959,1.9131-.8867l1.041,1.165c-.3174,.4502-.748,.8008-1.29,1.0527-.543,.251-1.1436,.377-1.8037,.377Zm-.2422-6.5176c-.4199,0-.7607,.1426-1.0225,.4277-.2617,.2842-.4287,.6924-.502,1.2217h2.9473v-.1689c-.0107-.4717-.1377-.8359-.3818-1.0938s-.5908-.3867-1.041-.3867Z"/><path class="cls-3" d="M55.3105,296.6494c0-.2588-.1289-.4629-.3857-.6113-.2559-.1494-.668-.2832-1.2354-.4004-1.8867-.3955-2.8291-1.1973-2.8291-2.4043,0-.7041,.292-1.291,.876-1.7627s1.3477-.708,2.291-.708c1.0068,0,1.8115,.2373,2.415,.7109,.6035,.4746,.9053,1.0898,.9053,1.8477h-2.1182c0-.3027-.0977-.5537-.293-.751-.1963-.1982-.501-.2969-.917-.2969-.3564,0-.6328,.0801-.8281,.2412s-.293,.3672-.293,.6162c0,.2344,.1104,.4238,.333,.5684,.2227,.1436,.5977,.2686,1.126,.374,.5273,.1045,.9717,.2236,1.334,.3555,1.1191,.4102,1.6787,1.1211,1.6787,2.1328,0,.7236-.3105,1.3086-.9307,1.7559-.6211,.4473-1.4229,.6709-2.4053,.6709-.6641,0-1.2549-.1182-1.7705-.3555s-.9199-.5615-1.2129-.9746-.4404-.8594-.4404-1.3379h2.0088c.0195,.376,.1592,.6641,.418,.8643,.2588,.2012,.6064,.3008,1.041,.3008,.4062,0,.7129-.0771,.9199-.2305,.208-.1543,.3125-.3555,.3125-.6055Z"/><path class="cls-3" d="M59.6045,294.8027c0-.7871,.1523-1.4883,.4551-2.1045s.7393-1.0928,1.3086-1.4297,1.2305-.5059,1.9834-.5059c1.0703,0,1.9434,.3271,2.6201,.9824,.6777,.6553,1.0547,1.5449,1.1328,2.6689l.0146,.542c0,1.2168-.3398,2.1934-1.0186,2.9287-.6797,.7363-1.5908,1.1035-2.7344,1.1035s-2.0566-.3662-2.7383-1.0996-1.0234-1.7305-1.0234-2.9912v-.0947Zm2.1191,.1504c0,.7539,.1416,1.3301,.4248,1.7285,.2842,.3994,.6895,.5986,1.2178,.5986,.5127,0,.9131-.1973,1.2021-.5908,.2881-.3945,.4326-1.0244,.4326-1.8906,0-.7393-.1445-1.3125-.4326-1.7188-.2891-.4062-.6943-.6094-1.2168-.6094-.5186,0-.9189,.2021-1.2031,.6064-.2832,.4033-.4248,1.0283-.4248,1.876Z"/><path class="cls-3" d="M74.377,298.0352c-.5234,.6357-1.2461,.9531-2.1699,.9531-.8506,0-1.499-.2441-1.9463-.7334-.4473-.4883-.6758-1.2041-.6855-2.1475v-5.1982h2.1182v5.1309c0,.8271,.377,1.2402,1.1289,1.2402,.7188,0,1.2129-.25,1.4814-.749v-5.6221h2.126v7.9326h-1.9941l-.0586-.8066Z"/><path class="cls-3" d="M83.6865,292.8965c-.2891-.0391-.543-.0586-.7627-.0586-.8018,0-1.3271,.2705-1.5762,.8135v5.1904h-2.1191v-7.9326h2.002l.0586,.9463c.4248-.7285,1.0137-1.0928,1.7666-1.0928,.2344,0,.4541,.0322,.6602,.0957l-.0293,2.0381Z"/><path class="cls-3" d="M89.0664,297.2803c.3906,0,.708-.1074,.9521-.3223,.2451-.2158,.3721-.501,.3818-.8584h1.9863c-.0049,.5381-.1514,1.0303-.4395,1.4775-.2891,.4473-.6836,.7939-1.1846,1.041s-1.0537,.3701-1.6602,.3701c-1.1338,0-2.0283-.3604-2.6836-1.0811-.6543-.7207-.9824-1.7168-.9824-2.9873v-.1396c0-1.2217,.3252-2.1973,.9756-2.9248,.6494-.7285,1.542-1.0928,2.6758-1.0928,.9922,0,1.7881,.2822,2.3867,.8467s.9023,1.3164,.9121,2.2549h-1.9863c-.0098-.4131-.1367-.748-.3818-1.0059-.2441-.2588-.5664-.3877-.9668-.3877-.4941,0-.8672,.1807-1.1182,.54-.252,.3594-.3779,.9434-.3779,1.751v.2207c0,.8174,.125,1.4043,.374,1.7617s.6279,.5361,1.1367,.5361Z"/><path class="cls-3" d="M98.4492,298.9883c-1.1631,0-2.1104-.3564-2.8408-1.0703s-1.0957-1.6641-1.0957-2.8516v-.2051c0-.7969,.1533-1.5098,.4609-2.1377,.3086-.6279,.7441-1.1113,1.3086-1.4512,.5654-.3398,1.209-.5098,1.9326-.5098,1.085,0,1.9385,.3418,2.5615,1.0264,.624,.6846,.9355,1.6543,.9355,2.9102v.8652h-5.0518c.0684,.5186,.2754,.9336,.6191,1.2471,.3447,.3125,.7812,.4688,1.3096,.4688,.8154,0,1.4531-.2959,1.9131-.8867l1.041,1.165c-.3174,.4502-.748,.8008-1.29,1.0527-.543,.251-1.1436,.377-1.8037,.377Zm-.2422-6.5176c-.4199,0-.7607,.1426-1.0225,.4277-.2617,.2842-.4287,.6924-.502,1.2217h2.9473v-.1689c-.0107-.4717-.1377-.8359-.3818-1.0938s-.5908-.3867-1.041-.3867Z"/><path class="cls-3" d="M108.4111,296.6494c0-.2588-.1289-.4629-.3857-.6113-.2559-.1494-.668-.2832-1.2354-.4004-1.8867-.3955-2.8291-1.1973-2.8291-2.4043,0-.7041,.292-1.291,.876-1.7627s1.3477-.708,2.291-.708c1.0068,0,1.8115,.2373,2.415,.7109,.6035,.4746,.9053,1.0898,.9053,1.8477h-2.1182c0-.3027-.0977-.5537-.293-.751-.1963-.1982-.501-.2969-.917-.2969-.3564,0-.6328,.0801-.8281,.2412s-.293,.3672-.293,.6162c0,.2344,.1104,.4238,.333,.5684,.2227,.1436,.5977,.2686,1.126,.374,.5273,.1045,.9717,.2236,1.334,.3555,1.1191,.4102,1.6787,1.1211,1.6787,2.1328,0,.7236-.3105,1.3086-.9307,1.7559-.6211,.4473-1.4229,.6709-2.4053,.6709-.6641,0-1.2549-.1182-1.7705-.3555s-.9199-.5615-1.2129-.9746-.4404-.8594-.4404-1.3379h2.0088c.0195,.376,.1592,.6641,.418,.8643,.2588,.2012,.6064,.3008,1.041,.3008,.4062,0,.7129-.0771,.9199-.2305,.208-.1543,.3125-.3555,.3125-.6055Z"/></g></g><rect class="cls-8" x="169" y="7.5" width="130" height="174"/><rect class="cls-7" x="169" y="190.5" width="130" height="174"/><g><path class="cls-2" d="M358.3662,216.1045v3.7607h-2.1992v-10.6738h4.1641c.8018,0,1.5068,.1465,2.1152,.4395s1.0762,.71,1.4033,1.25c.3281,.54,.4912,1.1543,.4912,1.8438,0,1.0459-.3574,1.8711-1.0732,2.4746-.7168,.6035-1.707,.9053-2.9736,.9053h-1.9277Zm0-1.7812h1.9648c.582,0,1.0254-.1367,1.3311-.4111,.3047-.2734,.458-.6641,.458-1.1729,0-.5225-.1543-.9453-.4619-1.2686-.3076-.3223-.7334-.4883-1.2754-.498h-2.0166v3.3506Z"/><path class="cls-2" d="M371.6641,219.0586c-.5234,.6357-1.2461,.9531-2.1699,.9531-.8506,0-1.499-.2441-1.9463-.7334-.4473-.4883-.6758-1.2041-.6855-2.1475v-5.1982h2.1182v5.1309c0,.8271,.377,1.2402,1.1289,1.2402,.7188,0,1.2129-.25,1.4814-.749v-5.6221h2.126v7.9326h-1.9941l-.0586-.8066Z"/><path class="cls-2" d="M378.752,219.8652h-2.126v-11.2607h2.126v11.2607Z"/><path class="cls-2" d="M383.9346,219.8652h-2.126v-11.2607h2.126v11.2607Z"/><path class="cls-2" d="M391,216.1484h-4.127v-1.708h4.127v1.708Z"/><path class="cls-2" d="M401.0508,215.9727c0,1.2705-.2715,2.2617-.8145,2.9727-.542,.7109-1.2998,1.0664-2.2725,1.0664-.8604,0-1.5469-.3301-2.0596-.9893l-.0957,.8428h-1.9062v-11.2607h2.1191v4.0391c.4883-.5713,1.1309-.8574,1.9277-.8574,.9678,0,1.7266,.3555,2.2764,1.0664,.5498,.7119,.8252,1.7119,.8252,3.0029v.1172Zm-2.1191-.1543c0-.8018-.127-1.3867-.3809-1.7559s-.6328-.5537-1.1367-.5537c-.6738,0-1.1387,.2764-1.3926,.8291v3.1299c.2588,.5576,.7285,.8359,1.4072,.8359,.6846,0,1.1338-.3369,1.3496-1.0117,.1025-.3223,.1533-.8135,.1533-1.4736Z"/><path class="cls-2" d="M408.1523,219.8652c-.0977-.1904-.168-.4277-.2119-.7109-.5137,.5713-1.1807,.8574-2.002,.8574-.7773,0-1.4209-.2246-1.9316-.6748-.5107-.4492-.7666-1.0156-.7666-1.7002,0-.8408,.3125-1.4863,.9355-1.9355s1.5234-.6768,2.7012-.6816h.9756v-.4551c0-.3662-.0947-.6592-.2832-.8799-.1875-.2197-.4844-.3291-.8906-.3291-.3564,0-.6367,.085-.8389,.2559-.2031,.1719-.3047,.4062-.3047,.7041h-2.1182c0-.459,.1416-.8848,.4248-1.2754,.2832-.3916,.6846-.6982,1.2021-.9199,.5186-.2227,1.0996-.334,1.7451-.334,.9775,0,1.7529,.2461,2.3271,.7373,.5752,.4912,.8623,1.1816,.8623,2.0703v3.4385c.0049,.7529,.1094,1.3223,.3145,1.708v.125h-2.1406Zm-1.752-1.4736c.3125,0,.6016-.0693,.8652-.209s.459-.3262,.5869-.5605v-1.3643h-.792c-1.0605,0-1.625,.3672-1.6934,1.1006l-.0078,.124c0,.2637,.0928,.4814,.2783,.6523,.1855,.1719,.4404,.2568,.7627,.2568Z"/><path class="cls-2" d="M417.1035,217.6729c0-.2588-.1289-.4629-.3857-.6113-.2559-.1494-.668-.2832-1.2354-.4004-1.8867-.3955-2.8291-1.1973-2.8291-2.4043,0-.7041,.292-1.291,.876-1.7627s1.3477-.708,2.291-.708c1.0068,0,1.8115,.2373,2.415,.7109,.6035,.4746,.9053,1.0898,.9053,1.8477h-2.1182c0-.3027-.0977-.5537-.293-.751-.1963-.1982-.501-.2969-.917-.2969-.3564,0-.6328,.0801-.8281,.2412s-.293,.3672-.293,.6162c0,.2344,.1104,.4238,.333,.5684,.2227,.1436,.5977,.2686,1.126,.374,.5273,.1045,.9717,.2236,1.334,.3555,1.1191,.4102,1.6787,1.1211,1.6787,2.1328,0,.7236-.3105,1.3086-.9307,1.7559-.6211,.4473-1.4229,.6709-2.4053,.6709-.6641,0-1.2549-.1182-1.7705-.3555s-.9199-.5615-1.2129-.9746-.4404-.8594-.4404-1.3379h2.0088c.0195,.376,.1592,.6641,.418,.8643,.2588,.2012,.6064,.3008,1.041,.3008,.4062,0,.7129-.0771,.9199-.2305,.208-.1543,.3125-.3555,.3125-.6055Z"/><path class="cls-2" d="M425.3789,220.0117c-1.1631,0-2.1104-.3564-2.8408-1.0703s-1.0957-1.6641-1.0957-2.8516v-.2051c0-.7969,.1533-1.5098,.4609-2.1377,.3086-.6279,.7441-1.1113,1.3086-1.4512,.5654-.3398,1.209-.5098,1.9326-.5098,1.085,0,1.9385,.3418,2.5615,1.0264,.624,.6846,.9355,1.6543,.9355,2.9102v.8652h-5.0518c.0684,.5186,.2754,.9336,.6191,1.2471,.3447,.3125,.7812,.4688,1.3096,.4688,.8154,0,1.4531-.2959,1.9131-.8867l1.041,1.165c-.3174,.4502-.748,.8008-1.29,1.0527-.543,.251-1.1436,.377-1.8037,.377Zm-.2422-6.5176c-.4199,0-.7607,.1426-1.0225,.4277-.2617,.2842-.4287,.6924-.502,1.2217h2.9473v-.1689c-.0107-.4717-.1377-.8359-.3818-1.0938s-.5908-.3867-1.041-.3867Z"/><path class="cls-2" d="M430.7148,215.8408c0-1.2373,.2773-2.2217,.833-2.9551,.5547-.7334,1.3125-1.0996,2.2764-1.0996,.7715,0,1.4092,.2881,1.9131,.8652v-4.0469h2.126v11.2607h-1.9131l-.1035-.8428c-.5273,.6592-1.207,.9893-2.0371,.9893-.9336,0-1.6826-.3672-2.2471-1.1035-.5654-.7354-.8477-1.7578-.8477-3.0674Zm2.1191,.1572c0,.7441,.1299,1.3145,.3887,1.7109s.6348,.5947,1.1289,.5947c.6553,0,1.1172-.2764,1.3857-.8301v-3.1348c-.2637-.5527-.7207-.8301-1.3711-.8301-1.0215,0-1.5322,.8301-1.5322,2.4893Z"/></g><g><path class="cls-2" d="M354.2861,306.1045v3.7607h-2.1992v-10.6738h4.1641c.8018,0,1.5068,.1465,2.1152,.4395s1.0762,.71,1.4033,1.25c.3281,.54,.4912,1.1543,.4912,1.8438,0,1.0459-.3574,1.8711-1.0732,2.4746-.7168,.6035-1.707,.9053-2.9736,.9053h-1.9277Zm0-1.7812h1.9648c.582,0,1.0254-.1367,1.3311-.4111,.3047-.2734,.458-.6641,.458-1.1729,0-.5225-.1543-.9453-.4619-1.2686-.3076-.3223-.7334-.4883-1.2754-.498h-2.0166v3.3506Z"/><path class="cls-2" d="M367.584,309.0586c-.5234,.6357-1.2461,.9531-2.1699,.9531-.8506,0-1.499-.2441-1.9463-.7334-.4473-.4883-.6758-1.2041-.6855-2.1475v-5.1982h2.1182v5.1309c0,.8271,.377,1.2402,1.1289,1.2402,.7188,0,1.2129-.25,1.4814-.749v-5.6221h2.126v7.9326h-1.9941l-.0586-.8066Z"/><path class="cls-2" d="M376.7324,307.6729c0-.2588-.1289-.4629-.3857-.6113-.2559-.1494-.668-.2832-1.2354-.4004-1.8867-.3955-2.8291-1.1973-2.8291-2.4043,0-.7041,.292-1.291,.876-1.7627s1.3477-.708,2.291-.708c1.0068,0,1.8115,.2373,2.415,.7109,.6035,.4746,.9053,1.0898,.9053,1.8477h-2.1182c0-.3027-.0977-.5537-.293-.751-.1963-.1982-.501-.2969-.917-.2969-.3564,0-.6328,.0801-.8281,.2412s-.293,.3672-.293,.6162c0,.2344,.1104,.4238,.333,.5684,.2227,.1436,.5977,.2686,1.126,.374,.5273,.1045,.9717,.2236,1.334,.3555,1.1191,.4102,1.6787,1.1211,1.6787,2.1328,0,.7236-.3105,1.3086-.9307,1.7559-.6211,.4473-1.4229,.6709-2.4053,.6709-.6641,0-1.2549-.1182-1.7705-.3555s-.9199-.5615-1.2129-.9746-.4404-.8594-.4404-1.3379h2.0088c.0195,.376,.1592,.6641,.418,.8643,.2588,.2012,.6064,.3008,1.041,.3008,.4062,0,.7129-.0771,.9199-.2305,.208-.1543,.3125-.3555,.3125-.6055Z"/><path class="cls-2" d="M383.4238,302.7979c.5625-.6748,1.2686-1.0117,2.1191-1.0117,1.7197,0,2.5928,1,2.6172,2.999v5.0801h-2.1191v-5.0215c0-.4551-.0977-.791-.293-1.0088-.1953-.2168-.5205-.3262-.9746-.3262-.6211,0-1.0703,.2402-1.3496,.7188v5.6377h-2.1182v-11.2607h2.1182v4.1934Z"/><path class="cls-2" d="M395.0791,306.1484h-4.127v-1.708h4.127v1.708Z"/><path class="cls-2" d="M405.1299,305.9727c0,1.2705-.2715,2.2617-.8145,2.9727-.542,.7109-1.2998,1.0664-2.2725,1.0664-.8604,0-1.5469-.3301-2.0596-.9893l-.0957,.8428h-1.9062v-11.2607h2.1191v4.0391c.4883-.5713,1.1309-.8574,1.9277-.8574,.9678,0,1.7266,.3555,2.2764,1.0664,.5498,.7119,.8252,1.7119,.8252,3.0029v.1172Zm-2.1191-.1543c0-.8018-.127-1.3867-.3809-1.7559s-.6328-.5537-1.1367-.5537c-.6738,0-1.1387,.2764-1.3926,.8291v3.1299c.2588,.5576,.7285,.8359,1.4072,.8359,.6846,0,1.1338-.3369,1.3496-1.0117,.1025-.3223,.1533-.8135,.1533-1.4736Z"/><path class="cls-2" d="M412.2324,309.8652c-.0977-.1904-.168-.4277-.2119-.7109-.5137,.5713-1.1807,.8574-2.002,.8574-.7773,0-1.4209-.2246-1.9316-.6748-.5107-.4492-.7666-1.0156-.7666-1.7002,0-.8408,.3125-1.4863,.9355-1.9355s1.5234-.6768,2.7012-.6816h.9756v-.4551c0-.3662-.0947-.6592-.2832-.8799-.1875-.2197-.4844-.3291-.8906-.3291-.3564,0-.6367,.085-.8389,.2559-.2031,.1719-.3047,.4062-.3047,.7041h-2.1182c0-.459,.1416-.8848,.4248-1.2754,.2832-.3916,.6846-.6982,1.2021-.9199,.5186-.2227,1.0996-.334,1.7451-.334,.9775,0,1.7529,.2461,2.3271,.7373,.5752,.4912,.8623,1.1816,.8623,2.0703v3.4385c.0049,.7529,.1094,1.3223,.3145,1.708v.125h-2.1406Zm-1.752-1.4736c.3125,0,.6016-.0693,.8652-.209s.459-.3262,.5869-.5605v-1.3643h-.792c-1.0605,0-1.625,.3672-1.6934,1.1006l-.0078,.124c0,.2637,.0928,.4814,.2783,.6523,.1855,.1719,.4404,.2568,.7627,.2568Z"/><path class="cls-2" d="M421.1836,307.6729c0-.2588-.1289-.4629-.3857-.6113-.2559-.1494-.668-.2832-1.2354-.4004-1.8867-.3955-2.8291-1.1973-2.8291-2.4043,0-.7041,.292-1.291,.876-1.7627s1.3477-.708,2.291-.708c1.0068,0,1.8115,.2373,2.415,.7109,.6035,.4746,.9053,1.0898,.9053,1.8477h-2.1182c0-.3027-.0977-.5537-.293-.751-.1963-.1982-.501-.2969-.917-.2969-.3564,0-.6328,.0801-.8281,.2412s-.293,.3672-.293,.6162c0,.2344,.1104,.4238,.333,.5684,.2227,.1436,.5977,.2686,1.126,.374,.5273,.1045,.9717,.2236,1.334,.3555,1.1191,.4102,1.6787,1.1211,1.6787,2.1328,0,.7236-.3105,1.3086-.9307,1.7559-.6211,.4473-1.4229,.6709-2.4053,.6709-.6641,0-1.2549-.1182-1.7705-.3555s-.9199-.5615-1.2129-.9746-.4404-.8594-.4404-1.3379h2.0088c.0195,.376,.1592,.6641,.418,.8643,.2588,.2012,.6064,.3008,1.041,.3008,.4062,0,.7129-.0771,.9199-.2305,.208-.1543,.3125-.3555,.3125-.6055Z"/><path class="cls-2" d="M429.459,310.0117c-1.1631,0-2.1104-.3564-2.8408-1.0703s-1.0957-1.6641-1.0957-2.8516v-.2051c0-.7969,.1533-1.5098,.4609-2.1377,.3086-.6279,.7441-1.1113,1.3086-1.4512,.5654-.3398,1.209-.5098,1.9326-.5098,1.085,0,1.9385,.3418,2.5615,1.0264,.624,.6846,.9355,1.6543,.9355,2.9102v.8652h-5.0518c.0684,.5186,.2754,.9336,.6191,1.2471,.3447,.3125,.7812,.4688,1.3096,.4688,.8154,0,1.4531-.2959,1.9131-.8867l1.041,1.165c-.3174,.4502-.748,.8008-1.29,1.0527-.543,.251-1.1436,.377-1.8037,.377Zm-.2422-6.5176c-.4199,0-.7607,.1426-1.0225,.4277-.2617,.2842-.4287,.6924-.502,1.2217h2.9473v-.1689c-.0107-.4717-.1377-.8359-.3818-1.0938s-.5908-.3867-1.041-.3867Z"/><path class="cls-2" d="M434.7939,305.8408c0-1.2373,.2773-2.2217,.833-2.9551,.5547-.7334,1.3125-1.0996,2.2764-1.0996,.7715,0,1.4092,.2881,1.9131,.8652v-4.0469h2.126v11.2607h-1.9131l-.1035-.8428c-.5273,.6592-1.207,.9893-2.0371,.9893-.9336,0-1.6826-.3672-2.2471-1.1035-.5654-.7354-.8477-1.7578-.8477-3.0674Zm2.1191,.1572c0,.7441,.1299,1.3145,.3887,1.7109s.6348,.5947,1.1289,.5947c.6553,0,1.1172-.2764,1.3857-.8301v-3.1348c-.2637-.5527-.7207-.8301-1.3711-.8301-1.0215,0-1.5322,.8301-1.5322,2.4893Z"/></g><g><g><path class="cls-2" d="M348.4095,228.0481h12c1.9817,0,3.5905,1.6088,3.5905,3.5905v26.8216c0,1.9817-1.6088,3.5905-3.5905,3.5905h-12c-1.9817,0-3.5905-1.6088-3.5905-3.5905v-26.8216c0-1.9817,1.6088-3.5905,3.5905-3.5905Z"/><rect class="cls-2" x="347.5799" y="230.809" width="13.6592" height="13.6592" rx="3.8296" ry="3.8296"/><rect class="cls-2" x="350.5425" y="257.4007" width="7.6451" height="3.2916" rx="1.6458" ry="1.6458"/><rect class="cls-2" x="345.1938" y="253.2378" width="1.0783" height="1.1115" rx=".192" ry=".192"/><rect class="cls-2" x="345.1938" y="250.3315" width="1.0783" height="1.1115" rx=".192" ry=".192"/><rect class="cls-2" x="345.1938" y="247.4253" width="1.0783" height="1.1115" rx=".192" ry=".192"/><rect class="cls-2" x="345.1938" y="244.5191" width="1.0783" height="1.1115" rx=".192" ry=".192"/><rect class="cls-2" x="345.1938" y="241.6129" width="1.0783" height="1.1115" rx=".192" ry=".192"/><rect class="cls-2" x="345.1938" y="238.7067" width="1.0783" height="1.1115" rx=".192" ry=".192"/><rect class="cls-2" x="345.1938" y="235.8005" width="1.0783" height="1.1115" rx=".192" ry=".192"/><rect class="cls-2" x="362.6311" y="253.2378" width="1.0783" height="1.1115" rx=".192" ry=".192"/><rect class="cls-2" x="362.6311" y="250.3315" width="1.0783" height="1.1115" rx=".192" ry=".192"/><rect class="cls-2" x="362.6311" y="247.4253" width="1.0783" height="1.1115" rx=".192" ry=".192"/><rect class="cls-2" x="362.6311" y="244.5191" width="1.0783" height="1.1115" rx=".192" ry=".192"/><rect class="cls-2" x="362.6311" y="241.6129" width="1.0783" height="1.1115" rx=".192" ry=".192"/><rect class="cls-2" x="362.6311" y="238.7067" width="1.0783" height="1.1115" rx=".192" ry=".192"/><rect class="cls-2" x="362.6311" y="235.8005" width="1.0783" height="1.1115" rx=".192" ry=".192"/></g><g><line class="cls-4" x1="404" y1="245.5" x2="369.6267" y2="245.5"/><polygon class="cls-1" points="374.5969 239.3652 375.6201 240.4639 370.2024 245.4985 375.6201 250.5347 374.5969 251.6333 368 245.4985 374.5969 239.3652"/></g><g><g><path class="cls-2" d="M408.9948,260.5233h43.0246s.383,3.0258-5.1068,3.0258h-33.2579c-3.9578,0-4.7238-3.0258-4.6599-3.0258Z"/><g><rect class="cls-1" x="425.709" y="261.2949" width="9.7246" height=".4736"/><polygon class="cls-1" points="435.9331 260.7948 425.209 260.7948 425.209 262.2689 435.9331 262.2689 435.9331 260.7948 435.9331 260.7948"/></g></g><rect class="cls-2" x="409.0702" y="228.5" width="42.9838" height="31.1375" rx="5" ry="5"/><rect class="cls-2" x="410.4453" y="229.4961" width="40.2335" height="29.1452" rx="5" ry="5"/></g></g><g><g><path class="cls-2" d="M348.4095,318.0481h12c1.9817,0,3.5905,1.6088,3.5905,3.5905v26.8216c0,1.9817-1.6088,3.5905-3.5905,3.5905h-12c-1.9817,0-3.5905-1.6088-3.5905-3.5905v-26.8216c0-1.9817,1.6088-3.5905,3.5905-3.5905Z"/><rect class="cls-2" x="347.5799" y="320.809" width="13.6592" height="13.6592" rx="3.8296" ry="3.8296"/><rect class="cls-2" x="350.5425" y="347.4007" width="7.6451" height="3.2916" rx="1.6458" ry="1.6458"/><rect class="cls-2" x="345.1938" y="343.2378" width="1.0783" height="1.1115" rx=".192" ry=".192"/><rect class="cls-2" x="345.1938" y="340.3315" width="1.0783" height="1.1115" rx=".192" ry=".192"/><rect class="cls-2" x="345.1938" y="337.4253" width="1.0783" height="1.1115" rx=".192" ry=".192"/><rect class="cls-2" x="345.1938" y="334.5191" width="1.0783" height="1.1115" rx=".192" ry=".192"/><rect class="cls-2" x="345.1938" y="331.6129" width="1.0783" height="1.1115" rx=".192" ry=".192"/><rect class="cls-2" x="345.1938" y="328.7067" width="1.0783" height="1.1115" rx=".192" ry=".192"/><rect class="cls-2" x="345.1938" y="325.8005" width="1.0783" height="1.1115" rx=".192" ry=".192"/><rect class="cls-2" x="362.6311" y="343.2378" width="1.0783" height="1.1115" rx=".192" ry=".192"/><rect class="cls-2" x="362.6311" y="340.3315" width="1.0783" height="1.1115" rx=".192" ry=".192"/><rect class="cls-2" x="362.6311" y="337.4253" width="1.0783" height="1.1115" rx=".192" ry=".192"/><rect class="cls-2" x="362.6311" y="334.5191" width="1.0783" height="1.1115" rx=".192" ry=".192"/><rect class="cls-2" x="362.6311" y="331.6129" width="1.0783" height="1.1115" rx=".192" ry=".192"/><rect class="cls-2" x="362.6311" y="328.7067" width="1.0783" height="1.1115" rx=".192" ry=".192"/><rect class="cls-2" x="362.6311" y="325.8005" width="1.0783" height="1.1115" rx=".192" ry=".192"/></g><g><line class="cls-4" x1="368" y1="335.5" x2="402.373" y2="335.5"/><polygon class="cls-1" points="397.4028 341.6348 396.3799 340.5361 401.7974 335.5015 396.3799 330.4653 397.4028 329.3667 404 335.5015 397.4028 341.6348"/></g><g><g><path class="cls-2" d="M408.9948,350.5233h43.0246s.383,3.0258-5.1068,3.0258h-33.2579c-3.9578,0-4.7238-3.0258-4.6599-3.0258Z"/><g><rect class="cls-1" x="425.709" y="351.2949" width="9.7246" height=".4736"/><polygon class="cls-1" points="435.9331 350.7948 425.209 350.7948 425.209 352.2689 435.9331 352.2689 435.9331 350.7948 435.9331 350.7948"/></g></g><rect class="cls-2" x="409.0702" y="318.5" width="42.9838" height="31.1375" rx="5" ry="5"/><rect class="cls-2" x="410.4453" y="319.4961" width="40.2335" height="29.1452" rx="5" ry="5"/></g></g></g></svg>