<?xml version="1.0" encoding="UTF-8"?><svg id="Layer_2" xmlns="http://www.w3.org/2000/svg" xmlns:xlink="http://www.w3.org/1999/xlink" viewBox="0 0 624.5 317.625"><defs><style>.cls-1{fill:#a7d4c5;}.cls-1,.cls-2,.cls-3,.cls-4,.cls-5,.cls-6,.cls-7,.cls-8{stroke:#404041;}.cls-1,.cls-3,.cls-4,.cls-5,.cls-6,.cls-8{stroke-miterlimit:10;}.cls-2,.cls-4,.cls-7{stroke-linecap:round;}.cls-2,.cls-5{fill:#e2e4e6;}.cls-2,.cls-7{stroke-linejoin:round;}.cls-9,.cls-6{fill:#fff;}.cls-3,.cls-4,.cls-10,.cls-7{fill:none;}.cls-11{fill:#404041;}.cls-4,.cls-7{stroke-width:2px;}.cls-12{clip-path:url(#clippath);}.cls-7{stroke-dasharray:0 0 14 21;}.cls-8{fill:#f6a6b0;}</style><clipPath id="clippath"><rect class="cls-10" x="6.328" y="72.0067" width="244.9846" height="177.4671" rx="10" ry="10"/></clipPath></defs><g id="slide_7"><g><g><line class="cls-7" x1="283.3328" y1="22.9732" x2="283.5001" y2="316.625"/><g><path class="cls-11" d="M165.3955,33.9697l1.3589-7.8203,2.2451,.0059c.5264,.0098,1,.1289,1.4209,.3564,.4204,.2275,.7617,.5547,1.0229,.9805s.4189,.9062,.4727,1.4395c.0288,.3115,.0249,.6299-.0107,.9561l-.0376,.2852c-.1577,1.1455-.6079,2.0645-1.3506,2.7578-.7432,.6924-1.6445,1.0391-2.7046,1.0391h-2.417Zm2.707-6.5156l-.9077,5.2207,.6553,.0059c.7231,0,1.3042-.2646,1.7432-.7949,.4385-.5303,.6899-1.3301,.7544-2.4004l.0107-.1719c.0107-.5918-.1021-1.0439-.3384-1.3594s-.5889-.4795-1.0581-.4941l-.8594-.0059Z"/><path class="cls-11" d="M175.3223,34.0771c-.5083-.0039-.9585-.1279-1.3511-.373-.3916-.2451-.6846-.582-.8779-1.0098s-.2686-.9004-.2256-1.416l.0161-.2148c.0537-.5654,.2183-1.084,.4941-1.5566s.6304-.8379,1.0635-1.0938,.9131-.377,1.4395-.3623c.7485,.0146,1.3149,.29,1.6997,.8262,.3853,.5361,.5312,1.2148,.438,2.0352l-.0859,.6621h-3.561c-.0142,.376,.0771,.6768,.2739,.9023s.4653,.3418,.8057,.3486c.5513,.0146,1.0347-.2002,1.4502-.6445l.6929,.8594c-.2183,.3301-.5337,.5869-.9453,.7715s-.854,.2725-1.3267,.2656Zm.4834-4.7754c-.2793-.0068-.5273,.0811-.7437,.2637-.2168,.1826-.4111,.5-.583,.9512h2.084l.0322-.1406c.0215-.1426,.0234-.2793,.0054-.4082-.0356-.207-.1235-.3691-.2632-.4854s-.3169-.1768-.5317-.1807Z"/><path class="cls-11" d="M181.0327,32.0518l1.6543-3.8936h1.6328l-2.8091,5.8115h-1.4502l-.9937-5.8115h1.5361l.4297,3.8936Z"/><path class="cls-11" d="M187.0015,34.0771c-.5083-.0039-.9585-.1279-1.3511-.373-.3916-.2451-.6846-.582-.8779-1.0098s-.2686-.9004-.2256-1.416l.0161-.2148c.0537-.5654,.2183-1.084,.4941-1.5566s.6304-.8379,1.0635-1.0938,.9131-.377,1.4395-.3623c.7485,.0146,1.3149,.29,1.6997,.8262,.3853,.5361,.5312,1.2148,.438,2.0352l-.0859,.6621h-3.561c-.0142,.376,.0771,.6768,.2739,.9023s.4653,.3418,.8057,.3486c.5513,.0146,1.0347-.2002,1.4502-.6445l.6929,.8594c-.2183,.3301-.5337,.5869-.9453,.7715s-.854,.2725-1.3267,.2656Zm.4834-4.7754c-.2793-.0068-.5273,.0811-.7437,.2637-.2168,.1826-.4111,.5-.583,.9512h2.084l.0322-.1406c.0215-.1426,.0234-.2793,.0054-.4082-.0356-.207-.1235-.3691-.2632-.4854s-.3169-.1768-.5317-.1807Z"/><path class="cls-11" d="M191.9385,33.9697h-1.5254l1.4341-8.25h1.52l-1.4287,8.25Z"/><path class="cls-11" d="M196.8218,28.0508c.5122,.0068,.9531,.1387,1.3242,.3945,.3701,.2559,.6426,.6094,.8164,1.0586,.1733,.4492,.2354,.9482,.1851,1.4951-.0825,.9238-.4038,1.6719-.9644,2.2432-.5601,.5713-1.252,.8496-2.0757,.835-.5049-.0068-.9419-.1367-1.3105-.3896-.3687-.252-.6411-.6025-.8164-1.0498s-.2383-.9414-.188-1.4824c.0933-.96,.4189-1.7227,.9775-2.2881s1.2427-.8379,2.0518-.8164Zm-1.5308,3.6543c.0073,.3428,.0879,.6143,.2417,.8125s.3706,.3008,.6499,.3076c.4653,.0146,.8306-.1992,1.0957-.6406s.3887-1.0215,.3706-1.7402c-.0142-.3428-.0977-.6172-.25-.8232-.1519-.2051-.3696-.3115-.6523-.3193-.4512-.0137-.812,.1982-1.082,.6357-.2705,.4385-.395,1.0273-.3735,1.7676Z"/><path class="cls-11" d="M205.438,31.0801c-.0752,.6084-.2344,1.1494-.478,1.6221s-.5459,.8232-.9077,1.0527-.7627,.3379-1.2031,.3281c-.562-.0146-1.0063-.2246-1.332-.6289l-.5317,2.75h-1.5146l1.3911-8.0459,1.3965-.0049-.1021,.585c.4189-.4727,.9131-.7021,1.4824-.6875s1.0117,.2207,1.3267,.6201,.4834,.9414,.5049,1.625c.0073,.2217-.0034,.4834-.0322,.7842Zm-1.5039-.1104l.0322-.5166c.0073-.3477-.0566-.624-.1904-.8281-.1348-.2041-.3306-.3105-.5884-.3174-.4404-.0146-.8037,.1719-1.0903,.5596l-.4351,2.3994c.1323,.3623,.417,.5498,.854,.5645,.3652,.0107,.6694-.1309,.9131-.4248s.4116-.7725,.5049-1.4365Z"/><path class="cls-11" d="M208.9517,34.0771c-.5083-.0039-.9585-.1279-1.3511-.373-.3916-.2451-.6846-.582-.8779-1.0098s-.2686-.9004-.2256-1.416l.0161-.2148c.0537-.5654,.2183-1.084,.4941-1.5566s.6304-.8379,1.0635-1.0938,.9131-.377,1.4395-.3623c.7485,.0146,1.3149,.29,1.6997,.8262,.3853,.5361,.5312,1.2148,.438,2.0352l-.0859,.6621h-3.561c-.0142,.376,.0771,.6768,.2739,.9023s.4653,.3418,.8057,.3486c.5513,.0146,1.0347-.2002,1.4502-.6445l.6929,.8594c-.2183,.3301-.5337,.5869-.9453,.7715s-.854,.2725-1.3267,.2656Zm.4834-4.7754c-.2793-.0068-.5273,.0811-.7437,.2637-.2168,.1826-.4111,.5-.583,.9512h2.084l.0322-.1406c.0215-.1426,.0234-.2793,.0054-.4082-.0356-.207-.1235-.3691-.2632-.4854s-.3169-.1768-.5317-.1807Z"/><path class="cls-11" d="M216.2686,29.6143c-.2075-.0361-.3779-.0547-.5103-.0547-.5405-.0137-.9688,.1885-1.2837,.6074l-.6714,3.8027h-1.5146l1.0098-5.8115,1.4233-.0049-.1396,.709c.3652-.5488,.8164-.8223,1.3535-.8223,.1504,0,.3257,.0254,.5264,.0752l-.1934,1.499Z"/><path class="cls-11" d="M218.1118,28.5615l-.7681-.4512c.3687-.5303,.5996-.9961,.6929-1.3965l.1772-.9941h1.2085l-.1235,.7949c-.1216,.791-.5176,1.4736-1.187,2.0469Z"/><path class="cls-11" d="M221.4966,32.3311c.0571-.2861-.1416-.4941-.5962-.623l-.4888-.123c-1.1567-.3184-1.7188-.8809-1.6865-1.6865,.0181-.5479,.2607-.9941,.7275-1.3398,.4678-.3457,1.0308-.5146,1.6895-.5078,.6553,.0068,1.1851,.1807,1.5898,.5205,.4048,.3408,.6104,.7939,.6177,1.3594l-1.5039-.0059c.0073-.4971-.2397-.75-.7412-.7568-.2363,0-.4414,.0596-.6147,.1768-.1738,.1191-.2803,.2783-.3198,.4785-.0537,.2861,.1631,.4883,.6499,.6074l.2148,.0479c.4941,.1182,.8721,.2529,1.1333,.4053s.4629,.3418,.604,.5664c.1416,.2266,.207,.4961,.1963,.8115-.0107,.3691-.1299,.6914-.3574,.9668-.2271,.2754-.5386,.4893-.9346,.6396-.3955,.1504-.8115,.2197-1.2485,.209-.6445-.0068-1.1816-.1924-1.6113-.5557s-.6479-.834-.6553-1.4102l1.4287,.0107c.0142,.5547,.3115,.8359,.8916,.8438,.2793,0,.5093-.0576,.6899-.1719,.1812-.1152,.2896-.2695,.3252-.4629Z"/><path class="cls-11" d="M230.4038,26.1494l.9614,5.6562,2.9165-5.6562h2.0947l-1.3589,7.8203h-1.5791l.3867-2.2285,.7627-3.4805-2.9971,5.709h-1.0796l-1.0474-5.9082-.5049,3.8516-.3599,2.0566h-1.5737l1.3589-7.8203h2.0195Z"/><path class="cls-11" d="M239.9658,33.9697c-.0464-.1465-.0664-.3223-.0591-.5264-.437,.4365-.9312,.6484-1.4824,.6338-.5083-.0068-.9302-.1729-1.2646-.4971-.335-.3242-.4917-.7236-.4702-1.2002,.0249-.6338,.291-1.1201,.7974-1.458,.5068-.3389,1.1865-.5078,2.0386-.5078l.709,.0107,.0752-.3496c.0215-.1172,.0269-.2305,.0161-.3379-.0181-.168-.0815-.2998-.1904-.3945-.1094-.0947-.2534-.1445-.4326-.1484-.2363-.0068-.437,.0518-.6016,.1748-.1646,.124-.2705,.3018-.3169,.5342l-1.52,.0059c.0249-.5547,.2803-1.0049,.7656-1.3506,.4849-.3457,1.084-.5146,1.7964-.5078,.6587,.0146,1.1743,.21,1.5469,.5879s.5283,.8643,.4673,1.458l-.4458,2.7832-.0269,.3438c-.0073,.2539,.0234,.4688,.0913,.6445l-.0054,.1016h-1.4878Zm-1.1655-1.0684c.437,.0137,.8184-.1758,1.144-.5703l.188-1.0039-.5264-.0059c-.5586,.0146-.9614,.1846-1.2085,.5107-.0894,.1182-.145,.2627-.1665,.4346-.0288,.1934,.0117,.3467,.1211,.46,.1089,.1123,.2583,.1709,.4482,.1748Z"/><path class="cls-11" d="M245.1982,32.8311c.2793,.0068,.5122-.0693,.6982-.2285s.3081-.3711,.3652-.6367l1.4233-.0049c-.0249,.4082-.1533,.7754-.3838,1.1006-.2314,.3262-.5391,.5801-.9238,.7637-.3853,.1816-.7905,.2676-1.2168,.2578-.7056-.0117-1.2642-.2549-1.6758-.7305-.4116-.4766-.6104-1.1104-.5962-1.9023l.0161-.2949,.0054-.0586c.0967-.9453,.4155-1.6953,.9561-2.248,.5405-.5537,1.2085-.8193,2.0034-.7979,.6553,.0146,1.1753,.2285,1.5605,.6416,.3848,.4141,.5737,.959,.5664,1.6357h-1.4126c0-.3115-.0679-.5566-.2041-.7354-.1362-.1797-.3403-.2764-.6123-.291-.7231-.0215-1.1621,.5068-1.3159,1.585-.0537,.3906-.0732,.7197-.0591,.9883,.0356,.627,.3042,.9453,.8057,.9561Z"/><path class="cls-11" d="M250.855,28.8027c.4546-.5088,.9795-.7588,1.5737-.752,.5767,.0146,1,.2207,1.2705,.6201,.27,.3994,.3711,.9443,.3032,1.6357l-.6123,3.6631h-1.5146l.6177-3.6836c.0181-.1396,.0215-.2686,.0107-.3867-.0356-.3877-.2612-.5859-.6768-.5977-.4082-.0137-.7661,.1621-1.0742,.5273l-.7305,4.1406h-1.5146l1.4287-8.25h1.52l-.6016,3.083Z"/><path class="cls-11" d="M256.4473,33.9697h-1.5254l1.0098-5.8115h1.5254l-1.0098,5.8115Zm-.3384-7.2891c-.0073-.2393,.0718-.4385,.2363-.5957s.3633-.2363,.5962-.2363c.229-.0068,.4277,.0625,.5962,.209,.1685,.1475,.2559,.3369,.2632,.5703,.0073,.2217-.0669,.415-.2231,.5801-.1553,.1641-.3589,.25-.6094,.2578-.2256,.0068-.4233-.0615-.5938-.2051-.1699-.1426-.2583-.3359-.2656-.5801Z"/><path class="cls-11" d="M260.4014,28.1533l-.1289,.6875c.4653-.541,1.0293-.8047,1.6919-.79,.5479,.0107,.9526,.2109,1.2139,.6016s.3564,.9307,.2847,1.6221l-.6123,3.6953h-1.5146l.623-3.7109c.0181-.1406,.0215-.2676,.0107-.3818-.0464-.3652-.2759-.5537-.6875-.5635-.3975-.0146-.7539,.1699-1.0688,.5527l-.7251,4.1035h-1.5146l1.0098-5.8115,1.418-.0049Z"/><path class="cls-11" d="M267.0737,34.0771c-.5083-.0039-.9585-.1279-1.3511-.373-.3916-.2451-.6846-.582-.8779-1.0098s-.2686-.9004-.2256-1.416l.0161-.2148c.0537-.5654,.2183-1.084,.4941-1.5566s.6304-.8379,1.0635-1.0938,.9131-.377,1.4395-.3623c.7485,.0146,1.3149,.29,1.6997,.8262,.3853,.5361,.5312,1.2148,.438,2.0352l-.0859,.6621h-3.561c-.0142,.376,.0771,.6768,.2739,.9023s.4653,.3418,.8057,.3486c.5513,.0146,1.0347-.2002,1.4502-.6445l.6929,.8594c-.2183,.3301-.5337,.5869-.9453,.7715s-.854,.2725-1.3267,.2656Zm.4834-4.7754c-.2793-.0068-.5273,.0811-.7437,.2637-.2168,.1826-.4111,.5-.583,.9512h2.084l.0322-.1406c.0215-.1426,.0234-.2793,.0054-.4082-.0356-.207-.1235-.3691-.2632-.4854s-.3169-.1768-.5317-.1807Z"/></g><g><path class="cls-11" d="M298.6338,26.1494l.9619,5.6562,2.916-5.6562h2.0947l-1.3584,7.8203h-1.5801l.3867-2.2285,.7637-3.4805-2.998,5.709h-1.0791l-1.0479-5.9082-.5039,3.8516-.3604,2.0566h-1.5732l1.3584-7.8203h2.0195Z"/><path class="cls-11" d="M306.4346,33.9697h-1.5254l1.0098-5.8115h1.5254l-1.0098,5.8115Zm-.3389-7.2891c-.0068-.2393,.0713-.4385,.2363-.5957s.3633-.2363,.5967-.2363c.2285-.0068,.4277,.0625,.5957,.209,.168,.1475,.2559,.3369,.2637,.5703,.0068,.2217-.0674,.415-.2236,.5801-.1553,.1641-.3584,.25-.6094,.2578-.2256,.0068-.4238-.0615-.5938-.2051-.1699-.1426-.2588-.3359-.2656-.5801Z"/><path class="cls-11" d="M310.5391,32.8311c.2793,.0068,.5117-.0693,.6973-.2285,.1865-.1592,.3086-.3711,.3652-.6367l1.4238-.0049c-.0254,.4082-.1533,.7754-.3838,1.1006-.2314,.3262-.5391,.5801-.9238,.7637-.3848,.1816-.791,.2676-1.2168,.2578-.7051-.0117-1.2637-.2549-1.6758-.7305-.4121-.4766-.6104-1.1104-.5967-1.9023l.0166-.2949,.0049-.0586c.0977-.9453,.416-1.6953,.957-2.248,.54-.5537,1.208-.8193,2.0029-.7979,.6553,.0146,1.1758,.2285,1.5605,.6416,.3848,.4141,.5732,.959,.5664,1.6357h-1.4131c0-.3115-.0674-.5566-.2031-.7354-.1367-.1797-.3408-.2764-.6133-.291-.7227-.0215-1.1611,.5068-1.3154,1.585-.0537,.3906-.0732,.7197-.0596,.9883,.0361,.627,.3047,.9453,.8066,.9561Z"/><path class="cls-11" d="M317.8652,29.6143c-.208-.0361-.3779-.0547-.5098-.0547-.541-.0137-.9688,.1885-1.2842,.6074l-.6709,3.8027h-1.5156l1.0098-5.8115,1.4238-.0049-.1396,.709c.3652-.5488,.8164-.8223,1.3535-.8223,.1504,0,.3262,.0254,.5264,.0752l-.1934,1.499Z"/><path class="cls-11" d="M321.2393,28.0508c.5117,.0068,.9531,.1387,1.3242,.3945,.3701,.2559,.6426,.6094,.8164,1.0586s.2354,.9482,.1846,1.4951c-.082,.9238-.4033,1.6719-.9639,2.2432s-1.252,.8496-2.0752,.835c-.5059-.0068-.9424-.1367-1.3105-.3896-.3691-.252-.6416-.6025-.8164-1.0498-.1758-.4473-.2383-.9414-.1885-1.4824,.0928-.96,.4189-1.7227,.9775-2.2881s1.2422-.8379,2.0518-.8164Zm-1.5303,3.6543c.0068,.3428,.0869,.6143,.2412,.8125s.3701,.3008,.6494,.3076c.4658,.0146,.8311-.1992,1.0957-.6406,.2656-.4414,.3887-1.0215,.3711-1.7402-.0146-.3428-.0977-.6172-.25-.8232-.1523-.2051-.3691-.3115-.6523-.3193-.4512-.0137-.8115,.1982-1.082,.6357-.2705,.4385-.3945,1.0273-.373,1.7676Z"/><path class="cls-11" d="M326.8223,32.8311c.2793,.0068,.5117-.0693,.6973-.2285,.1865-.1592,.3086-.3711,.3652-.6367l1.4238-.0049c-.0254,.4082-.1533,.7754-.3838,1.1006-.2314,.3262-.5391,.5801-.9238,.7637-.3848,.1816-.791,.2676-1.2168,.2578-.7051-.0117-1.2637-.2549-1.6758-.7305-.4121-.4766-.6104-1.1104-.5967-1.9023l.0166-.2949,.0049-.0586c.0977-.9453,.416-1.6953,.957-2.248,.54-.5537,1.208-.8193,2.0029-.7979,.6553,.0146,1.1758,.2285,1.5605,.6416,.3848,.4141,.5732,.959,.5664,1.6357h-1.4131c0-.3115-.0674-.5566-.2031-.7354-.1367-.1797-.3408-.2764-.6133-.291-.7227-.0215-1.1611,.5068-1.3154,1.585-.0537,.3906-.0732,.7197-.0596,.9883,.0361,.627,.3047,.9453,.8066,.9561Z"/><path class="cls-11" d="M333.4932,28.0508c.5117,.0068,.9531,.1387,1.3242,.3945,.3701,.2559,.6426,.6094,.8164,1.0586s.2354,.9482,.1846,1.4951c-.082,.9238-.4033,1.6719-.9639,2.2432s-1.252,.8496-2.0752,.835c-.5059-.0068-.9424-.1367-1.3105-.3896-.3691-.252-.6416-.6025-.8164-1.0498-.1758-.4473-.2383-.9414-.1885-1.4824,.0928-.96,.4189-1.7227,.9775-2.2881s1.2422-.8379,2.0518-.8164Zm-1.5303,3.6543c.0068,.3428,.0869,.6143,.2412,.8125s.3701,.3008,.6494,.3076c.4658,.0146,.8311-.1992,1.0957-.6406,.2656-.4414,.3887-1.0215,.3711-1.7402-.0146-.3428-.0977-.6172-.25-.8232-.1523-.2051-.3691-.3115-.6523-.3193-.4512-.0137-.8115,.1982-1.082,.6357-.2705,.4385-.3945,1.0273-.373,1.7676Z"/><path class="cls-11" d="M338.9248,28.1533l-.1289,.6875c.4648-.541,1.0293-.8047,1.6914-.79,.5479,.0107,.9521,.2109,1.2139,.6016s.3564,.9307,.2842,1.6221l-.6113,3.6953h-1.5156l.623-3.7109c.0186-.1406,.0215-.2676,.0117-.3818-.0469-.3652-.2764-.5537-.6875-.5635-.3984-.0146-.7539,.1699-1.0693,.5527l-.7256,4.1035h-1.5137l1.0098-5.8115,1.418-.0049Z"/><path class="cls-11" d="M345.9072,26.7295l-.252,1.4287h.9668l-.1992,1.1387h-.9668l-.4941,2.9111c-.0215,.1826-.0068,.3223,.043,.4189,.0508,.0967,.1719,.1484,.3652,.1553,.0576,.0039,.2119-.0049,.4629-.0264l-.1074,1.1865c-.2695,.0898-.5586,.1309-.8711,.124-.4971-.0068-.8682-.1631-1.1113-.4678-.2432-.3037-.3438-.7158-.3008-1.2344l.5-3.0674h-.8223l.1992-1.1387h.8213l.2471-1.4287h1.5195Z"/><path class="cls-11" d="M350.748,29.6143c-.208-.0361-.3779-.0547-.5098-.0547-.541-.0137-.9688,.1885-1.2842,.6074l-.6709,3.8027h-1.5156l1.0098-5.8115,1.4238-.0049-.1396,.709c.3652-.5488,.8164-.8223,1.3535-.8223,.1504,0,.3262,.0254,.5264,.0752l-.1934,1.499Z"/><path class="cls-11" d="M354.1221,28.0508c.5117,.0068,.9531,.1387,1.3242,.3945,.3701,.2559,.6426,.6094,.8164,1.0586s.2354,.9482,.1846,1.4951c-.082,.9238-.4033,1.6719-.9639,2.2432s-1.252,.8496-2.0752,.835c-.5059-.0068-.9424-.1367-1.3105-.3896-.3691-.252-.6416-.6025-.8164-1.0498-.1758-.4473-.2383-.9414-.1885-1.4824,.0928-.96,.4189-1.7227,.9775-2.2881s1.2422-.8379,2.0518-.8164Zm-1.5303,3.6543c.0068,.3428,.0869,.6143,.2412,.8125s.3701,.3008,.6494,.3076c.4658,.0146,.8311-.1992,1.0957-.6406,.2656-.4414,.3887-1.0215,.3711-1.7402-.0146-.3428-.0977-.6172-.25-.8232-.1523-.2051-.3691-.3115-.6523-.3193-.4512-.0137-.8115,.1982-1.082,.6357-.2705,.4385-.3945,1.0273-.373,1.7676Z"/><path class="cls-11" d="M358.7598,33.9697h-1.5254l1.4336-8.25h1.5195l-1.4277,8.25Z"/><path class="cls-11" d="M361.9189,33.9697h-1.5254l1.4336-8.25h1.5195l-1.4277,8.25Z"/><path class="cls-11" d="M366.2383,34.0771c-.5088-.0039-.959-.1279-1.3516-.373-.3916-.2451-.6846-.582-.8779-1.0098s-.2686-.9004-.2256-1.416l.0156-.2148c.0547-.5654,.2188-1.084,.4941-1.5566,.2764-.4727,.6309-.8379,1.0645-1.0938,.4326-.2559,.9121-.377,1.4395-.3623,.748,.0146,1.3145,.29,1.6992,.8262s.5312,1.2148,.4375,2.0352l-.0859,.6621h-3.5605c-.0146,.376,.0771,.6768,.2734,.9023,.1973,.2256,.4658,.3418,.8066,.3486,.5508,.0146,1.0342-.2002,1.4492-.6445l.6934,.8594c-.2188,.3301-.5332,.5869-.9453,.7715s-.8535,.2725-1.3262,.2656Zm.4824-4.7754c-.2793-.0068-.5264,.0811-.7432,.2637s-.4111,.5-.583,.9512h2.084l.0322-.1406c.0215-.1426,.0234-.2793,.0049-.4082-.0352-.207-.123-.3691-.2627-.4854s-.3174-.1768-.5322-.1807Z"/><path class="cls-11" d="M373.5537,29.6143c-.208-.0361-.3779-.0547-.5098-.0547-.541-.0137-.9688,.1885-1.2842,.6074l-.6709,3.8027h-1.5156l1.0098-5.8115,1.4238-.0049-.1396,.709c.3652-.5488,.8164-.8223,1.3535-.8223,.1504,0,.3262,.0254,.5264,.0752l-.1934,1.499Z"/></g></g><g><g><path class="cls-5" d="M.5212,258.625h255.9447s2.2784,18-30.3792,18H28.2422c-23.5439,0-28.1008-18-27.721-18Z"/><g><rect class="cls-9" x="97.4751" y="260.7402" width="62.7964" height="7.7695"/><path class="cls-11" d="M159.7714,261.2404v6.7693h-61.7963v-6.7693h61.7963m1-1h-63.7963v8.7693h63.7963v-8.7693h0Z"/></g></g><rect class="cls-5" x=".9695" y="68.125" width="255.7016" height="185.2305" rx="10" ry="10"/><g class="cls-12"><image width="3840" height="2084" transform="translate(-5.5 67.625) scale(.0873)" xlink:href="screenshot-blink-debug.png"/></g><rect class="cls-3" x="6.328" y="72.0067" width="244.9846" height="177.4671" rx="10" ry="10"/><g><rect class="cls-5" x="13.1614" y="78.8719" width="230.9653" height="74.9592" rx="10" ry="10"/><g><g><line class="cls-3" x1="99.3859" y1="116.3514" x2="157.9022" y2="116.3514"/><polygon class="cls-11" points="157.1727 118.8446 161.4904 116.3514 157.1727 113.8583 157.1727 118.8446"/></g><g><g><polygon class="cls-6" points="87.1392 99.142 87.1392 139.2541 57.3982 139.2541 57.3982 104.812 64.538 99.142 87.1392 99.142"/><polyline class="cls-3" points="57.3982 104.812 64.2593 106.082 64.5464 98.99"/><line class="cls-3" x1="68.4342" y1="103.8769" x2="84.0294" y2="103.8769"/><line class="cls-3" x1="68.4342" y1="107.8315" x2="84.0294" y2="107.8315"/><line class="cls-3" x1="60.867" y1="121.2149" x2="84.0294" y2="121.2149"/><line class="cls-3" x1="60.867" y1="124.7507" x2="84.0294" y2="124.7507"/><rect class="cls-5" x="57.3982" y="128.1796" width="29.741" height="11.0745"/><g><path class="cls-11" d="M65.9375,118.0518c0-.0479,.0137-.1152,.0415-.2021l2.248-6.3857c.0552-.1621,.1294-.2842,.2227-.3652s.2417-.1221,.4453-.1221h.958c.1279,0,.2339,.0146,.3188,.042,.0845,.0273,.1553,.085,.2124,.1738,.0566,.0879,.0923,.1484,.106,.1807,.0137,.0332,.0415,.1133,.083,.2412l2.1958,6.2568c.0278,.0859,.0415,.1465,.0415,.1807,0,.1904-.1313,.2852-.3936,.2852h-.5591c-.0625,0-.1187-.002-.1685-.0049-.0503-.0039-.0986-.0176-.145-.042-.0469-.0234-.084-.0459-.1113-.0645-.0278-.0186-.0596-.0576-.0962-.1162-.0361-.0586-.0645-.1084-.0854-.1484-.0205-.0391-.0508-.1104-.0903-.2119-.04-.1016-.0718-.1895-.0957-.2637-.0244-.0742-.0635-.1875-.1167-.3398-.0537-.1514-.1011-.2881-.1426-.4092h-3.0249c-.0483,.1279-.0991,.2744-.1523,.4404-.0537,.166-.0942,.2871-.1221,.3652-.0273,.0771-.061,.167-.1011,.2695-.0396,.1016-.0732,.1738-.1006,.2168-.0278,.0439-.0615,.0918-.1011,.1455-.04,.0537-.0806,.0869-.1221,.1006-.041,.0146-.0903,.0283-.1475,.042s-.1235,.0205-.1992,.0205h-.3936c-.2695,0-.4043-.0947-.4043-.2852Zm2.165-2.2266h2.3877c-.7217-2.0654-1.1187-3.2393-1.1914-3.5225-.0688,.2559-.4678,1.4297-1.1963,3.5225Z"/><path class="cls-11" d="M73.7275,117.6768c0-.0547,.0503-.3516,.1514-.8906,.0347-.21,.0923-.3154,.1724-.3154,.0415,0,.127,.0488,.2559,.1475,.1284,.0986,.271,.2109,.4277,.335,.1567,.125,.395,.2363,.7153,.335s.6733,.1475,1.0596,.1475c.811,0,1.2163-.3486,1.2163-1.0469,0-.4209-.2051-.7295-.6147-.9277-.0767-.0352-.1538-.0615-.231-.0801s-.2285-.0557-.4536-.1094c-.2251-.0547-.4619-.1113-.7104-.1719-.4521-.1133-.8672-.3555-1.2456-.7246-.3779-.3691-.5669-.8467-.5669-1.4326,0-.2559,.0298-.4941,.0894-.7129,.0601-.2197,.1719-.4512,.3359-.6953,.1636-.2432,.4292-.4375,.7964-.583s.8203-.2178,1.3604-.2178c.3555,0,.7075,.0439,1.0547,.1328,.3472,.0879,.6118,.1758,.7935,.2637,.1812,.0879,.2788,.1562,.2925,.2051,.0068,.0137,.0117,.04,.0151,.0781,0,.1133-.062,.4854-.187,1.1143-.0269,.0791-.0625,.1172-.1064,.1133-.0537,0-.1255-.042-.2148-.127-.0894-.084-.189-.1758-.2993-.2744s-.2954-.1904-.5557-.2754-.564-.127-.9121-.127c-.4326,0-.7334,.0898-.9028,.2695-.1699,.1797-.2544,.3906-.2544,.6318,0,.1836,.0454,.3389,.1372,.4668s.2251,.2285,.4014,.3027c.1758,.0752,.3457,.1318,.5098,.1719,.1646,.0391,.3584,.0859,.583,.1406s.3989,.0967,.5225,.127c.4512,.1484,.8418,.4219,1.1724,.8203,.3306,.3975,.4961,.8857,.4961,1.4639,0,.3105-.0386,.5957-.1167,.8574-.0776,.2617-.208,.5078-.3906,.7402-.1831,.2324-.4517,.4141-.8057,.5449s-.7778,.1963-1.2715,.1963c-.4248,0-.853-.0557-1.2847-.167s-.7671-.2285-1.0073-.3516c-.2397-.123-.3755-.2178-.4067-.2822-.0137-.0547-.0205-.0859-.0205-.0928Z"/></g></g><g><path class="cls-11" d="M36.3667,94.2363c0-.0674,.0615-.4307,.1851-1.0889,.0425-.2568,.1128-.3857,.2104-.3857,.0508,0,.1553,.0605,.3125,.1807,.1572,.1211,.3315,.2568,.5229,.4092s.4829,.2891,.8745,.4092c.3911,.1201,.8228,.1807,1.2949,.1807,.9912,0,1.4868-.4268,1.4868-1.2803,0-.5137-.251-.8916-.7515-1.1338-.0938-.042-.188-.0752-.2822-.0977-.0947-.0225-.2793-.0674-.5547-.1338-.2749-.0664-.5645-.1357-.8682-.209-.5527-.1396-1.0601-.4346-1.5225-.8857-.4619-.4512-.6929-1.0352-.6929-1.752,0-.3125,.0361-.6025,.1094-.8711s.21-.5518,.4102-.8496c.2002-.2969,.5249-.5352,.9736-.7119,.4487-.1777,1.0029-.2666,1.6626-.2666,.4346,0,.8647,.0537,1.2891,.1611,.4248,.1084,.7476,.2158,.9697,.3232,.2217,.1084,.3408,.1914,.3574,.251,.0083,.0166,.0146,.0479,.019,.0947,0,.1396-.0767,.5928-.229,1.3623-.0332,.0967-.0762,.1436-.1299,.1387-.0659,0-.1533-.0518-.2627-.1553s-.2314-.2158-.3662-.3359-.3608-.2324-.6787-.3359-.6895-.1553-1.1147-.1553c-.5288,0-.8965,.1094-1.104,.3291-.207,.2197-.3105,.4775-.3105,.7725,0,.2246,.0557,.4141,.168,.5703,.1118,.1562,.2749,.2803,.4902,.3711,.2148,.0908,.4229,.1602,.6235,.209,.2002,.0479,.438,.1055,.7124,.1719s.4868,.1182,.6387,.1553c.5508,.1816,1.0283,.5156,1.4326,1.002,.4043,.4873,.6064,1.084,.6064,1.79,0,.3789-.0479,.7275-.1426,1.0479-.0952,.3193-.2544,.6211-.478,.9053-.2236,.2832-.5518,.5059-.9844,.665-.4326,.1602-.9507,.2402-1.5542,.2402-.519,0-1.0425-.0684-1.5698-.2041s-.938-.2793-1.2314-.4297c-.293-.1504-.459-.2656-.4966-.3447-.0171-.0674-.0254-.1045-.0254-.1133Z"/><path class="cls-11" d="M44.1089,92.1377c0-.6211,.084-1.1514,.2529-1.5928,.1685-.4404,.4004-.7783,.6953-1.0127s.606-.4004,.9326-.5c.3267-.0986,.688-.1484,1.0845-.1484,.2231,0,.4204,.0039,.5913,.0127,.1709,.0078,.3784,.0371,.623,.085,.2446,.0488,.4575,.1162,.6387,.2031,.1816,.0859,.3721,.2119,.5728,.376,.2002,.165,.3647,.3594,.4932,.583s.2339,.5107,.3164,.8604c.082,.3506,.1235,.7451,.1235,1.1836,0,1.9971-1.0503,2.9971-3.1494,3.001-2.1167-.0039-3.1748-1.0215-3.1748-3.0508Zm1.7725,.1328c.0083,.2236,.0166,.3916,.0254,.5029,.0083,.1123,.0391,.2744,.0918,.4873,.0532,.2139,.123,.374,.2095,.4814,.0869,.1074,.2212,.207,.4028,.2979,.1821,.0908,.4028,.1357,.6631,.1357s.481-.0449,.6631-.1357,.3184-.1953,.4092-.3135,.1616-.2793,.2124-.4814,.0806-.374,.0889-.5156c.0088-.1416,.0127-.3223,.0127-.542v-.4492c0-.1816-.0039-.3174-.0127-.4082-.0083-.0908-.0229-.2266-.0444-.4082-.021-.1816-.062-.3242-.1235-.4277-.061-.1025-.1416-.2139-.2412-.332-.0991-.1182-.2314-.2021-.3965-.2529s-.3594-.0762-.5835-.0762c-.2666,0-.4927,.0479-.6792,.1426-.186,.0947-.3223,.2002-.4092,.3164-.0864,.1162-.1543,.2891-.2031,.5195-.0483,.2295-.0752,.4072-.0791,.5312-.0044,.125-.0063,.3154-.0063,.5732v.3545Z"/><path class="cls-11" d="M51.6167,93.2393v-3.5645c0-.3799,.1899-.5693,.5698-.5693h.5947c.1899,0,.3325,.0391,.4272,.1172,.0952,.0781,.147,.1455,.1553,.2021s.0166,.1445,.0254,.2627v3.4502c0,.0332-.0024,.085-.0063,.1553-.0044,.0693-.0063,.1211-.0063,.1543,0,.3799,.0474,.6338,.1426,.7598,.0947,.127,.3237,.1904,.6865,.1904,.3462,0,.6597-.1279,.9404-.3828,.2803-.2559,.4209-.6953,.4209-1.3203v-2.9121c0-.1309,.0049-.2285,.0156-.2939s.0244-.1113,.0415-.1367c.0166-.0254,.0547-.0693,.1143-.1328,.0972-.0762,.2456-.1133,.4448-.1133h.5718c.3809,0,.5757,.1807,.5845,.5439v4.8369c0,.3711-.1948,.5566-.5845,.5566h-.6104c-.3555,0-.5337-.1895-.5337-.5693-.2954,.2871-.5898,.4775-.8828,.5723-.2935,.0947-.6387,.1426-1.0352,.1426-.3799,0-.707-.041-.981-.123-.2744-.083-.4805-.1807-.6172-.2949-.1372-.1133-.2451-.2676-.3232-.4619s-.123-.3633-.1357-.5068c-.0127-.1426-.019-.3311-.019-.5625Z"/><path class="cls-11" d="M58.8965,94.4863v-4.8623c0-.249,.0537-.4082,.1611-.4775,.1079-.0703,.2524-.1045,.4336-.1045h.4307c.2319,0,.4053,.0537,.519,.1621,.0591,.0674,.0928,.1357,.1011,.207,.0088,.0713,.0171,.2676,.0254,.5889,.207-.2842,.457-.5107,.7505-.6807,.293-.1689,.5239-.2715,.6929-.3066s.3188-.0537,.4497-.0537h.0127c.1138,0,.1855,.0225,.2148,.0664,.0298,.0439,.0444,.1182,.0444,.2227v.7139c0,.0967-.021,.1738-.063,.2324-.0508,.042-.165,.0752-.3423,.0977-.1772,.0234-.3354,.0566-.4746,.0986-.2954,.1055-.5508,.2666-.7661,.4824-.2148,.2158-.3545,.4658-.4175,.749-.0254,.1143-.0381,.2793-.0381,.4951v2.2783c0,.1816-.0127,.3008-.0381,.3555s-.0908,.127-.1963,.2158c-.1055,.0508-.2256,.0762-.3608,.0762h-.5571c-.2319,0-.3872-.0518-.4653-.1553s-.1167-.2373-.1167-.4014Z"/><path class="cls-11" d="M63.4033,92.0869c0-2.1357,1.0532-3.2031,3.1592-3.2031,.751,0,1.4517,.1768,2.1016,.5312,.0674,.042,.1035,.1123,.1074,.209-.042,.6758-.1475,1.0127-.3164,1.0127-.0591,0-.1938-.0859-.4053-.2588-.2109-.1738-.4155-.2959-.6138-.3672-.2236-.0762-.5571-.1143-1.0005-.1143-.2319,.0088-.4326,.0645-.6011,.168-.1689,.1035-.2944,.2207-.377,.3506-.082,.1309-.1475,.2998-.1958,.5068-.0488,.207-.0752,.3721-.0796,.4971-.0039,.124-.0063,.2861-.0063,.4844v.2471c0,.2148,.0044,.3916,.0127,.5312,.0088,.1396,.0371,.3125,.0854,.5195,.0488,.2061,.1182,.373,.209,.5,.0908,.126,.2251,.2373,.4023,.332s.3901,.1426,.6392,.1426c.312,0,.5981-.041,.8579-.123,.2593-.083,.4575-.1738,.5947-.2725,.1372-.0996,.2651-.1943,.3833-.2852s.2026-.1406,.2529-.1484l.0635,.0127c.0508,.0332,.0811,.0811,.0918,.1426,.0103,.0605,.0366,.3154,.0791,.7627v.1074c0,.1221-.0864,.2295-.2598,.3223-.6328,.3301-1.3335,.4941-2.1016,.4941-2.0552-.0039-3.083-1.0381-3.083-3.1016Z"/><path class="cls-11" d="M69.6582,92.0234c0-1.0547,.2822-1.8418,.8467-2.3613s1.3384-.7783,2.3213-.7783c.5464,0,1.0127,.0801,1.3994,.2402s.6821,.3809,.8862,.6611c.2046,.2812,.3501,.5771,.4365,.8896s.1299,.6582,.1299,1.0381c0,.3721-.1963,.5576-.5889,.5576h-3.6968c.0337,1.3125,.5811,1.9688,1.6421,1.9688,.3984,0,.7627-.0625,1.0928-.1865,.3301-.125,.6001-.2627,.8105-.415,.21-.1523,.334-.2324,.3711-.2402h.0557l.0698,.0254c.0464,.042,.0825,.1387,.1079,.291,.0254,.1514,.0381,.293,.0381,.4238l.0142,.1895c0,.1143-.0732,.209-.2207,.2852-.7036,.3799-1.4917,.5723-2.3647,.5762-1.0977,0-1.9307-.2676-2.499-.8037-.5679-.5361-.8521-1.3232-.8521-2.3613Zm1.7471-.5947h2.6777c-.0254-.5029-.124-.8936-.2969-1.1748-.1724-.2803-.4927-.4209-.96-.4209-.8418,0-1.3154,.5322-1.4209,1.5957Z"/><path class="cls-11" d="M81.4263,90.5449c0-3.1963,1.5952-4.7949,4.7856-4.7949,.7007,0,1.4688,.124,2.3042,.373,.1475,.0508,.2471,.1035,.2974,.1582,.0254,.0508,.0381,.0938,.0381,.127,0,.0342-.063,.4053-.1899,1.1152-.0503,.249-.1162,.376-.1963,.3799-.042,0-.1265-.0439-.2529-.1299-.127-.0869-.2651-.1846-.4146-.2949-.1499-.1094-.3706-.208-.6616-.2949-.2915-.0859-.6035-.1299-.937-.1299-1.9541,0-2.9312,1.1602-2.9312,3.4785,0,.5117,.0454,.9668,.1362,1.3662,.0908,.3984,.2417,.7646,.4526,1.0957,.2109,.332,.5181,.5879,.9209,.7695,.4033,.1816,.8936,.2725,1.4722,.2725,.4219,0,.7954-.043,1.1201-.1309,.3252-.0869,.5581-.1826,.6997-.2871,.1416-.1035,.2734-.1992,.3955-.2861,.1226-.0879,.2217-.1309,.2979-.1309,.0166,0,.0312,.002,.0439,.0059s.0254,.0127,.0381,.0254,.021,.0264,.0254,.041,.0117,.0352,.022,.0605c.0107,.0254,.0181,.0488,.0225,.0693,.0039,.0215,.0083,.0488,.0127,.082,.0039,.0342,.0083,.0645,.0127,.0918,.0039,.0283,.0083,.0645,.0127,.1113,.0039,.0459,.0063,.082,.0063,.1074,.0083,.1055,.0166,.1992,.0249,.2812,.0088,.083,.0151,.1387,.019,.168,.0044,.0303,.0063,.0547,.0063,.0762v.0635c0,.042-.0039,.0762-.0127,.1016-.0083,.0244-.0273,.0527-.0566,.082-.0298,.0293-.0498,.0498-.0601,.0596-.0107,.0107-.0415,.0293-.0918,.0547l-.0889,.0498c-.4219,.2412-.8081,.4023-1.1587,.4844-.3501,.083-.8037,.124-1.3608,.124-3.1694,0-4.7539-1.5986-4.7539-4.7959Z"/><path class="cls-11" d="M90.1431,92.1377c0-.6211,.084-1.1514,.2529-1.5928,.1685-.4404,.4004-.7783,.6953-1.0127s.606-.4004,.9326-.5c.3267-.0986,.688-.1484,1.0845-.1484,.2231,0,.4204,.0039,.5913,.0127,.1709,.0078,.3784,.0371,.623,.085,.2446,.0488,.4575,.1162,.6387,.2031,.1816,.0859,.3721,.2119,.5728,.376,.2002,.165,.3647,.3594,.4932,.583s.2339,.5107,.3164,.8604c.082,.3506,.1235,.7451,.1235,1.1836,0,1.9971-1.0503,2.9971-3.1494,3.001-2.1167-.0039-3.1748-1.0215-3.1748-3.0508Zm1.7725,.1328c.0083,.2236,.0166,.3916,.0254,.5029,.0083,.1123,.0391,.2744,.0918,.4873,.0532,.2139,.123,.374,.2095,.4814,.0869,.1074,.2212,.207,.4028,.2979,.1821,.0908,.4028,.1357,.6631,.1357s.481-.0449,.6631-.1357,.3184-.1953,.4092-.3135,.1616-.2793,.2124-.4814,.0806-.374,.0889-.5156c.0088-.1416,.0127-.3223,.0127-.542v-.4492c0-.1816-.0039-.3174-.0127-.4082-.0083-.0908-.0229-.2266-.0444-.4082-.021-.1816-.062-.3242-.1235-.4277-.061-.1025-.1416-.2139-.2412-.332-.0991-.1182-.2314-.2021-.3965-.2529s-.3594-.0762-.5835-.0762c-.2666,0-.4927,.0479-.6792,.1426-.186,.0947-.3223,.2002-.4092,.3164-.0864,.1162-.1543,.2891-.2031,.5195-.0483,.2295-.0752,.4072-.0791,.5312-.0044,.125-.0063,.3154-.0063,.5732v.3545Z"/><path class="cls-11" d="M97.752,91.9473c.0171-1.0713,.269-1.8379,.7568-2.2979,.4873-.46,1.1172-.6904,1.8896-.6904,.5947,0,1.1353,.1562,1.6206,.4688v-3.1777c0-.3799,.189-.5693,.5674-.5693h.5171c.1895,0,.3335,.0322,.4321,.0977s.1587,.1348,.1797,.209,.0317,.168,.0317,.2822v8.1787c0,.3965-.1934,.5947-.5806,.5947h-.5928c-.3198,0-.5195-.1396-.5991-.418-.519,.3711-1.0679,.5596-1.646,.5635-1.3042,0-2.1167-.6094-2.437-1.8291-.0933-.3633-.1396-.834-.1396-1.4121Zm1.7725,.2285c0,.2402,.0044,.4326,.0127,.5752,.0088,.1436,.0371,.3223,.0854,.5352,.0488,.2129,.1162,.3799,.2026,.5s.2163,.2256,.3896,.3164c.1729,.0908,.3799,.1367,.6201,.1367,.2871,0,.5488-.0801,.7852-.2412,.2363-.1602,.3545-.335,.3545-.5254v-3.1777c-.0088,0-.0298-.0146-.0635-.0439s-.0674-.0566-.1011-.082c-.0342-.0254-.0815-.0566-.1426-.0918-.061-.0361-.1245-.0645-.1899-.0859-.0654-.0205-.1436-.04-.2344-.0566s-.1826-.0254-.2754-.0254c-.2656,0-.4966,.0469-.6929,.1426-.1963,.0947-.3418,.2021-.437,.3223-.0947,.1201-.1665,.2871-.2153,.5-.0483,.2139-.0767,.3848-.0854,.5127-.0083,.1289-.0127,.3008-.0127,.5166v.2725Z"/><path class="cls-11" d="M104.9375,92.0234c0-1.0547,.2822-1.8418,.8467-2.3613s1.3384-.7783,2.3213-.7783c.5464,0,1.0127,.0801,1.3994,.2402s.6821,.3809,.8862,.6611c.2046,.2812,.3501,.5771,.4365,.8896s.1299,.6582,.1299,1.0381c0,.3721-.1963,.5576-.5889,.5576h-3.6968c.0337,1.3125,.5811,1.9688,1.6421,1.9688,.3984,0,.7627-.0625,1.0928-.1865,.3301-.125,.6001-.2627,.8105-.415,.21-.1523,.334-.2324,.3711-.2402h.0557l.0698,.0254c.0464,.042,.0825,.1387,.1079,.291,.0254,.1514,.0381,.293,.0381,.4238l.0142,.1895c0,.1143-.0732,.209-.2207,.2852-.7036,.3799-1.4917,.5723-2.3647,.5762-1.0977,0-1.9307-.2676-2.499-.8037-.5679-.5361-.8521-1.3232-.8521-2.3613Zm1.7471-.5947h2.6777c-.0254-.5029-.124-.8936-.2969-1.1748-.1724-.2803-.4927-.4209-.96-.4209-.8418,0-1.3154,.5322-1.4209,1.5957Z"/></g></g><g><g><polygon class="cls-6" points="204.9994 99.142 204.9994 139.2541 175.2585 139.2541 175.2585 104.812 182.3983 99.142 204.9994 99.142"/><polyline class="cls-3" points="175.2585 104.812 182.1196 106.082 182.4067 98.99"/><line class="cls-3" x1="186.2945" y1="103.8769" x2="201.8897" y2="103.8769"/><line class="cls-3" x1="186.2945" y1="107.8315" x2="201.8897" y2="107.8315"/><line class="cls-3" x1="178.7272" y1="121.2149" x2="201.8897" y2="121.2149"/><line class="cls-3" x1="178.7272" y1="124.7507" x2="201.8897" y2="124.7507"/><line class="cls-3" x1="178.7272" y1="128.2865" x2="201.8897" y2="128.2865"/><g><path class="cls-11" d="M178.8359,112.8506c0-.1592,.103-.2383,.3081-.2383h.2686c.2524,0,.4048,.1094,.4575,.3281l.8486,3.2646c.1045,.3721,.2007,.7402,.2881,1.1074,.0215-.1318,.1162-.5195,.2832-1.1641,.1675-.6445,.3481-1.3223,.5425-2.0332s.2939-1.0801,.2993-1.1074c.0166-.0537,.0308-.0977,.043-.1309,.0122-.0342,.0361-.0752,.0713-.125,.0356-.0498,.0835-.0859,.145-.1074,.061-.0215,.1392-.0322,.2344-.0322h.5786c.1006,0,.1841,.0107,.251,.0322,.0664,.0215,.1172,.0605,.1528,.1182,.0352,.0576,.0596,.1035,.0732,.1367s.0327,.0928,.0571,.1787l.7725,2.9268c.1587,.5723,.2729,1.0049,.3423,1.2979l1.147-4.3174c.0376-.1318,.0918-.2275,.1626-.2861,.0713-.0576,.1763-.0869,.3159-.0869h.2051c.209,0,.3135,.083,.3135,.2471,0,.0215-.0093,.0713-.0283,.1504l-1.292,4.8174c-.0542,.2139-.1147,.3506-.1821,.4092-.0786,.0674-.189,.1006-.332,.1006h-.6392c-.1216,0-.2207-.0273-.2974-.083-.0771-.0547-.1255-.1055-.146-.1523-.02-.0479-.041-.1182-.0625-.2119l-.75-2.8203c-.0151-.0566-.0698-.2627-.1641-.6172s-.166-.624-.2148-.8086l-1.1328,4.2461c0,.0059-.0039,.0254-.0122,.0586-.0078,.0332-.0146,.0566-.02,.0703s-.0137,.0361-.0244,.0664c-.0107,.0312-.0215,.0537-.0322,.0664-.0107,.0137-.0264,.0322-.0464,.0566s-.041,.042-.0625,.0547c-.0215,.0117-.0464,.0244-.0742,.0381-.0283,.0137-.0615,.0225-.0991,.0283-.0376,.0049-.0791,.0078-.125,.0078h-.5923c-.0728,0-.1353-.0098-.1875-.0283-.0527-.0186-.0938-.0381-.123-.0586-.0298-.0195-.0571-.0527-.0825-.0986-.0259-.0449-.0425-.0791-.0508-.1025-.0078-.0225-.02-.0654-.0361-.1279-.0161-.0635-.0269-.1006-.0322-.1113l-1.2949-4.8105c-.0161-.0508-.0244-.1006-.0244-.1484Z"/><path class="cls-11" d="M187.1987,117.2051c0-.2148,.0645-.4014,.1929-.5605,.1284-.1582,.2822-.2812,.4619-.3701,.1802-.0889,.3931-.1592,.6387-.2119,.2461-.0518,.459-.0859,.6387-.1025,.1797-.0156,.3618-.0244,.5454-.0244v-.168c0-.2305-.0386-.4121-.1162-.5459-.0781-.1338-.2344-.2002-.4702-.2002-.2153,0-.4116,.0273-.5879,.083-.1768,.0557-.3071,.1172-.3921,.1855-.085,.0674-.165,.1309-.2402,.1885s-.1304,.0869-.166,.0869l-.0327-.0059-.0332-.0156c-.0161-.0273-.0312-.0938-.0449-.2012s-.0234-.2051-.0288-.2939l-.0122-.1406c0-.0273,.002-.0469,.0063-.0605,.0039-.0137,.0142-.0283,.0308-.0459,.0161-.0176,.0283-.0293,.0366-.0342,.0083-.0059,.0322-.0166,.0718-.0322,.0396-.0166,.0703-.0303,.0923-.041,.397-.1846,.8306-.2773,1.3003-.2773,.6279,0,1.0708,.1182,1.3281,.3545,.2578,.2363,.3862,.5781,.3862,1.0234v2.1709c0,.248-.1245,.3711-.373,.3711h-.3979c-.1216,0-.209-.0332-.2617-.0986s-.0791-.1436-.0791-.2314c-.3647,.2793-.792,.4199-1.2812,.4229-.3701,0-.665-.127-.8838-.3809-.2192-.2539-.3286-.5352-.3286-.8438Zm1.104,0c0,.1582,.0522,.3018,.1567,.4287,.104,.1279,.2407,.1914,.4097,.1914,.1875,0,.3687-.0586,.5439-.1768s.2632-.3115,.2632-.5801v-.6445c-.1685,.0156-.314,.0332-.4355,.0518-.1221,.0186-.2651,.0547-.4302,.1074-.1646,.0518-.2905,.1318-.3774,.2393s-.1304,.2354-.1304,.3828Z"/><path class="cls-11" d="M191.5376,117.9258c0-.0215,.0332-.2148,.1006-.5801,.0161-.126,.0552-.1895,.1167-.1895,.0269,0,.0913,.0518,.1934,.1553s.252,.208,.4492,.3145,.4253,.1592,.6831,.1592c.4297,0,.6445-.1465,.6445-.4404,0-.1533-.0659-.2656-.1978-.3379-.1313-.0713-.3242-.1279-.5781-.1689-.2534-.042-.4233-.0791-.5093-.1113-.2148-.084-.4116-.2158-.5903-.3984-.1787-.1816-.2676-.4219-.2676-.7207,0-.7715,.4614-1.1689,1.3857-1.1904h.2134c.3516,.0059,.6875,.0742,1.0068,.2061,.0835,.0322,.1372,.0596,.1611,.082,.0244,.0234,.0366,.0625,.0366,.1191,0,.0322-.0269,.2061-.0806,.5205-.0215,.084-.0552,.124-.1011,.1211-.0376,0-.1021-.0371-.1934-.1113-.0913-.0732-.2222-.1475-.3926-.2217s-.374-.1113-.6104-.1113c-.4082,0-.6123,.1318-.6123,.3955,0,.1436,.0771,.248,.2314,.3135,.1548,.0664,.3628,.123,.6245,.1699s.4531,.1045,.5742,.1719c.1045,.0479,.2036,.1113,.2959,.1895,.0928,.0781,.1875,.2012,.2842,.3701,.0967,.168,.145,.3535,.145,.5557,0,.459-.1323,.7812-.397,.9658-.2646,.1836-.6274,.2764-1.0894,.2764-.5723,0-1.0635-.1328-1.4746-.3994l-.0322-.04c-.0137-.0322-.02-.0537-.02-.0645Z"/><path class="cls-11" d="M195.252,117.9658v-3.085c0-.2422,.1235-.3633,.3706-.3633h.3306c.0537,0,.0957,.0029,.127,.0088,.0308,.0049,.0698,.0176,.1167,.0361s.0811,.0537,.1025,.1064,.0322,.1201,.0322,.2031v.166c.105-.0996,.1875-.1758,.248-.2285,.0601-.0518,.1978-.1221,.4126-.2109s.4434-.1328,.6851-.1328c.3237,0,.5747,.0479,.7529,.1445,.1777,.0967,.3086,.2529,.3911,.4678,.3423-.4082,.7998-.6123,1.3735-.6123,.2373,0,.4365,.0283,.5981,.0859,.1616,.0586,.2832,.125,.3638,.2002,.0811,.0752,.1421,.1826,.1841,.3223,.0415,.1396,.0654,.2549,.0708,.3457,.0054,.0918,.0078,.2197,.0078,.3828v2.1631c0,.1211-.0264,.2129-.0786,.2764-.0527,.0635-.1543,.0947-.3052,.0947h-.3638c-.0435,0-.083-.0029-.1196-.0078-.0361-.0059-.0664-.0137-.0908-.0244s-.0444-.0234-.0605-.0381-.0317-.0312-.0464-.0508c-.0151-.0186-.0264-.0342-.0347-.0479-.0078-.0137-.0132-.0342-.0161-.0625-.0024-.0283-.0054-.0469-.0078-.0547-.0029-.0078-.0044-.0254-.0044-.0527v-2.292c0-.1045-.0024-.1846-.0078-.2393s-.0229-.1182-.0527-.1895-.0796-.123-.1494-.1572c-.0698-.0332-.1631-.0498-.2788-.0498-.2261,0-.4136,.0693-.5615,.209s-.2505,.2979-.3071,.4756c-.0269,.0938-.0405,.2363-.0405,.4268v1.7549c0,.0195-.0063,.0557-.02,.1084-.0132,.0527-.0312,.0977-.0542,.1348-.0225,.0381-.0581,.0732-.106,.1064-.0483,.0342-.1084,.0508-.1807,.0508h-.3774c-.1528,0-.2559-.0312-.3091-.0947-.0537-.0635-.0806-.1553-.0806-.2764v-2.2959c0-.2148-.0327-.3682-.0986-.4609s-.1914-.1387-.3765-.1387c-.2417,0-.4541,.0918-.6367,.2754-.1826,.1846-.2739,.4414-.2739,.7715v1.8486c0,.248-.1235,.3711-.3706,.3711h-.3706c-.2578,0-.3867-.123-.3867-.3711Z"/></g><line class="cls-3" x1="178.7272" y1="131.8223" x2="201.8897" y2="131.8223"/><line class="cls-3" x1="178.7272" y1="135.3581" x2="201.8897" y2="135.3581"/></g><g><path class="cls-11" d="M164.7285,94.4482v-7.8057c0-.1221,.0117-.2207,.0352-.2939,.0234-.0742,.0825-.1426,.1782-.2061,.0952-.0635,.23-.0947,.4038-.0947h2.772c.4326,0,.7832,.0078,1.0522,.0254,.2695,.0166,.6147,.083,1.0366,.1992,.4219,.1152,.7578,.29,1.0078,.5215,.4492,.4131,.6763,.9404,.6802,1.5811,0,.165-.0181,.3232-.0547,.4746-.0361,.1523-.0889,.2832-.1577,.3955-.0684,.1113-.1401,.2148-.2153,.3096s-.1694,.1797-.2832,.2529c-.1138,.0742-.2124,.1377-.2959,.1904-.084,.0527-.186,.0996-.3062,.1416-.1201,.043-.208,.0723-.2637,.0889s-.1328,.0381-.2314,.0635l-.1421,.0439c.7046,.085,1.2671,.3154,1.6875,.6914,.4199,.376,.6299,.8857,.6299,1.5273,0,.9668-.4141,1.6631-1.2427,2.0898-.5283,.2656-1.3613,.3984-2.4985,.3984h-3.1768c-.2324,0-.3931-.0498-.4819-.1484-.0889-.0996-.1333-.248-.1333-.4463Zm1.7729-4.5586h1.2173c.5283,0,.9365-.0303,1.2236-.0908,.2876-.0615,.5688-.2031,.8438-.4268,.2495-.3027,.374-.623,.374-.96,0-.501-.2622-.8525-.7861-1.0547-.3467-.1309-.8501-.1953-1.5093-.1953h-1.3633v2.7275Zm0,4.0391h1.7495c.9766,0,1.6357-.1943,1.9785-.582,.1982-.2324,.2979-.5176,.2979-.8545,0-.1904-.0288-.3672-.0854-.5322-.0571-.1641-.1543-.333-.292-.5059-.1372-.1738-.3516-.3135-.6436-.4219-.2915-.1074-.6445-.1719-1.0586-.1924h-1.9463v3.0889Z"/><path class="cls-11" d="M173.4395,89.4277c0-.2148,.1475-.3223,.4434-.3223h.4429c.3125,0,.5444,.1035,.6963,.3105,.042,.042,.1699,.2861,.3833,.7314,.2129,.4453,.4404,.9824,.6826,1.6094s.3926,1.1309,.4512,1.5107c.0337-.4482,.3579-1.585,.9722-3.4111,.1372-.3281,.2583-.5303,.3623-.6064,.1377-.0967,.332-.1445,.583-.1445h.4053c.3369,0,.5054,.1279,.5054,.3838,0,.0654-.019,.1562-.0571,.2725l-2.0059,5.8496c-.1313,.3115-.2314,.5244-.2998,.6396-.5801,.9756-1.3652,1.4639-2.356,1.4639-.5444,0-.8735-.0576-.9873-.1709-.0425-.043-.0845-.3389-.127-.8887-.0083-.1641,.0127-.2715,.0635-.3213l.0635-.0254h.0503c.0337,.0088,.1016,.04,.2026,.0938,.1016,.0537,.2163,.0996,.3452,.1387,.1284,.0391,.271,.0596,.4272,.0596,.1812,0,.3398-.0391,.4746-.1172,.1353-.0781,.2427-.1875,.3228-.3262,.0806-.1396,.1509-.2842,.2124-.4336,.061-.1504,.1172-.3076,.1675-.4717,.0171-.0586,.0317-.1074,.0444-.1455,.0083-.0762-.0103-.1582-.0566-.2471l-2.292-5.0645c-.0801-.1768-.1201-.2998-.1201-.3672Z"/><path class="cls-11" d="M179.833,89.5732c0-.3115,.1846-.4678,.5537-.4678h.3013v-1.1143c0-.3887,.2119-.583,.6362-.583h.4688c.394,0,.5913,.1943,.5913,.583v1.1143h1.167c.1538,0,.2773,.0342,.3711,.1045,.0938,.0693,.1509,.1338,.1714,.1924,.021,.0596,.0312,.1191,.0312,.1807s-.0103,.1221-.0312,.1836c-.0205,.0615-.0757,.125-.165,.1895-.0894,.0664-.207,.0986-.3525,.0986h-1.1919v2.5889c0,.042-.002,.0986-.0063,.168s-.0063,.126-.0063,.168c0,.46,.043,.7744,.1299,.9434,.0864,.1689,.2246,.2529,.4146,.2529,.2407,0,.4917-.0762,.7534-.2275,.2617-.1523,.4009-.2285,.418-.2285,.0591,0,.1128,.0605,.1611,.1807s.0854,.2412,.1108,.3643l.0254,.1709c0,.1641-.27,.3311-.8105,.5-.54,.1689-1.0586,.2529-1.5562,.2529-.6426,0-1.0576-.3125-1.2461-.9365-.0771-.2578-.1182-.6504-.1221-1.1777v-3.0195h-.2642c-.3682,0-.5527-.1602-.5527-.4814Z"/><path class="cls-11" d="M185.1567,92.0234c0-1.0547,.2822-1.8418,.8467-2.3613s1.3384-.7783,2.3213-.7783c.5464,0,1.0127,.0801,1.3994,.2402s.6821,.3809,.8862,.6611c.2046,.2812,.3501,.5771,.4365,.8896s.1299,.6582,.1299,1.0381c0,.3721-.1963,.5576-.5889,.5576h-3.6968c.0337,1.3125,.5811,1.9688,1.6421,1.9688,.3984,0,.7627-.0625,1.0928-.1865,.3301-.125,.6001-.2627,.8105-.415,.21-.1523,.334-.2324,.3711-.2402h.0557l.0698,.0254c.0464,.042,.0825,.1387,.1079,.291,.0254,.1514,.0381,.293,.0381,.4238l.0142,.1895c0,.1143-.0732,.209-.2207,.2852-.7036,.3799-1.4917,.5723-2.3647,.5762-1.0977,0-1.9307-.2676-2.499-.8037-.5679-.5361-.8521-1.3232-.8521-2.3613Zm1.7471-.5947h2.6777c-.0254-.5029-.124-.8936-.2969-1.1748-.1724-.2803-.4927-.4209-.96-.4209-.8418,0-1.3154,.5322-1.4209,1.5957Z"/><path class="cls-11" d="M191.8604,92.0869c0-2.1357,1.0532-3.2031,3.1592-3.2031,.751,0,1.4517,.1768,2.1016,.5312,.0674,.042,.1035,.1123,.1074,.209-.042,.6758-.1475,1.0127-.3164,1.0127-.0591,0-.1938-.0859-.4053-.2588-.2109-.1738-.4155-.2959-.6138-.3672-.2236-.0762-.5571-.1143-1.0005-.1143-.2319,.0088-.4326,.0645-.6011,.168-.1689,.1035-.2944,.2207-.377,.3506-.082,.1309-.1475,.2998-.1958,.5068-.0488,.207-.0752,.3721-.0796,.4971-.0039,.124-.0063,.2861-.0063,.4844v.2471c0,.2148,.0044,.3916,.0127,.5312,.0088,.1396,.0371,.3125,.0854,.5195,.0488,.2061,.1182,.373,.209,.5,.0908,.126,.2251,.2373,.4023,.332s.3901,.1426,.6392,.1426c.312,0,.5981-.041,.8579-.123,.2593-.083,.4575-.1738,.5947-.2725,.1372-.0996,.2651-.1943,.3833-.2852s.2026-.1406,.2529-.1484l.0635,.0127c.0508,.0332,.0811,.0811,.0918,.1426,.0103,.0605,.0366,.3154,.0791,.7627v.1074c0,.1221-.0864,.2295-.2598,.3223-.6328,.3301-1.3335,.4941-2.1016,.4941-2.0552-.0039-3.083-1.0381-3.083-3.1016Z"/><path class="cls-11" d="M198.1152,92.1377c0-.6211,.084-1.1514,.2529-1.5928,.1685-.4404,.4004-.7783,.6953-1.0127s.606-.4004,.9326-.5c.3267-.0986,.688-.1484,1.0845-.1484,.2231,0,.4204,.0039,.5913,.0127,.1709,.0078,.3784,.0371,.623,.085,.2446,.0488,.4575,.1162,.6387,.2031,.1816,.0859,.3721,.2119,.5728,.376,.2002,.165,.3647,.3594,.4932,.583s.2339,.5107,.3164,.8604c.082,.3506,.1235,.7451,.1235,1.1836,0,1.9971-1.0503,2.9971-3.1494,3.001-2.1167-.0039-3.1748-1.0215-3.1748-3.0508Zm1.7725,.1328c.0083,.2236,.0166,.3916,.0254,.5029,.0083,.1123,.0391,.2744,.0918,.4873,.0532,.2139,.123,.374,.2095,.4814,.0869,.1074,.2212,.207,.4028,.2979,.1821,.0908,.4028,.1357,.6631,.1357s.481-.0449,.6631-.1357,.3184-.1953,.4092-.3135,.1616-.2793,.2124-.4814,.0806-.374,.0889-.5156c.0088-.1416,.0127-.3223,.0127-.542v-.4492c0-.1816-.0039-.3174-.0127-.4082-.0083-.0908-.0229-.2266-.0444-.4082-.021-.1816-.062-.3242-.1235-.4277-.061-.1025-.1416-.2139-.2412-.332-.0991-.1182-.2314-.2021-.3965-.2529s-.3594-.0762-.5835-.0762c-.2666,0-.4927,.0479-.6792,.1426-.186,.0947-.3223,.2002-.4092,.3164-.0864,.1162-.1543,.2891-.2031,.5195-.0483,.2295-.0752,.4072-.0791,.5312-.0044,.125-.0063,.3154-.0063,.5732v.3545Z"/><path class="cls-11" d="M205.7241,91.9473c.0171-1.0713,.269-1.8379,.7568-2.2979,.4873-.46,1.1172-.6904,1.8896-.6904,.5947,0,1.1353,.1562,1.6206,.4688v-3.1777c0-.3799,.189-.5693,.5674-.5693h.5171c.1895,0,.3335,.0322,.4321,.0977s.1587,.1348,.1797,.209,.0317,.168,.0317,.2822v8.1787c0,.3965-.1934,.5947-.5806,.5947h-.5928c-.3198,0-.5195-.1396-.5991-.418-.519,.3711-1.0679,.5596-1.646,.5635-1.3042,0-2.1167-.6094-2.437-1.8291-.0933-.3633-.1396-.834-.1396-1.4121Zm1.7725,.2285c0,.2402,.0044,.4326,.0127,.5752,.0088,.1436,.0371,.3223,.0854,.5352,.0488,.2129,.1162,.3799,.2026,.5s.2163,.2256,.3896,.3164c.1729,.0908,.3799,.1367,.6201,.1367,.2871,0,.5488-.0801,.7852-.2412,.2363-.1602,.3545-.335,.3545-.5254v-3.1777c-.0088,0-.0298-.0146-.0635-.0439s-.0674-.0566-.1011-.082c-.0342-.0254-.0815-.0566-.1426-.0918-.061-.0361-.1245-.0645-.1899-.0859-.0654-.0205-.1436-.04-.2344-.0566s-.1826-.0254-.2754-.0254c-.2656,0-.4966,.0469-.6929,.1426-.1963,.0947-.3418,.2021-.437,.3223-.0947,.1201-.1665,.2871-.2153,.5-.0483,.2139-.0767,.3848-.0854,.5127-.0083,.1289-.0127,.3008-.0127,.5166v.2725Z"/><path class="cls-11" d="M212.9092,92.0234c0-1.0547,.2822-1.8418,.8467-2.3613s1.3384-.7783,2.3213-.7783c.5464,0,1.0127,.0801,1.3994,.2402s.6821,.3809,.8862,.6611c.2046,.2812,.3501,.5771,.4365,.8896s.1299,.6582,.1299,1.0381c0,.3721-.1963,.5576-.5889,.5576h-3.6968c.0337,1.3125,.5811,1.9688,1.6421,1.9688,.3984,0,.7627-.0625,1.0928-.1865,.3301-.125,.6001-.2627,.8105-.415,.21-.1523,.334-.2324,.3711-.2402h.0557l.0698,.0254c.0464,.042,.0825,.1387,.1079,.291,.0254,.1514,.0381,.293,.0381,.4238l.0142,.1895c0,.1143-.0732,.209-.2207,.2852-.7036,.3799-1.4917,.5723-2.3647,.5762-1.0977,0-1.9307-.2676-2.499-.8037-.5679-.5361-.8521-1.3232-.8521-2.3613Zm1.7471-.5947h2.6777c-.0254-.5029-.124-.8936-.2969-1.1748-.1724-.2803-.4927-.4209-.96-.4209-.8418,0-1.3154,.5322-1.4209,1.5957Z"/></g></g></g></g></g><g><g><path class="cls-5" d="M556.3929,254.096h-236.9273c-5.5038,0-9.9656-4.4772-9.9656-10V77.3844c0-5.5228,4.4617-10,9.9656-10h175.364s4.9921,.4512,5.4081-3.8022c.0329-.3364,.333-.5811,.6709-.5797,3.7321,.0149,22.015,.1022,25.6387,.1195,.336,.0016,.6189,.2512,.6574,.5851,.3797,3.2956,3.9659,3.6513,4.2736,3.6758,.0171,.0014,.0296,.0015,.0467,.0015h24.8679c5.5038,0,9.9656,4.4772,9.9656,10v46.3433s-.3075,10.5446,9.9781,10.9792c.3665,.0155,.6635,.3058,.6635,.6726v55.5143c0,.366-.2955,.655-.6611,.6723-10.986,.521-10.0328,14.0532-9.9824,14.6845,.0015,.0184,.0019,.032,.0019,.0505v37.7949c0,5.5228-4.4617,10-9.9656,10Z"/><g><polygon class="cls-2" points="484.6055 31.6544 484.6055 34.1072 489.2246 34.1072 501.165 46.0477 501.165 60.6854 503.5178 60.6854 503.5178 45.1072 490.0629 31.6523 484.6055 31.6544"/><polygon class="cls-2" points="513.372 60.625 515.3297 60.625 515 43.125 520.0962 38.1902 520.0962 34.625 518 34.625 518 37.4437 512.7902 41.9152 513.372 60.625"/><polygon class="cls-2" points="508.8578 60.625 506.9 60.625 506.9 37.9262 502.1336 32.9742 502.1336 29.0888 504.2298 29.0888 504.2298 32.0542 508.9309 36.9384 508.8578 60.625"/><polygon class="cls-2" points="517.372 61.125 519.3297 61.125 519.3297 45.208 528 37.125 528 34.125 526.25 34.125 526.1594 36.2844 517.2988 44.4066 517.372 61.125"/></g><g><polygon class="cls-2" points="581.8583 153.1585 581.8583 155.7466 611.355 155.7466 617.79 162.0476 623.5 162.0476 623.5 159.2765 618.9855 159.2765 612.6386 153.0618 581.8583 153.1585"/><polygon class="cls-2" points="615.483 114.625 612.5985 114.625 612.5985 121.1419 598.557 137.9884 581.3435 137.9884 581.3435 141.3078 599.6629 141.3078 615.4854 122.3246 615.483 114.625"/><polygon class="cls-2" points="581.4146 148.8419 581.4146 146.0797 608.1075 146.0797 613.9309 139.3549 618.5 139.3549 618.5 142.3123 615.0128 142.3123 609.2691 148.9451 581.4146 148.8419"/><polygon class="cls-2" points="581.8582 159.1584 581.8582 161.7465 609.2299 161.7465 615.2014 168.0476 624 168.125 624 165.2765 616.3107 165.2765 610.421 159.0618 581.8582 159.1584"/><polygon class="cls-2" points="581.8582 165.1584 581.8582 167.7465 607.6061 167.7465 613.2233 174.0476 624 174.125 624 171.2765 614.2669 171.2765 608.7266 165.0617 581.8582 165.1584"/><polygon class="cls-2" points="581.8582 171.1531 581.8582 173.5984 606.0787 173.5984 619 188.125 624 188.125 624 185.125 620 185.125 607.1327 171.0617 581.8582 171.1531"/><polygon class="cls-2" points="581.8582 177.1531 581.8582 179.5984 604.6418 179.5984 616.7966 194.125 624 194.125 624 191.125 618 191.125 605.6333 177.0617 581.8582 177.1531"/><polygon class="cls-2" points="616.4974 207.0962 613.5598 207.0962 613.5598 201.0316 601 185.3544 581.7278 185.3544 581.7278 182.2654 602 182.2654 616.4999 199.931 616.4974 207.0962"/></g><g><path class="cls-11" d="M549.6064,17.2764h-2.7285l-.8066,1.6113h-1.7344l4.1787-7.8203h1.4561l1.4873,7.8203h-1.6064l-.2461-1.6113Zm-2.084-1.3047h1.8848l-.4404-2.9121-1.4443,2.9121Z"/><path class="cls-11" d="M554.9678,17.749c.2793,.0068,.5117-.0693,.6973-.2285,.1865-.1592,.3086-.3711,.3652-.6367l1.4238-.0049c-.0254,.4082-.1533,.7754-.3838,1.1006-.2314,.3262-.5391,.5801-.9238,.7637-.3848,.1816-.791,.2676-1.2168,.2578-.7051-.0117-1.2637-.2549-1.6758-.7305-.4121-.4766-.6104-1.1104-.5967-1.9023l.0166-.2949,.0049-.0586c.0977-.9453,.416-1.6953,.957-2.248,.54-.5537,1.208-.8193,2.0029-.7979,.6553,.0146,1.1758,.2285,1.5605,.6416,.3848,.4141,.5732,.959,.5664,1.6357h-1.4131c0-.3115-.0674-.5566-.2031-.7354-.1367-.1797-.3408-.2764-.6133-.291-.7227-.0215-1.1611,.5068-1.3154,1.585-.0537,.3906-.0732,.7197-.0596,.9883,.0361,.627,.3047,.9453,.8066,.9561Z"/><path class="cls-11" d="M561.3867,11.6475l-.252,1.4287h.9668l-.1992,1.1387h-.9668l-.4941,2.9111c-.0215,.1826-.0068,.3223,.043,.4189,.0508,.0967,.1719,.1484,.3652,.1553,.0576,.0039,.2119-.0049,.4629-.0264l-.1074,1.1865c-.2695,.0898-.5586,.1309-.8711,.124-.4971-.0068-.8682-.1631-1.1113-.4678-.2432-.3037-.3438-.7158-.3008-1.2344l.5-3.0674h-.8223l.1992-1.1387h.8213l.2471-1.4287h1.5195Z"/><path class="cls-11" d="M565.8467,18.2861c-.4297,.4834-.9639,.7197-1.6016,.709-.5586-.0068-.9805-.208-1.2676-.6016-.2861-.3936-.3965-.9131-.332-1.5576l.6279-3.7598h1.5146l-.6387,3.7803c-.0146,.1182-.0166,.2295-.0059,.333,.0361,.3584,.2344,.5439,.5957,.5537,.4697,.0146,.8584-.166,1.166-.543l.7246-4.124h1.5254l-1.0098,5.8115h-1.4121l.1133-.6016Z"/><path class="cls-11" d="M571.9111,18.8877c-.0469-.1465-.0664-.3223-.0596-.5264-.4365,.4365-.9307,.6484-1.4824,.6338-.5088-.0068-.9297-.1729-1.2646-.4971s-.4922-.7236-.4707-1.2002c.0254-.6338,.291-1.1201,.7979-1.458,.5068-.3389,1.1865-.5078,2.0381-.5078l.709,.0107,.0762-.3496c.0215-.1172,.0264-.2305,.0156-.3379-.0176-.168-.0811-.2998-.1904-.3945s-.2539-.1445-.4326-.1484c-.2363-.0068-.4365,.0518-.6016,.1748-.165,.124-.2705,.3018-.3164,.5342l-1.5205,.0059c.0254-.5547,.2803-1.0049,.7656-1.3506s1.084-.5146,1.7959-.5078c.6592,.0146,1.1748,.21,1.5469,.5879,.373,.3779,.5283,.8643,.4678,1.458l-.4463,2.7832-.0264,.3438c-.0068,.2539,.0234,.4688,.0908,.6445l-.0049,.1016h-1.4873Zm-1.166-1.0684c.4365,.0137,.8184-.1758,1.1445-.5703l.1875-1.0039-.5264-.0059c-.5586,.0146-.9619,.1846-1.208,.5107-.0898,.1182-.1455,.2627-.167,.4346-.0283,.1934,.0117,.3467,.1211,.46,.1094,.1123,.2588,.1709,.4482,.1748Z"/><path class="cls-11" d="M577.6699,11.6475l-.252,1.4287h.9668l-.1992,1.1387h-.9668l-.4941,2.9111c-.0215,.1826-.0068,.3223,.043,.4189,.0508,.0967,.1719,.1484,.3652,.1553,.0576,.0039,.2119-.0049,.4629-.0264l-.1074,1.1865c-.2695,.0898-.5586,.1309-.8711,.124-.4971-.0068-.8682-.1631-1.1113-.4678-.2432-.3037-.3438-.7158-.3008-1.2344l.5-3.0674h-.8223l.1992-1.1387h.8213l.2471-1.4287h1.5195Z"/><path class="cls-11" d="M581.6943,12.9688c.5117,.0068,.9531,.1387,1.3242,.3945,.3701,.2559,.6426,.6094,.8164,1.0586s.2354,.9482,.1846,1.4951c-.082,.9238-.4033,1.6719-.9639,2.2432s-1.252,.8496-2.0752,.835c-.5059-.0068-.9424-.1367-1.3105-.3896-.3691-.252-.6416-.6025-.8164-1.0498-.1758-.4473-.2383-.9414-.1885-1.4824,.0928-.96,.4189-1.7227,.9775-2.2881s1.2422-.8379,2.0518-.8164Zm-1.5303,3.6543c.0068,.3428,.0869,.6143,.2412,.8125s.3701,.3008,.6494,.3076c.4658,.0146,.8311-.1992,1.0957-.6406,.2656-.4414,.3887-1.0215,.3711-1.7402-.0146-.3428-.0977-.6172-.25-.8232-.1523-.2051-.3691-.3115-.6523-.3193-.4512-.0137-.8115,.1982-1.082,.6357-.2705,.4385-.3945,1.0273-.373,1.7676Z"/><path class="cls-11" d="M588.71,14.5322c-.208-.0361-.3779-.0547-.5098-.0547-.541-.0137-.9688,.1885-1.2842,.6074l-.6709,3.8027h-1.5156l1.0098-5.8115,1.4238-.0049-.1396,.709c.3652-.5488,.8164-.8223,1.3535-.8223,.1504,0,.3262,.0254,.5264,.0752l-.1934,1.499Z"/></g><g><rect class="cls-5" x="508.625" y=".5" width="31.5" height="31.5" rx="10.7265" ry="10.7265"/><circle class="cls-8" cx="524.375" cy="16.25" r="12.5"/></g></g><rect class="cls-6" x="314.9562" y="72.0067" width="244.9846" height="177.4671" rx="10" ry="10"/><g><rect class="cls-1" x="444.1511" y="167.0271" width="108.6038" height="74.9592" rx="10" ry="10"/><g><path class="cls-11" d="M485.3955,199.8516c0-.2793,.1826-.4189,.5488-.4189h.8623c.0713,0,.1416,.0049,.21,.0146,.0684,.0107,.1279,.0205,.1797,.0303,.0508,.0107,.0986,.0332,.1445,.0693,.0459,.0352,.085,.0605,.1182,.0762s.0674,.0498,.1035,.1025c.0352,.0537,.0605,.0879,.0762,.1035,.0146,.0156,.0391,.0596,.0723,.1338,.0332,.0732,.0518,.1152,.0576,.126,.0049,.0098,.0225,.0566,.0527,.1406,.0312,.084,.0459,.1309,.0459,.1416l2.9229,7.9502c.1016-.3867,1.0654-3.0264,2.8916-7.9199,.0713-.209,.124-.3525,.1602-.4316,.0352-.0781,.0947-.1699,.1787-.2744s.1855-.1738,.3057-.21c.1191-.0352,.2734-.0527,.4619-.0527h.6562c.3555,0,.5332,.1396,.5332,.4189,0,.0615-.0195,.1553-.0605,.2822l-3.4414,9.2324c-.0605,.168-.1074,.2891-.1406,.3623-.0332,.0742-.0879,.1631-.1641,.2676s-.1748,.1768-.2939,.2168c-.1201,.041-.2734,.0615-.4619,.0615h-1.4268c-.1172,0-.2236-.0078-.3203-.0225-.0967-.0156-.1797-.0479-.248-.0957-.0684-.0488-.123-.083-.1641-.1035-.041-.0195-.084-.0742-.1299-.1641-.0459-.0889-.0771-.1436-.0947-.1641-.0186-.0195-.0479-.0869-.0879-.2021-.041-.1143-.0615-.1768-.0615-.1865l-3.4258-9.2021c-.041-.127-.0605-.2207-.0605-.2822Z"/><path class="cls-11" d="M497.8467,209.4121v-9.293c0-.458,.2363-.6865,.71-.6865h1.2744c.4268,0,.7344,.1445,.9229,.4346,.0811,.1377,.6133,1.4111,1.5947,3.8223s1.5391,3.8359,1.6709,4.2734c.1016-.377,1.1289-2.9502,3.082-7.7217,.082-.1885,.1465-.3232,.1953-.4043,.0479-.082,.1475-.1689,.2969-.2637,.1504-.0938,.3447-.1406,.584-.1406h1.3887c.4678,0,.7041,.2393,.71,.7168v9.377c0,.2393-.0469,.4238-.1416,.5537-.0938,.1299-.2881,.1943-.584,.1943h-.4951c-.1787,0-.3193-.0225-.4238-.0684s-.1738-.1211-.21-.2256c-.0352-.1045-.0557-.1855-.0605-.2441-.0059-.0586-.0078-.1484-.0078-.2705v-7.6455c0-.0508-.0029-.123-.0078-.2178-.0049-.0938-.0078-.166-.0078-.2168-.1016,.4775-1.1191,3.0488-3.0518,7.7139-.1475,.3555-.2988,.583-.4541,.6826s-.3672,.1484-.6367,.1484h-.3135c-.1367,0-.2529-.0068-.3467-.0225-.0947-.0156-.1816-.0518-.2637-.1104-.0811-.0586-.1455-.1084-.1943-.1494-.0479-.04-.1055-.1328-.1719-.2783-.0654-.1445-.1201-.2646-.1641-.3584-.043-.0938-.1113-.2646-.2061-.5117-.0938-.2461-.1768-.4512-.248-.6133l-1.625-4.0215c-.5186-1.3633-.8164-2.1895-.8926-2.4795v8.1719c0,.4775-.2344,.7168-.7021,.7168h-.5107c-.1787,0-.3193-.0225-.4238-.0684s-.1748-.1211-.2139-.2256c-.0381-.1045-.0596-.1875-.0645-.252-.0049-.0635-.0078-.1689-.0078-.3164Z"/></g></g><g><rect class="cls-8" x="321.7896" y="78.8719" width="230.9653" height="74.9592" rx="10" ry="10"/><g><g><path class="cls-11" d="M396.7803,118.8125c0-.0713,.0205-.1699,.0605-.2969l3.3115-9.4082c.082-.2393,.1914-.418,.3281-.5381,.1377-.1191,.3564-.1787,.6562-.1787h1.4121c.1875,0,.3438,.0195,.4688,.0605s.2295,.126,.3125,.2559c.084,.1299,.1367,.2188,.1572,.2666,.0195,.0488,.0605,.167,.1221,.3555l3.2344,9.2168c.041,.127,.0615,.2158,.0615,.2666,0,.2803-.1934,.4199-.5801,.4199h-.8242c-.0908,0-.1738-.0029-.248-.0078-.0732-.0049-.1445-.0254-.2129-.0605-.0693-.0361-.124-.0674-.1641-.0957-.041-.0283-.0879-.085-.1416-.1719-.0537-.0859-.0957-.1592-.126-.2168-.0303-.0586-.0752-.1631-.1338-.3135-.0586-.1494-.1055-.2793-.1406-.3887-.0361-.1094-.0928-.2764-.1719-.5s-.1484-.4248-.21-.6025h-4.4561c-.0713,.1885-.1455,.4043-.2246,.6484s-.1387,.4229-.1797,.5381c-.04,.1143-.0898,.2461-.1484,.3965s-.1084,.2568-.1484,.3203c-.041,.0635-.0908,.1348-.1494,.2139s-.1182,.1279-.1787,.1484c-.0615,.0205-.1338,.041-.2178,.0615s-.1816,.0303-.2939,.0303h-.5801c-.3965,0-.5947-.1396-.5947-.4199Zm3.1895-3.2803h3.5176c-1.0635-3.042-1.6484-4.7715-1.7549-5.1885-.1025,.376-.6895,2.1055-1.7627,5.1885Z"/><path class="cls-11" d="M408.5146,121.5596v-8.7666c0-.4785,.2344-.7178,.7021-.7178h.6562c.3965,0,.6357,.1631,.7168,.4883,.707-.4375,1.4727-.6582,2.2969-.6631,1.4297,0,2.3271,.6992,2.6934,2.0977,.1113,.4375,.168,.9873,.168,1.6484v.084c0,.707-.0967,1.3105-.29,1.8115-.1934,.502-.459,.8828-.7979,1.1445-.3379,.2627-.6885,.4482-1.0527,.5576-.3633,.1094-.7637,.1641-1.2012,.1641-.6357,0-1.2207-.1934-1.7549-.5801v2.7012c0,.29-.0605,.4863-.1797,.5908s-.3037,.1562-.5527,.1562h-.7178c-.458,0-.6865-.2383-.6865-.7168Zm2.1367-3.8916l.084,.0918c.0605,.0508,.1064,.0928,.1367,.126,.0312,.0332,.083,.0791,.1562,.1377,.0742,.0586,.1475,.1006,.2217,.126,.0732,.0254,.1631,.0508,.2666,.0762,.1045,.0254,.2129,.0381,.3252,.0381,.6152,0,1.0674-.2295,1.3574-.6865,.2695-.4277,.4072-1.0732,.4121-1.9385v-.1904c0-1.5518-.5312-2.3271-1.5947-2.3271-.1016,0-.1982,.0049-.29,.0146-.0908,.0107-.1777,.0293-.2588,.0576-.082,.0283-.1494,.0518-.2021,.0723-.0537,.0205-.1201,.0537-.1992,.0996-.0781,.0459-.1279,.0732-.1484,.084-.0205,.0098-.0713,.043-.1523,.0986l-.1143,.0918v4.0283Z"/><path class="cls-11" d="M417.2744,121.5596v-8.7666c0-.4785,.2344-.7178,.7021-.7178h.6562c.3965,0,.6357,.1631,.7168,.4883,.707-.4375,1.4727-.6582,2.2969-.6631,1.4297,0,2.3271,.6992,2.6934,2.0977,.1113,.4375,.168,.9873,.168,1.6484v.084c0,.707-.0967,1.3105-.29,1.8115-.1934,.502-.459,.8828-.7979,1.1445-.3379,.2627-.6885,.4482-1.0527,.5576-.3633,.1094-.7637,.1641-1.2012,.1641-.6357,0-1.2207-.1934-1.7549-.5801v2.7012c0,.29-.0605,.4863-.1797,.5908s-.3037,.1562-.5527,.1562h-.7178c-.458,0-.6865-.2383-.6865-.7168Zm2.1367-3.8916l.084,.0918c.0605,.0508,.1064,.0928,.1367,.126,.0312,.0332,.083,.0791,.1562,.1377,.0742,.0586,.1475,.1006,.2217,.126,.0732,.0254,.1631,.0508,.2666,.0762,.1045,.0254,.2129,.0381,.3252,.0381,.6152,0,1.0674-.2295,1.3574-.6865,.2695-.4277,.4072-1.0732,.4121-1.9385v-.1904c0-1.5518-.5312-2.3271-1.5947-2.3271-.1016,0-.1982,.0049-.29,.0146-.0908,.0107-.1777,.0293-.2588,.0576-.082,.0283-.1494,.0518-.2021,.0723-.0537,.0205-.1201,.0537-.1992,.0996-.0781,.0459-.1279,.0732-.1484,.084-.0205,.0098-.0713,.043-.1523,.0986l-.1143,.0918v4.0283Z"/><path class="cls-11" d="M426.0332,118.5303v-9.8428c0-.4883,.2188-.7344,.6562-.7402h.7168c.4785,0,.7178,.2373,.7178,.71v9.8125c0,.127-.0049,.2266-.0156,.2969-.0098,.0713-.0352,.1465-.0762,.2256s-.1104,.1357-.21,.1719c-.0986,.0352-.2324,.0586-.4004,.0684h-.6406c-.2393,0-.4238-.0469-.5537-.1416-.1299-.0938-.1943-.2803-.1943-.5605Z"/><path class="cls-11" d="M429.9561,109.4512v-.7783c0-.168,.0176-.3037,.0527-.4082,.0361-.1045,.1006-.1787,.1943-.2217,.0947-.043,.1641-.0674,.21-.0723s.127-.0127,.2441-.0234h.7939c.2188,0,.3936,.0498,.5264,.1494,.1318,.0986,.1982,.291,.1982,.5762v.8086c0,.0811-.0088,.1562-.0264,.2246-.0186,.0693-.04,.126-.0654,.1719s-.0557,.0879-.0908,.126c-.0361,.0381-.0732,.0645-.1113,.0801s-.0801,.0303-.126,.0459c-.0449,.0156-.0811,.0225-.1064,.0225s-.0586,.0059-.0996,.0156h-.877c-.2188,0-.3926-.0498-.5225-.1484-.1299-.0996-.1943-.2891-.1943-.5684Zm.0605,9.0029v-5.6768c0-.4678,.2285-.7021,.6865-.7021h.6406c.2295,0,.4033,.042,.5234,.126,.1191,.084,.1895,.1729,.21,.2676,.0195,.0938,.0303,.2227,.0303,.3848v5.6768c0,.4678-.2295,.7021-.6865,.7021h-.7178c-.2188,0-.3828-.0518-.4922-.1562s-.1689-.1973-.1787-.2783c-.0107-.082-.0156-.1963-.0156-.3438Z"/><path class="cls-11" d="M433.625,115.6689c0-2.5732,1.2695-3.8604,3.8076-3.8604,.9053,0,1.75,.2139,2.5332,.6406,.0811,.0508,.124,.1348,.1299,.252-.0508,.8135-.1787,1.2207-.3818,1.2207-.0713,0-.2344-.1045-.4883-.3125-.2549-.209-.501-.3564-.7402-.4424-.2695-.0918-.6709-.1377-1.2051-.1377-.2803,.0098-.5215,.0771-.7256,.2021-.2031,.125-.3545,.2656-.4531,.4238-.0996,.1572-.1787,.3613-.2373,.6104s-.0898,.4482-.0947,.5986c-.0059,.1504-.0078,.3447-.0078,.584v.2969c0,.2598,.0049,.4736,.0146,.6416,.0107,.168,.0449,.376,.1035,.625,.0586,.25,.1426,.4502,.252,.6035,.1094,.1523,.2705,.2861,.4844,.4004s.4707,.1719,.7705,.1719c.376,0,.7207-.0498,1.0342-.1494,.3125-.0986,.5518-.208,.7168-.3281,.165-.1191,.3193-.2334,.4619-.3428s.2441-.1689,.3047-.1797l.0762,.0156c.0615,.04,.0986,.0977,.1113,.1719,.0127,.0732,.0439,.3799,.0947,.9189v.1299c0,.1475-.1035,.2773-.3125,.3887-.7627,.3975-1.6074,.5957-2.5332,.5957-2.4775-.0059-3.7158-1.252-3.7158-3.7393Z"/><path class="cls-11" d="M441.1641,117.0889c0-.4072,.1211-.7607,.3643-1.0605,.2432-.3008,.5352-.5342,.876-.7021,.3398-.168,.7432-.3018,1.209-.4004,.4658-.0996,.8691-.1641,1.21-.1953,.3408-.0303,.6846-.0459,1.0332-.0459v-.3193c0-.4355-.0742-.7803-.2207-1.0332-.1475-.2529-.4443-.3789-.8906-.3789-.4082,0-.7793,.0527-1.1133,.1572-.335,.1045-.582,.2217-.7432,.3506-.1602,.1289-.3115,.248-.4541,.3574-.1426,.1104-.248,.165-.3154,.165l-.0615-.0107-.0625-.0312c-.0312-.0508-.0596-.1777-.085-.3809-.0264-.2031-.0449-.3887-.0547-.5557l-.0234-.2666c0-.0508,.0039-.0889,.0117-.1143s.0273-.0547,.0586-.0879c.0303-.0332,.0537-.0547,.0693-.0645s.0615-.0303,.1357-.0615c.0752-.0303,.1338-.0557,.1758-.0771,.751-.3496,1.5723-.5244,2.4619-.5244,1.1895,0,2.0283,.2236,2.5156,.6709,.4883,.4482,.7314,1.0938,.7314,1.9385v4.1123c0,.4678-.2354,.7021-.707,.7021h-.7529c-.2305,0-.3955-.0625-.4961-.1865-.0996-.125-.1494-.2715-.1494-.4395-.6914,.5293-1.5,.7959-2.4268,.8018-.7012,0-1.2598-.2402-1.6748-.7217-.4141-.4805-.6211-1.0127-.6211-1.5977Zm2.0898,0c0,.2998,.0996,.5703,.2969,.8125,.1982,.2412,.457,.3623,.7764,.3623,.3545,0,.6982-.1123,1.0303-.3359s.499-.5898,.499-1.0986v-1.2207c-.3203,.0303-.5947,.0635-.8262,.0986-.2305,.0361-.502,.1035-.8135,.2021-.3125,.0996-.5508,.251-.7148,.4541-.165,.2041-.248,.4453-.248,.7256Z"/><path class="cls-11" d="M449.2588,112.6396c0-.376,.2227-.5645,.667-.5645h.3633v-1.3428c0-.4678,.2559-.7021,.7666-.7021h.5654c.4756,0,.7129,.2344,.7129,.7021v1.3428h1.4062c.1855,0,.335,.042,.4473,.126,.1133,.084,.1816,.1621,.207,.2334s.0371,.1436,.0371,.2168c0,.0742-.0117,.1475-.0371,.2217-.0254,.0732-.0918,.1494-.1992,.2285s-.249,.1182-.4248,.1182h-1.4365v3.1211c0,.0508-.0029,.1182-.0078,.2021s-.0078,.1514-.0078,.2021c0,.5547,.0518,.9336,.1562,1.1367s.2715,.3057,.5,.3057c.29,0,.5928-.0918,.9082-.2754,.3154-.1826,.4834-.2744,.5039-.2744,.0703,0,.1357,.0723,.1943,.2178,.0586,.1445,.1025,.291,.1338,.4385l.0303,.2061c0,.1982-.3262,.3994-.9766,.6025-.6514,.2031-1.2764,.3057-1.876,.3057-.7744,0-1.2754-.377-1.502-1.1299-.0928-.3096-.1426-.7832-.1475-1.4189v-3.6396h-.3184c-.4434,0-.666-.1934-.666-.5801Z"/><path class="cls-11" d="M456.0879,109.4512v-.7783c0-.168,.0176-.3037,.0527-.4082,.0361-.1045,.1006-.1787,.1943-.2217,.0947-.043,.1641-.0674,.21-.0723s.127-.0127,.2441-.0234h.7939c.2188,0,.3936,.0498,.5264,.1494,.1318,.0986,.1982,.291,.1982,.5762v.8086c0,.0811-.0088,.1562-.0264,.2246-.0186,.0693-.04,.126-.0654,.1719s-.0557,.0879-.0908,.126c-.0361,.0381-.0732,.0645-.1113,.0801s-.0801,.0303-.126,.0459c-.0449,.0156-.0811,.0225-.1064,.0225s-.0586,.0059-.0996,.0156h-.877c-.2188,0-.3926-.0498-.5225-.1484-.1299-.0996-.1943-.2891-.1943-.5684Zm.0605,9.0029v-5.6768c0-.4678,.2285-.7021,.6865-.7021h.6406c.2295,0,.4033,.042,.5234,.126,.1191,.084,.1895,.1729,.21,.2676,.0195,.0938,.0303,.2227,.0303,.3848v5.6768c0,.4678-.2295,.7021-.6865,.7021h-.7178c-.2188,0-.3828-.0518-.4922-.1562s-.1689-.1973-.1787-.2783c-.0107-.082-.0156-.1963-.0156-.3438Z"/><path class="cls-11" d="M459.6592,115.7305c0-.748,.1016-1.3877,.3047-1.9189s.4824-.9385,.8379-1.2207,.7305-.4834,1.124-.6035c.3936-.1191,.8291-.1787,1.3066-.1787,.2695,0,.5068,.0049,.7129,.0146,.2061,.0107,.4561,.0449,.751,.1035s.5518,.1396,.7705,.2441,.4482,.2559,.6895,.4541c.2422,.1982,.4404,.4326,.5947,.7021,.1553,.2695,.2822,.6152,.3818,1.0371,.0986,.4229,.1484,.8984,.1484,1.4268,0,2.4062-1.2656,3.6113-3.7959,3.6172-2.5508-.0059-3.8262-1.2314-3.8262-3.6777Zm2.1357,.1602c.0107,.2695,.0205,.4717,.0312,.6064,.0098,.1348,.0469,.3311,.1104,.5879s.1484,.4502,.2529,.5791c.1045,.1299,.2656,.25,.4854,.3594,.2188,.1094,.4854,.1641,.7988,.1641s.5801-.0547,.7988-.1641c.2197-.1094,.3838-.2354,.4941-.3779,.1094-.1426,.1943-.3359,.2559-.5801,.0605-.2441,.0967-.4512,.1064-.6221,.0107-.1699,.0156-.3877,.0156-.6523v-.541c0-.2188-.0049-.3828-.0156-.4922-.0098-.1094-.0273-.2734-.0527-.4922s-.0752-.3906-.1494-.5156c-.0742-.124-.1709-.2578-.291-.4004-.1191-.1426-.2783-.2441-.4775-.3047-.1992-.0615-.4336-.0918-.7031-.0918-.3213,0-.5947,.0566-.8184,.1719-.2246,.1143-.3887,.2412-.4932,.3809-.1045,.1406-.1865,.3486-.2451,.626s-.0908,.4912-.0957,.6406c-.0049,.1504-.0078,.3809-.0078,.6904v.4277Z"/><path class="cls-11" d="M468.707,118.5303v-5.8291c0-.1982,.042-.3545,.126-.4697,.084-.1143,.1689-.1816,.2559-.2021,.0869-.0195,.1934-.0303,.3203-.0303h.626c.1016,0,.1816,.0049,.2402,.0156,.0586,.0098,.1318,.0332,.2217,.0684,.0889,.0361,.1533,.1035,.1943,.2021,.04,.0996,.0605,.2275,.0605,.3857v.3125c.7188-.7168,1.5645-1.0781,2.5371-1.083,.377,0,.7031,.0342,.9785,.1025s.4941,.1729,.6572,.3125c.1631,.1406,.2939,.2764,.3936,.4082,.0996,.1328,.167,.3154,.2021,.5498,.0361,.2344,.0586,.4209,.0693,.5605,.0098,.1406,.0146,.335,.0146,.584v4.1279c0,.458-.2246,.6865-.6738,.6865h-.7344c-.2812,0-.4727-.0596-.5752-.1797-.1016-.1191-.1523-.2881-.1523-.5068v-4.2803c0-.1582-.0029-.2783-.0078-.3623s-.0234-.1885-.0537-.3135c-.0303-.124-.0762-.2207-.1367-.29-.0615-.0684-.1533-.1279-.2754-.1787s-.2695-.0762-.4424-.0762c-.4375,0-.792,.1318-1.0645,.3965-.2715,.2646-.4541,.5547-.5449,.8701-.0615,.2285-.0947,.5078-.0996,.8389v3.25c0,.0205-.0029,.0498-.0078,.0879s-.0205,.1074-.0459,.2061c-.0254,.0996-.0586,.1846-.0986,.2559-.041,.0713-.1113,.1357-.21,.1943-.0996,.0586-.2178,.0879-.3545,.0879h-.6875c-.4883,0-.7324-.2344-.7324-.7021Z"/></g><g><line class="cls-4" x1="491.3658" y1="112.0255" x2="491.3658" y2="119.0372"/><line class="cls-4" x1="487.1952" y1="112.0255" x2="487.1952" y2="119.0372"/></g></g></g></g><g><line class="cls-3" x1="232.8467" y1="116.3514" x2="329.1771" y2="116.3514"/><polygon class="cls-11" points="328.4476 118.8446 332.7652 116.3514 328.4476 113.8583 328.4476 118.8446"/></g><g><path class="cls-11" d="M61.5586,298.8057v-10.6738h3.2842c.9385,0,1.7778,.2109,2.5186,.6338,.7402,.4229,1.3184,1.0234,1.7339,1.8037,.415,.7793,.623,1.665,.623,2.6572v.4912c0,.9922-.2041,1.874-.6123,2.6465s-.9834,1.3711-1.7266,1.7959c-.7427,.4258-1.5811,.6406-2.5146,.6455h-3.3062Zm2.1992-8.8926v7.126h1.063c.8604,0,1.5176-.2812,1.9722-.8438,.4546-.5615,.6865-1.3652,.6963-2.4111v-.5645c0-1.0859-.2246-1.9082-.6743-2.4678s-1.1069-.8389-1.9722-.8389h-1.085Z"/><path class="cls-11" d="M76.0293,298.9521c-1.1636,0-2.1104-.3564-2.8408-1.0703-.731-.7139-1.0962-1.6641-1.0962-2.8516v-.2051c0-.7969,.1538-1.5098,.4619-2.1377s.7441-1.1113,1.3086-1.4512,1.2085-.5098,1.9316-.5098c1.085,0,1.9395,.3418,2.5625,1.0264s.9346,1.6543,.9346,2.9102v.8652h-5.0513c.0684,.5186,.2749,.9336,.6196,1.2471,.3447,.3125,.7808,.4688,1.3086,.4688,.8164,0,1.4541-.2959,1.9136-.8867l1.041,1.165c-.3179,.4502-.748,.8008-1.2905,1.0527-.5425,.251-1.1436,.377-1.8032,.377Zm-.2422-6.5176c-.4204,0-.7612,.1426-1.0225,.4277-.2617,.2842-.4292,.6924-.5024,1.2217h2.9473v-.1689c-.0098-.4717-.1367-.8359-.3813-1.0938-.2441-.2578-.5913-.3867-1.041-.3867Z"/><path class="cls-11" d="M88.8433,294.9131c0,1.2705-.2715,2.2617-.814,2.9727s-1.3003,1.0664-2.2725,1.0664c-.8604,0-1.5469-.3301-2.0601-.9893l-.0957,.8428h-1.9058v-11.2607h2.1187v4.0391c.4888-.5713,1.1313-.8574,1.9282-.8574,.9673,0,1.7261,.3555,2.2759,1.0664,.5503,.7119,.8252,1.7119,.8252,3.0029v.1172Zm-2.1191-.1543c0-.8018-.127-1.3867-.3809-1.7559-.2544-.3691-.6333-.5537-1.1367-.5537-.6743,0-1.1387,.2764-1.3926,.8291v3.1299c.2588,.5576,.728,.8359,1.4072,.8359,.6846,0,1.1343-.3369,1.3491-1.0117,.1025-.3223,.1538-.8135,.1538-1.4736Z"/><path class="cls-11" d="M96.0996,297.999c-.5229,.6357-1.2466,.9531-2.1699,.9531-.8506,0-1.4995-.2441-1.9468-.7334-.4473-.4883-.6758-1.2041-.6855-2.1475v-5.1982h2.1191v5.1309c0,.8271,.376,1.2402,1.1289,1.2402,.7183,0,1.2119-.25,1.481-.749v-5.6221h2.126v7.9326h-1.9941l-.0586-.8066Z"/><path class="cls-11" d="M100.644,294.7812c0-1.2178,.2896-2.1973,.8687-2.9404s1.3599-1.1143,2.3423-1.1143c.8701,0,1.5469,.2979,2.0308,.8945l.0879-.748h1.9209v7.6689c0,.6934-.1577,1.2979-.4727,1.8105-.3154,.5137-.7588,.9043-1.3306,1.1729s-1.2417,.4033-2.0088,.4033c-.582,0-1.1489-.1162-1.7012-.3486-.5522-.2314-.9702-.5312-1.2534-.8975l.9385-1.29c.5278,.5908,1.168,.8867,1.9209,.8867,.5615,0,.999-.1504,1.312-.4512s.4692-.7266,.4692-1.2793v-.4248c-.4888,.5518-1.1313,.8281-1.9282,.8281-.9531,0-1.7241-.3721-2.313-1.1182-.5889-.7451-.8833-1.7334-.8833-2.9648v-.0879Zm2.1187,.1572c0,.7197,.144,1.2842,.4326,1.6924,.2881,.4092,.6841,.6133,1.1875,.6133,.6455,0,1.1069-.2422,1.3857-.7266v-3.3408c-.2837-.4854-.7402-.7275-1.3711-.7275-.5083,0-.9077,.208-1.1987,.624-.2905,.416-.436,1.0381-.436,1.8652Z"/><path class="cls-11" d="M110.415,294.7812c0-1.2178,.2896-2.1973,.8687-2.9404s1.3599-1.1143,2.3423-1.1143c.8701,0,1.5469,.2979,2.0308,.8945l.0879-.748h1.9209v7.6689c0,.6934-.1577,1.2979-.4727,1.8105-.3154,.5137-.7588,.9043-1.3306,1.1729s-1.2417,.4033-2.0088,.4033c-.582,0-1.1489-.1162-1.7012-.3486-.5522-.2314-.9702-.5312-1.2534-.8975l.9385-1.29c.5278,.5908,1.168,.8867,1.9209,.8867,.5615,0,.999-.1504,1.312-.4512s.4692-.7266,.4692-1.2793v-.4248c-.4888,.5518-1.1313,.8281-1.9282,.8281-.9531,0-1.7241-.3721-2.313-1.1182-.5889-.7451-.8833-1.7334-.8833-2.9648v-.0879Zm2.1187,.1572c0,.7197,.144,1.2842,.4326,1.6924,.2881,.4092,.6841,.6133,1.1875,.6133,.6455,0,1.1069-.2422,1.3857-.7266v-3.3408c-.2837-.4854-.7402-.7275-1.3711-.7275-.5083,0-.9077,.208-1.1987,.624-.2905,.416-.436,1.0381-.436,1.8652Z"/><path class="cls-11" d="M124.1455,298.9521c-1.1636,0-2.1104-.3564-2.8408-1.0703-.731-.7139-1.0962-1.6641-1.0962-2.8516v-.2051c0-.7969,.1538-1.5098,.4619-2.1377s.7441-1.1113,1.3086-1.4512,1.2085-.5098,1.9316-.5098c1.085,0,1.9395,.3418,2.5625,1.0264s.9346,1.6543,.9346,2.9102v.8652h-5.0513c.0684,.5186,.2749,.9336,.6196,1.2471,.3447,.3125,.7808,.4688,1.3086,.4688,.8164,0,1.4541-.2959,1.9136-.8867l1.041,1.165c-.3179,.4502-.748,.8008-1.2905,1.0527-.5425,.251-1.1436,.377-1.8032,.377Zm-.2422-6.5176c-.4204,0-.7612,.1426-1.0225,.4277-.2617,.2842-.4292,.6924-.5024,1.2217h2.9473v-.1689c-.0098-.4717-.1367-.8359-.3813-1.0938-.2441-.2578-.5913-.3867-1.041-.3867Z"/><path class="cls-11" d="M134.2686,292.8604c-.2881-.0391-.5425-.0586-.7622-.0586-.8018,0-1.3271,.2705-1.5762,.8135v5.1904h-2.1187v-7.9326h2.0015l.0586,.9463c.4248-.7285,1.0142-1.0928,1.7666-1.0928,.2349,0,.4546,.0322,.6597,.0957l-.0293,2.0381Z"/><path class="cls-11" d="M147.9902,294.4434h-4.2227v4.3623h-2.1992v-10.6738h6.9497v1.7812h-4.7505v2.7559h4.2227v1.7744Z"/><path class="cls-11" d="M155.1226,292.8604c-.2881-.0391-.5425-.0586-.7622-.0586-.8018,0-1.3271,.2705-1.5762,.8135v5.1904h-2.1187v-7.9326h2.0015l.0586,.9463c.4248-.7285,1.0142-1.0928,1.7666-1.0928,.2349,0,.4546,.0322,.6597,.0957l-.0293,2.0381Z"/><path class="cls-11" d="M156.749,294.7666c0-.7871,.1514-1.4883,.4546-2.1045,.3027-.6162,.7393-1.0928,1.3086-1.4297s1.2305-.5059,1.9829-.5059c1.0703,0,1.9438,.3271,2.6211,.9824,.6768,.6553,1.0542,1.5449,1.1328,2.6689l.0146,.542c0,1.2168-.3398,2.1934-1.019,2.9287-.6797,.7363-1.5908,1.1035-2.7349,1.1035s-2.0562-.3662-2.7383-1.0996c-.6816-.7334-1.0225-1.7305-1.0225-2.9912v-.0947Zm2.1187,.1504c0,.7539,.1416,1.3301,.4253,1.7285,.2832,.3994,.689,.5986,1.2168,.5986,.5132,0,.9141-.1973,1.2026-.5908,.2881-.3945,.4326-1.0244,.4326-1.8906,0-.7393-.1445-1.3125-.4326-1.7188-.2886-.4062-.6943-.6094-1.2173-.6094-.5181,0-.9189,.2021-1.2021,.6064-.2837,.4033-.4253,1.0283-.4253,1.876Z"/><path class="cls-11" d="M168.7192,290.873l.0664,.917c.5669-.709,1.3267-1.0635,2.2798-1.0635,.8403,0,1.4663,.2471,1.877,.7402,.4102,.4941,.6206,1.2324,.6304,2.2139v5.125h-2.1187v-5.0732c0-.4492-.0981-.7754-.2935-.9785s-.5205-.3047-.9751-.3047c-.5962,0-1.0435,.2549-1.3413,.7627v5.5938h-2.1187v-7.9326h1.9937Z"/><path class="cls-11" d="M178.9165,288.9229v1.9502h1.356v1.5547h-1.356v3.959c0,.293,.0562,.5029,.1685,.6299s.3271,.1904,.645,.1904c.2349,0,.4424-.0166,.623-.0508v1.6055c-.4155,.127-.8428,.1904-1.2827,.1904-1.4858,0-2.2437-.75-2.2729-2.251v-4.2734h-1.1582v-1.5547h1.1582v-1.9502h2.1191Z"/><path class="cls-11" d="M186.3047,298.9521c-1.1636,0-2.1104-.3564-2.8408-1.0703-.731-.7139-1.0962-1.6641-1.0962-2.8516v-.2051c0-.7969,.1538-1.5098,.4619-2.1377s.7441-1.1113,1.3086-1.4512,1.2085-.5098,1.9316-.5098c1.085,0,1.9395,.3418,2.5625,1.0264s.9346,1.6543,.9346,2.9102v.8652h-5.0513c.0684,.5186,.2749,.9336,.6196,1.2471,.3447,.3125,.7808,.4688,1.3086,.4688,.8164,0,1.4541-.2959,1.9136-.8867l1.041,1.165c-.3179,.4502-.748,.8008-1.2905,1.0527-.5425,.251-1.1436,.377-1.8032,.377Zm-.2422-6.5176c-.4204,0-.7612,.1426-1.0225,.4277-.2617,.2842-.4292,.6924-.5024,1.2217h2.9473v-.1689c-.0098-.4717-.1367-.8359-.3813-1.0938-.2441-.2578-.5913-.3867-1.041-.3867Z"/><path class="cls-11" d="M193.9204,290.873l.0664,.917c.5669-.709,1.3267-1.0635,2.2798-1.0635,.8403,0,1.4663,.2471,1.877,.7402,.4102,.4941,.6206,1.2324,.6304,2.2139v5.125h-2.1187v-5.0732c0-.4492-.0981-.7754-.2935-.9785s-.5205-.3047-.9751-.3047c-.5962,0-1.0435,.2549-1.3413,.7627v5.5938h-2.1187v-7.9326h1.9937Z"/><path class="cls-11" d="M201.251,294.7812c0-1.2373,.2773-2.2217,.832-2.9551s1.3135-1.0996,2.2764-1.0996c.772,0,1.4102,.2881,1.9136,.8652v-4.0469h2.126v11.2607h-1.9136l-.1025-.8428c-.5278,.6592-1.207,.9893-2.0381,.9893-.9336,0-1.6826-.3672-2.2471-1.1035-.5645-.7354-.8467-1.7578-.8467-3.0674Zm2.1187,.1572c0,.7441,.1294,1.3145,.3887,1.7109,.2588,.3965,.6353,.5947,1.1289,.5947,.6548,0,1.1167-.2764,1.3857-.8301v-3.1348c-.2642-.5527-.7212-.8301-1.3711-.8301-1.0215,0-1.5322,.8301-1.5322,2.4893Z"/></g><g><path class="cls-11" d="M364.2217,298.8057v-10.6738h3.2842c.9385,0,1.7783,.2109,2.5186,.6338s1.3184,1.0234,1.7334,1.8037c.416,.7793,.623,1.665,.623,2.6572v.4912c0,.9922-.2041,1.874-.6113,2.6465-.4082,.7725-.9844,1.3711-1.7266,1.7959-.7432,.4258-1.5811,.6406-2.5146,.6455h-3.3066Zm2.1992-8.8926v7.126h1.0635c.8594,0,1.5176-.2812,1.9717-.8438,.4551-.5615,.6865-1.3652,.6963-2.4111v-.5645c0-1.0859-.2246-1.9082-.6738-2.4678-.4502-.5596-1.1074-.8389-1.9727-.8389h-1.085Z"/><path class="cls-11" d="M378.6924,298.9521c-1.1631,0-2.1104-.3564-2.8408-1.0703s-1.0957-1.6641-1.0957-2.8516v-.2051c0-.7969,.1533-1.5098,.4609-2.1377,.3086-.6279,.7441-1.1113,1.3086-1.4512,.5654-.3398,1.209-.5098,1.9326-.5098,1.085,0,1.9385,.3418,2.5615,1.0264,.624,.6846,.9355,1.6543,.9355,2.9102v.8652h-5.0518c.0684,.5186,.2754,.9336,.6191,1.2471,.3447,.3125,.7812,.4688,1.3096,.4688,.8154,0,1.4531-.2959,1.9131-.8867l1.041,1.165c-.3174,.4502-.748,.8008-1.29,1.0527-.543,.251-1.1436,.377-1.8037,.377Zm-.2422-6.5176c-.4199,0-.7607,.1426-1.0225,.4277-.2617,.2842-.4287,.6924-.502,1.2217h2.9473v-.1689c-.0107-.4717-.1377-.8359-.3818-1.0938s-.5908-.3867-1.041-.3867Z"/><path class="cls-11" d="M391.5059,294.9131c0,1.2705-.2715,2.2617-.8145,2.9727-.542,.7109-1.2998,1.0664-2.2725,1.0664-.8604,0-1.5469-.3301-2.0596-.9893l-.0957,.8428h-1.9062v-11.2607h2.1191v4.0391c.4883-.5713,1.1309-.8574,1.9277-.8574,.9678,0,1.7266,.3555,2.2764,1.0664,.5498,.7119,.8252,1.7119,.8252,3.0029v.1172Zm-2.1191-.1543c0-.8018-.127-1.3867-.3809-1.7559s-.6328-.5537-1.1367-.5537c-.6738,0-1.1387,.2764-1.3926,.8291v3.1299c.2588,.5576,.7285,.8359,1.4072,.8359,.6846,0,1.1338-.3369,1.3496-1.0117,.1025-.3223,.1533-.8135,.1533-1.4736Z"/><path class="cls-11" d="M398.7627,297.999c-.5234,.6357-1.2461,.9531-2.1699,.9531-.8506,0-1.499-.2441-1.9463-.7334-.4473-.4883-.6758-1.2041-.6855-2.1475v-5.1982h2.1182v5.1309c0,.8271,.377,1.2402,1.1289,1.2402,.7188,0,1.2129-.25,1.4814-.749v-5.6221h2.126v7.9326h-1.9941l-.0586-.8066Z"/><path class="cls-11" d="M403.3066,294.7812c0-1.2178,.29-2.1973,.8691-2.9404s1.3594-1.1143,2.3418-1.1143c.8701,0,1.5469,.2979,2.0312,.8945l.0879-.748h1.9209v7.6689c0,.6934-.1582,1.2979-.4736,1.8105-.3145,.5137-.7588,.9043-1.3301,1.1729-.5723,.2686-1.2412,.4033-2.0088,.4033-.582,0-1.1484-.1162-1.7012-.3486-.5518-.2314-.9697-.5312-1.2539-.8975l.9385-1.29c.5283,.5908,1.168,.8867,1.9209,.8867,.5625,0,1-.1504,1.3125-.4512s.4697-.7266,.4697-1.2793v-.4248c-.4893,.5518-1.1318,.8281-1.9287,.8281-.9531,0-1.7236-.3721-2.3125-1.1182-.5898-.7451-.8838-1.7334-.8838-2.9648v-.0879Zm2.1191,.1572c0,.7197,.1436,1.2842,.4316,1.6924,.2891,.4092,.6846,.6133,1.1885,.6133,.6445,0,1.1064-.2422,1.3857-.7266v-3.3408c-.2842-.4854-.7412-.7275-1.3711-.7275-.5088,0-.9082,.208-1.1992,.624s-.4355,1.0381-.4355,1.8652Z"/><path class="cls-11" d="M413.0781,294.7812c0-1.2178,.29-2.1973,.8691-2.9404s1.3594-1.1143,2.3418-1.1143c.8701,0,1.5469,.2979,2.0312,.8945l.0879-.748h1.9209v7.6689c0,.6934-.1582,1.2979-.4736,1.8105-.3145,.5137-.7588,.9043-1.3301,1.1729-.5723,.2686-1.2412,.4033-2.0088,.4033-.582,0-1.1484-.1162-1.7012-.3486-.5518-.2314-.9697-.5312-1.2539-.8975l.9385-1.29c.5283,.5908,1.168,.8867,1.9209,.8867,.5625,0,1-.1504,1.3125-.4512s.4697-.7266,.4697-1.2793v-.4248c-.4893,.5518-1.1318,.8281-1.9287,.8281-.9531,0-1.7236-.3721-2.3125-1.1182-.5898-.7451-.8838-1.7334-.8838-2.9648v-.0879Zm2.1191,.1572c0,.7197,.1436,1.2842,.4316,1.6924,.2891,.4092,.6846,.6133,1.1885,.6133,.6445,0,1.1064-.2422,1.3857-.7266v-3.3408c-.2842-.4854-.7412-.7275-1.3711-.7275-.5088,0-.9082,.208-1.1992,.624s-.4355,1.0381-.4355,1.8652Z"/><path class="cls-11" d="M426.8086,298.9521c-1.1631,0-2.1104-.3564-2.8408-1.0703s-1.0957-1.6641-1.0957-2.8516v-.2051c0-.7969,.1533-1.5098,.4609-2.1377,.3086-.6279,.7441-1.1113,1.3086-1.4512,.5654-.3398,1.209-.5098,1.9326-.5098,1.085,0,1.9385,.3418,2.5615,1.0264,.624,.6846,.9355,1.6543,.9355,2.9102v.8652h-5.0518c.0684,.5186,.2754,.9336,.6191,1.2471,.3447,.3125,.7812,.4688,1.3096,.4688,.8154,0,1.4531-.2959,1.9131-.8867l1.041,1.165c-.3174,.4502-.748,.8008-1.29,1.0527-.543,.251-1.1436,.377-1.8037,.377Zm-.2422-6.5176c-.4199,0-.7607,.1426-1.0225,.4277-.2617,.2842-.4287,.6924-.502,1.2217h2.9473v-.1689c-.0107-.4717-.1377-.8359-.3818-1.0938s-.5908-.3867-1.041-.3867Z"/><path class="cls-11" d="M436.9316,292.8604c-.2891-.0391-.543-.0586-.7627-.0586-.8018,0-1.3271,.2705-1.5762,.8135v5.1904h-2.1191v-7.9326h2.002l.0586,.9463c.4248-.7285,1.0137-1.0928,1.7666-1.0928,.2344,0,.4541,.0322,.6602,.0957l-.0293,2.0381Z"/><path class="cls-11" d="M444.2314,298.8057v-10.6738h3.7393c1.2949,0,2.2773,.248,2.9463,.7441,.6699,.4961,1.0049,1.2227,1.0049,2.1807,0,.5234-.1348,.9834-.4033,1.3818s-.6426,.6904-1.1221,.876c.5479,.1367,.9795,.4131,1.2939,.8281,.3154,.416,.4736,.9238,.4736,1.5254,0,1.0264-.3281,1.8037-.9824,2.3311-.6553,.5283-1.5889,.7969-2.8008,.8066h-4.1494Zm2.1992-6.2021h1.6279c1.1094-.0195,1.6641-.4619,1.6641-1.3271,0-.4834-.1406-.832-.4219-1.0449-.2812-.2119-.7246-.3184-1.3301-.3184h-1.54v2.6904Zm0,1.5537v2.8818h1.8838c.5186,0,.9229-.124,1.2139-.3701,.291-.2471,.4365-.5879,.4365-1.0234,0-.9775-.5059-1.4736-1.5176-1.4883h-2.0166Z"/><path class="cls-11" d="M459.4717,298.8057c-.0977-.1904-.168-.4277-.2119-.7109-.5137,.5713-1.1807,.8574-2.002,.8574-.7773,0-1.4209-.2246-1.9316-.6748-.5107-.4492-.7666-1.0156-.7666-1.7002,0-.8408,.3125-1.4863,.9355-1.9355s1.5234-.6768,2.7012-.6816h.9756v-.4551c0-.3662-.0947-.6592-.2832-.8799-.1875-.2197-.4844-.3291-.8906-.3291-.3564,0-.6367,.085-.8389,.2559-.2031,.1719-.3047,.4062-.3047,.7041h-2.1182c0-.459,.1416-.8848,.4248-1.2754,.2832-.3916,.6846-.6982,1.2021-.9199,.5186-.2227,1.0996-.334,1.7451-.334,.9775,0,1.7529,.2461,2.3271,.7373,.5752,.4912,.8623,1.1816,.8623,2.0703v3.4385c.0049,.7529,.1094,1.3223,.3145,1.708v.125h-2.1406Zm-1.752-1.4736c.3125,0,.6016-.0693,.8652-.209s.459-.3262,.5869-.5605v-1.3643h-.792c-1.0605,0-1.625,.3672-1.6934,1.1006l-.0078,.124c0,.2637,.0928,.4814,.2783,.6523,.1855,.1719,.4404,.2568,.7627,.2568Z"/><path class="cls-11" d="M467.4258,297.2441c.3906,0,.708-.1074,.9521-.3223,.2451-.2158,.3721-.501,.3818-.8584h1.9863c-.0049,.5381-.1514,1.0303-.4395,1.4775-.2891,.4473-.6836,.7939-1.1846,1.041s-1.0537,.3701-1.6602,.3701c-1.1338,0-2.0283-.3604-2.6836-1.0811-.6543-.7207-.9824-1.7168-.9824-2.9873v-.1396c0-1.2217,.3252-2.1973,.9756-2.9248,.6494-.7285,1.542-1.0928,2.6758-1.0928,.9922,0,1.7881,.2822,2.3867,.8467s.9023,1.3164,.9121,2.2549h-1.9863c-.0098-.4131-.1367-.748-.3818-1.0059-.2441-.2588-.5664-.3877-.9668-.3877-.4941,0-.8672,.1807-1.1182,.54-.252,.3594-.3779,.9434-.3779,1.751v.2207c0,.8174,.125,1.4043,.374,1.7617s.6279,.5361,1.1367,.5361Z"/><path class="cls-11" d="M476.0381,295.624l-.7627,.7627v2.4189h-2.1191v-11.2607h2.1191v6.2393l.4102-.5283,2.0312-2.3828h2.5439l-2.8672,3.3066,3.1162,4.626h-2.4336l-2.0381-3.1816Z"/><path class="cls-11" d="M485.8828,298.9521c-1.1631,0-2.1104-.3564-2.8408-1.0703s-1.0957-1.6641-1.0957-2.8516v-.2051c0-.7969,.1533-1.5098,.4609-2.1377,.3086-.6279,.7441-1.1113,1.3086-1.4512,.5654-.3398,1.209-.5098,1.9326-.5098,1.085,0,1.9385,.3418,2.5615,1.0264,.624,.6846,.9355,1.6543,.9355,2.9102v.8652h-5.0518c.0684,.5186,.2754,.9336,.6191,1.2471,.3447,.3125,.7812,.4688,1.3096,.4688,.8154,0,1.4531-.2959,1.9131-.8867l1.041,1.165c-.3174,.4502-.748,.8008-1.29,1.0527-.543,.251-1.1436,.377-1.8037,.377Zm-.2422-6.5176c-.4199,0-.7607,.1426-1.0225,.4277-.2617,.2842-.4287,.6924-.502,1.2217h2.9473v-.1689c-.0107-.4717-.1377-.8359-.3818-1.0938s-.5908-.3867-1.041-.3867Z"/><path class="cls-11" d="M493.498,290.873l.0664,.917c.5664-.709,1.3271-1.0635,2.2803-1.0635,.8398,0,1.4658,.2471,1.876,.7402,.4111,.4941,.6211,1.2324,.6309,2.2139v5.125h-2.1191v-5.0732c0-.4492-.0977-.7754-.293-.9785s-.5205-.3047-.9746-.3047c-.5967,0-1.0439,.2549-1.3418,.7627v5.5938h-2.1191v-7.9326h1.9941Z"/><path class="cls-11" d="M500.8281,294.7812c0-1.2373,.2773-2.2217,.833-2.9551,.5547-.7334,1.3125-1.0996,2.2764-1.0996,.7715,0,1.4092,.2881,1.9131,.8652v-4.0469h2.126v11.2607h-1.9131l-.1035-.8428c-.5273,.6592-1.207,.9893-2.0371,.9893-.9336,0-1.6826-.3672-2.2471-1.1035-.5654-.7354-.8477-1.7578-.8477-3.0674Zm2.1191,.1572c0,.7441,.1299,1.3145,.3887,1.7109s.6348,.5947,1.1289,.5947c.6553,0,1.1172-.2764,1.3857-.8301v-3.1348c-.2637-.5527-.7207-.8301-1.3711-.8301-1.0215,0-1.5322,.8301-1.5322,2.4893Z"/></g></g></g></svg>