<?xml version="1.0" encoding="UTF-8"?><svg id="slide_7" xmlns="http://www.w3.org/2000/svg" viewBox="0 0 800 426"><defs><style>.cls-1{fill:#a7d4c5;}.cls-1,.cls-2,.cls-3,.cls-4,.cls-5,.cls-6,.cls-7{stroke:#404041;}.cls-1,.cls-2,.cls-3,.cls-4,.cls-5,.cls-7{stroke-miterlimit:10;}.cls-2,.cls-3,.cls-6{fill:none;}.cls-8{fill:#404041;}.cls-3,.cls-6{stroke-linecap:round;stroke-width:2px;}.cls-4{fill:#e2e4e6;}.cls-5{fill:#fff;}.cls-6{stroke-dasharray:0 0 14 21;stroke-linejoin:round;}.cls-7{fill:#f6a6b0;}</style></defs><g><line class="cls-6" x1="400.2374" y1="82.4995" x2="400.0002" y2="377"/><g><path class="cls-8" d="M192.7847,78.8994v-12.7969h3.9375c1.125,0,2.1313,.2539,3.019,.7598,.8877,.5078,1.5806,1.2285,2.0786,2.1621,.498,.9355,.7471,1.9971,.7471,3.1865v.5889c0,1.1895-.2446,2.2471-.7339,3.1729s-1.1792,1.6436-2.0698,2.1533-1.8955,.7676-3.0146,.7734h-3.9639Zm2.6367-10.6611v8.543h1.2744c1.0312,0,1.8193-.3369,2.3643-1.0107s.8232-1.6377,.835-2.8916v-.6768c0-1.3008-.2695-2.2861-.8086-2.957s-1.3271-1.0068-2.3643-1.0068h-1.3008Z"/><path class="cls-8" d="M210.1328,79.0752c-1.3945,0-2.5298-.4277-3.4058-1.2832s-1.314-1.9951-1.314-3.4189v-.2461c0-.9551,.1846-1.8086,.5537-2.5615s.8921-1.333,1.5688-1.7402,1.4487-.6113,2.3159-.6113c1.3008,0,2.3247,.4102,3.0718,1.2305s1.1206,1.9834,1.1206,3.4893v1.0371h-6.0557c.082,.6211,.3296,1.1191,.7427,1.4941s.936,.5625,1.5688,.5625c.9785,0,1.7432-.3545,2.2939-1.0635l1.248,1.3975c-.3809,.5391-.8965,.96-1.5469,1.2607-.6504,.3018-1.3711,.4531-2.1621,.4531Zm-.29-7.8135c-.5039,0-.9126,.1709-1.2261,.5117-.3135,.3418-.5142,.8301-.6021,1.4658h3.5332v-.2031c-.0117-.5654-.1641-1.002-.457-1.3105-.293-.3096-.709-.4639-1.248-.4639Z"/><path class="cls-8" d="M220.3706,75.7969l1.7666-6.4072h2.6543l-3.208,9.5098h-2.4258l-3.208-9.5098h2.6543l1.7666,6.4072Z"/><path class="cls-8" d="M231.6104,79.0752c-1.3945,0-2.5298-.4277-3.4058-1.2832s-1.314-1.9951-1.314-3.4189v-.2461c0-.9551,.1846-1.8086,.5537-2.5615s.8921-1.333,1.5688-1.7402,1.4487-.6113,2.3159-.6113c1.3008,0,2.3247,.4102,3.0718,1.2305s1.1206,1.9834,1.1206,3.4893v1.0371h-6.0557c.082,.6211,.3296,1.1191,.7427,1.4941s.936,.5625,1.5688,.5625c.9785,0,1.7432-.3545,2.2939-1.0635l1.248,1.3975c-.3809,.5391-.8965,.96-1.5469,1.2607-.6504,.3018-1.3711,.4531-2.1621,.4531Zm-.29-7.8135c-.5039,0-.9126,.1709-1.2261,.5117-.3135,.3418-.5142,.8301-.6021,1.4658h3.5332v-.2031c-.0117-.5654-.1641-1.002-.457-1.3105-.293-.3096-.709-.4639-1.248-.4639Z"/><path class="cls-8" d="M241.0835,78.8994h-2.5488v-13.5h2.5488v13.5Z"/><path class="cls-8" d="M244.2202,74.0566c0-.9434,.1816-1.7842,.5449-2.5225s.8862-1.3096,1.5688-1.7139,1.4751-.6064,2.3774-.6064c1.2832,0,2.3306,.3926,3.1421,1.1777s1.2642,1.8516,1.3579,3.1992l.0176,.6504c0,1.459-.4072,2.6299-1.2217,3.5117s-1.9072,1.3223-3.2783,1.3223-2.4653-.4395-3.2827-1.3184-1.2261-2.0742-1.2261-3.5859v-.1143Zm2.54,.1807c0,.9033,.1699,1.5947,.5098,2.0723,.3398,.4785,.8262,.7178,1.459,.7178,.6152,0,1.0957-.2363,1.4414-.709,.3457-.4717,.5186-1.2275,.5186-2.2666,0-.8857-.1729-1.5723-.5186-2.0596s-.832-.7305-1.459-.7305c-.6211,0-1.1016,.2422-1.4414,.7266-.3398,.4834-.5098,1.2334-.5098,2.249Z"/><path class="cls-8" d="M264.7935,74.2324c0,1.4648-.332,2.6387-.9961,3.5205-.666,.8818-1.5645,1.3223-2.6948,1.3223-.9609,0-1.7373-.334-2.3291-1.002v4.4824h-2.54v-13.166h2.3555l.0879,.9316c.6152-.7383,1.418-1.1074,2.4082-1.1074,1.1714,0,2.0835,.4336,2.7339,1.3008s.9746,2.0625,.9746,3.5859v.1318Zm-2.5391-.1846c0-.8848-.1572-1.5674-.4707-2.0479s-.769-.7207-1.3667-.7207c-.7969,0-1.3447,.3047-1.6436,.9141v3.8936c.3105,.627,.8643,.9404,1.6611,.9404,1.2129,0,1.8198-.9932,1.8198-2.9795Z"/><path class="cls-8" d="M272.1841,79.0752c-1.3945,0-2.5303-.4277-3.4053-1.2832-.877-.8555-1.3145-1.9951-1.3145-3.4189v-.2461c0-.9551,.1846-1.8086,.5537-2.5615s.8916-1.333,1.5693-1.7402c.6758-.4072,1.4482-.6113,2.3154-.6113,1.3008,0,2.3252,.4102,3.0713,1.2305,.748,.8203,1.1211,1.9834,1.1211,3.4893v1.0371h-6.0557c.082,.6211,.3291,1.1191,.7432,1.4941,.4121,.375,.9355,.5625,1.5684,.5625,.9785,0,1.7432-.3545,2.2939-1.0635l1.248,1.3975c-.3809,.5391-.8965,.96-1.5469,1.2607-.6504,.3018-1.3711,.4531-2.1621,.4531Zm-.29-7.8135c-.5039,0-.9131,.1709-1.2266,.5117-.3135,.3418-.5137,.8301-.6016,1.4658h3.5332v-.2031c-.0117-.5654-.1641-1.002-.457-1.3105-.293-.3096-.709-.4639-1.248-.4639Z"/><path class="cls-8" d="M284.3198,71.7715c-.3457-.0469-.6504-.0703-.9141-.0703-.9609,0-1.5908,.3252-1.8896,.9756v6.2227h-2.54v-9.5098h2.3994l.0703,1.1338c.5098-.873,1.2158-1.3096,2.1182-1.3096,.2812,0,.5449,.0381,.791,.1143l-.0352,2.4434Z"/><path class="cls-8" d="M287.8521,70.0312l-1.1953-.6943c.5039-.791,.7646-1.6084,.7822-2.4521v-1.4854h2.0215v1.3623c0,.5273-.1465,1.0986-.4395,1.7139s-.6826,1.1338-1.1689,1.5557Z"/><path class="cls-8" d="M295.8052,76.2715c0-.3105-.1533-.5547-.4619-.7334-.3066-.1787-.8008-.3389-1.4805-.4795-2.2617-.4746-3.3926-1.4355-3.3926-2.8828,0-.8438,.3496-1.5479,1.0508-2.1143,.6992-.5645,1.6152-.8477,2.7461-.8477,1.207,0,2.1719,.2842,2.8965,.8525,.7227,.5684,1.085,1.3066,1.085,2.2148h-2.54c0-.3633-.1172-.6631-.3516-.9014-.2344-.2363-.6006-.3555-1.0986-.3555-.4277,0-.7588,.0967-.9932,.29s-.3516,.4395-.3516,.7383c0,.2812,.1328,.5088,.4004,.6807,.2656,.1738,.7158,.3232,1.3486,.4492s1.166,.2676,1.5996,.4258c1.3418,.4922,2.0127,1.3447,2.0127,2.5576,0,.8672-.3721,1.5693-1.1162,2.1045-.7441,.5371-1.7051,.8047-2.8828,.8047-.7969,0-1.5049-.1426-2.1221-.4258-.6191-.2842-1.1035-.6738-1.4551-1.1699-.3516-.4941-.5273-1.0293-.5273-1.6035h2.4082c.0234,.4512,.1904,.7969,.501,1.0371s.7266,.3604,1.248,.3604c.4863,0,.8535-.0928,1.1025-.2764,.249-.1855,.374-.4268,.374-.7256Z"/><path class="cls-8" d="M310.8843,66.1025l3.2871,9.2812,3.2695-9.2812h3.4629v12.7969h-2.6455v-3.498l.2637-6.0381-3.4541,9.5361h-1.8105l-3.4453-9.5273,.2637,6.0293v3.498h-2.6367v-12.7969h3.4453Z"/><path class="cls-8" d="M329.9897,78.8994c-.1172-.2285-.2021-.5127-.2549-.8525-.6152,.6855-1.415,1.0283-2.3994,1.0283-.9316,0-1.7041-.2695-2.3164-.8086s-.918-1.2188-.918-2.0391c0-1.0078,.373-1.7812,1.1211-2.3203,.7461-.5391,1.8262-.8115,3.2383-.8174h1.1689v-.5449c0-.4395-.1133-.791-.3389-1.0547s-.5811-.3955-1.0674-.3955c-.4277,0-.7637,.1025-1.0068,.3076s-.3643,.4863-.3643,.8438h-2.54c0-.5508,.1699-1.0605,.5098-1.5293s.8203-.8359,1.4414-1.1025,1.3184-.4004,2.0918-.4004c1.1719,0,2.1016,.2949,2.791,.8828,.6875,.5898,1.0322,1.417,1.0322,2.4834v4.1221c.0059,.9023,.1318,1.585,.3779,2.0479v.1494h-2.5664Zm-2.1006-1.7666c.375,0,.7207-.083,1.0371-.251,.3164-.166,.5508-.3906,.7031-.6719v-1.6348h-.9492c-1.2715,0-1.9482,.4395-2.0303,1.3184l-.0088,.1494c0,.3164,.1113,.5771,.334,.7822s.5273,.3076,.9141,.3076Z"/><path class="cls-8" d="M339.5249,77.0273c.4688,0,.8496-.1289,1.1426-.3867s.4453-.6006,.457-1.0283h2.3818c-.0059,.6445-.1816,1.2344-.5273,1.7715-.3457,.5352-.8193,.9521-1.4199,1.248-.6006,.2949-1.2637,.4434-1.9902,.4434-1.3594,0-2.4316-.4316-3.2168-1.2969-.7852-.8633-1.1777-2.0576-1.1777-3.5811v-.167c0-1.4648,.3896-2.6338,1.1689-3.5068s1.8486-1.3096,3.208-1.3096c1.1895,0,2.1426,.3379,2.8613,1.0156,.7168,.6758,1.082,1.5771,1.0938,2.7021h-2.3818c-.0117-.4951-.1641-.8965-.457-1.2061s-.6797-.4639-1.1602-.4639c-.5918,0-1.0391,.2158-1.3408,.6465-.3018,.4316-.4521,1.1318-.4521,2.0996v.2646c0,.9795,.1494,1.6836,.4482,2.1123s.7529,.6426,1.3623,.6426Z"/><path class="cls-8" d="M348.8745,70.4268c.6738-.8086,1.5205-1.2129,2.54-1.2129,2.0625,0,3.1084,1.1982,3.1377,3.5947v6.0908h-2.54v-6.0205c0-.5449-.1172-.9473-.3516-1.208s-.624-.3916-1.1689-.3916c-.7441,0-1.2832,.2871-1.6172,.8613v6.7588h-2.54v-13.5h2.54v5.0273Z"/><path class="cls-8" d="M357.8911,66.9287c0-.3809,.1279-.6943,.3818-.9404,.2559-.2461,.6025-.3691,1.042-.3691,.4336,0,.7793,.123,1.0371,.3691s.3867,.5596,.3867,.9404c0,.3867-.1309,.7031-.3916,.9492s-.6045,.3691-1.0322,.3691-.7725-.123-1.0322-.3691c-.2617-.2461-.3916-.5625-.3916-.9492Zm2.6982,11.9707h-2.5488v-9.5098h2.5488v9.5098Z"/><path class="cls-8" d="M366.4595,69.3896l.0791,1.0986c.6797-.8496,1.5908-1.2744,2.7334-1.2744,1.0078,0,1.7578,.2959,2.25,.8877s.7441,1.4766,.7559,2.6543v6.1436h-2.54v-6.082c0-.5391-.1172-.9297-.3516-1.1738-.2344-.2422-.624-.3643-1.1689-.3643-.7148,0-1.251,.3047-1.6084,.9141v6.7061h-2.54v-9.5098h2.3906Z"/><path class="cls-8" d="M380.019,79.0752c-1.3945,0-2.5303-.4277-3.4053-1.2832-.877-.8555-1.3145-1.9951-1.3145-3.4189v-.2461c0-.9551,.1846-1.8086,.5537-2.5615s.8916-1.333,1.5693-1.7402c.6758-.4072,1.4482-.6113,2.3154-.6113,1.3008,0,2.3252,.4102,3.0713,1.2305,.748,.8203,1.1211,1.9834,1.1211,3.4893v1.0371h-6.0557c.082,.6211,.3291,1.1191,.7432,1.4941,.4121,.375,.9355,.5625,1.5684,.5625,.9785,0,1.7432-.3545,2.2939-1.0635l1.248,1.3975c-.3809,.5391-.8965,.96-1.5469,1.2607-.6504,.3018-1.3711,.4531-2.1621,.4531Zm-.29-7.8135c-.5039,0-.9131,.1709-1.2266,.5117-.3135,.3418-.5137,.8301-.6016,1.4658h3.5332v-.2031c-.0117-.5654-.1641-1.002-.457-1.3105-.293-.3096-.709-.4639-1.248-.4639Z"/></g><g><path class="cls-8" d="M420.2754,74.2148h-2.1006v4.6846h-2.6367v-12.7969h4.7549c1.5117,0,2.6777,.3369,3.498,1.0107s1.2305,1.626,1.2305,2.8564c0,.873-.1885,1.6016-.5674,2.1836-.377,.584-.9502,1.0479-1.7178,1.3936l2.7686,5.2295v.123h-2.8301l-2.3994-4.6846Zm-2.1006-2.1357h2.127c.6621,0,1.1748-.168,1.5381-.5059,.3633-.3359,.5449-.8008,.5449-1.3926,0-.6035-.1709-1.0781-.5146-1.4238-.3418-.3457-.8682-.5186-1.5771-.5186h-2.1182v3.8408Z"/><path class="cls-8" d="M432.6758,79.0752c-1.3945,0-2.5303-.4277-3.4053-1.2832-.877-.8555-1.3145-1.9951-1.3145-3.4189v-.2461c0-.9551,.1846-1.8086,.5537-2.5615s.8916-1.333,1.5693-1.7402c.6758-.4072,1.4482-.6113,2.3154-.6113,1.3008,0,2.3252,.4102,3.0713,1.2305,.748,.8203,1.1211,1.9834,1.1211,3.4893v1.0371h-6.0557c.082,.6211,.3291,1.1191,.7432,1.4941,.4121,.375,.9355,.5625,1.5684,.5625,.9785,0,1.7432-.3545,2.2939-1.0635l1.248,1.3975c-.3809,.5391-.8965,.96-1.5469,1.2607-.6504,.3018-1.3711,.4531-2.1621,.4531Zm-.29-7.8135c-.5039,0-.9131,.1709-1.2266,.5117-.3135,.3418-.5137,.8301-.6016,1.4658h3.5332v-.2031c-.0117-.5654-.1641-1.002-.457-1.3105-.293-.3096-.709-.4639-1.248-.4639Z"/><path class="cls-8" d="M441.8496,69.3896l.0791,1.0635c.6738-.8262,1.585-1.2393,2.7334-1.2393,1.2246,0,2.0654,.4834,2.5225,1.4502,.668-.9668,1.6201-1.4502,2.8564-1.4502,1.0312,0,1.7988,.3008,2.3027,.9004,.5039,.6016,.7559,1.5049,.7559,2.7119v6.0732h-2.5488v-6.0645c0-.5391-.1055-.9326-.3164-1.1816s-.583-.374-1.1162-.374c-.7617,0-1.2891,.3633-1.582,1.0898l.0088,6.5303h-2.54v-6.0557c0-.5508-.1084-.9492-.3252-1.1953s-.5859-.3691-1.1074-.3691c-.7207,0-1.2422,.2988-1.5645,.8965v6.7236h-2.54v-9.5098h2.3818Z"/><path class="cls-8" d="M456.0957,74.0566c0-.9434,.1816-1.7842,.5449-2.5225s.8857-1.3096,1.5684-1.7139,1.4756-.6064,2.3779-.6064c1.2832,0,2.3301,.3926,3.1416,1.1777s1.2646,1.8516,1.3584,3.1992l.0176,.6504c0,1.459-.4072,2.6299-1.2217,3.5117s-1.9072,1.3223-3.2783,1.3223-2.4658-.4395-3.2822-1.3184c-.8184-.8789-1.2266-2.0742-1.2266-3.5859v-.1143Zm2.54,.1807c0,.9033,.1699,1.5947,.5098,2.0723,.3398,.4785,.8262,.7178,1.459,.7178,.6152,0,1.0957-.2363,1.4414-.709,.3457-.4717,.5186-1.2275,.5186-2.2666,0-.8857-.1729-1.5723-.5186-2.0596s-.832-.7305-1.459-.7305c-.6211,0-1.1016,.2422-1.4414,.7266-.3398,.4834-.5098,1.2334-.5098,2.249Z"/><path class="cls-8" d="M471.1494,67.0518v2.3379h1.626v1.8633h-1.626v4.7461c0,.3516,.0674,.6035,.2021,.7559s.3926,.2285,.7734,.2285c.2812,0,.5303-.0205,.7471-.0615v1.9248c-.498,.1523-1.0107,.2285-1.5381,.2285-1.7812,0-2.6895-.8994-2.7246-2.6982v-5.124h-1.3887v-1.8633h1.3887v-2.3379h2.54Z"/><path class="cls-8" d="M480.0078,79.0752c-1.3945,0-2.5303-.4277-3.4053-1.2832-.877-.8555-1.3145-1.9951-1.3145-3.4189v-.2461c0-.9551,.1846-1.8086,.5537-2.5615s.8916-1.333,1.5693-1.7402c.6758-.4072,1.4482-.6113,2.3154-.6113,1.3008,0,2.3252,.4102,3.0713,1.2305,.748,.8203,1.1211,1.9834,1.1211,3.4893v1.0371h-6.0557c.082,.6211,.3291,1.1191,.7432,1.4941,.4121,.375,.9355,.5625,1.5684,.5625,.9785,0,1.7432-.3545,2.2939-1.0635l1.248,1.3975c-.3809,.5391-.8965,.96-1.5469,1.2607-.6504,.3018-1.3711,.4531-2.1621,.4531Zm-.29-7.8135c-.5039,0-.9131,.1709-1.2266,.5117-.3135,.3418-.5137,.8301-.6016,1.4658h3.5332v-.2031c-.0117-.5654-.1641-1.002-.457-1.3105-.293-.3096-.709-.4639-1.248-.4639Z"/><path class="cls-8" d="M492.8896,78.8994v-12.7969h3.9375c1.125,0,2.1309,.2539,3.0195,.7598,.8867,.5078,1.5801,1.2285,2.0781,2.1621,.498,.9355,.7471,1.9971,.7471,3.1865v.5889c0,1.1895-.2451,2.2471-.7334,3.1729-.4902,.9258-1.1797,1.6436-2.0703,2.1533s-1.8955,.7676-3.0146,.7734h-3.9639Zm2.6367-10.6611v8.543h1.2744c1.0312,0,1.8193-.3369,2.3643-1.0107s.8232-1.6377,.835-2.8916v-.6768c0-1.3008-.2695-2.2861-.8086-2.957s-1.3271-1.0068-2.3643-1.0068h-1.3008Z"/><path class="cls-8" d="M510.2373,79.0752c-1.3945,0-2.5303-.4277-3.4053-1.2832-.877-.8555-1.3145-1.9951-1.3145-3.4189v-.2461c0-.9551,.1846-1.8086,.5537-2.5615s.8916-1.333,1.5693-1.7402c.6758-.4072,1.4482-.6113,2.3154-.6113,1.3008,0,2.3252,.4102,3.0713,1.2305,.748,.8203,1.1211,1.9834,1.1211,3.4893v1.0371h-6.0557c.082,.6211,.3291,1.1191,.7432,1.4941,.4121,.375,.9355,.5625,1.5684,.5625,.9785,0,1.7432-.3545,2.2939-1.0635l1.248,1.3975c-.3809,.5391-.8965,.96-1.5469,1.2607-.6504,.3018-1.3711,.4531-2.1621,.4531Zm-.29-7.8135c-.5039,0-.9131,.1709-1.2266,.5117-.3135,.3418-.5137,.8301-.6016,1.4658h3.5332v-.2031c-.0117-.5654-.1641-1.002-.457-1.3105-.293-.3096-.709-.4639-1.248-.4639Z"/><path class="cls-8" d="M520.4756,75.7969l1.7666-6.4072h2.6543l-3.208,9.5098h-2.4258l-3.208-9.5098h2.6543l1.7666,6.4072Z"/><path class="cls-8" d="M527.4355,66.9287c0-.3809,.1279-.6943,.3818-.9404,.2559-.2461,.6025-.3691,1.042-.3691,.4336,0,.7793,.123,1.0371,.3691s.3867,.5596,.3867,.9404c0,.3867-.1309,.7031-.3916,.9492s-.6045,.3691-1.0322,.3691-.7725-.123-1.0322-.3691c-.2617-.2461-.3916-.5625-.3916-.9492Zm2.6982,11.9707h-2.5488v-9.5098h2.5488v9.5098Z"/><path class="cls-8" d="M537.6201,77.0273c.4688,0,.8496-.1289,1.1426-.3867s.4453-.6006,.457-1.0283h2.3818c-.0059,.6445-.1816,1.2344-.5273,1.7715-.3457,.5352-.8193,.9521-1.4199,1.248-.6006,.2949-1.2637,.4434-1.9902,.4434-1.3594,0-2.4316-.4316-3.2168-1.2969-.7852-.8633-1.1777-2.0576-1.1777-3.5811v-.167c0-1.4648,.3896-2.6338,1.1689-3.5068s1.8486-1.3096,3.208-1.3096c1.1895,0,2.1426,.3379,2.8613,1.0156,.7168,.6758,1.082,1.5771,1.0938,2.7021h-2.3818c-.0117-.4951-.1641-.8965-.457-1.2061s-.6797-.4639-1.1602-.4639c-.5918,0-1.0391,.2158-1.3408,.6465-.3018,.4316-.4521,1.1318-.4521,2.0996v.2646c0,.9795,.1494,1.6836,.4482,2.1123s.7529,.6426,1.3623,.6426Z"/><path class="cls-8" d="M548.8691,79.0752c-1.3945,0-2.5303-.4277-3.4053-1.2832-.877-.8555-1.3145-1.9951-1.3145-3.4189v-.2461c0-.9551,.1846-1.8086,.5537-2.5615s.8916-1.333,1.5693-1.7402c.6758-.4072,1.4482-.6113,2.3154-.6113,1.3008,0,2.3252,.4102,3.0713,1.2305,.748,.8203,1.1211,1.9834,1.1211,3.4893v1.0371h-6.0557c.082,.6211,.3291,1.1191,.7432,1.4941,.4121,.375,.9355,.5625,1.5684,.5625,.9785,0,1.7432-.3545,2.2939-1.0635l1.248,1.3975c-.3809,.5391-.8965,.96-1.5469,1.2607-.6504,.3018-1.3711,.4531-2.1621,.4531Zm-.29-7.8135c-.5039,0-.9131,.1709-1.2266,.5117-.3135,.3418-.5137,.8301-.6016,1.4658h3.5332v-.2031c-.0117-.5654-.1641-1.002-.457-1.3105-.293-.3096-.709-.4639-1.248-.4639Z"/></g></g><g><rect class="cls-2" x="68.1497" y="124.4995" width="293.7007" height="212.757" rx="10" ry="10"/><g><rect class="cls-4" x="76.3419" y="132.7298" width="276.8935" height="89.8651" rx="10" ry="10"/><g><g><line class="cls-2" x1="179.7125" y1="177.6624" x2="249.8649" y2="177.6624"/><polygon class="cls-8" points="249.1354 180.1555 253.4531 177.6624 249.1354 175.1692 249.1354 180.1555"/></g><g><g><polygon class="cls-5" points="165.0304 157.0307 165.0304 205.1193 129.3753 205.1193 129.3753 163.8282 137.9349 157.0307 165.0304 157.0307"/><polyline class="cls-2" points="129.3753 163.8282 137.6008 165.3508 137.945 156.8485"/><line class="cls-2" x1="142.6059" y1="162.7072" x2="161.3023" y2="162.7072"/><line class="cls-2" x1="142.6059" y1="167.4482" x2="161.3023" y2="167.4482"/><line class="cls-2" x1="133.5339" y1="183.4929" x2="161.3023" y2="183.4929"/><line class="cls-2" x1="133.5339" y1="187.7318" x2="161.3023" y2="187.7318"/><rect class="cls-4" x="129.3753" y="191.8426" width="35.6551" height="13.2767"/><g><path class="cls-8" d="M139.6133,179.7002c0-.0576,.0161-.1387,.0493-.2422l2.6948-7.6562c.0664-.1943,.1553-.3398,.2671-.4375,.1118-.0967,.29-.1455,.5342-.1455h1.1489c.1528,0,.2803,.0166,.3818,.0498,.1011,.0332,.186,.1025,.2544,.208s.1108,.1777,.1274,.2168c.0161,.04,.0493,.1357,.0991,.2891l2.6328,7.501c.0332,.1035,.0498,.1758,.0498,.2168,0,.2275-.1577,.3418-.4722,.3418h-.6704c-.0747,0-.1421-.002-.2017-.0059-.0601-.0049-.1182-.0215-.1738-.0498-.0562-.0293-.1006-.0547-.1338-.0781-.0332-.0225-.0713-.0693-.1147-.1396s-.0776-.1289-.1025-.1768-.061-.1328-.1089-.2549c-.0474-.1221-.0859-.2275-.1147-.3164s-.0757-.2246-.1396-.4062c-.064-.1826-.1211-.3457-.1709-.4912h-3.626c-.0581,.1533-.1191,.3291-.1831,.5283-.0645,.1982-.1128,.3447-.146,.4375s-.0737,.2012-.1211,.3232c-.0479,.1221-.0879,.209-.1211,.2607s-.0737,.1094-.1211,.1738c-.0479,.0635-.0962,.1045-.146,.1211s-.1089,.0332-.1768,.0498c-.0684,.0166-.1484,.0244-.2393,.0244h-.4717c-.3232,0-.4844-.1143-.4844-.3418Zm2.5952-2.6699h2.8628c-.8652-2.4756-1.3413-3.8828-1.4282-4.2227-.083,.3066-.561,1.7139-1.4346,4.2227Z"/><path class="cls-8" d="M148.9521,179.251c0-.0664,.0605-.4219,.1816-1.0674,.0415-.2529,.1104-.3789,.2061-.3789,.0503,0,.1523,.0586,.3066,.1768s.3257,.252,.5132,.4014c.188,.1494,.4736,.2832,.8574,.4014s.8071,.1777,1.2705,.1777c.9722,0,1.458-.4189,1.458-1.2559,0-.5039-.2456-.875-.7368-1.1123-.0923-.042-.1846-.0732-.2769-.0957-.0928-.0225-.2739-.0664-.5439-.1318-.2695-.0645-.5537-.1328-.8516-.2051-.5425-.1367-1.04-.4258-1.4932-.8682-.4536-.4424-.6802-1.0156-.6802-1.7188,0-.3066,.0356-.5918,.1074-.8545s.2061-.541,.4023-.833c.1968-.292,.5151-.5254,.9551-.6992s.9839-.2607,1.6304-.2607c.4268,0,.8486,.0527,1.2651,.1582s.7334,.2119,.9507,.3174,.3345,.1875,.3511,.2451c.0078,.0166,.0142,.0479,.0181,.0938,0,.1367-.0747,.582-.2241,1.3359-.0327,.0947-.0747,.1406-.1274,.1367-.0649,0-.1509-.0508-.2578-.1523s-.2271-.2119-.3589-.3301c-.1323-.1182-.354-.2285-.666-.3301s-.6763-.1523-1.0938-.1523c-.5181,0-.8794,.1084-1.0825,.3232-.2031,.2158-.3047,.4688-.3047,.7578,0,.2197,.0547,.4062,.1646,.5596s.27,.2744,.481,.3633,.415,.1572,.6118,.2051c.1963,.0479,.4292,.1045,.6987,.1689,.269,.0654,.4775,.1162,.6265,.1523,.5405,.1777,1.0088,.5059,1.4053,.9834s.5947,1.0625,.5947,1.7559c0,.3711-.0469,.7139-.1396,1.0273-.0933,.3135-.2495,.6094-.4688,.8877-.2197,.2783-.5415,.4961-.9658,.6523-.4243,.1572-.9326,.2354-1.5244,.2354-.5093,0-1.0225-.0664-1.54-.2002-.5176-.1328-.9199-.2734-1.2075-.4209s-.4502-.2607-.4873-.3389c-.0166-.0654-.0249-.1025-.0249-.1104Z"/></g></g><g><path class="cls-8" d="M104.1611,151.1484c0-.0811,.0742-.5156,.2222-1.3047,.0508-.3086,.1348-.4629,.252-.4629,.0615,0,.1865,.0723,.375,.2168s.3975,.3076,.627,.4902,.5791,.3457,1.0479,.4902c.4692,.1445,.9868,.2168,1.5527,.2168,1.1885,0,1.7822-.5117,1.7822-1.5352,0-.6162-.3003-1.0684-.9009-1.3594-.1123-.0508-.2251-.0898-.3384-.1172s-.3345-.0801-.6646-.1602c-.3296-.0791-.6768-.1631-1.0405-.251-.6631-.167-1.2715-.5205-1.8252-1.0615-.5542-.541-.8311-1.2412-.8311-2.1006,0-.374,.0435-.7227,.1313-1.0439,.0874-.3223,.2515-.6611,.4917-1.0186,.2402-.3564,.6294-.6416,1.167-.8545,.5381-.2119,1.2021-.3184,1.9932-.3184,.5215,0,1.0366,.0645,1.5459,.1934,.5088,.1289,.896,.2588,1.1621,.3877,.2656,.1289,.4087,.2285,.4287,.2998,.0098,.0205,.0176,.0576,.0225,.1143,0,.167-.0913,.7109-.2744,1.6328-.0396,.1162-.0913,.1719-.1553,.167-.0791,0-.1846-.0625-.3154-.1865s-.2769-.2588-.4385-.4033c-.1616-.1436-.4331-.2783-.814-.4023-.3813-.124-.8267-.1865-1.3364-.1865-.6338,0-1.0752,.1318-1.3232,.3945-.2485,.2637-.3726,.5723-.3726,.9268,0,.2686,.0669,.4961,.2012,.6836,.1338,.1875,.3301,.335,.5879,.4443,.2578,.1084,.5068,.1924,.7471,.25,.2407,.0586,.5254,.1279,.854,.207,.3291,.0801,.5845,.1416,.7661,.1855,.6606,.2178,1.2329,.6191,1.7178,1.2021,.4844,.584,.7266,1.2988,.7266,2.1455,0,.4541-.0571,.873-.1709,1.2559-.1138,.3838-.3047,.7451-.5728,1.085-.2686,.3408-.6616,.6064-1.1802,.7979-.5186,.1924-1.1396,.2881-1.8633,.2881-.6221,0-1.2495-.082-1.8818-.2451-.6328-.1621-1.1245-.334-1.4761-.5146-.3521-.1807-.5503-.3184-.5962-.4141-.02-.0801-.0303-.125-.0303-.1348Z"/><path class="cls-8" d="M113.4429,148.6318c0-.7441,.1011-1.3799,.3032-1.9092,.2021-.5283,.48-.9326,.834-1.2139,.3535-.2803,.7261-.4805,1.1177-.5996s.8252-.1787,1.3003-.1787c.2676,0,.5039,.0059,.709,.0156,.2046,.0098,.4536,.0439,.7466,.1025,.2935,.0586,.5488,.1387,.7661,.2432,.2173,.1035,.4463,.2539,.686,.4512,.2402,.1973,.4375,.4297,.5918,.6982,.1538,.2686,.2803,.6123,.3789,1.0322s.1479,.8926,.1479,1.4189c0,2.3936-1.2583,3.5928-3.7754,3.5977-2.5376-.0049-3.8062-1.2246-3.8062-3.6582Zm2.125,.1592c.0103,.2686,.02,.4697,.0303,.6035s.0469,.3291,.1104,.584c.0635,.2559,.147,.4482,.251,.5771s.2651,.248,.4834,.3564c.2178,.1094,.4829,.1631,.7944,.1631,.312,0,.5771-.0537,.7949-.1631,.2183-.1084,.3818-.2334,.4907-.375s.1938-.334,.2549-.5771c.0605-.2432,.0962-.4492,.1064-.6182,.0103-.1699,.0151-.3857,.0151-.6494v-.5391c0-.2168-.0049-.3799-.0151-.4893-.0103-.1084-.0278-.2715-.0532-.4893s-.0747-.3887-.1484-.5127c-.0732-.124-.1699-.2568-.2891-.3984s-.2773-.2422-.4751-.3037c-.1978-.0605-.4312-.0908-.6997-.0908-.3198,0-.5908,.0566-.814,.1709s-.3867,.2402-.4907,.3799c-.104,.1387-.1851,.3467-.2437,.6221-.0581,.2754-.0898,.4883-.0947,.6377-.0054,.1494-.0078,.3779-.0078,.6865v.4248Z"/><path class="cls-8" d="M122.4438,149.9521v-4.2725c0-.4551,.2275-.6836,.6831-.6836h.7134c.2275,0,.3984,.0469,.5122,.1406s.1758,.1748,.1855,.2432c.0103,.0684,.0205,.1729,.0308,.3145v4.1367c0,.04-.0029,.1025-.0078,.1855-.0049,.084-.0073,.1455-.0073,.1865,0,.4551,.0566,.7588,.1704,.9102,.1138,.1523,.3882,.2275,.8237,.2275,.4146,0,.79-.1523,1.127-.459,.3364-.3057,.5044-.833,.5044-1.582v-3.4912c0-.1572,.0063-.2744,.019-.3525,.0127-.0791,.0293-.1328,.0498-.1631,.02-.0312,.0659-.084,.1367-.1602,.1167-.0908,.2944-.1367,.5332-.1367h.6855c.457,0,.6904,.2178,.7007,.6533v5.7979c0,.4453-.2334,.668-.7007,.668h-.731c-.4268,0-.6401-.2275-.6401-.6826-.354,.3438-.707,.5723-1.0586,.6865-.3516,.1133-.7651,.1709-1.2407,.1709-.4556,0-.8477-.0498-1.1763-.1484-.3291-.0986-.5757-.2158-.7402-.3525s-.2935-.3213-.3872-.5537c-.0933-.2334-.1479-.4355-.1631-.6074s-.0225-.3975-.0225-.6758Z"/><path class="cls-8" d="M131.1714,151.4473v-5.8281c0-.2988,.0645-.4902,.1934-.5732s.3022-.125,.52-.125h.5161c.2778,0,.4854,.0645,.6221,.1953,.0708,.0801,.1113,.1621,.1216,.2471,.0098,.085,.02,.3203,.0303,.7061,.248-.3408,.5479-.6123,.8994-.8154s.6284-.3252,.8311-.3682c.2021-.042,.3818-.0635,.5386-.0635h.0151c.1367,0,.2227,.0264,.2583,.0781,.0352,.0527,.0532,.1416,.0532,.2676v.8564c0,.1152-.0254,.207-.0762,.2773-.0605,.0508-.1973,.0898-.4097,.1182s-.4023,.0674-.5693,.1182c-.354,.127-.6602,.3193-.918,.5781-.2583,.2588-.4253,.5576-.501,.8975-.0303,.1377-.0459,.335-.0459,.5938v2.7314c0,.2188-.0151,.3604-.0454,.4268-.0303,.0654-.1089,.1514-.2354,.2588-.1265,.0605-.2705,.0908-.4326,.0908h-.6675c-.2783,0-.4644-.0615-.5581-.1855s-.1401-.2852-.1401-.4824Z"/><path class="cls-8" d="M136.5747,148.5713c0-2.5605,1.2622-3.8408,3.7871-3.8408,.9004,0,1.7402,.2129,2.5195,.6377,.0811,.0508,.124,.1348,.1289,.251-.0503,.8096-.1768,1.2139-.3794,1.2139-.0708,0-.2324-.1035-.4858-.3105-.2529-.208-.498-.3545-.7358-.4404-.2681-.0908-.668-.1367-1.1992-.1367-.2783,.0098-.5186,.0771-.7207,.2012-.2026,.124-.353,.2646-.4517,.4209-.0986,.1572-.1772,.3594-.2354,.6074s-.0898,.4463-.0947,.5957c-.0054,.1494-.0078,.3428-.0078,.5801v.2959c0,.2588,.0049,.4707,.0151,.6377s.0444,.375,.1025,.623c.0581,.2471,.1416,.4473,.2505,.5986,.1089,.1523,.2695,.2852,.4819,.3984,.2124,.1143,.4678,.1709,.7666,.1709,.374,0,.7168-.0488,1.0283-.1475,.311-.0986,.5488-.208,.7134-.3262,.1641-.1191,.3174-.2334,.459-.3418s.2427-.168,.3037-.1787l.0757,.0156c.061,.04,.0977,.0977,.1104,.1709,.0122,.0732,.0439,.3779,.0947,.9141v.1289c0,.1475-.104,.2764-.311,.3877-.7593,.3945-1.5991,.5918-2.52,.5918-2.4639-.0049-3.6958-1.2451-3.6958-3.7188Z"/><path class="cls-8" d="M144.0728,148.4951c0-1.2646,.3384-2.208,1.0151-2.8311,.6768-.6221,1.6045-.9336,2.7832-.9336,.6548,0,1.2139,.0967,1.6772,.2891s.8179,.4561,1.063,.793c.2446,.3369,.4189,.6914,.5229,1.0664,.104,.374,.1558,.7891,.1558,1.2441,0,.4453-.2354,.668-.7061,.668h-4.4316c.04,1.5732,.6963,2.3604,1.9683,2.3604,.478,0,.9146-.0742,1.3101-.2236s.7197-.3154,.9717-.4971c.2524-.1826,.4004-.2783,.4453-.2891h.0669l.0835,.0312c.0552,.0498,.0986,.167,.1294,.3486,.0303,.1826,.0459,.3516,.0459,.5088l.0166,.2275c0,.1367-.0879,.25-.2642,.3418-.8438,.4551-1.7891,.6855-2.835,.6904-1.3164,0-2.3149-.3213-2.9961-.9639s-1.022-1.5859-1.022-2.8311Zm2.0947-.7129h3.21c-.0303-.6025-.1489-1.0713-.3555-1.4082-.207-.3369-.5908-.5049-1.1509-.5049-1.0098,0-1.5776,.6377-1.7036,1.9131Z"/><path class="cls-8" d="M158.1812,146.7227c0-3.832,1.9126-5.748,5.7373-5.748,.8398,0,1.7607,.1494,2.7627,.4473,.1768,.0605,.2959,.124,.3564,.1895,.0303,.0615,.0454,.1113,.0454,.1523,0,.04-.0757,.4854-.2275,1.3359-.0605,.2988-.1392,.4512-.2354,.4561-.0503,0-.1519-.0518-.3032-.1562-.1519-.1035-.3179-.2207-.4976-.3525-.1792-.1318-.4438-.25-.793-.3535s-.7236-.1553-1.123-.1553c-2.3428,0-3.5137,1.3896-3.5137,4.1699,0,.6123,.0542,1.1582,.1631,1.6367s.2896,.917,.5425,1.3145,.6211,.7051,1.1045,.9229c.4829,.2178,1.0713,.3262,1.7642,.3262,.5059,0,.9536-.0518,1.3433-.1562s.6694-.2197,.8389-.3447c.1694-.124,.3276-.2393,.4741-.3438,.147-.1045,.2656-.1562,.3569-.1562,.02,0,.0376,.002,.0532,.0068,.0151,.0059,.0303,.0156,.0454,.0303,.0151,.0156,.0254,.0322,.0303,.0498s.0137,.042,.0264,.0723,.0215,.0576,.0269,.083c.0049,.0254,.0098,.0586,.0151,.0986,.0049,.041,.0098,.0771,.0151,.1104,.0049,.0332,.0103,.0771,.0151,.1328s.0078,.0986,.0078,.1289c.0098,.127,.02,.2393,.0303,.3379,.0098,.0986,.0176,.166,.0225,.2012,.0054,.0352,.0078,.0654,.0078,.0908v.0762c0,.0508-.0054,.0908-.0151,.1211-.0103,.0303-.0332,.0635-.0684,.0986-.0356,.0352-.0596,.0596-.0723,.0723s-.0493,.0342-.1099,.0645l-.1064,.0605c-.5059,.2891-.9688,.4824-1.3887,.5811s-.9639,.1475-1.6318,.1475c-3.7993,0-5.6992-1.916-5.6992-5.749Z"/><path class="cls-8" d="M168.6313,148.6318c0-.7441,.1011-1.3799,.3032-1.9092,.2021-.5283,.48-.9326,.834-1.2139,.3535-.2803,.7261-.4805,1.1177-.5996s.8252-.1787,1.3003-.1787c.2676,0,.5039,.0059,.709,.0156,.2046,.0098,.4536,.0439,.7466,.1025,.2935,.0586,.5488,.1387,.7661,.2432,.2173,.1035,.4463,.2539,.686,.4512,.2402,.1973,.4375,.4297,.5918,.6982,.1538,.2686,.2803,.6123,.3789,1.0322s.1479,.8926,.1479,1.4189c0,2.3936-1.2583,3.5928-3.7754,3.5977-2.5376-.0049-3.8062-1.2246-3.8062-3.6582Zm2.125,.1592c.0103,.2686,.02,.4697,.0303,.6035s.0469,.3291,.1104,.584c.0635,.2559,.147,.4482,.251,.5771s.2651,.248,.4834,.3564c.2178,.1094,.4829,.1631,.7944,.1631,.312,0,.5771-.0537,.7949-.1631,.2183-.1084,.3818-.2334,.4907-.375s.1938-.334,.2549-.5771c.0605-.2432,.0962-.4492,.1064-.6182,.0103-.1699,.0151-.3857,.0151-.6494v-.5391c0-.2168-.0049-.3799-.0151-.4893-.0103-.1084-.0278-.2715-.0532-.4893s-.0747-.3887-.1484-.5127c-.0732-.124-.1699-.2568-.2891-.3984s-.2773-.2422-.4751-.3037c-.1978-.0605-.4312-.0908-.6997-.0908-.3198,0-.5908,.0566-.814,.1709s-.3867,.2402-.4907,.3799c-.104,.1387-.1851,.3467-.2437,.6221-.0581,.2754-.0898,.4883-.0947,.6377-.0054,.1494-.0078,.3779-.0078,.6865v.4248Z"/><path class="cls-8" d="M177.7539,148.4043c.02-1.2852,.3228-2.2031,.9072-2.7549,.584-.5518,1.3394-.8271,2.2651-.8271,.7134,0,1.3608,.1865,1.9429,.5615v-3.8096c0-.4561,.2271-.6836,.6807-.6836h.6201c.2266,0,.3989,.0391,.5176,.1182,.1187,.0781,.1904,.1621,.2158,.25,.0249,.0889,.0376,.2012,.0376,.3379v9.8047c0,.4766-.2319,.7139-.6958,.7139h-.7109c-.3828,0-.6226-.167-.7183-.501-.6221,.4453-1.2798,.6709-1.9731,.6758-1.5635,0-2.5376-.7314-2.9219-2.1934-.1113-.4355-.167-.999-.167-1.6924Zm2.125,.2734c0,.2881,.0049,.5186,.0151,.6904s.0444,.3857,.1025,.6406c.0581,.2559,.1392,.4561,.2427,.5996,.104,.1445,.2593,.2715,.4668,.3799s.4556,.1631,.7437,.1631c.3442,0,.6577-.0957,.9414-.2881,.2832-.1924,.4248-.4023,.4248-.6299v-3.8105c-.0103,0-.0352-.0176-.0757-.0527s-.0811-.0684-.1216-.0986-.0977-.0674-.1709-.1104-.1489-.0771-.2275-.1025c-.0786-.0244-.1719-.0479-.2808-.0674-.1089-.0205-.2188-.0312-.3301-.0312-.3188,0-.5957,.0576-.8311,.1709-.2354,.1143-.4097,.2432-.5239,.3877-.1138,.1436-.1997,.3438-.2578,.5996-.0581,.2549-.0923,.46-.1025,.6143s-.0151,.3604-.0151,.6182v.3271Z"/><path class="cls-8" d="M186.3677,148.4951c0-1.2646,.3384-2.208,1.0151-2.8311,.6768-.6221,1.6045-.9336,2.7832-.9336,.6548,0,1.2139,.0967,1.6772,.2891s.8179,.4561,1.063,.793c.2446,.3369,.4189,.6914,.5229,1.0664,.104,.374,.1558,.7891,.1558,1.2441,0,.4453-.2354,.668-.7061,.668h-4.4316c.04,1.5732,.6963,2.3604,1.9683,2.3604,.478,0,.9146-.0742,1.3101-.2236s.7197-.3154,.9717-.4971c.2524-.1826,.4004-.2783,.4453-.2891h.0669l.0835,.0312c.0552,.0498,.0986,.167,.1294,.3486,.0303,.1826,.0459,.3516,.0459,.5088l.0166,.2275c0,.1367-.0879,.25-.2642,.3418-.8438,.4551-1.7891,.6855-2.835,.6904-1.3164,0-2.3149-.3213-2.9961-.9639s-1.022-1.5859-1.022-2.8311Zm2.0947-.7129h3.21c-.0303-.6025-.1489-1.0713-.3555-1.4082-.207-.3369-.5908-.5049-1.1509-.5049-1.0098,0-1.5776,.6377-1.7036,1.9131Z"/></g></g><g><g><polygon class="cls-5" points="306.3276 157.0307 306.3276 205.1193 270.6725 205.1193 270.6725 163.8282 279.2321 157.0307 306.3276 157.0307"/><polyline class="cls-2" points="270.6725 163.8282 278.898 165.3508 279.2422 156.8485"/><line class="cls-2" x1="283.9031" y1="162.7072" x2="302.5995" y2="162.7072"/><line class="cls-2" x1="283.9031" y1="167.4482" x2="302.5995" y2="167.4482"/><line class="cls-2" x1="274.8311" y1="183.4929" x2="302.5995" y2="183.4929"/><line class="cls-2" x1="274.8311" y1="187.7318" x2="302.5995" y2="187.7318"/><line class="cls-2" x1="274.8311" y1="191.9707" x2="302.5995" y2="191.9707"/><g><path class="cls-8" d="M274.9614,173.4639c0-.1895,.123-.2842,.3691-.2842h.3218c.3027,0,.4854,.1309,.5483,.3926l1.0176,3.9141c.1255,.4453,.2402,.8877,.3452,1.3271,.0264-.1582,.1396-.623,.3398-1.3955,.2002-.7715,.417-1.584,.6499-2.4375,.2329-.8525,.353-1.2949,.3594-1.3271,.0195-.0645,.0366-.1172,.0513-.1572s.0435-.0898,.0854-.1504c.0425-.0596,.1001-.1016,.1738-.1279,.0732-.0254,.167-.0381,.2808-.0381h.6943c.1201,0,.2207,.0127,.3003,.0381,.0801,.0254,.1411,.0732,.1831,.1416,.0425,.0693,.0718,.124,.0884,.1641,.0161,.04,.0391,.1113,.0684,.2139l.9258,3.5088c.1904,.6865,.3271,1.2051,.4106,1.5566l1.375-5.1758c.0449-.1592,.1099-.2734,.1948-.3428,.0854-.0703,.2114-.1045,.3784-.1045h.2461c.2505,0,.376,.0986,.376,.2959,0,.0254-.0112,.0859-.0337,.1797l-1.5493,5.7764c-.0649,.2559-.1377,.4199-.2183,.4902-.0938,.0801-.2266,.1201-.3979,.1201h-.7666c-.1455,0-.2642-.0332-.3564-.0986-.0923-.0664-.1504-.1279-.1748-.1836-.0244-.0566-.0493-.1416-.0752-.2539l-.8984-3.3809c-.0186-.0684-.084-.3154-.1973-.7402-.1128-.4248-.1987-.748-.2573-.9688l-1.3584,5.0898c0,.0068-.0049,.0303-.0142,.0703-.0098,.04-.0181,.0684-.0244,.084-.0063,.0166-.0161,.043-.0288,.0801-.0132,.0371-.0259,.0635-.0386,.0801-.0132,.0156-.0317,.0381-.0557,.0674-.0244,.0283-.0493,.0508-.0752,.0654-.0254,.0137-.0557,.0293-.0894,.0449-.0337,.0166-.0732,.0283-.1182,.0342-.0454,.0068-.0952,.0098-.1499,.0098h-.7104c-.0869,0-.1621-.0117-.2246-.0342-.063-.0225-.1123-.0449-.1475-.0693-.0356-.0244-.0688-.0635-.0991-.1182-.0308-.0547-.0508-.0957-.0605-.123s-.0244-.0791-.0435-.1543c-.0195-.0762-.0322-.1201-.0386-.1328l-1.5527-5.7676c-.0195-.0605-.0288-.1201-.0288-.1787Z"/><path class="cls-8" d="M284.9873,178.6846c0-.2568,.0771-.4805,.231-.6709,.1543-.1904,.3389-.3379,.5542-.4443,.2158-.1064,.4707-.1904,.7656-.2539,.2949-.0625,.5503-.1035,.7656-.123,.2158-.0195,.4336-.0283,.6538-.0283v-.2031c0-.2754-.0464-.4941-.1396-.6533-.0933-.1602-.2808-.2402-.5635-.2402-.2583,0-.4932,.0332-.7046,.0996-.2119,.0664-.3687,.1396-.4702,.2217s-.1978,.1572-.2881,.2266c-.0898,.0693-.1562,.1045-.1992,.1045l-.0391-.0068-.0396-.0195c-.0195-.0322-.0376-.1123-.0542-.2412-.0161-.1289-.0278-.2461-.0342-.3525l-.0146-.168c0-.0322,.0024-.0566,.0073-.0723,.0049-.0166,.0171-.0352,.0366-.0557,.02-.0215,.0347-.0352,.0444-.041,.0098-.0068,.0386-.0195,.0859-.0391,.0479-.0186,.0845-.0352,.1108-.0488,.4761-.2217,.9956-.332,1.5586-.332,.7529,0,1.2837,.1416,1.5923,.4248,.3091,.2832,.4634,.6924,.4634,1.2266v2.6035c0,.2959-.1494,.4443-.4478,.4443h-.4766c-.146,0-.2505-.0391-.314-.1182s-.0947-.1719-.0947-.2783c-.4375,.335-.9497,.5039-1.5361,.5078-.4438,0-.7974-.1523-1.0596-.457-.2627-.3037-.394-.6406-.394-1.0117Zm1.3232,0c0,.1904,.063,.3613,.188,.5146s.2891,.2295,.4912,.2295c.2246,0,.4424-.0713,.6523-.2129,.2104-.1416,.3154-.373,.3154-.6953v-.7725c-.2021,.0195-.3765,.04-.5225,.0625s-.3179,.0654-.5151,.1279c-.1973,.0635-.3481,.1592-.4526,.2881-.1045,.1279-.1567,.2812-.1567,.458Z"/><path class="cls-8" d="M290.1885,179.5498c0-.0264,.04-.2578,.1206-.6963,.0195-.1504,.0659-.2266,.1401-.2266,.0322,0,.1094,.0625,.2319,.1855,.1221,.124,.3018,.25,.5386,.377,.2363,.127,.5093,.1904,.8184,.1904,.5151,0,.7729-.1758,.7729-.5273,0-.1846-.0791-.3193-.2368-.4043-.1577-.0859-.3887-.1533-.6929-.2041-.3042-.0498-.5078-.0938-.6108-.1328-.2578-.0996-.4937-.2588-.7075-.4775-.2144-.2178-.3213-.5059-.3213-.8643,0-.9248,.5537-1.4004,1.6611-1.4268h.2563c.4214,.0068,.8237,.0889,1.207,.2461,.1001,.0391,.1646,.0723,.1934,.0996s.0435,.0742,.0435,.1426c0,.0381-.0322,.2461-.0967,.624-.0259,.0996-.0659,.1484-.1206,.1455-.0454,0-.1226-.0449-.2319-.1338s-.2666-.1777-.4707-.2666c-.2046-.0889-.4487-.1328-.7319-.1328-.4893,0-.7339,.1582-.7339,.4746,0,.1709,.0923,.2959,.2778,.375,.1851,.0791,.4346,.1475,.7485,.2041s.543,.125,.688,.2061c.1255,.0576,.2441,.1338,.355,.2275,.1113,.0938,.2246,.2412,.3403,.4424,.1162,.2021,.1738,.4238,.1738,.666,0,.5518-.1582,.9375-.4756,1.1582-.3169,.2217-.7524,.332-1.3062,.332-.686,0-1.2749-.1592-1.7676-.4785l-.0386-.0479c-.0161-.0391-.0244-.0645-.0244-.0771Z"/><path class="cls-8" d="M294.6416,179.5977v-3.6992c0-.29,.1479-.4346,.4443-.4346h.396c.0645,0,.1147,.0029,.1519,.0098,.0371,.0059,.084,.0205,.1401,.043s.0977,.0654,.123,.1279c.0259,.0635,.0391,.1445,.0391,.2441v.1982c.1255-.1191,.2241-.21,.2969-.2734,.0723-.0625,.2373-.1475,.4951-.2529,.2573-.1064,.5312-.1602,.8208-.1602,.3882,0,.689,.0586,.9028,.1748,.2134,.1152,.3696,.3018,.4692,.5596,.4097-.4893,.9585-.7344,1.646-.7344,.2847,0,.5234,.0352,.7173,.1045s.3394,.1484,.436,.2393c.0972,.0898,.1704,.2188,.2207,.3857,.0503,.168,.0781,.3057,.085,.416,.0063,.1094,.0098,.2617,.0098,.458v2.5938c0,.1445-.0317,.2549-.0947,.3311-.063,.0752-.1851,.1133-.3657,.1133h-.4365c-.0518,0-.0991-.0029-.1431-.0098-.0435-.0059-.0796-.0156-.1089-.0293-.0293-.0127-.0532-.0273-.0728-.0459-.0195-.0176-.0381-.0371-.0557-.0596-.0181-.0225-.0317-.042-.041-.0586-.0098-.0156-.0166-.041-.0195-.0742-.0034-.0342-.0063-.0557-.0098-.0654s-.0049-.0303-.0049-.0625v-2.748c0-.126-.0029-.2217-.0098-.2881-.0063-.0654-.0273-.1416-.063-.2266-.0352-.085-.0952-.1484-.1792-.1885s-.1953-.0605-.334-.0605c-.2715,0-.4956,.084-.6733,.251-.1777,.168-.3003,.3574-.3682,.5703-.0322,.1123-.0483,.2832-.0483,.5117v2.1035c0,.0244-.0078,.0674-.0239,.1299-.0161,.0635-.0381,.1172-.0649,.1621-.0273,.0449-.0698,.0879-.1274,.1279-.0581,.04-.1304,.0605-.2168,.0605h-.4521c-.1831,0-.3066-.0381-.3706-.1133-.0645-.0762-.0962-.1865-.0962-.3311v-2.7529c0-.2578-.0396-.4414-.1187-.5527-.0786-.1113-.229-.167-.4512-.167-.29,0-.5444,.1104-.7632,.3311-.2192,.2207-.3286,.5293-.3286,.9248v2.2168c0,.2959-.1479,.4443-.4443,.4443h-.4443c-.3091,0-.4634-.1484-.4634-.4443Z"/></g><line class="cls-2" x1="274.8311" y1="196.2097" x2="302.5995" y2="196.2097"/><line class="cls-2" x1="274.8311" y1="200.4486" x2="302.5995" y2="200.4486"/></g><g><path class="cls-8" d="M258.0493,151.4014v-9.3574c0-.1465,.0137-.2637,.042-.3525,.0278-.0889,.0991-.1709,.2134-.2471,.1143-.0752,.2754-.1133,.4839-.1133h3.3237c.5181,0,.939,.0098,1.2617,.0303,.3223,.0205,.7368,.0996,1.2422,.2393,.5059,.1387,.9087,.3477,1.2085,.625,.5386,.4961,.8105,1.1279,.8154,1.8965,0,.1973-.022,.3867-.0654,.5684-.0439,.1816-.1069,.3398-.189,.4736-.0825,.1348-.1685,.2578-.2588,.3721-.0898,.1133-.2031,.2148-.3394,.3027-.1362,.0889-.2544,.165-.355,.2275-.1001,.0635-.2227,.1201-.3662,.1709-.144,.0508-.2495,.0859-.3164,.1064s-.1597,.0449-.2778,.0752l-.1699,.0537c.8447,.1016,1.519,.377,2.0225,.8281,.5039,.4512,.7559,1.0615,.7559,1.832,0,1.1582-.4971,1.9932-1.4902,2.5039-.6333,.3193-1.6318,.4785-2.9951,.4785h-3.8086c-.2788,0-.4712-.0596-.5776-.1787-.1064-.1182-.1597-.2969-.1597-.5352Zm2.125-5.4639h1.4595c.6338,0,1.1226-.0361,1.4673-.1094s.6816-.2441,1.0112-.5117c.2988-.3633,.4487-.7471,.4487-1.1504,0-.6006-.3145-1.0225-.9429-1.2646-.4155-.1562-1.0186-.2344-1.8096-.2344h-1.6343v3.2705Zm0,4.8418h2.0977c1.1709,0,1.9614-.2324,2.3716-.6982,.2383-.2783,.3574-.6191,.3574-1.0244,0-.2275-.0342-.4404-.1025-.6377s-.1851-.3994-.3496-.6064c-.165-.208-.4219-.376-.7715-.5049s-.7729-.2061-1.2695-.2314h-2.3335v3.7031Z"/><path class="cls-8" d="M268.4922,145.3838c0-.2578,.1772-.3877,.5312-.3877h.5312c.3745,0,.6528,.125,.835,.373,.0503,.0498,.2036,.3428,.459,.877s.5283,1.1777,.8188,1.9297c.29,.752,.4702,1.3555,.541,1.8115,.0405-.5371,.4287-1.9004,1.165-4.0898,.165-.3936,.3096-.6357,.4346-.7266,.165-.1162,.3979-.1748,.6992-.1748h.4858c.4038,0,.6055,.1543,.6055,.4609,0,.0781-.0229,.1875-.0684,.3271l-2.4048,7.0127c-.1577,.373-.2773,.6289-.3594,.7666-.6953,1.1699-1.6367,1.7549-2.8242,1.7549-.6528,0-1.0474-.0684-1.1841-.2051-.0508-.0508-.1011-.4053-.1519-1.0654-.0103-.1963,.0151-.3242,.0762-.3848l.0757-.0303h.0605c.0405,.0098,.1216,.0469,.2432,.1113,.1211,.0645,.2593,.1201,.4136,.168,.1543,.0469,.3252,.0703,.5122,.0703,.2173,0,.4072-.0469,.5693-.1406,.1616-.0938,.2905-.2236,.3867-.3906s.1812-.3408,.2544-.5205,.1406-.3672,.2012-.5654c.02-.0703,.0381-.1279,.0532-.1738,.0103-.0908-.0127-.1895-.0684-.2959l-2.7471-6.0713c-.0962-.2129-.1445-.3594-.1445-.4404Z"/><path class="cls-8" d="M276.1572,145.5586c0-.375,.2207-.5625,.6631-.5625h.3613v-1.335c0-.4658,.2539-.6982,.7627-.6982h.5625c.4722,0,.7085,.2324,.7085,.6982v1.335h1.3989c.1846,0,.333,.042,.4448,.126,.1123,.083,.1812,.1602,.2061,.2314,.0249,.0703,.0371,.1426,.0371,.2158s-.0122,.1475-.0371,.2207-.0913,.1484-.1982,.2275c-.1074,.0781-.248,.1172-.4229,.1172h-1.4287v3.1045c0,.0508-.0024,.1172-.0078,.2012-.0049,.083-.0073,.1504-.0073,.2012,0,.5508,.0518,.9277,.1558,1.1299,.1035,.2031,.2695,.3037,.4971,.3037,.2881,0,.5894-.0908,.9028-.2725,.314-.1826,.481-.2734,.501-.2734,.0708,0,.1353,.0723,.1938,.2158,.0581,.1445,.1021,.29,.1328,.4365l.0303,.2051c0,.1973-.3242,.3975-.9717,.5996s-1.2695,.3037-1.8657,.3037c-.77,0-1.2681-.375-1.4941-1.123-.0923-.3086-.1411-.7793-.146-1.4121v-3.6201h-.3169c-.4414,0-.6621-.1924-.6621-.5762Z"/><path class="cls-8" d="M282.5396,148.4951c0-1.2646,.3384-2.208,1.0151-2.8311,.6768-.6221,1.6045-.9336,2.7832-.9336,.6548,0,1.2139,.0967,1.6772,.2891s.8179,.4561,1.063,.793c.2446,.3369,.4189,.6914,.5229,1.0664,.104,.374,.1558,.7891,.1558,1.2441,0,.4453-.2354,.668-.7061,.668h-4.4316c.04,1.5732,.6963,2.3604,1.9683,2.3604,.478,0,.9146-.0742,1.3101-.2236s.7197-.3154,.9717-.4971c.2524-.1826,.4004-.2783,.4453-.2891h.0669l.0835,.0312c.0552,.0498,.0986,.167,.1294,.3486,.0303,.1826,.0459,.3516,.0459,.5088l.0166,.2275c0,.1367-.0879,.25-.2642,.3418-.8438,.4551-1.7891,.6855-2.835,.6904-1.3164,0-2.3149-.3213-2.9961-.9639s-1.022-1.5859-1.022-2.8311Zm2.0947-.7129h3.21c-.0303-.6025-.1489-1.0713-.3555-1.4082-.207-.3369-.5908-.5049-1.1509-.5049-1.0098,0-1.5776,.6377-1.7036,1.9131Z"/><path class="cls-8" d="M290.5767,148.5713c0-2.5605,1.2622-3.8408,3.7871-3.8408,.9004,0,1.7402,.2129,2.5195,.6377,.0811,.0508,.124,.1348,.1289,.251-.0503,.8096-.1768,1.2139-.3794,1.2139-.0708,0-.2324-.1035-.4858-.3105-.2529-.208-.498-.3545-.7358-.4404-.2681-.0908-.668-.1367-1.1992-.1367-.2783,.0098-.5186,.0771-.7207,.2012-.2026,.124-.353,.2646-.4517,.4209-.0986,.1572-.1772,.3594-.2354,.6074s-.0898,.4463-.0947,.5957c-.0054,.1494-.0078,.3428-.0078,.5801v.2959c0,.2588,.0049,.4707,.0151,.6377s.0444,.375,.1025,.623c.0581,.2471,.1416,.4473,.2505,.5986,.1089,.1523,.2695,.2852,.4819,.3984,.2124,.1143,.4678,.1709,.7666,.1709,.374,0,.7168-.0488,1.0283-.1475,.311-.0986,.5488-.208,.7134-.3262,.1641-.1191,.3174-.2334,.459-.3418s.2427-.168,.3037-.1787l.0757,.0156c.061,.04,.0977,.0977,.1104,.1709,.0122,.0732,.0439,.3779,.0947,.9141v.1289c0,.1475-.104,.2764-.311,.3877-.7593,.3945-1.5991,.5918-2.52,.5918-2.4639-.0049-3.6958-1.2451-3.6958-3.7188Z"/><path class="cls-8" d="M298.0747,148.6318c0-.7441,.1011-1.3799,.3032-1.9092,.2021-.5283,.48-.9326,.834-1.2139,.3535-.2803,.7261-.4805,1.1177-.5996s.8252-.1787,1.3003-.1787c.2676,0,.5039,.0059,.709,.0156,.2046,.0098,.4536,.0439,.7466,.1025,.2935,.0586,.5488,.1387,.7661,.2432,.2173,.1035,.4463,.2539,.686,.4512,.2402,.1973,.4375,.4297,.5918,.6982,.1538,.2686,.2803,.6123,.3789,1.0322s.1479,.8926,.1479,1.4189c0,2.3936-1.2583,3.5928-3.7754,3.5977-2.5376-.0049-3.8062-1.2246-3.8062-3.6582Zm2.125,.1592c.0103,.2686,.02,.4697,.0303,.6035s.0469,.3291,.1104,.584c.0635,.2559,.147,.4482,.251,.5771s.2651,.248,.4834,.3564c.2178,.1094,.4829,.1631,.7944,.1631,.312,0,.5771-.0537,.7949-.1631,.2183-.1084,.3818-.2334,.4907-.375s.1938-.334,.2549-.5771c.0605-.2432,.0962-.4492,.1064-.6182,.0103-.1699,.0151-.3857,.0151-.6494v-.5391c0-.2168-.0049-.3799-.0151-.4893-.0103-.1084-.0278-.2715-.0532-.4893s-.0747-.3887-.1484-.5127c-.0732-.124-.1699-.2568-.2891-.3984s-.2773-.2422-.4751-.3037c-.1978-.0605-.4312-.0908-.6997-.0908-.3198,0-.5908,.0566-.814,.1709s-.3867,.2402-.4907,.3799c-.104,.1387-.1851,.3467-.2437,.6221-.0581,.2754-.0898,.4883-.0947,.6377-.0054,.1494-.0078,.3779-.0078,.6865v.4248Z"/><path class="cls-8" d="M307.1968,148.4043c.02-1.2852,.3228-2.2031,.9072-2.7549,.584-.5518,1.3394-.8271,2.2651-.8271,.7134,0,1.3608,.1865,1.9429,.5615v-3.8096c0-.4561,.2271-.6836,.6807-.6836h.6201c.2266,0,.3989,.0391,.5176,.1182,.1187,.0781,.1904,.1621,.2158,.25,.0249,.0889,.0376,.2012,.0376,.3379v9.8047c0,.4766-.2319,.7139-.6958,.7139h-.7109c-.3828,0-.6226-.167-.7183-.501-.6221,.4453-1.2798,.6709-1.9731,.6758-1.5635,0-2.5376-.7314-2.9219-2.1934-.1113-.4355-.167-.999-.167-1.6924Zm2.125,.2734c0,.2881,.0049,.5186,.0151,.6904s.0444,.3857,.1025,.6406c.0581,.2559,.1392,.4561,.2427,.5996,.104,.1445,.2593,.2715,.4668,.3799s.4556,.1631,.7437,.1631c.3442,0,.6577-.0957,.9414-.2881,.2832-.1924,.4248-.4023,.4248-.6299v-3.8105c-.0103,0-.0352-.0176-.0757-.0527s-.0811-.0684-.1216-.0986-.0977-.0674-.1709-.1104-.1489-.0771-.2275-.1025c-.0786-.0244-.1719-.0479-.2808-.0674-.1089-.0205-.2188-.0312-.3301-.0312-.3188,0-.5957,.0576-.8311,.1709-.2354,.1143-.4097,.2432-.5239,.3877-.1138,.1436-.1997,.3438-.2578,.5996-.0581,.2549-.0923,.46-.1025,.6143s-.0151,.3604-.0151,.6182v.3271Z"/><path class="cls-8" d="M315.8105,148.4951c0-1.2646,.3384-2.208,1.0151-2.8311,.6768-.6221,1.6045-.9336,2.7832-.9336,.6548,0,1.2139,.0967,1.6772,.2891s.8179,.4561,1.063,.793c.2446,.3369,.4189,.6914,.5229,1.0664,.104,.374,.1558,.7891,.1558,1.2441,0,.4453-.2354,.668-.7061,.668h-4.4316c.04,1.5732,.6963,2.3604,1.9683,2.3604,.478,0,.9146-.0742,1.3101-.2236s.7197-.3154,.9717-.4971c.2524-.1826,.4004-.2783,.4453-.2891h.0669l.0835,.0312c.0552,.0498,.0986,.167,.1294,.3486,.0303,.1826,.0459,.3516,.0459,.5088l.0166,.2275c0,.1367-.0879,.25-.2642,.3418-.8438,.4551-1.7891,.6855-2.835,.6904-1.3164,0-2.3149-.3213-2.9961-.9639s-1.022-1.5859-1.022-2.8311Zm2.0947-.7129h3.21c-.0303-.6025-.1489-1.0713-.3555-1.4082-.207-.3369-.5908-.5049-1.1509-.5049-1.0098,0-1.5776,.6377-1.7036,1.9131Z"/></g></g></g></g></g><g><rect class="cls-2" x="438.1497" y="124.4995" width="293.7007" height="212.757" rx="10" ry="10"/><g><rect class="cls-1" x="593.0354" y="238.415" width="130.2001" height="89.8651" rx="10" ry="10"/><g><path class="cls-8" d="M642.4814,277.7676c0-.335,.2197-.5029,.6592-.5029h1.0332c.085,0,.1689,.0059,.252,.0186,.082,.0117,.1533,.0244,.2148,.0361,.0605,.0127,.1182,.04,.1738,.082,.0547,.043,.1016,.0732,.1416,.0918,.0391,.0186,.0811,.0596,.123,.123,.043,.0645,.0732,.1055,.0918,.124s.0469,.0713,.0869,.1602c.04,.0879,.0625,.1387,.0684,.1504,.0059,.0127,.0273,.0693,.0645,.1699,.0361,.1006,.0547,.1572,.0547,.1689l3.5029,9.5312c.1221-.4629,1.2783-3.6279,3.4668-9.4951,.0859-.25,.1494-.4219,.1924-.5166s.1143-.2041,.2148-.3291,.2227-.209,.3662-.252c.1436-.042,.3281-.0635,.5537-.0635h.7861c.4268,0,.6406,.168,.6406,.5029,0,.0732-.0244,.1865-.0732,.3389l-4.125,11.0674c-.0732,.2012-.1299,.3467-.1699,.4346-.0391,.0889-.1055,.1953-.1963,.3203-.0918,.125-.209,.2119-.3525,.2607s-.3281,.0732-.5527,.0732h-1.7109c-.1406,0-.2686-.0088-.3838-.0273-.1162-.0186-.2158-.0566-.2979-.1143s-.1475-.0996-.1963-.124-.1006-.0898-.1553-.1963c-.0557-.1064-.0938-.1719-.1152-.1963s-.0557-.1055-.1045-.2432c-.0488-.1367-.0732-.2119-.0732-.2236l-4.1074-11.0312c-.0488-.1523-.0732-.2656-.0732-.3389Z"/><path class="cls-8" d="M657.4092,289.2295v-11.1416c0-.5488,.2842-.8232,.8506-.8232h1.5283c.5117,0,.8809,.1738,1.1064,.5215,.0977,.1641,.7344,1.6924,1.9121,4.583,1.1768,2.8896,1.8438,4.5977,2.0029,5.1221,.1221-.4512,1.3535-3.5371,3.6953-9.2568,.0977-.2256,.1748-.3877,.2334-.4854,.0576-.0977,.1768-.2021,.3564-.3154,.1797-.1123,.4131-.1689,.7002-.1689h1.665c.5605,0,.8438,.2861,.8506,.8594v11.2422c0,.2871-.0566,.5078-.1699,.6631-.1123,.1553-.3457,.2334-.6992,.2334h-.5947c-.2139,0-.3828-.0273-.5078-.082-.125-.0557-.209-.1455-.251-.2705-.043-.125-.0674-.2217-.0732-.292-.0068-.0703-.0098-.1787-.0098-.3252v-9.165c0-.0615-.0029-.1484-.0088-.2607-.0059-.1133-.0098-.2002-.0098-.2607-.1221,.5732-1.3408,3.6553-3.6582,9.248-.1768,.4268-.3584,.6992-.5449,.8184-.1855,.1191-.4404,.1777-.7637,.1777h-.375c-.1641,0-.3027-.0088-.416-.0273-.1133-.0176-.2178-.0625-.3154-.1318-.0977-.0703-.1758-.1299-.2334-.1787s-.127-.1602-.2061-.334-.1445-.3174-.1963-.4297c-.0518-.1133-.1338-.3174-.2471-.6133s-.2119-.541-.2969-.7363l-1.9482-4.8203c-.6221-1.6338-.9795-2.625-1.0703-2.9727v9.7969c0,.5732-.2812,.8594-.8418,.8594h-.6133c-.2129,0-.3828-.0273-.5078-.082-.125-.0557-.21-.1455-.2559-.2705s-.0713-.2256-.0771-.3018c-.0068-.0762-.0098-.2021-.0098-.3789Z"/></g></g><g><rect class="cls-7" x="446.3419" y="132.7298" width="276.8935" height="89.8651" rx="10" ry="10"/><g><g><path class="cls-8" d="M536.2451,180.6133c0-.0859,.0244-.2051,.0732-.3574l3.9697-11.2793c.0977-.2852,.2295-.5,.3936-.6445,.165-.1426,.4268-.2148,.7871-.2148h1.6924c.2246,0,.4131,.0254,.5625,.0742s.2744,.1504,.375,.3066c.1006,.1543,.1631,.2617,.1875,.3184,.0244,.0586,.0732,.2012,.1465,.4258l3.8779,11.0508c.0488,.1523,.0732,.2578,.0732,.3203,0,.334-.2314,.502-.6953,.502h-.9883c-.1094,0-.209-.002-.2969-.0078-.0889-.0078-.1738-.0312-.2559-.0742-.083-.043-.1484-.0801-.1973-.1133-.0488-.0352-.1045-.1035-.1689-.207-.0635-.1035-.1143-.1895-.1504-.2598-.0371-.0703-.0908-.1953-.1602-.375-.0703-.1797-.127-.3359-.1699-.4668-.042-.1309-.1113-.3301-.2051-.5996-.0947-.2676-.1787-.5098-.252-.7227h-5.3418c-.0859,.2266-.1758,.4844-.2695,.7773-.0947,.293-.167,.5078-.2158,.6445-.0488,.1387-.1084,.2969-.1777,.4766-.0703,.1797-.1299,.3086-.1787,.3848s-.1084,.1602-.1787,.2559c-.0693,.0938-.1416,.1543-.2148,.1777-.0732,.0254-.1602,.0488-.2607,.0742-.1006,.0234-.2178,.0352-.3516,.0352h-.6953c-.4756,0-.7139-.168-.7139-.502Zm3.8242-3.9336h4.2168c-1.2754-3.6465-1.9766-5.7207-2.1045-6.2207-.1221,.4512-.8262,2.5254-2.1123,6.2207Z"/><path class="cls-8" d="M550.3135,183.9062v-10.5117c0-.5723,.2812-.8594,.8418-.8594h.7871c.4756,0,.7617,.1953,.8594,.5859,.8477-.5254,1.7656-.7891,2.7529-.7949,1.7139,0,2.79,.8379,3.2295,2.5137,.1338,.5254,.2012,1.1836,.2012,1.9766v.1016c0,.8477-.1162,1.5703-.3477,2.1719-.2314,.5996-.5508,1.0586-.9561,1.3711-.4053,.3145-.8262,.5371-1.2617,.668-.4365,.1309-.917,.1973-1.4414,.1973-.7617,0-1.4629-.2324-2.1035-.6953v3.2383c0,.3477-.0713,.584-.2148,.709s-.3643,.1875-.6631,.1875h-.8604c-.5488,0-.8232-.2871-.8232-.8594Zm2.5615-4.666l.1006,.1094c.0732,.0625,.1279,.1113,.165,.1523,.0361,.0391,.0986,.0938,.1875,.1641,.0879,.0703,.1768,.1211,.2646,.1504,.0889,.0312,.1953,.0605,.3203,.0918s.2549,.0449,.3887,.0449c.7383,0,1.2812-.2734,1.6289-.8223,.3223-.5117,.4873-1.2871,.4932-2.3242v-.2285c0-1.8594-.6367-2.7891-1.9111-2.7891-.1221,0-.2383,.0059-.3477,.0176-.1104,.0137-.2139,.0352-.3115,.0684-.0977,.0352-.1777,.0625-.2422,.0879-.0645,.0234-.1436,.0645-.2373,.1191-.0947,.0547-.1543,.0879-.1787,.0996-.0244,.0137-.0859,.0527-.1826,.1191l-.1377,.1094v4.8301Z"/><path class="cls-8" d="M560.8145,183.9062v-10.5117c0-.5723,.2812-.8594,.8418-.8594h.7871c.4756,0,.7617,.1953,.8594,.5859,.8477-.5254,1.7656-.7891,2.7529-.7949,1.7139,0,2.79,.8379,3.2295,2.5137,.1338,.5254,.2012,1.1836,.2012,1.9766v.1016c0,.8477-.1162,1.5703-.3477,2.1719-.2314,.5996-.5508,1.0586-.9561,1.3711-.4053,.3145-.8262,.5371-1.2617,.668-.4365,.1309-.917,.1973-1.4414,.1973-.7617,0-1.4629-.2324-2.1035-.6953v3.2383c0,.3477-.0713,.584-.2148,.709s-.3643,.1875-.6631,.1875h-.8604c-.5488,0-.8232-.2871-.8232-.8594Zm2.5615-4.666l.1006,.1094c.0732,.0625,.1279,.1113,.165,.1523,.0361,.0391,.0986,.0938,.1875,.1641,.0879,.0703,.1768,.1211,.2646,.1504,.0889,.0312,.1953,.0605,.3203,.0918s.2549,.0449,.3887,.0449c.7383,0,1.2812-.2734,1.6289-.8223,.3223-.5117,.4873-1.2871,.4932-2.3242v-.2285c0-1.8594-.6367-2.7891-1.9111-2.7891-.1221,0-.2383,.0059-.3477,.0176-.1104,.0137-.2139,.0352-.3115,.0684-.0977,.0352-.1777,.0625-.2422,.0879-.0645,.0234-.1436,.0645-.2373,.1191-.0947,.0547-.1543,.0879-.1787,.0996-.0244,.0137-.0859,.0527-.1826,.1191l-.1377,.1094v4.8301Z"/><path class="cls-8" d="M571.3154,180.2734v-11.7988c0-.5859,.2627-.8809,.7871-.8867h.8594c.5732,0,.8604,.2832,.8604,.8496v11.7637c0,.1523-.0059,.2715-.0186,.3574-.0117,.084-.043,.1738-.0918,.2695-.0488,.0938-.1318,.1621-.251,.2051s-.2793,.0703-.4805,.082h-.7686c-.2861,0-.5078-.0566-.6631-.168-.1553-.1133-.2334-.3379-.2334-.6738Z"/><path class="cls-8" d="M576.0176,169.3887v-.9336c0-.2012,.0215-.3633,.0635-.4883,.043-.125,.1211-.2129,.2334-.2656,.1133-.0508,.1973-.0801,.252-.0859s.1523-.0156,.293-.0273h.9512c.2617,0,.4727,.0586,.6309,.1777s.2383,.3496,.2383,.6895v.9707c0,.0977-.0107,.1875-.0322,.2695s-.0479,.1504-.0781,.2051c-.0303,.0566-.0674,.1055-.1094,.1523-.043,.0449-.0869,.0781-.1328,.0957s-.0957,.0371-.1514,.0547c-.0547,.0176-.0967,.0273-.1279,.0273-.0303,0-.0703,.0059-.1182,.0176h-1.0527c-.2617,0-.4707-.0586-.626-.1777s-.2334-.3457-.2334-.6816Zm.0732,10.7949v-6.8066c0-.5605,.2744-.8418,.8232-.8418h.7686c.2744,0,.4824,.0508,.626,.1523,.1436,.0996,.2275,.207,.252,.3184,.0244,.1133,.0361,.2676,.0361,.4629v6.8047c0,.5625-.2744,.8418-.8232,.8418h-.8594c-.2627,0-.459-.0625-.5898-.1875-.1318-.125-.2031-.2363-.2148-.334-.0127-.0977-.0186-.2344-.0186-.4102Z"/><path class="cls-8" d="M580.417,176.8438c0-3.0859,1.5215-4.6289,4.5645-4.6289,1.0859,0,2.0977,.2559,3.0371,.7695,.0977,.0605,.1494,.1602,.1553,.3008-.0605,.9766-.2129,1.4648-.457,1.4648-.085,0-.2803-.125-.585-.375-.3057-.25-.6016-.4277-.8877-.5312-.3232-.1094-.8047-.1641-1.4453-.1641-.335,.0117-.625,.0918-.8691,.2422-.2441,.1484-.4248,.3184-.5439,.5078s-.2139,.4316-.2832,.7305c-.0703,.2988-.1084,.5391-.1152,.7188-.0059,.1797-.0088,.4141-.0088,.6992v.3574c0,.3105,.0059,.5664,.0186,.7676,.0117,.2012,.0527,.4512,.123,.75s.1709,.541,.3018,.7227c.1318,.1836,.3252,.3438,.5811,.4805,.2559,.1387,.5645,.207,.9238,.207,.4512,0,.8643-.0605,1.2393-.1797s.6621-.25,.8604-.3926,.3828-.2812,.5537-.4121c.1699-.1309,.292-.2031,.3652-.2148l.0918,.0176c.0732,.0508,.1172,.1191,.1328,.207,.0146,.0879,.0527,.4551,.1143,1.1016v.1562c0,.1758-.125,.332-.375,.4668-.915,.4746-1.9277,.7129-3.0371,.7129-2.9697-.0059-4.4551-1.5-4.4551-4.4824Z"/><path class="cls-8" d="M589.4551,178.5449c0-.4883,.1455-.9121,.4365-1.2715,.292-.3594,.6416-.6406,1.0498-.8418s.8916-.3613,1.4502-.4805c.5586-.1172,1.042-.1953,1.4502-.2324s.8213-.0547,1.2383-.0547v-.3828c0-.5234-.0879-.9355-.2646-1.2383-.1758-.3047-.5312-.4551-1.0664-.4551-.4902,0-.9346,.0625-1.3359,.1875-.4004,.127-.6973,.2656-.8896,.4219-.1924,.1543-.375,.2969-.5459,.4277-.1699,.1328-.2959,.1973-.377,.1973l-.0742-.0117-.0752-.0371c-.0371-.0605-.0713-.2129-.1016-.457-.0312-.2441-.0537-.4668-.0654-.666l-.0283-.3203c0-.0605,.0049-.1074,.0137-.1367,.0098-.0312,.0332-.0664,.0703-.1055s.0654-.0645,.084-.0781c.0186-.0117,.0732-.0352,.1631-.0723s.1602-.0684,.209-.0938c.9014-.418,1.8857-.6289,2.9531-.6289,1.4258,0,2.4307,.2695,3.0156,.8047,.585,.5371,.877,1.3125,.877,2.3242v4.9297c0,.5625-.2822,.8418-.8477,.8418h-.9033c-.2764,0-.4746-.0742-.5938-.2227-.1201-.1504-.1797-.3262-.1797-.5273-.8291,.6348-1.7988,.9551-2.9102,.9609-.8408,0-1.5098-.2891-2.0068-.8652s-.7451-1.2148-.7451-1.916Zm2.5059,0c0,.3594,.1182,.6855,.3555,.9746s.5479,.4336,.9307,.4336c.4258,0,.8379-.1328,1.2354-.4023,.3984-.2676,.5977-.707,.5977-1.3164v-1.4629c-.3828,.0352-.7129,.0762-.9893,.1191-.2773,.041-.6025,.123-.9766,.2422-.373,.1191-.6592,.2988-.8564,.543-.1982,.2441-.2969,.5352-.2969,.8691Z"/><path class="cls-8" d="M599.1592,173.2129c0-.4512,.2666-.6777,.7998-.6777h.4355v-1.6094c0-.5605,.3066-.8418,.9189-.8418h.6787c.5693,0,.8535,.2812,.8535,.8418v1.6094h1.6865c.2217,0,.4014,.0508,.5361,.1523,.1348,.0996,.2178,.1934,.248,.2773,.0303,.0859,.0449,.1738,.0449,.2617s-.0146,.1758-.0449,.2656c-.0303,.0879-.1094,.1797-.2393,.2734-.1289,.0957-.2988,.1426-.5088,.1426h-1.7227v3.7402c0,.0625-.0029,.1426-.0088,.2422-.0068,.1016-.0098,.1816-.0098,.2422,0,.666,.0625,1.1191,.1875,1.3633s.3252,.3672,.5996,.3672c.3477,0,.71-.1113,1.0889-.3301,.3779-.2188,.5791-.3301,.6035-.3301,.085,0,.1631,.0879,.2334,.2617,.0693,.1738,.123,.3496,.1602,.5254l.0361,.248c0,.2363-.3906,.4785-1.1709,.7227-.7803,.2422-1.5303,.3652-2.249,.3652-.9277,0-1.5283-.4512-1.8008-1.3535-.1113-.373-.1699-.9395-.1758-1.7012v-4.3633h-.3818c-.5322,0-.7988-.2324-.7988-.6953Z"/><path class="cls-8" d="M607.3467,169.3887v-.9336c0-.2012,.0215-.3633,.0635-.4883,.043-.125,.1211-.2129,.2334-.2656,.1133-.0508,.1973-.0801,.252-.0859s.1523-.0156,.293-.0273h.9512c.2617,0,.4727,.0586,.6309,.1777s.2383,.3496,.2383,.6895v.9707c0,.0977-.0107,.1875-.0322,.2695s-.0479,.1504-.0781,.2051c-.0303,.0566-.0674,.1055-.1094,.1523-.043,.0449-.0869,.0781-.1328,.0957s-.0957,.0371-.1514,.0547c-.0547,.0176-.0967,.0273-.1279,.0273-.0303,0-.0703,.0059-.1182,.0176h-1.0527c-.2617,0-.4707-.0586-.626-.1777s-.2334-.3457-.2334-.6816Zm.0732,10.7949v-6.8066c0-.5605,.2744-.8418,.8232-.8418h.7686c.2744,0,.4824,.0508,.626,.1523,.1436,.0996,.2275,.207,.252,.3184,.0244,.1133,.0361,.2676,.0361,.4629v6.8047c0,.5625-.2744,.8418-.8232,.8418h-.8594c-.2627,0-.459-.0625-.5898-.1875-.1318-.125-.2031-.2363-.2148-.334-.0127-.0977-.0186-.2344-.0186-.4102Z"/><path class="cls-8" d="M611.6279,176.918c0-.8965,.1211-1.6641,.3652-2.3008,.2432-.6387,.5781-1.125,1.0049-1.4648,.4258-.3379,.875-.5781,1.3477-.7227,.4717-.1426,.9941-.2148,1.5664-.2148,.3232,0,.6084,.0059,.8545,.0195,.2471,.0117,.5469,.0527,.9004,.123s.6611,.168,.9229,.293c.2627,.125,.5381,.3066,.8271,.543,.29,.2383,.5273,.5195,.7129,.8418,.1865,.3242,.3389,.7383,.457,1.2441,.1191,.5059,.1787,1.0762,.1787,1.7109,0,2.8848-1.5166,4.3301-4.5508,4.3359-3.0586-.0059-4.5869-1.4766-4.5869-4.4082Zm2.5605,.1914c.0127,.3223,.0244,.5664,.0371,.7266,.0117,.1621,.0566,.3965,.1328,.7051s.1777,.5391,.3027,.6953c.125,.1543,.3193,.2988,.582,.4297s.582,.1973,.958,.1973,.6953-.0664,.958-.1973,.46-.2812,.5918-.4531c.1309-.1699,.2334-.4023,.3066-.6953s.1162-.541,.1279-.7461c.0127-.2031,.0186-.4648,.0186-.7812v-.6484c0-.2637-.0059-.459-.0186-.5918-.0117-.1309-.0332-.3262-.0635-.5898-.0312-.2617-.0898-.4668-.1787-.6172-.0889-.1484-.2051-.3086-.3486-.4805-.1436-.1699-.335-.291-.5732-.3652-.2383-.0723-.5195-.1094-.8428-.1094-.3857,0-.7129,.0684-.9814,.2051s-.4658,.291-.5908,.457c-.126,.168-.2236,.418-.2939,.75-.0703,.334-.1084,.5898-.1143,.7695-.0068,.1797-.0098,.4551-.0098,.8281v.5117Z"/><path class="cls-8" d="M622.4766,180.2734v-6.9883c0-.2363,.0498-.4238,.1504-.5625,.1006-.1367,.2031-.2168,.3066-.2422,.1035-.0234,.2314-.0371,.3838-.0371h.75c.1221,0,.2188,.0078,.2881,.0195,.0703,.0117,.1592,.0391,.2656,.082s.1846,.123,.2334,.2422,.0732,.2734,.0732,.4629v.375c.8613-.8613,1.875-1.293,3.041-1.2988,.4521,0,.8438,.041,1.1729,.123,.3301,.082,.5928,.207,.7881,.375s.3525,.3301,.4717,.4883c.1191,.1602,.2002,.3789,.2432,.6602,.043,.2793,.0703,.5039,.082,.6719,.0127,.168,.0186,.4004,.0186,.6992v4.9492c0,.5488-.2695,.8223-.8076,.8223h-.8809c-.3369,0-.5664-.0703-.6895-.2148-.1221-.1426-.1836-.3457-.1836-.6074v-5.1328c0-.1875-.0029-.334-.0088-.4336-.0059-.1016-.0273-.2266-.0635-.375-.0371-.1504-.0918-.2656-.165-.3477s-.1826-.1543-.3291-.2148-.3232-.0918-.5312-.0918c-.5244,0-.9492,.1582-1.2754,.4766-.3262,.3164-.5449,.6641-.6543,1.041-.0732,.2754-.1133,.6113-.1191,1.0078v3.8965c0,.0234-.0029,.0586-.0088,.1055-.0059,.0449-.0244,.127-.0547,.2461-.0312,.1191-.0703,.2207-.1191,.3066s-.1328,.1641-.252,.2324c-.1182,.0703-.2607,.1055-.4248,.1055h-.8232c-.5859,0-.8779-.2793-.8779-.8418Z"/></g><g><line class="cls-3" x1="649.6389" y1="172.4762" x2="649.6389" y2="180.8822"/><line class="cls-3" x1="644.6389" y1="172.4762" x2="644.6389" y2="180.8822"/></g></g></g></g><g><line class="cls-2" x1="339.7125" y1="177.6624" x2="455.9119" y2="177.6624"/><polygon class="cls-8" points="455.1824 180.1555 459.5 177.6624 455.1824 175.1692 455.1824 180.1555"/></g></svg>