<?xml version="1.0" encoding="UTF-8"?><svg id="Layer_2" xmlns="http://www.w3.org/2000/svg" viewBox="0 0 222 303.5"><defs><style>.cls-1,.cls-2,.cls-3,.cls-4,.cls-5{stroke:#404041;stroke-miterlimit:10;}.cls-1,.cls-6{fill:none;}.cls-7{fill:#404041;}.cls-2{fill:#b3b3b3;}.cls-3{fill:#e2e4e6;}.cls-4{fill:gray;}.cls-5{fill:#f6a6b0;}</style></defs><g id="Layer_19"><g><g><rect class="cls-2" x="51.75" y="133.25" width="118.5" height="221" rx="22.3724" ry="22.3724" transform="translate(354.75 132.75) rotate(90)"/><rect class="cls-3" x="121.5436" y="199.9867" width="84.4432" height="87.4697" rx="21.52" ry="21.52" transform="translate(407.4867 79.9564) rotate(90)"/><rect class="cls-3" x="-4.6714" y="232.0634" width="47.2314" height="22.8235" rx="7.3303" ry="7.3303" transform="translate(262.4195 224.5309) rotate(90)"/><g><rect class="cls-3" x="31.8861" y="186.2929" width="6.6619" height="7.7069" rx="2.85" ry="2.85" transform="translate(225.3634 154.9292) rotate(90)"/><rect class="cls-3" x="52.0377" y="186.2929" width="6.6619" height="7.7069" rx="2.85" ry="2.85" transform="translate(245.5149 134.7777) rotate(90)"/><rect class="cls-3" x="72.1892" y="186.2929" width="6.6619" height="7.7069" rx="2.85" ry="2.85" transform="translate(265.6665 114.6262) rotate(90)"/><rect class="cls-3" x="92.3407" y="186.2929" width="6.6619" height="7.7069" rx="2.85" ry="2.85" transform="translate(285.818 94.4747) rotate(90)"/><rect class="cls-3" x="112.4922" y="186.2929" width="6.6619" height="7.7069" rx="2.85" ry="2.85" transform="translate(305.9695 74.3232) rotate(90)"/><rect class="cls-3" x="132.6437" y="186.2929" width="6.6619" height="7.7069" rx="2.85" ry="2.85" transform="translate(326.121 54.1717) rotate(90)"/><rect class="cls-3" x="152.7952" y="186.2929" width="6.6619" height="7.7069" rx="2.85" ry="2.85" transform="translate(346.2725 34.0201) rotate(90)"/><rect class="cls-3" x="172.9468" y="186.2929" width="6.6619" height="7.7069" rx="2.85" ry="2.85" transform="translate(366.424 13.8686) rotate(90)"/><rect class="cls-3" x="193.0983" y="186.2929" width="6.6619" height="7.7069" rx="2.85" ry="2.85" transform="translate(386.5755 -6.2829) rotate(90)"/></g><g><rect class="cls-3" x="31.8861" y="294.0201" width="6.6619" height="7.7069" rx="2.85" ry="2.85" transform="translate(333.0907 262.6565) rotate(90)"/><rect class="cls-3" x="52.0377" y="294.0201" width="6.6619" height="7.7069" rx="2.85" ry="2.85" transform="translate(353.2422 242.505) rotate(90)"/><rect class="cls-3" x="72.1892" y="294.0201" width="6.6619" height="7.7069" rx="2.85" ry="2.85" transform="translate(373.3937 222.3535) rotate(90)"/><rect class="cls-3" x="92.3407" y="294.0201" width="6.6619" height="7.7069" rx="2.85" ry="2.85" transform="translate(393.5452 202.202) rotate(90)"/><rect class="cls-3" x="112.4922" y="294.0201" width="6.6619" height="7.7069" rx="2.85" ry="2.85" transform="translate(413.6968 182.0504) rotate(90)"/><rect class="cls-3" x="132.6437" y="294.0201" width="6.6619" height="7.7069" rx="2.85" ry="2.85" transform="translate(433.8483 161.8989) rotate(90)"/><rect class="cls-3" x="152.7952" y="294.0201" width="6.6619" height="7.7069" rx="2.85" ry="2.85" transform="translate(453.9998 141.7474) rotate(90)"/><rect class="cls-3" x="172.9468" y="294.0201" width="6.6619" height="7.7069" rx="2.85" ry="2.85" transform="translate(474.1513 121.5959) rotate(90)"/><rect class="cls-3" x="193.0983" y="294.0201" width="6.6619" height="7.7069" rx="2.85" ry="2.85" transform="translate(494.3028 101.4444) rotate(90)"/></g><g><g><rect class="cls-3" x="52.8845" y="212.9766" width="22.4182" height="12.1469" rx="3.9187" ry="3.9187" transform="translate(-154.9564 283.1437) rotate(-90)"/><rect class="cls-4" x="49.5498" y="219.0638" width="28.383" height="13.1417" rx="5.5697" ry="5.5697"/></g><rect class="cls-3" x="50.7717" y="230.1572" width="7.7304" height="3.296" rx=".6689" ry=".6689" transform="translate(-177.1683 286.4422) rotate(-90)"/><rect class="cls-3" x="59.4481" y="230.1572" width="7.7304" height="3.296" rx=".6689" ry=".6689" transform="translate(-168.492 295.1185) rotate(-90)"/><rect class="cls-3" x="68.1244" y="230.1572" width="7.7304" height="3.296" rx=".6689" ry=".6689" transform="translate(-159.8156 303.7949) rotate(-90)"/></g><rect class="cls-4" x="44.4621" y="246.7239" width="38.0028" height="33.8329" rx="12.6749" ry="12.6749"/><rect class="cls-4" x="87.9324" y="206.0177" width="24.0373" height="33.8329" rx="7.4227" ry="7.4227"/></g><g><rect class="cls-3" x="132.2251" y="98.3303" width="31.5" height="31.5" rx="10.7265" ry="10.7265"/><circle class="cls-5" cx="147.9751" cy="114.0803" r="12.5"/></g><g><path class="cls-1" d="M63.3864,56h10.44l2.32-5,4.64,10,4.64-10,4.64,10,4.64-10,4.64,10,4.64-10,4.64,10,2.32-5h28.9663V25.0678s0-5.6637,8.6-5.6637,8.6,5.6637,8.6,5.6637v21.4322h-17.2" pointer-events="all"/><path class="cls-1" d="M135.3864,41.4589V9.0614s0-8.5614,13-8.5614,13,8.5614,13,8.5614V41.4589h-26"/></g><polyline class="cls-6" points="71.9986 75.8303 71.9986 101.4284 179.3864 101.4284"/><polyline class="cls-1" points="55 184.5 55 115.25 63.8864 115.0803"/><polyline class="cls-1" points="64.3864 56 35.5 56 35.5 184.75"/><path class="cls-1" d="M63.3864,115h10.44l2.32-5,4.64,10,4.64-10,4.64,10,4.64-10,4.64,10,4.64-10,4.64,10,2.32-5h21.1748" pointer-events="all"/><polyline class="cls-1" points="196.4292 184.5 196.4292 56 157.1127 56 157.1127 46.5"/><polyline class="cls-1" points="163.7251 115 176.2777 115 176.2777 158 115.8232 158 115.8232 184.5"/><g><path class="cls-7" d="M57.499,177.9531l.957-3.5938h3.8867l-.1855,1.1768h-2.7295l-.4688,1.5381c.29-.1826,.6318-.2734,1.0254-.2734,.6084,0,1.0801,.2158,1.4131,.6465,.334,.4316,.4746,1.001,.4229,1.707-.0391,.4688-.1768,.8906-.4131,1.2646-.2354,.374-.5459,.6621-.9297,.8643s-.8076,.2979-1.2695,.2881c-.4004-.0029-.7637-.0947-1.0918-.2764-.3262-.1797-.5811-.4297-.7637-.7461-.1826-.3184-.2754-.6719-.2783-1.0625h1.3525c.0127,.29,.0928,.5166,.2393,.6816,.1465,.1641,.3447,.249,.5957,.2559,.3252,.0098,.5928-.1094,.8037-.3564,.209-.2471,.3359-.5791,.3779-.9961,.0391-.3711-.0166-.6641-.1689-.8789-.1504-.2148-.3809-.3252-.6904-.332-.3447-.0068-.6641,.1201-.957,.3809l-1.1279-.2881Z"/><path class="cls-7" d="M67.7871,179.6914l2.3926-5.332h1.6406l-3.5107,7.1094h-1.4941l-1.2793-7.1094h1.5381l.7129,5.332Z"/></g><g><path class="cls-7" d="M82.7148,71.7578h-4.7363l.1611-1.0254,2.5244-2.3682c.5176-.4854,.8613-.8789,1.0303-1.1816s.2324-.5986,.1904-.8887c-.0684-.4033-.3008-.6104-.6982-.6201-.3125-.0068-.5742,.1025-.7832,.3271-.2109,.2246-.3379,.5195-.3838,.8838l-1.377,.0049c.0264-.4424,.1582-.8447,.3955-1.2061s.5547-.6426,.9492-.8418c.3965-.2012,.8232-.2988,1.2822-.2959,.6611,.0127,1.1748,.1982,1.543,.5566s.5303,.835,.4883,1.4307c-.0518,.6709-.4473,1.3701-1.1865,2.0996l-.7031,.6689-1.4551,1.3086,2.9395,.0098-.1807,1.1377Z"/><path class="cls-7" d="M88.3301,71.7578h-4.7363l.1611-1.0254,2.5244-2.3682c.5176-.4854,.8613-.8789,1.0303-1.1816s.2324-.5986,.1904-.8887c-.0684-.4033-.3008-.6104-.6982-.6201-.3125-.0068-.5742,.1025-.7832,.3271-.2109,.2246-.3379,.5195-.3838,.8838l-1.377,.0049c.0264-.4424,.1582-.8447,.3955-1.2061s.5547-.6426,.9492-.8418c.3965-.2012,.8232-.2988,1.2822-.2959,.6611,.0127,1.1748,.1982,1.543,.5566s.5303,.835,.4883,1.4307c-.0518,.6709-.4473,1.3701-1.1865,2.0996l-.7031,.6689-1.4551,1.3086,2.9395,.0098-.1807,1.1377Z"/><path class="cls-7" d="M91.5723,71.8555c-.6152-.0127-1.0908-.2217-1.4258-.625s-.5078-.9668-.5176-1.6895c-.0029-.2412,.0098-.4814,.0391-.7227l.2002-1.333c.1592-.9697,.4736-1.7061,.9424-2.207s1.0693-.7441,1.8018-.7275c.6152,.0127,1.0918,.2207,1.4277,.623,.3379,.4014,.5107,.9619,.5205,1.6816,.0029,.2441-.0098,.4863-.0391,.7275l-.2051,1.3232c-.1631,.9766-.4756,1.7168-.9404,2.2188-.4629,.5039-1.0645,.7471-1.8037,.7305Zm1.6553-5.1631c0-.6465-.2275-.9814-.6836-1.0039-.6572-.0293-1.0762,.4707-1.2549,1.501l-.2441,1.6475c-.0518,.3438-.0781,.6299-.0781,.8574-.0166,.6592,.21,1.001,.6787,1.0234,.6611,.042,1.0811-.4727,1.2598-1.5449l.2588-1.7354c.042-.2822,.0635-.5303,.0635-.7451Z"/><path class="cls-7" d="M100.4395,70.5518c.3906-.166,.7012-.4834,.9326-.9521s.3955-1.1836,.4932-2.1436c.0264-.2568,.0342-.4785,.0244-.6641-.0518-.6738-.3291-1.0225-.8301-1.0449-.3809-.0195-.7002,.124-.96,.4326-.2578,.3066-.4326,.7607-.5215,1.3594-.0898,.5986-.1426,1.0039-.1592,1.2129-.0166,.2109-.0215,.416-.0146,.6182,.0127,.6123,.1973,1.0039,.5518,1.1768l-.1855,1.2109h-2.4365l.2197-1.1914,1.0205-.0049c-.3877-.6475-.6084-1.2793-.6641-1.8945-.0322-.3291,.002-.7666,.1025-1.3135s.3008-1.0371,.6006-1.4697,.666-.7656,1.1016-.999c.4336-.2324,.9082-.3418,1.4229-.3291s.958,.1504,1.3311,.4131c.3721,.2617,.6455,.623,.8203,1.084,.1738,.46,.2285,.9619,.1631,1.5059l-.0439,.3418c-.1465,1.123-.6768,2.0195-1.5918,2.6904l1.0449-.0244-.21,1.1914h-2.3975l.1855-1.2061Z"/></g><g><path class="cls-7" d="M81.2646,130.7578h-1.377l.9375-5.4102-1.7285,.5225,.2148-1.2061,2.9688-1.0254,.1807-.0049-1.1963,7.124Z"/><path class="cls-7" d="M85.957,130.8555c-.6152-.0127-1.0908-.2217-1.4258-.625s-.5078-.9668-.5176-1.6895c-.0029-.2412,.0098-.4814,.0391-.7227l.2002-1.333c.1592-.9697,.4736-1.7061,.9424-2.207s1.0693-.7441,1.8018-.7275c.6152,.0127,1.0918,.2207,1.4277,.623,.3379,.4014,.5107,.9619,.5205,1.6816,.0029,.2441-.0098,.4863-.0391,.7275l-.2051,1.3232c-.1631,.9766-.4756,1.7168-.9404,2.2188-.4629,.5039-1.0645,.7471-1.8037,.7305Zm1.6553-5.1631c0-.6465-.2275-.9814-.6836-1.0039-.6572-.0293-1.0762,.4707-1.2549,1.501l-.2441,1.6475c-.0518,.3438-.0781,.6299-.0781,.8574-.0166,.6592,.21,1.001,.6787,1.0234,.6611,.042,1.0811-.4727,1.2598-1.5449l.2588-1.7354c.042-.2822,.0635-.5303,.0635-.7451Z"/><path class="cls-7" d="M93.9697,128.6533l-.6396,.5566-.2686,1.5479h-1.377l1.2988-7.5h1.3818l-.7129,4.0723,.2686-.2881,1.5674-1.5674h1.7676l-2.3096,2.2705,1.4697,3.0127h-1.5088l-.9375-2.1045Z"/><path class="cls-7" d="M100.0537,129.5518c.3906-.166,.7012-.4834,.9326-.9521s.3955-1.1836,.4932-2.1436c.0264-.2568,.0342-.4785,.0244-.6641-.0518-.6738-.3291-1.0225-.8301-1.0449-.3809-.0195-.7002,.124-.96,.4326-.2578,.3066-.4326,.7607-.5215,1.3594-.0898,.5986-.1426,1.0039-.1592,1.2129-.0166,.2109-.0215,.416-.0146,.6182,.0127,.6123,.1973,1.0039,.5518,1.1768l-.1855,1.2109h-2.4365l.2197-1.1914,1.0205-.0049c-.3877-.6475-.6084-1.2793-.6641-1.8945-.0322-.3291,.002-.7666,.1025-1.3135s.3008-1.0371,.6006-1.4697,.666-.7656,1.1016-.999c.4336-.2324,.9082-.3418,1.4229-.3291s.958,.1504,1.3311,.4131c.3721,.2617,.6455,.623,.8203,1.084,.1738,.46,.2285,.9619,.1631,1.5059l-.0439,.3418c-.1465,1.123-.6768,2.0195-1.5918,2.6904l1.0449-.0244-.21,1.1914h-2.3975l.1855-1.2061Z"/></g><g><path class="cls-7" d="M204.7422,180.0742c-.2178,.2441-.5381,.4336-.959,.5684-.4219,.1357-.9092,.1982-1.4629,.1885-.498-.0068-.9248-.127-1.2793-.3613s-.6133-.5596-.7734-.9766c-.1621-.417-.2148-.8916-.1592-1.4258l.0293-.2979c.0684-.5439,.2334-1.0293,.4951-1.457,.2627-.4287,.6035-.7588,1.0234-.9922,.4199-.2324,.8838-.3418,1.3916-.3291,.6543,.0127,1.1709,.1826,1.5498,.5107,.3799,.3262,.5967,.8174,.6523,1.4717l-1.3135-.0049c-.0264-.2812-.1104-.4893-.251-.624-.1426-.1338-.3574-.2061-.6475-.2158-.4521-.0195-.8174,.1533-1.0938,.5195-.2764,.3652-.4346,.9209-.4736,1.665v.3408c.0098,.3252,.0986,.5791,.2656,.7607,.168,.1826,.4062,.2754,.7158,.2783,.3418,.0127,.6494-.0508,.9229-.1904l.1709-.8154h-1.0645l.1807-1.001h2.4463l-.3662,2.3877Z"/><path class="cls-7" d="M210.3232,180.7578h-1.3281l-1.5918-3.6084-.625,3.6084h-1.3867l.9863-5.6885h1.3379l1.5869,3.6133,.6299-3.6133h1.377l-.9863,5.6885Z"/><path class="cls-7" d="M211.3047,180.7578l.9863-5.6885,1.8018,.0049c.4951,.0127,.9287,.1357,1.3008,.3691,.373,.2324,.6504,.5557,.833,.9688s.252,.874,.21,1.3818l-.0195,.2246c-.0586,.5205-.2266,.9883-.5059,1.4014-.2773,.4131-.6406,.7383-1.0879,.9746-.4482,.2354-.9307,.3564-1.4482,.3633h-2.0703Zm2.1729-4.5508l-.5908,3.4131,.4395,.0049c.9346,0,1.4961-.4805,1.6846-1.4404,.0684-.3516,.0947-.6816,.0781-.9912-.0459-.6279-.3857-.9551-1.0205-.9814l-.5908-.0049Z"/></g><g><path class="cls-7" d="M122.7422,180.0742c-.2178,.2441-.5381,.4336-.959,.5684-.4219,.1357-.9092,.1982-1.4629,.1885-.498-.0068-.9248-.127-1.2793-.3613s-.6133-.5596-.7734-.9766c-.1621-.417-.2148-.8916-.1592-1.4258l.0293-.2979c.0684-.5439,.2334-1.0293,.4951-1.457,.2627-.4287,.6035-.7588,1.0234-.9922,.4199-.2324,.8838-.3418,1.3916-.3291,.6543,.0127,1.1709,.1826,1.5498,.5107,.3799,.3262,.5967,.8174,.6523,1.4717l-1.3135-.0049c-.0264-.2812-.1104-.4893-.251-.624-.1426-.1338-.3574-.2061-.6475-.2158-.4521-.0195-.8174,.1533-1.0938,.5195-.2764,.3652-.4346,.9209-.4736,1.665v.3408c.0098,.3252,.0986,.5791,.2656,.7607,.168,.1826,.4062,.2754,.7158,.2783,.3418,.0127,.6494-.0508,.9229-.1904l.1709-.8154h-1.0645l.1807-1.001h2.4463l-.3662,2.3877Z"/><path class="cls-7" d="M125.1006,178.8877l-.3271,1.8701h-1.3818l.9863-5.6885,2.2705,.0049c.6318,.0127,1.1367,.1973,1.5156,.5547,.3799,.3555,.5518,.8145,.5156,1.374-.0322,.5693-.2803,1.0273-.7422,1.3721s-1.0527,.5176-1.7725,.5176l-1.0645-.0049Zm.1953-1.1377l.8984,.0049c.3193-.0098,.5752-.0791,.7686-.208,.1943-.1289,.3086-.3066,.3447-.5312,.042-.2451-.002-.4375-.1318-.5762s-.3145-.2148-.5518-.2275l-1.0596-.0049-.2686,1.543Z"/><path class="cls-7" d="M130.335,180.7578h-1.3818l.9863-5.6885h1.3818l-.9863,5.6885Z"/><path class="cls-7" d="M133.9385,180.8359c-.4951-.0127-.916-.1396-1.2617-.3809-.3477-.2412-.6006-.5732-.7598-.9961s-.2148-.8955-.166-1.416l.0195-.2246c.0586-.5371,.2227-1.0273,.4932-1.4697s.6201-.7832,1.0498-1.0205,.9014-.3496,1.416-.3369c.4854,.0127,.9004,.1396,1.248,.3779,.3457,.2402,.5996,.5713,.7617,.9941,.1602,.4229,.2188,.8936,.1729,1.4111l-.0195,.1807c-.0977,.876-.4209,1.5801-.9697,2.1113-.5479,.5332-1.21,.7891-1.9844,.7695Zm1.6113-3.6133c-.0127-.3418-.0947-.6074-.2441-.7988-.1494-.1895-.3633-.292-.6396-.3047-.4004-.0166-.7354,.1279-1.0059,.4316-.2705,.3047-.4424,.7256-.5176,1.2627-.0293,.2705-.0439,.4668-.0439,.5908-.0098,.4033,.0605,.7207,.21,.9492,.1494,.2305,.3809,.3516,.6934,.3643,.3906,.0166,.7217-.1318,.9932-.4443,.2725-.3125,.4424-.7393,.5107-1.2793,.0361-.332,.0508-.5889,.0439-.7715Z"/></g><g><path class="cls-7" d="M17.7422,180.0742c-.2178,.2441-.5381,.4336-.959,.5684-.4219,.1357-.9092,.1982-1.4629,.1885-.498-.0068-.9248-.127-1.2793-.3613s-.6133-.5596-.7734-.9766c-.1621-.417-.2148-.8916-.1592-1.4258l.0293-.2979c.0684-.5439,.2334-1.0293,.4951-1.457,.2627-.4287,.6035-.7588,1.0234-.9922,.4199-.2324,.8838-.3418,1.3916-.3291,.6543,.0127,1.1709,.1826,1.5498,.5107,.3799,.3262,.5967,.8174,.6523,1.4717l-1.3135-.0049c-.0264-.2812-.1104-.4893-.251-.624-.1426-.1338-.3574-.2061-.6475-.2158-.4521-.0195-.8174,.1533-1.0938,.5195-.2764,.3652-.4346,.9209-.4736,1.665v.3408c.0098,.3252,.0986,.5791,.2656,.7607,.168,.1826,.4062,.2754,.7158,.2783,.3418,.0127,.6494-.0508,.9229-.1904l.1709-.8154h-1.0645l.1807-1.001h2.4463l-.3662,2.3877Z"/><path class="cls-7" d="M20.1006,178.8877l-.3271,1.8701h-1.3818l.9863-5.6885,2.2705,.0049c.6318,.0127,1.1367,.1973,1.5156,.5547,.3799,.3555,.5518,.8145,.5156,1.374-.0322,.5693-.2803,1.0273-.7422,1.3721s-1.0527,.5176-1.7725,.5176l-1.0645-.0049Zm.1953-1.1377l.8984,.0049c.3193-.0098,.5752-.0791,.7686-.208,.1943-.1289,.3086-.3066,.3447-.5312,.042-.2451-.002-.4375-.1318-.5762s-.3145-.2148-.5518-.2275l-1.0596-.0049-.2686,1.543Z"/><path class="cls-7" d="M25.335,180.7578h-1.3818l.9863-5.6885h1.3818l-.9863,5.6885Z"/><path class="cls-7" d="M28.9385,180.8359c-.4951-.0127-.916-.1396-1.2617-.3809-.3477-.2412-.6006-.5732-.7598-.9961s-.2148-.8955-.166-1.416l.0195-.2246c.0586-.5371,.2227-1.0273,.4932-1.4697s.6201-.7832,1.0498-1.0205,.9014-.3496,1.416-.3369c.4854,.0127,.9004,.1396,1.248,.3779,.3457,.2402,.5996,.5713,.7617,.9941,.1602,.4229,.2188,.8936,.1729,1.4111l-.0195,.1807c-.0977,.876-.4209,1.5801-.9697,2.1113-.5479,.5332-1.21,.7891-1.9844,.7695Zm1.6113-3.6133c-.0127-.3418-.0947-.6074-.2441-.7988-.1494-.1895-.3633-.292-.6396-.3047-.4004-.0166-.7354,.1279-1.0059,.4316-.2705,.3047-.4424,.7256-.5176,1.2627-.0293,.2705-.0439,.4668-.0439,.5908-.0098,.4033,.0605,.7207,.21,.9492,.1494,.2305,.3809,.3516,.6934,.3643,.3906,.0166,.7217-.1318,.9932-.4443,.2725-.3125,.4424-.7393,.5107-1.2793,.0361-.332,.0508-.5889,.0439-.7715Z"/></g></g></g></svg>