<?xml version="1.0" encoding="UTF-8"?><svg id="slide_6" xmlns="http://www.w3.org/2000/svg" viewBox="0 0 800 426"><defs><style>.cls-1{fill:#e2e4e6;}.cls-2{fill:#232323;}.cls-3{fill:#f6a6b0;}.cls-4{fill:#606060;}</style></defs><g><rect class="cls-4" x="256" y="-42.2727" width="288" height="510.5455" rx="33.5737" ry="33.5737" transform="translate(613 -187) rotate(90)"/><rect class="cls-1" x="408.7273" y="110.4545" width="205.0909" height="205.0909" rx="38.3868" ry="38.3868" transform="translate(724.2727 -298.2727) rotate(90)"/><rect class="cls-1" x="132.4391" y="187.621" width="114.7903" height="49.4224" rx="12.539" ry="12.539" transform="translate(402.1664 22.4979) rotate(90)"/><g><rect class="cls-1" x="216.9761" y="74.3784" width="16.1909" height="16.6887" rx="2.85" ry="2.85" transform="translate(307.7943 -142.3489) rotate(90)"/><rect class="cls-1" x="260.6125" y="74.3784" width="16.1909" height="16.6887" rx="2.85" ry="2.85" transform="translate(351.4307 -185.9853) rotate(90)"/><rect class="cls-1" x="304.2489" y="74.3784" width="16.1909" height="16.6887" rx="2.85" ry="2.85" transform="translate(395.067 -229.6216) rotate(90)"/><rect class="cls-1" x="347.8852" y="74.3784" width="16.1909" height="16.6887" rx="2.85" ry="2.85" transform="translate(438.7034 -273.258) rotate(90)"/><rect class="cls-1" x="391.5216" y="74.3784" width="16.1909" height="16.6887" rx="2.85" ry="2.85" transform="translate(482.3398 -316.8943) rotate(90)"/><rect class="cls-1" x="435.158" y="74.3784" width="16.1909" height="16.6887" rx="2.85" ry="2.85" transform="translate(525.9761 -360.5307) rotate(90)"/><rect class="cls-1" x="478.7943" y="74.3784" width="16.1909" height="16.6887" rx="2.85" ry="2.85" transform="translate(569.6125 -404.1671) rotate(90)"/><rect class="cls-1" x="522.4307" y="74.3784" width="16.1909" height="16.6887" rx="2.85" ry="2.85" transform="translate(613.2489 -447.8034) rotate(90)"/><rect class="cls-1" x="566.067" y="74.3784" width="16.1909" height="16.6887" rx="2.85" ry="2.85" transform="translate(656.8852 -491.4398) rotate(90)"/></g><g><rect class="cls-1" x="216.9761" y="336.1966" width="16.1909" height="16.6887" rx="2.85" ry="2.85" transform="translate(569.6125 119.4693) rotate(90)"/><rect class="cls-1" x="260.6125" y="336.1966" width="16.1909" height="16.6887" rx="2.85" ry="2.85" transform="translate(613.2489 75.8329) rotate(90)"/><rect class="cls-1" x="304.2489" y="336.1966" width="16.1909" height="16.6887" rx="2.85" ry="2.85" transform="translate(656.8852 32.1966) rotate(90)"/><rect class="cls-1" x="347.8852" y="336.1966" width="16.1909" height="16.6887" rx="2.85" ry="2.85" transform="translate(700.5216 -11.4398) rotate(90)"/><rect class="cls-1" x="391.5216" y="336.1966" width="16.1909" height="16.6887" rx="2.85" ry="2.85" transform="translate(744.158 -55.0762) rotate(90)"/><rect class="cls-1" x="435.158" y="336.1966" width="16.1909" height="16.6887" rx="2.85" ry="2.85" transform="translate(787.7943 -98.7125) rotate(90)"/><rect class="cls-1" x="478.7943" y="336.1966" width="16.1909" height="16.6887" rx="2.85" ry="2.85" transform="translate(831.4307 -142.3489) rotate(90)"/><rect class="cls-1" x="522.4307" y="336.1966" width="16.1909" height="16.6887" rx="2.85" ry="2.85" transform="translate(875.067 -185.9852) rotate(90)"/><rect class="cls-1" x="566.067" y="336.1966" width="16.1909" height="16.6887" rx="2.85" ry="2.85" transform="translate(918.7034 -229.6216) rotate(90)"/></g><g><g><rect class="cls-1" x="260.3588" y="139.8182" width="54.4848" height="26.303" rx="3.9187" ry="3.9187" transform="translate(134.6316 440.571) rotate(-90)"/><rect class="cls-2" x="256.1079" y="153.0033" width="61.461" height="31.9394" rx="5.5697" ry="5.5697"/></g><rect class="cls-1" x="257.7296" y="180.4011" width="18.7879" height="7.1373" rx=".6689" ry=".6689" transform="translate(83.1539 451.0933) rotate(-90)"/><rect class="cls-1" x="276.5175" y="180.4011" width="18.7879" height="7.1373" rx=".6689" ry=".6689" transform="translate(101.9417 469.8811) rotate(-90)"/><rect class="cls-1" x="295.3054" y="180.4011" width="18.7879" height="7.1373" rx=".6689" ry=".6689" transform="translate(120.7296 488.669) rotate(-90)"/></g><rect class="cls-2" x="245.0909" y="220.2278" width="82.2918" height="82.2267" rx="17.3334" ry="17.3334"/><rect class="cls-2" x="339.2221" y="121.2963" width="52.0507" height="82.2267" rx="13.1887" ry="13.1887"/></g><g><path class="cls-3" d="M640.6778,326.2304l-5.2729-5.2297c-.9799-.9821-2.5665-.954-3.5486,.0245-.9807,.9785-.9835,2.5824-.0058,3.563l6.0093,5.6505c.4705,.472,1.1103,.3595,1.7768,.3595h5.2036c-3.4126,4.2823-5.6534,9.4207-6.482,14.559l-8.4493,.0007c-1.6184,0-2.8673,1.7305-2.3,3.3692,.3645,1.0532,1.4006,1.7257,2.5151,1.7257h7.8552c.0432,4.2899,1.128,8.5796,3.0218,12.0112h-1.8575c-.6576,0-1.2881,.3838-1.7531,.859l-5.9281,6.1264c-.9654,.9875-.9633,2.6171,.0043,3.6024,.4841,.4919,1.1154,.7524,1.7481,.7524,.6341,0,1.2697-.2445,1.7523-.7401l5.2045-5.3225h3.9974c4.8696,6.1576,12.5166,10.1547,20.2734,10.6038v-51.915h-23.7645Z"/><path class="cls-3" d="M702.5605,345.1572h-8.6248c-1.0617-5.1384-3.7976-10.2767-7.0019-14.559h5.7659c.6663,0,1.3053,.1196,1.7764-.353l6.0078-5.8328c.9775-.9819,.9747-2.473-.0058-3.4513-.9826-.979-2.5689-.9876-3.5477-.0058l-5.2724,5.2751h-23.758v51.8955c7.7565-.5151,15.2664-5.3066,20.1351-10.5843h4.1353l5.2038,5.3299c.4834,.4956,1.1175,.7451,1.7523,.7451,.6327,0,1.2647-.2452,1.7481-.7364,.9675-.9853,.9697-2.5844,.0043-3.5718l-5.9281-6.1846c-.4642-.476-1.0955-.8598-1.7523-.8598h-1.8308c1.9163-3.4314,3.0174-7.7213,3.0607-12.0112h7.9168c1.1148,0,2.1511-.6728,2.5158-1.7263,.5674-1.6393-.6817-3.3703-2.3008-3.3703l.0002,.0009Z"/><path class="cls-3" d="M650.223,322.7727h32.0244c0-6.0333-2.9935-10.5695-7.4872-13.406l3.2317-3.1657c.9668-.9661,.9668-2.5009,0-3.4685-.9668-.9661-2.5329-.9498-3.5011,.0171l-4.6749,4.6833c-1.1531-.2637-2.3495-.4123-3.583-.4123s-2.4299,.1543-3.583,.418l-4.6755-4.6742c-.9668-.9661-2.5329-.9661-3.5011,0-.9675,.9661-.9668,2.5351,0,3.5018l3.2317,3.1002c-4.49,2.8372-7.4828,7.3727-7.4828,13.406l.0005,.0004Z"/></g><path class="cls-3" d="M723.2305,352.25c0-3.9922,.4512-7.1426,1.3535-9.4531s2.3652-4.3145,4.3887-6.0098,3.5615-3.2461,4.6143-4.6543,1.5791-2.9609,1.5791-4.6562c0-4.1289-1.7773-6.1934-5.332-6.1934-1.6406,0-2.9668,.6016-3.9785,1.8047s-1.5449,2.8301-1.5996,4.8809h-13.8633c.0547-5.4688,1.7773-9.7266,5.168-12.7754s8.1484-4.5742,14.2734-4.5742c6.0977,0,10.8213,1.4082,14.1709,4.2246s5.0244,6.8223,5.0244,12.0176c0,2.2695-.4512,4.334-1.3535,6.1934s-2.3516,3.7598-4.3477,5.7012l-4.7168,4.3887c-1.3398,1.2852-2.2695,2.6055-2.7891,3.959s-.8066,3.0684-.8613,5.1465h-11.7305Zm-1.6816,12.4688c0-2.0234,.7314-3.6836,2.1943-4.9824s3.2881-1.9492,5.4756-1.9492,4.0127,.6504,5.4756,1.9492,2.1943,2.959,2.1943,4.9824-.7314,3.6855-2.1943,4.9844-3.2881,1.9473-5.4756,1.9473-4.0127-.6484-5.4756-1.9473-2.1943-2.9609-2.1943-4.9844Z"/></svg>