<?xml version="1.0" encoding="UTF-8"?><svg id="Layer_2" xmlns="http://www.w3.org/2000/svg" viewBox="0 0 295.8327 86"><defs><style>.cls-1{fill:#fff1a3;}.cls-1,.cls-2{stroke-miterlimit:10;}.cls-1,.cls-2,.cls-3{stroke:#404041;}.cls-2,.cls-3{fill:none;}.cls-4{fill:#404041;}.cls-3{stroke-dasharray:0 0 14 21;stroke-linecap:round;stroke-linejoin:round;stroke-width:2px;}</style></defs><g id="Layer_21"><g><g><rect class="cls-1" x=".5" y="5.4646" width="108.6038" height="74.9592" rx="10" ry="10"/><g><path class="cls-4" d="M32.9732,38.0303v-9.3926c0-.498,.2188-.7471,.6562-.7471h3.7539c.6152,0,1.1641,.0352,1.6484,.1064,.4824,.0713,.9824,.2217,1.498,.4502,.5166,.2285,.9473,.5391,1.29,.9307s.624,.9287,.8428,1.6104,.3281,1.4873,.3281,2.418c0,.9668-.1348,1.7998-.4043,2.499s-.5898,1.2266-.9609,1.5801-.8359,.6318-1.3926,.835-1.0225,.3232-1.3965,.3584c-.374,.0361-.8027,.0537-1.2852,.0537h-3.8535c-.2285,0-.4072-.0469-.5342-.1416-.127-.0938-.1904-.2803-.1904-.5605Zm2.1738-.6406h1.7324c.5088,0,.9307-.0176,1.2666-.0537,.3359-.0352,.71-.1523,1.1221-.3506s.7422-.4805,.9912-.8467c.3564-.5391,.542-1.3457,.5576-2.4189v-.1758c0-.498-.0137-.9043-.0391-1.2168s-.0977-.6807-.2168-1.1025-.2939-.7578-.5234-1.0068c-.2285-.25-.5645-.4707-1.0059-.6641-.4434-.1934-.9775-.2998-1.6035-.3203h-2.2656l-.0156,.4502v7.7061Z"/><path class="cls-4" d="M44.4254,35.0928c0-1.2715,.3408-2.2197,1.0205-2.8457,.6807-.626,1.6133-.9385,2.7988-.9385,.6582,0,1.2207,.0967,1.6855,.29,.4668,.1934,.8223,.459,1.0684,.7969,.2461,.3389,.4219,.6963,.5264,1.0723,.1045,.377,.1572,.7939,.1572,1.251,0,.4482-.2373,.6719-.7109,.6719h-4.4551c.041,1.582,.7002,2.373,1.9785,2.373,.4805,0,.9199-.0752,1.3174-.2256,.3975-.1494,.7236-.3164,.9775-.5,.2529-.1826,.4023-.2793,.4473-.2891h.0664l.084,.0303c.0566,.0508,.0996,.168,.1309,.3506,.0303,.1836,.0459,.3535,.0459,.5117l.0166,.2285c0,.1377-.0879,.252-.2656,.3438-.8477,.457-1.7988,.6885-2.8496,.6943-1.3242,0-2.3281-.3232-3.0127-.9697-.6846-.6455-1.0273-1.5938-1.0273-2.8457Zm2.1064-.7168h3.2266c-.0303-.6055-.1494-1.0771-.3574-1.416-.208-.3379-.5938-.5068-1.1562-.5068-1.0156,0-1.5859,.6406-1.7129,1.9229Z"/><path class="cls-4" d="M52.8795,38.0156v-9.8428c0-.2295,.0498-.4072,.1484-.5342,.0996-.127,.2891-.1914,.5684-.1914h.6875c.457,0,.6865,.2295,.6865,.6885v3.8984c.6553-.4229,1.3809-.6338,2.1748-.6338,1.4863,0,2.417,.7051,2.793,2.1172,.1162,.4287,.1748,.9893,.1748,1.6816v.0459c0,.7109-.0986,1.3135-.2939,1.8086s-.4609,.873-.7988,1.1348-.6875,.4463-1.0508,.5557c-.3623,.1094-.7617,.1641-1.1992,.1641-.6553,0-1.2461-.1982-1.7695-.5957-.082,.168-.166,.2803-.2559,.3359-.0889,.0557-.2324,.084-.4307,.084h-.7178c-.4775,0-.7168-.2393-.7168-.7168Zm2.1367-.8604l.0527,.0605c.041,.04,.0684,.0693,.084,.0879,.0156,.0176,.0459,.0469,.0918,.0869,.0459,.041,.085,.0713,.1182,.0918,.0332,.0195,.0752,.0488,.126,.0869s.1006,.0645,.1484,.0801c.0488,.0156,.1035,.0332,.1641,.0527,.0615,.0205,.1289,.0361,.2031,.0459,.0732,.0107,.1504,.0156,.2324,.0156,.3359,0,.6201-.0596,.8545-.1787,.2334-.1191,.4053-.251,.5146-.3955s.1953-.3555,.2559-.6318,.0957-.4941,.1035-.6543c.0068-.1602,.0107-.3916,.0107-.6963v-.1211c0-.3096-.0068-.5557-.0186-.7383-.0137-.1826-.0449-.4043-.0957-.666-.0508-.2607-.1289-.4609-.2324-.6006-.1045-.1396-.2617-.2637-.4697-.373-.208-.1084-.458-.1631-.7471-.1631-.4883,0-.9541,.1826-1.3965,.5479v4.0625Z"/><path class="cls-4" d="M61.6236,36.5576v-4.2949c0-.458,.2285-.6875,.6865-.6875h.7178c.2285,0,.4004,.0479,.5146,.1416s.1768,.1758,.1865,.2441,.0205,.1738,.0312,.3164v4.1582c0,.041-.0029,.1035-.0078,.1875-.0059,.084-.0078,.1455-.0078,.1865,0,.458,.0566,.7627,.1719,.916,.1143,.1523,.3906,.2285,.8281,.2285,.416,0,.7939-.1533,1.1328-.4619,.3379-.3076,.5068-.8379,.5068-1.5908v-3.5098c0-.1572,.0068-.2754,.0195-.3545s.0293-.1338,.0498-.1641c.0195-.0303,.0664-.084,.1377-.1602,.1172-.0918,.2959-.1377,.5361-.1377h.6895c.459,0,.6934,.2188,.7041,.6562v5.8291c0,.4482-.2354,.6719-.7041,.6719h-.7363c-.4277,0-.6426-.2285-.6426-.6865-.3555,.3457-.7109,.5762-1.0645,.6904s-.7695,.1719-1.248,.1719c-.457,0-.8516-.0498-1.1816-.1494-.3311-.0986-.5791-.2168-.7441-.3545-.166-.1377-.2949-.3232-.3887-.5566-.0947-.2344-.1494-.4375-.1641-.6104-.0156-.1729-.0234-.3994-.0234-.6797Z"/><path class="cls-4" d="M69.8336,39.7412c0-.6523,.2998-1.1338,.9004-1.4463-.2852-.4014-.4268-.8086-.4268-1.2207,0-.4443,.1465-.8789,.4434-1.3027l-.0176-.0312c-.4219-.4775-.6328-1.0576-.6328-1.7383,0-.3008,.04-.584,.1191-.8496,.0801-.2656,.2217-.5391,.4258-.8223,.2051-.2832,.5332-.5088,.9834-.6777,.4502-.168,1.001-.252,1.6514-.252h.0469c.4189,0,.7773,.0342,1.0742,.1025s.5176,.1348,.6602,.1982c.1436,.0635,.2363,.0957,.2773,.0957,.0293,0,.1387-.0322,.3301-.0957,.1904-.0635,.4414-.1299,.7539-.1982s.6133-.1025,.9023-.1025c.1484,0,.2422,.04,.2832,.1191,.04,.0801,.0859,.2744,.1367,.584,.0098,.082,.0234,.1494,.0381,.2002,.0107,.2012-.0791,.3018-.2666,.3018-.0205,0-.0781-.0078-.1719-.0225-.0938-.0156-.2227-.0283-.3848-.0381-.1641-.0107-.3389-.0156-.5273-.0156l-.4043,.0156c.2402,.4951,.3594,.9766,.3594,1.4414,0,1.7295-1.0312,2.5947-3.0938,2.5947-.666,0-1.2656-.1064-1.7988-.3193-.0645,.1191-.0977,.2207-.0977,.3037,0,.5039,.3164,.7578,.9473,.7627h1.376c.3916,0,.708,.0059,.9492,.0156s.5361,.0371,.8857,.082c.3496,.0459,.6289,.1191,.8398,.2217,.2109,.1035,.4219,.2393,.6328,.4102,.2109,.1699,.3652,.3936,.4639,.6689s.1475,.6035,.1475,.9844c0,.9072-.4727,1.5449-1.416,1.9121-.5684,.2197-1.376,.3291-2.4258,.3291-.2324,0-.4238-.0029-.5762-.0078s-.375-.0176-.666-.0381c-.292-.0205-.5469-.0625-.7637-.126s-.4453-.1426-.6885-.2373-.4561-.2275-.6426-.3975c-.1855-.1719-.3301-.3662-.4336-.5859-.1289-.2549-.1934-.5283-.1934-.8184Zm1.6104-.0303c0,.7314,.7715,1.0967,2.3145,1.0967h.0625c.5752,0,1.0371-.0615,1.3867-.1855,.3486-.123,.5723-.2549,.6719-.3936s.1494-.291,.1494-.457c0-.2979-.1719-.501-.5156-.6094-.3447-.1084-.8906-.1631-1.6396-.1631h-1.5361c-.4385,0-.7109,.1084-.8174,.3262-.0508,.1006-.0762,.2295-.0762,.3857Zm.7471-5.5957c0,.4355,.0693,.7646,.209,.9873s.4404,.334,.9014,.334c.4668,0,.7773-.0986,.9316-.2959s.2324-.5391,.2324-1.0254v-.25c0-.4453-.0723-.7764-.2168-.9941s-.4404-.3262-.8867-.3262c-.4561,0-.7656,.0986-.9277,.2959s-.2432,.5391-.2432,1.0244v.25Z"/><path class="cls-4" d="M24.8131,53.4961v-9.293c0-.458,.2363-.6865,.709-.6865h1.2744c.4268,0,.7354,.1445,.9229,.4346,.082,.1377,.6133,1.4111,1.5957,3.8223,.9805,2.4111,1.5381,3.8359,1.6699,4.2734,.1016-.377,1.1299-2.9502,3.083-7.7217,.0811-.1885,.1455-.3232,.1943-.4043,.0488-.082,.1475-.1689,.2979-.2637,.1494-.0938,.3447-.1406,.583-.1406h1.3887c.4688,0,.7051,.2393,.71,.7168v9.377c0,.2393-.0469,.4238-.1416,.5537-.0938,.1299-.2881,.1943-.583,.1943h-.4961c-.1777,0-.3193-.0225-.4229-.0684-.1055-.0459-.1748-.1211-.2109-.2256-.0352-.1045-.0547-.1855-.0605-.2441-.0049-.0586-.0078-.1484-.0078-.2705v-7.6455c0-.0508-.002-.123-.0078-.2178-.0039-.0938-.0078-.166-.0078-.2168-.1016,.4775-1.1182,3.0488-3.0508,7.7139-.1484,.3555-.2988,.583-.4551,.6826-.1543,.0996-.3672,.1484-.6367,.1484h-.3125c-.1377,0-.2539-.0068-.3477-.0225s-.1816-.0518-.2627-.1104-.1465-.1084-.1943-.1494c-.0488-.04-.1055-.1328-.1719-.2783-.0664-.1445-.1211-.2646-.1641-.3584s-.1123-.2646-.2061-.5117c-.0947-.2461-.1768-.4512-.248-.6133l-1.625-4.0215c-.5186-1.3633-.8164-2.1895-.8936-2.4795v8.1719c0,.4775-.2334,.7168-.7012,.7168h-.5117c-.1777,0-.3184-.0225-.4238-.0684-.1035-.0459-.1748-.1211-.2129-.2256s-.0605-.1875-.0645-.252c-.0059-.0635-.0078-.1689-.0078-.3164Z"/><path class="cls-4" d="M39.1344,52.2148c0-.4072,.1221-.7607,.3643-1.0605,.2441-.3008,.5352-.5342,.876-.7021s.7432-.3018,1.21-.4004c.4658-.0996,.8691-.1641,1.209-.1953,.3408-.0303,.6855-.0459,1.0332-.0459v-.3193c0-.4355-.0732-.7803-.2207-1.0332-.1465-.2529-.4434-.3789-.8906-.3789-.4082,0-.7793,.0527-1.1133,.1572s-.582,.2217-.7422,.3506-.3125,.248-.4551,.3574c-.1426,.1104-.2471,.165-.3145,.165l-.0625-.0107-.0625-.0312c-.0312-.0508-.0586-.1777-.085-.3809s-.0439-.3887-.0537-.5557l-.0234-.2666c0-.0508,.0039-.0889,.0117-.1143s.0273-.0547,.0576-.0879c.0312-.0332,.0547-.0547,.0693-.0645,.0156-.0098,.0615-.0303,.1367-.0615,.0752-.0303,.1328-.0557,.1748-.0771,.752-.3496,1.5732-.5244,2.4619-.5244,1.1904,0,2.0293,.2236,2.5166,.6709,.4873,.4482,.7314,1.0938,.7314,1.9385v4.1123c0,.4678-.2363,.7021-.707,.7021h-.7539c-.2305,0-.3955-.0625-.4951-.1865-.1006-.125-.1494-.2715-.1494-.4395-.6914,.5293-1.5,.7959-2.4277,.8018-.7012,0-1.2598-.2402-1.6738-.7217-.4141-.4805-.6221-1.0127-.6221-1.5977Zm2.0908,0c0,.2998,.0986,.5703,.2969,.8125,.1973,.2412,.4561,.3623,.7754,.3623,.3555,0,.6992-.1123,1.0312-.3359s.498-.5898,.498-1.0986v-1.2207c-.3193,.0303-.5947,.0635-.8252,.0986-.2314,.0361-.5029,.1035-.8135,.2021-.3125,.0996-.5508,.251-.7158,.4541-.165,.2041-.2471,.4453-.2471,.7256Z"/><path class="cls-4" d="M47.7945,53.6562v-5.8291c0-.1982,.042-.3545,.126-.4697,.084-.1143,.1689-.1816,.2559-.2021,.0859-.0195,.1934-.0303,.3203-.0303h.625c.1016,0,.1816,.0049,.2402,.0156,.0586,.0098,.1328,.0332,.2217,.0684,.0889,.0361,.1533,.1035,.1943,.2021,.041,.0996,.0615,.2275,.0615,.3857v.3125c.7178-.7168,1.5635-1.0781,2.5371-1.083,.377,0,.7021,.0342,.9775,.1025s.4941,.1729,.6582,.3125c.1621,.1406,.293,.2764,.3926,.4082,.0996,.1328,.167,.3154,.2031,.5498,.0352,.2344,.0586,.4209,.0684,.5605,.0098,.1406,.0156,.335,.0156,.584v4.1279c0,.458-.2246,.6865-.6738,.6865h-.7354c-.2803,0-.4717-.0596-.5742-.1797-.1025-.1191-.1533-.2881-.1533-.5068v-4.2803c0-.1582-.002-.2783-.0078-.3623-.0049-.084-.0225-.1885-.0527-.3135-.0312-.124-.0762-.2207-.1377-.29-.0615-.0684-.1523-.1279-.2744-.1787s-.2695-.0762-.4434-.0762c-.4375,0-.791,.1318-1.0635,.3965s-.4541,.5547-.5459,.8701c-.0605,.2285-.0938,.5078-.0996,.8389v3.25c0,.0205-.002,.0498-.0078,.0879-.0039,.0381-.0195,.1074-.0449,.2061-.0254,.0996-.0586,.1846-.0996,.2559s-.1104,.1357-.209,.1943c-.0996,.0586-.2178,.0879-.3555,.0879h-.6865c-.4883,0-.7324-.2344-.7324-.7021Z"/><path class="cls-4" d="M56.0953,52.2148c0-.4072,.1221-.7607,.3643-1.0605,.2441-.3008,.5352-.5342,.876-.7021s.7432-.3018,1.21-.4004c.4658-.0996,.8691-.1641,1.209-.1953,.3408-.0303,.6855-.0459,1.0332-.0459v-.3193c0-.4355-.0732-.7803-.2207-1.0332-.1465-.2529-.4434-.3789-.8906-.3789-.4082,0-.7793,.0527-1.1133,.1572s-.582,.2217-.7422,.3506-.3125,.248-.4551,.3574c-.1426,.1104-.2471,.165-.3145,.165l-.0625-.0107-.0625-.0312c-.0312-.0508-.0586-.1777-.085-.3809s-.0439-.3887-.0537-.5557l-.0234-.2666c0-.0508,.0039-.0889,.0117-.1143s.0273-.0547,.0576-.0879c.0312-.0332,.0547-.0547,.0693-.0645,.0156-.0098,.0615-.0303,.1367-.0615,.0752-.0303,.1328-.0557,.1748-.0771,.752-.3496,1.5732-.5244,2.4619-.5244,1.1904,0,2.0293,.2236,2.5166,.6709,.4873,.4482,.7314,1.0938,.7314,1.9385v4.1123c0,.4678-.2363,.7021-.707,.7021h-.7539c-.2305,0-.3955-.0625-.4951-.1865-.1006-.125-.1494-.2715-.1494-.4395-.6914,.5293-1.5,.7959-2.4277,.8018-.7012,0-1.2598-.2402-1.6738-.7217-.4141-.4805-.6221-1.0127-.6221-1.5977Zm2.0908,0c0,.2998,.0986,.5703,.2969,.8125,.1973,.2412,.4561,.3623,.7754,.3623,.3555,0,.6992-.1123,1.0312-.3359s.498-.5898,.498-1.0986v-1.2207c-.3193,.0303-.5947,.0635-.8252,.0986-.2314,.0361-.5029,.1035-.8135,.2021-.3125,.0996-.5508,.251-.7158,.4541-.165,.2041-.2471,.4453-.2471,.7256Z"/><path class="cls-4" d="M64.2066,55.3672c0-.6523,.2998-1.1338,.9004-1.4463-.2852-.4014-.4268-.8086-.4268-1.2207,0-.4443,.1465-.8789,.4434-1.3027l-.0176-.0312c-.4219-.4775-.6328-1.0576-.6328-1.7383,0-.3008,.04-.584,.1191-.8496,.0801-.2656,.2217-.5391,.4258-.8223,.2051-.2832,.5332-.5088,.9834-.6777,.4502-.168,1.001-.252,1.6514-.252h.0469c.4189,0,.7773,.0342,1.0742,.1025s.5176,.1348,.6602,.1982c.1436,.0635,.2363,.0957,.2773,.0957,.0293,0,.1387-.0322,.3301-.0957,.1904-.0635,.4414-.1299,.7539-.1982s.6133-.1025,.9023-.1025c.1484,0,.2422,.04,.2832,.1191,.04,.0801,.0859,.2744,.1367,.584,.0098,.082,.0234,.1494,.0381,.2002,.0107,.2012-.0791,.3018-.2666,.3018-.0205,0-.0781-.0078-.1719-.0225-.0938-.0156-.2227-.0283-.3848-.0381-.1641-.0107-.3389-.0156-.5273-.0156l-.4043,.0156c.2402,.4951,.3594,.9766,.3594,1.4414,0,1.7295-1.0312,2.5947-3.0938,2.5947-.666,0-1.2656-.1064-1.7988-.3193-.0645,.1191-.0977,.2207-.0977,.3037,0,.5039,.3164,.7578,.9473,.7627h1.376c.3916,0,.708,.0059,.9492,.0156s.5361,.0371,.8857,.082c.3496,.0459,.6289,.1191,.8398,.2217,.2109,.1035,.4219,.2393,.6328,.4102,.2109,.1699,.3652,.3936,.4639,.6689s.1475,.6035,.1475,.9844c0,.9072-.4727,1.5449-1.416,1.9121-.5684,.2197-1.376,.3291-2.4258,.3291-.2324,0-.4238-.0029-.5762-.0078s-.375-.0176-.666-.0381c-.292-.0205-.5469-.0625-.7637-.126s-.4453-.1426-.6885-.2373-.4561-.2275-.6426-.3975c-.1855-.1719-.3301-.3662-.4336-.5859-.1289-.2549-.1934-.5283-.1934-.8184Zm1.6104-.0303c0,.7314,.7715,1.0967,2.3145,1.0967h.0625c.5752,0,1.0371-.0615,1.3867-.1855,.3486-.123,.5723-.2549,.6719-.3936s.1494-.291,.1494-.457c0-.2979-.1719-.501-.5156-.6094-.3447-.1084-.8906-.1631-1.6396-.1631h-1.5361c-.4385,0-.7109,.1084-.8174,.3262-.0508,.1006-.0762,.2295-.0762,.3857Zm.7471-5.5957c0,.4355,.0693,.7646,.209,.9873s.4404,.334,.9014,.334c.4668,0,.7773-.0986,.9316-.2959s.2324-.5391,.2324-1.0254v-.25c0-.4453-.0723-.7764-.2168-.9941s-.4404-.3262-.8867-.3262c-.4561,0-.7656,.0986-.9277,.2959s-.2432,.5391-.2432,1.0244v.25Z"/><path class="cls-4" d="M72.8893,50.7188c0-1.2715,.3398-2.2197,1.0205-2.8457s1.6133-.9385,2.7979-.9385c.6582,0,1.2207,.0967,1.6875,.29,.4648,.1934,.8213,.459,1.0684,.7969,.2461,.3389,.4209,.6963,.5254,1.0723,.1045,.377,.1562,.7939,.1562,1.251,0,.4482-.2363,.6719-.709,.6719h-4.4561c.04,1.582,.7002,2.373,1.9795,2.373,.4805,0,.9189-.0752,1.3164-.2256,.3984-.1494,.7236-.3164,.9766-.5,.2539-.1826,.4023-.2793,.4473-.2891h.0684l.084,.0303c.0547,.0508,.0986,.168,.1289,.3506,.0312,.1836,.0469,.3535,.0469,.5117l.0166,.2285c0,.1377-.0889,.252-.2656,.3438-.8486,.457-1.7979,.6885-2.8506,.6943-1.3223,0-2.3262-.3232-3.0117-.9697-.6855-.6455-1.0273-1.5938-1.0273-2.8457Zm2.1055-.7168h3.2285c-.0312-.6055-.1504-1.0771-.3584-1.416-.208-.3379-.5938-.5068-1.1572-.5068-1.0146,0-1.5859,.6406-1.7129,1.9229Z"/><path class="cls-4" d="M81.3434,53.6865v-5.8594c0-.2998,.0654-.4922,.1943-.5762,.1299-.084,.3047-.126,.5234-.126h.5176c.2803,0,.4893,.0654,.627,.1963,.0703,.0811,.1113,.1641,.1211,.249,.0107,.0859,.0205,.3223,.0312,.709,.249-.3418,.5508-.6152,.9043-.8193,.3535-.2031,.6309-.3271,.835-.3701,.2041-.042,.3838-.0635,.542-.0635h.0156c.1367,0,.2227,.0264,.2588,.0791s.0537,.1416,.0537,.2676v.8613c0,.1162-.0254,.209-.0762,.2793-.0615,.0508-.1992,.0908-.4121,.1191-.2139,.0273-.4043,.0674-.5723,.1182-.3564,.1279-.6641,.3213-.9238,.5811-.2598,.2607-.4268,.5615-.5039,.9033-.0293,.1377-.0449,.3359-.0449,.5967v2.7461c0,.2197-.0156,.3623-.0459,.4287-.0303,.0654-.1094,.1523-.2373,.2598-.127,.0615-.2715,.0918-.4336,.0918h-.6719c-.2793,0-.4668-.0625-.5605-.1865-.0947-.125-.1416-.2861-.1416-.4854Z"/></g></g><g><rect class="cls-1" x="186.7289" y="5.4646" width="108.6038" height="74.9592" rx="10" ry="10"/><g><path class="cls-4" d="M219.0914,38.9688v-9.3926c0-.498,.2188-.7471,.6562-.7471h3.7539c.6152,0,1.165,.0352,1.6484,.1064s.9824,.2217,1.499,.4502,.9463,.5391,1.2891,.9307c.3438,.3916,.625,.9287,.8438,1.6104s.3281,1.4873,.3281,2.418c0,.9668-.1348,1.7998-.4043,2.499s-.5908,1.2266-.9619,1.5801-.835,.6318-1.3926,.835c-.5566,.2031-1.0225,.3232-1.3955,.3584-.374,.0361-.8027,.0537-1.2861,.0537h-3.8535c-.2285,0-.4062-.0469-.5332-.1416-.1279-.0938-.1914-.2803-.1914-.5605Zm2.1748-.6406h1.7324c.5078,0,.9307-.0176,1.2666-.0537,.335-.0352,.709-.1523,1.1211-.3506s.7422-.4805,.9922-.8467c.3555-.5391,.541-1.3457,.5566-2.4189v-.1758c0-.498-.0127-.9043-.0381-1.2168s-.0977-.6807-.2178-1.1025c-.1191-.4219-.293-.7578-.5225-1.0068-.2285-.25-.5645-.4707-1.0068-.6641s-.9766-.2998-1.6025-.3203h-2.2656l-.0156,.4502v7.7061Z"/><path class="cls-4" d="M230.5445,36.0312c0-1.2715,.3398-2.2197,1.0205-2.8457,.6797-.626,1.6123-.9385,2.7979-.9385,.6582,0,1.2207,.0967,1.6865,.29s.8223,.459,1.0684,.7969c.2461,.3389,.4209,.6963,.5254,1.0723,.1045,.377,.1572,.7939,.1572,1.251,0,.4482-.2363,.6719-.71,.6719h-4.4561c.041,1.582,.7002,2.373,1.9795,2.373,.4805,0,.9189-.0752,1.3174-.2256,.3975-.1494,.7227-.3164,.9766-.5,.2529-.1826,.4023-.2793,.4473-.2891h.0674l.084,.0303c.0557,.0508,.0996,.168,.1299,.3506,.0312,.1836,.0459,.3535,.0459,.5117l.0176,.2285c0,.1377-.0889,.252-.2656,.3438-.8486,.457-1.7988,.6885-2.8506,.6943-1.3232,0-2.3271-.3232-3.0117-.9697-.6855-.6455-1.0273-1.5938-1.0273-2.8457Zm2.1055-.7168h3.2275c-.0303-.6055-.1494-1.0771-.3574-1.416-.209-.3379-.5938-.5068-1.1572-.5068-1.0156,0-1.5859,.6406-1.7129,1.9229Z"/><path class="cls-4" d="M238.9977,38.9541v-9.8428c0-.2295,.0498-.4072,.1484-.5342,.0996-.127,.2891-.1914,.5684-.1914h.6875c.457,0,.6865,.2295,.6865,.6885v3.8984c.6562-.4229,1.3809-.6338,2.1748-.6338,1.4863,0,2.417,.7051,2.793,2.1172,.1162,.4287,.1748,.9893,.1748,1.6816v.0459c0,.7109-.0977,1.3135-.293,1.8086s-.4619,.873-.7998,1.1348c-.3369,.2617-.6875,.4463-1.0508,.5557-.3623,.1094-.7627,.1641-1.1982,.1641-.6562,0-1.2471-.1982-1.7705-.5957-.0811,.168-.167,.2803-.2559,.3359s-.2324,.084-.4307,.084h-.7178c-.4775,0-.7168-.2393-.7168-.7168Zm2.1367-.8604l.0527,.0605c.041,.04,.0693,.0693,.084,.0879,.0156,.0176,.0459,.0469,.0918,.0869,.0459,.041,.085,.0713,.1182,.0918,.0332,.0195,.0752,.0488,.126,.0869s.1006,.0645,.1484,.0801c.0488,.0156,.1035,.0332,.1641,.0527,.0615,.0205,.1289,.0361,.2021,.0459,.0742,.0107,.1514,.0156,.2334,.0156,.3359,0,.6201-.0596,.8545-.1787,.2334-.1191,.4053-.251,.5146-.3955s.1943-.3555,.2559-.6318c.0605-.2764,.0957-.4941,.1025-.6543,.0078-.1602,.0117-.3916,.0117-.6963v-.1211c0-.3096-.0059-.5557-.0186-.7383s-.0449-.4043-.0957-.666c-.0508-.2607-.1289-.4609-.2324-.6006-.1045-.1396-.2607-.2637-.4697-.373-.208-.1084-.458-.1631-.748-.1631-.4883,0-.9531,.1826-1.3955,.5479v4.0625Z"/><path class="cls-4" d="M247.7408,37.4961v-4.2949c0-.458,.2295-.6875,.6875-.6875h.7168c.2285,0,.4004,.0479,.5146,.1416,.1152,.0938,.1768,.1758,.1875,.2441,.0098,.0684,.0205,.1738,.0303,.3164v4.1582c0,.041-.0029,.1035-.0078,.1875s-.0078,.1455-.0078,.1865c0,.458,.0576,.7627,.1719,.916,.1143,.1523,.3906,.2285,.8281,.2285,.417,0,.7949-.1533,1.1328-.4619,.3389-.3076,.5078-.8379,.5078-1.5908v-3.5098c0-.1572,.0059-.2754,.0186-.3545s.0293-.1338,.0498-.1641,.0664-.084,.1377-.1602c.1182-.0918,.2969-.1377,.5361-.1377h.6895c.46,0,.6943,.2188,.7041,.6562v5.8291c0,.4482-.2344,.6719-.7041,.6719h-.7354c-.4287,0-.6436-.2285-.6436-.6865-.3555,.3457-.7109,.5762-1.0635,.6904-.3545,.1143-.7695,.1719-1.248,.1719-.458,0-.8516-.0498-1.1826-.1494-.3311-.0986-.5791-.2168-.7441-.3545s-.2949-.3232-.3887-.5566c-.0947-.2344-.1494-.4375-.1641-.6104-.0156-.1729-.0234-.3994-.0234-.6797Z"/><path class="cls-4" d="M255.9508,40.6797c0-.6523,.2998-1.1338,.9004-1.4463-.2852-.4014-.4277-.8086-.4277-1.2207,0-.4443,.1484-.8789,.4434-1.3027l-.0166-.0312c-.4219-.4775-.6328-1.0576-.6328-1.7383,0-.3008,.04-.584,.1191-.8496s.2217-.5391,.4268-.8223c.2041-.2832,.5322-.5088,.9824-.6777,.4512-.168,1.001-.252,1.6514-.252h.0459c.4199,0,.7783,.0342,1.0752,.1025s.5176,.1348,.6611,.1982c.1426,.0635,.2354,.0957,.2764,.0957,.0293,0,.1387-.0322,.3301-.0957,.1904-.0635,.4424-.1299,.7539-.1982s.6123-.1025,.9023-.1025c.1475,0,.2422,.04,.2822,.1191,.041,.0801,.0869,.2744,.1377,.584,.0098,.082,.0225,.1494,.0381,.2002,.0098,.2012-.0791,.3018-.2666,.3018-.0205,0-.0781-.0078-.1719-.0225-.0947-.0156-.2227-.0283-.3857-.0381-.1621-.0107-.3379-.0156-.5264-.0156l-.4043,.0156c.2393,.4951,.3594,.9766,.3594,1.4414,0,1.7295-1.0312,2.5947-3.0938,2.5947-.666,0-1.2656-.1064-1.7988-.3193-.0654,.1191-.0967,.2207-.0967,.3037,0,.5039,.3145,.7578,.9453,.7627h1.377c.3916,0,.708,.0059,.9492,.0156s.5361,.0371,.8857,.082c.3486,.0459,.6289,.1191,.8398,.2217,.2109,.1035,.4219,.2393,.6338,.4102,.2109,.1699,.3652,.3936,.4629,.6689s.1475,.6035,.1475,.9844c0,.9072-.4727,1.5449-1.416,1.9121-.5674,.2197-1.376,.3291-2.4258,.3291-.2324,0-.4248-.0029-.5771-.0078-.1514-.0049-.374-.0176-.665-.0381-.292-.0205-.5459-.0625-.7627-.126s-.4473-.1426-.6895-.2373-.457-.2275-.6426-.3975c-.1855-.1719-.3301-.3662-.4336-.5859-.1289-.2549-.1934-.5283-.1934-.8184Zm1.6094-.0303c0,.7314,.7725,1.0967,2.3164,1.0967h.0605c.5762,0,1.0381-.0615,1.3877-.1855,.3486-.123,.5732-.2549,.6719-.3936,.0996-.1387,.1494-.291,.1494-.457,0-.2979-.1719-.501-.5156-.6094s-.8906-.1631-1.6396-.1631h-1.5361c-.4385,0-.7109,.1084-.8174,.3262-.0518,.1006-.0771,.2295-.0771,.3857Zm.748-5.5957c0,.4355,.0693,.7646,.209,.9873s.4404,.334,.9014,.334c.4668,0,.7764-.0986,.9316-.2959,.1543-.1973,.2314-.5391,.2314-1.0254v-.25c0-.4453-.0723-.7764-.2168-.9941s-.4395-.3262-.8857-.3262c-.4561,0-.7656,.0986-.9277,.2959s-.2432,.5391-.2432,1.0244v.25Z"/><path class="cls-4" d="M213.9215,54.4346v-9.293c0-.458,.2363-.6865,.71-.6865h1.2744c.4268,0,.7344,.1445,.9229,.4346,.0811,.1377,.6133,1.4111,1.5947,3.8223s1.5391,3.8359,1.6709,4.2734c.1016-.377,1.1289-2.9502,3.082-7.7217,.082-.1885,.1465-.3232,.1953-.4043,.0479-.082,.1475-.1689,.2969-.2637,.1504-.0938,.3447-.1406,.584-.1406h1.3887c.4678,0,.7041,.2393,.71,.7168v9.377c0,.2393-.0469,.4238-.1416,.5537-.0938,.1299-.2881,.1943-.584,.1943h-.4951c-.1787,0-.3193-.0225-.4238-.0684s-.1738-.1211-.21-.2256c-.0352-.1045-.0557-.1855-.0605-.2441-.0059-.0586-.0078-.1484-.0078-.2705v-7.6455c0-.0508-.0029-.123-.0078-.2178-.0049-.0938-.0078-.166-.0078-.2168-.1016,.4775-1.1191,3.0488-3.0518,7.7139-.1475,.3555-.2988,.583-.4541,.6826s-.3672,.1484-.6367,.1484h-.3135c-.1367,0-.2529-.0068-.3467-.0225-.0947-.0156-.1816-.0518-.2637-.1104-.0811-.0586-.1455-.1084-.1943-.1494-.0479-.04-.1055-.1328-.1719-.2783-.0654-.1445-.1201-.2646-.1641-.3584-.043-.0938-.1113-.2646-.2061-.5117-.0938-.2461-.1768-.4512-.248-.6133l-1.625-4.0215c-.5186-1.3633-.8164-2.1895-.8926-2.4795v8.1719c0,.4775-.2344,.7168-.7021,.7168h-.5107c-.1787,0-.3193-.0225-.4238-.0684s-.1748-.1211-.2139-.2256c-.0381-.1045-.0596-.1875-.0645-.252-.0049-.0635-.0078-.1689-.0078-.3164Z"/><path class="cls-4" d="M228.2437,51.7949c0-.748,.1016-1.3877,.3047-1.9189s.4824-.9385,.8379-1.2207,.7305-.4834,1.124-.6035c.3936-.1191,.8291-.1787,1.3066-.1787,.2695,0,.5068,.0049,.7129,.0146,.2061,.0107,.4561,.0449,.751,.1035s.5518,.1396,.7705,.2441,.4482,.2559,.6895,.4541c.2422,.1982,.4404,.4326,.5947,.7021,.1553,.2695,.2822,.6152,.3818,1.0371,.0986,.4229,.1484,.8984,.1484,1.4268,0,2.4062-1.2656,3.6113-3.7959,3.6172-2.5508-.0059-3.8262-1.2314-3.8262-3.6777Zm2.1357,.1602c.0107,.2695,.0205,.4717,.0312,.6064,.0098,.1348,.0469,.3311,.1104,.5879s.1484,.4502,.2529,.5791c.1045,.1299,.2656,.25,.4854,.3594,.2188,.1094,.4854,.1641,.7988,.1641s.5801-.0547,.7988-.1641c.2197-.1094,.3838-.2354,.4941-.3779,.1094-.1426,.1943-.3359,.2559-.5801,.0605-.2441,.0967-.4512,.1064-.6221,.0107-.1699,.0156-.3877,.0156-.6523v-.541c0-.2188-.0049-.3828-.0156-.4922-.0098-.1094-.0273-.2734-.0527-.4922s-.0752-.3906-.1494-.5156c-.0742-.124-.1709-.2578-.291-.4004-.1191-.1426-.2783-.2441-.4775-.3047-.1992-.0615-.4336-.0918-.7031-.0918-.3213,0-.5947,.0566-.8184,.1719-.2246,.1143-.3887,.2412-.4932,.3809-.1045,.1406-.1865,.3486-.2451,.626s-.0908,.4912-.0957,.6406c-.0049,.1504-.0078,.3809-.0078,.6904v.4277Z"/><path class="cls-4" d="M237.2926,54.5947v-5.8291c0-.1982,.042-.3545,.126-.4697,.084-.1143,.1689-.1816,.2559-.2021,.0869-.0195,.1934-.0303,.3203-.0303h.626c.1016,0,.1816,.0049,.2402,.0156,.0586,.0098,.1318,.0332,.2217,.0684,.0889,.0361,.1533,.1035,.1943,.2021,.04,.0996,.0605,.2275,.0605,.3857v.3125c.7188-.7168,1.5645-1.0781,2.5371-1.083,.377,0,.7031,.0342,.9785,.1025s.4941,.1729,.6572,.3125c.1631,.1406,.2939,.2764,.3936,.4082,.0996,.1328,.167,.3154,.2021,.5498,.0361,.2344,.0586,.4209,.0693,.5605,.0098,.1406,.0146,.335,.0146,.584v4.1279c0,.458-.2246,.6865-.6738,.6865h-.7344c-.2812,0-.4727-.0596-.5752-.1797-.1016-.1191-.1523-.2881-.1523-.5068v-4.2803c0-.1582-.0029-.2783-.0078-.3623s-.0234-.1885-.0537-.3135c-.0303-.124-.0762-.2207-.1367-.29-.0615-.0684-.1533-.1279-.2754-.1787s-.2695-.0762-.4424-.0762c-.4375,0-.792,.1318-1.0645,.3965-.2715,.2646-.4541,.5547-.5449,.8701-.0615,.2285-.0947,.5078-.0996,.8389v3.25c0,.0205-.0029,.0498-.0078,.0879s-.0205,.1074-.0459,.2061c-.0254,.0996-.0586,.1846-.0986,.2559-.041,.0713-.1113,.1357-.21,.1943-.0996,.0586-.2178,.0879-.3545,.0879h-.6875c-.4883,0-.7324-.2344-.7324-.7021Z"/><path class="cls-4" d="M246.0064,45.5156v-.7783c0-.168,.0176-.3037,.0527-.4082,.0361-.1045,.1006-.1787,.1943-.2217,.0947-.043,.1641-.0674,.21-.0723s.127-.0127,.2441-.0234h.7939c.2188,0,.3936,.0498,.5264,.1494,.1318,.0986,.1982,.291,.1982,.5762v.8086c0,.0811-.0088,.1562-.0264,.2246-.0186,.0693-.04,.126-.0654,.1719s-.0557,.0879-.0908,.126c-.0361,.0381-.0732,.0645-.1113,.0801s-.0801,.0303-.126,.0459c-.0449,.0156-.0811,.0225-.1064,.0225s-.0586,.0059-.0996,.0156h-.877c-.2188,0-.3926-.0498-.5225-.1484-.1299-.0996-.1943-.2891-.1943-.5684Zm.0605,9.0029v-5.6768c0-.4678,.2285-.7021,.6865-.7021h.6406c.2295,0,.4033,.042,.5234,.126,.1191,.084,.1895,.1729,.21,.2676,.0195,.0938,.0303,.2227,.0303,.3848v5.6768c0,.4678-.2295,.7021-.6865,.7021h-.7178c-.2188,0-.3828-.0518-.4922-.1562s-.1689-.1973-.1787-.2783c-.0107-.082-.0156-.1963-.0156-.3438Z"/><path class="cls-4" d="M249.4693,48.7041c0-.376,.2227-.5645,.667-.5645h.3633v-1.3428c0-.4678,.2559-.7021,.7666-.7021h.5654c.4756,0,.7129,.2344,.7129,.7021v1.3428h1.4062c.1855,0,.335,.042,.4473,.126,.1133,.084,.1816,.1621,.207,.2334s.0371,.1436,.0371,.2168c0,.0742-.0117,.1475-.0371,.2217-.0254,.0732-.0918,.1494-.1992,.2285s-.249,.1182-.4248,.1182h-1.4365v3.1211c0,.0508-.0029,.1182-.0078,.2021s-.0078,.1514-.0078,.2021c0,.5547,.0518,.9336,.1562,1.1367s.2715,.3057,.5,.3057c.29,0,.5928-.0918,.9082-.2754,.3154-.1826,.4834-.2744,.5039-.2744,.0703,0,.1357,.0723,.1943,.2178,.0586,.1445,.1025,.291,.1338,.4385l.0303,.2061c0,.1982-.3262,.3994-.9766,.6025-.6514,.2031-1.2764,.3057-1.876,.3057-.7744,0-1.2754-.377-1.502-1.1299-.0928-.3096-.1426-.7832-.1475-1.4189v-3.6396h-.3184c-.4434,0-.666-.1934-.666-.5801Z"/><path class="cls-4" d="M255.8863,51.7949c0-.748,.1016-1.3877,.3047-1.9189s.4824-.9385,.8379-1.2207,.7305-.4834,1.124-.6035c.3936-.1191,.8291-.1787,1.3066-.1787,.2695,0,.5068,.0049,.7129,.0146,.2061,.0107,.4561,.0449,.751,.1035s.5518,.1396,.7705,.2441,.4482,.2559,.6895,.4541c.2422,.1982,.4404,.4326,.5947,.7021,.1553,.2695,.2822,.6152,.3818,1.0371,.0986,.4229,.1484,.8984,.1484,1.4268,0,2.4062-1.2656,3.6113-3.7959,3.6172-2.5508-.0059-3.8262-1.2314-3.8262-3.6777Zm2.1357,.1602c.0107,.2695,.0205,.4717,.0312,.6064,.0098,.1348,.0469,.3311,.1104,.5879s.1484,.4502,.2529,.5791c.1045,.1299,.2656,.25,.4854,.3594,.2188,.1094,.4854,.1641,.7988,.1641s.5801-.0547,.7988-.1641c.2197-.1094,.3838-.2354,.4941-.3779,.1094-.1426,.1943-.3359,.2559-.5801,.0605-.2441,.0967-.4512,.1064-.6221,.0107-.1699,.0156-.3877,.0156-.6523v-.541c0-.2188-.0049-.3828-.0156-.4922-.0098-.1094-.0273-.2734-.0527-.4922s-.0752-.3906-.1494-.5156c-.0742-.124-.1709-.2578-.291-.4004-.1191-.1426-.2783-.2441-.4775-.3047-.1992-.0615-.4336-.0918-.7031-.0918-.3213,0-.5947,.0566-.8184,.1719-.2246,.1143-.3887,.2412-.4932,.3809-.1045,.1406-.1865,.3486-.2451,.626s-.0908,.4912-.0957,.6406c-.0049,.1504-.0078,.3809-.0078,.6904v.4277Z"/><path class="cls-4" d="M264.4703,54.625v-5.8594c0-.2998,.0645-.4922,.1943-.5762s.3037-.126,.5225-.126h.5195c.2793,0,.4883,.0654,.625,.1963,.0713,.0811,.1123,.1641,.1221,.249,.0107,.0859,.0205,.3223,.0312,.709,.249-.3418,.5498-.6152,.9043-.8193,.3525-.2031,.6318-.3271,.835-.3701,.2031-.042,.3838-.0635,.542-.0635h.0146c.1377,0,.2246,.0264,.2598,.0791s.0537,.1416,.0537,.2676v.8613c0,.1162-.0254,.209-.0762,.2793-.0615,.0508-.1992,.0908-.4121,.1191-.2139,.0273-.4043,.0674-.5723,.1182-.3564,.1279-.6641,.3213-.9238,.5811-.2588,.2607-.4268,.5615-.5029,.9033-.0312,.1377-.0459,.3359-.0459,.5967v2.7461c0,.2197-.0156,.3623-.0459,.4287-.0303,.0654-.1094,.1523-.2363,.2598-.1279,.0615-.2725,.0918-.4355,.0918h-.6709c-.2803,0-.4668-.0625-.5605-.1865-.0947-.125-.1416-.2861-.1416-.4854Z"/></g></g><g><line class="cls-2" x1="97.8238" y1="25.5337" x2="194.1541" y2="25.5337"/><polygon class="cls-4" points="193.4247 28.0269 197.7423 25.5337 193.4247 23.0405 193.4247 28.0269"/></g><g><line class="cls-2" x1="101.412" y1="60.7091" x2="197.7423" y2="60.7091"/><polygon class="cls-4" points="102.1415 63.2023 97.8238 60.7091 102.1415 58.2159 102.1415 63.2023"/></g></g><line class="cls-3" x1="148.2314" y1="1" x2="148.2272" y2="85"/></g></svg>