<?xml version="1.0" encoding="UTF-8"?><svg id="Layer_2" xmlns="http://www.w3.org/2000/svg" viewBox="0 0 657.0681 235"><defs><style>.cls-1,.cls-2{fill:#fff;}.cls-3{fill:#404041;}.cls-4{fill:#b3b3b3;}.cls-4,.cls-5,.cls-6,.cls-2,.cls-7,.cls-8,.cls-9{stroke-miterlimit:10;}.cls-4,.cls-6,.cls-2,.cls-8{stroke:#404041;}.cls-5{stroke:#fff;stroke-width:2px;}.cls-5,.cls-7,.cls-9{fill:none;}.cls-6{fill:#e2e4e6;}.cls-10{fill:#f6a6b0;}.cls-7{stroke-width:8px;}.cls-7,.cls-9{stroke:#f6a6b0;}.cls-8{fill:gray;}.cls-9{stroke-width:5px;}</style></defs><g id="slide_1"><g><g><path class="cls-6" d="M400.4181,202.0914h255.9447s2.2784,18-30.3792,18h-197.8445c-23.5439,0-28.1008-18-27.721-18Z"/><g><rect class="cls-1" x="497.3721" y="204.2064" width="62.7959" height="7.7695"/><path class="cls-3" d="M559.6684,204.7068v6.7692h-61.7964v-6.7692h61.7964m1-1h-63.7964v8.7692h63.7964v-8.7692h0Z"/></g></g><rect class="cls-6" x="400.8665" y="11.5914" width="255.7016" height="185.2305" rx="10" ry="10"/><rect class="cls-2" x="406.225" y="15.4731" width="244.9846" height="177.4671" rx="10" ry="10"/></g><g><rect class="cls-4" x="75.6736" y=".5" width="132" height="234" rx="20.8337" ry="20.8337"/><rect class="cls-6" x="94.6736" y="19.5" width="94" height="94" rx="20.8337" ry="20.8337"/><rect class="cls-6" x="115.0614" y="202.5" width="52.6122" height="22.6519" rx="8.4945" ry="8.4945"/><rect class="cls-6" x="78.2528" y="193.851" width="7.4208" height="7.649" rx="2.85" ry="2.85"/><rect class="cls-6" x="78.2528" y="173.851" width="7.4208" height="7.649" rx="2.85" ry="2.85"/><rect class="cls-6" x="78.2528" y="153.851" width="7.4208" height="7.649" rx="2.85" ry="2.85"/><rect class="cls-6" x="78.2528" y="133.851" width="7.4208" height="7.649" rx="2.85" ry="2.85"/><rect class="cls-6" x="78.2528" y="113.851" width="7.4208" height="7.649" rx="2.85" ry="2.85"/><rect class="cls-6" x="78.2528" y="93.851" width="7.4208" height="7.649" rx="2.85" ry="2.85"/><rect class="cls-6" x="78.2528" y="73.851" width="7.4208" height="7.649" rx="2.85" ry="2.85"/><rect class="cls-6" x="78.2528" y="53.851" width="7.4208" height="7.649" rx="2.85" ry="2.85"/><rect class="cls-6" x="78.2528" y="33.851" width="7.4208" height="7.649" rx="2.85" ry="2.85"/><rect class="cls-6" x="198.2528" y="193.851" width="7.4208" height="7.649" rx="2.85" ry="2.85"/><rect class="cls-6" x="198.2528" y="173.851" width="7.4208" height="7.649" rx="2.85" ry="2.85"/><rect class="cls-6" x="198.2528" y="153.851" width="7.4208" height="7.649" rx="2.85" ry="2.85"/><rect class="cls-6" x="198.2528" y="133.851" width="7.4208" height="7.649" rx="2.85" ry="2.85"/><rect class="cls-6" x="198.2528" y="113.851" width="7.4208" height="7.649" rx="2.85" ry="2.85"/><rect class="cls-6" x="198.2528" y="93.851" width="7.4208" height="7.649" rx="2.85" ry="2.85"/><rect class="cls-6" x="198.2528" y="73.851" width="7.4208" height="7.649" rx="2.85" ry="2.85"/><rect class="cls-6" x="198.2528" y="53.851" width="7.4208" height="7.649" rx="2.85" ry="2.85"/><rect class="cls-6" x="198.2528" y="33.851" width="7.4208" height="7.649" rx="2.85" ry="2.85"/><g><g><rect class="cls-6" x="101.6736" y="162.9883" width="24.9722" height="12.0556" rx="3.9187" ry="3.9187" transform="translate(228.3195 338.0322) rotate(-180)"/><rect class="cls-8" x="107.4098" y="162.0463" width="28.1696" height="14.6389" rx="5.5697" ry="5.5697" transform="translate(-47.8712 290.8603) rotate(-90)"/></g><rect class="cls-6" x="124.0625" y="176.7661" width="8.6111" height="3.2712" rx=".6689" ry=".6689" transform="translate(256.7361 356.8034) rotate(-180)"/><rect class="cls-6" x="124.0625" y="168.155" width="8.6111" height="3.2712" rx=".6689" ry=".6689" transform="translate(256.7361 339.5812) rotate(-180)"/><rect class="cls-6" x="124.0625" y="159.5439" width="8.6111" height="3.2712" rx=".6689" ry=".6689" transform="translate(256.7361 322.359) rotate(-180)"/></g><rect class="cls-8" x="144.9715" y="150.7978" width="37.7171" height="37.6873" rx="5.5697" ry="5.5697" transform="translate(-5.8115 333.4715) rotate(-90)"/><rect class="cls-8" x="106.5581" y="114.5847" width="23.8566" height="37.6873" rx="5.5697" ry="5.5697" transform="translate(-14.9419 251.9147) rotate(-90)"/></g><g><line class="cls-7" x1="223.8651" y1="106.7092" x2="377.3582" y2="106.7092"/><polygon class="cls-10" points="357.4772 131.2482 353.3844 126.8537 375.0555 106.715 353.3844 86.5705 357.4772 82.1759 383.8651 106.715 357.4772 131.2482"/></g><g><path class="cls-10" d="M30.0434,54.1791c-3.6095,0-6.5462,2.9364-6.5462,6.5462s2.9364,6.5462,6.5462,6.5462,6.5462-2.9364,6.5462-6.5462-2.9367-6.5462-6.5462-6.5462Zm0,9.5041c-1.631,0-2.9582-1.3269-2.9582-2.9582s1.3269-2.9582,2.9582-2.9582,2.9582,1.3269,2.9582,2.9582-1.3272,2.9582-2.9582,2.9582Z"/><path class="cls-10" d="M30.0434,23.798c-11.6231,0-22.7032,5.5885-29.6593,14.9539-.5806,.7816-.5062,1.9034,.2455,2.5223,.337,.2778,.7412,.4114,1.1416,.4114,.5498,0,1.0925-.2521,1.4444-.728,6.2789-8.498,16.3083-13.5716,26.8281-13.5716,9.9583,0,19.4767,4.5465,25.7909,12.2402,.6022,.734,1.6789,.8578,2.4422,.2936h0c.8306-.6138,.9675-1.7961,.3116-2.5938-6.9923-8.5037-17.5246-13.528-28.5449-13.528Z"/><path class="cls-10" d="M30.0434,33.7303c-9.2093,0-17.7258,4.6245-22.7818,12.3709-.5415,.8297-.308,1.9414,.5217,2.4828,.8291,.5418,1.9414,.3083,2.4828-.5217,4.391-6.7274,11.7845-10.744,19.7772-10.744s15.3862,4.0164,19.7772,10.744c.3441,.5271,.9182,.8136,1.5039,.8136,.3364,0,.6763-.0942,.9789-.2918,.8297-.5415,1.0632-1.6531,.5217-2.4828-5.056-7.7463-13.5728-12.3709-22.7818-12.3709Z"/><path class="cls-10" d="M30.0434,43.0673c-6.7779,0-13.0816,3.9473-16.0515,10.0402-.3609,.7218-.1943,1.6011,.4054,2.1411,.7361,.6626,1.8705,.6031,2.5337-.1334,.1399-.1555,.2476-.3289,.3238-.5116,2.3988-4.832,7.407-7.9484,12.7886-7.9484,5.3756,0,10.3793,3.1101,12.7889,7.9487,.0759,.1827,.1836,.3555,.3235,.511,.3543,.3935,.8432,.5938,1.3341,.5938,.4276,0,.8566-.1519,1.1996-.4604,.595-.5355,.7642-1.4053,.4135-2.1247-2.978-6.109-9.2817-10.0564-16.0595-10.0564Z"/></g><path class="cls-10" d="M288.9248,72.536c0-2.124,.2402-3.8018,.7207-5.0312s1.2578-2.2949,2.335-3.1973,1.8955-1.7275,2.4561-2.4775c.5596-.749,.8398-1.5742,.8398-2.4766,0-2.1973-.9463-3.2959-2.8369-3.2959-.873,0-1.5791,.3203-2.1172,.96-.5391,.6406-.8223,1.5059-.8516,2.5977h-7.377c.0293-2.9102,.9453-5.1768,2.75-6.7988,1.8037-1.6221,4.3359-2.4336,7.5957-2.4336,3.2441,0,5.7578,.749,7.54,2.248s2.6738,3.6309,2.6738,6.3945c0,1.208-.2402,2.3066-.7197,3.2959-.4805,.9902-1.252,2.001-2.3135,3.0342l-2.5107,2.335c-.7129,.6846-1.208,1.3857-1.4834,2.1064-.2773,.7197-.4297,1.6338-.459,2.7393h-6.2422Zm-.8945,6.6348c0-1.0762,.3887-1.9609,1.168-2.6514,.7783-.6914,1.749-1.0371,2.9131-1.0371s2.1357,.3457,2.9141,1.0371c.7783,.6904,1.168,1.5752,1.168,2.6514,0,1.0771-.3896,1.9609-1.168,2.6523-.7783,.6904-1.75,1.0361-2.9141,1.0361s-2.1348-.3457-2.9131-1.0361c-.7793-.6914-1.168-1.5752-1.168-2.6523Z"/><g><path class="cls-10" d="M10.5938,131.597H5.3203v-23.0342h5.2734v23.0342Z"/><path class="cls-10" d="M19.4463,133.5746h-3.7793l9.4219-25.0117h3.7793l-9.4219,25.0117Z"/><path class="cls-10" d="M55.3516,120.6019c0,2.2676-.4453,4.2559-1.3359,5.9639-.8906,1.709-2.165,3.0273-3.8232,3.9551-1.6582,.9287-3.5596,1.3926-5.7041,1.3926-2.1211,0-4.0137-.459-5.6777-1.376-1.6641-.918-2.9531-2.2285-3.8672-3.9316s-1.377-3.6621-1.3887-5.877v-1.1396c0-2.2676,.4541-4.2637,1.3623-5.9873,.9082-1.7246,2.1914-3.0488,3.8496-3.9717s3.5537-1.3838,5.6865-1.3838,4.0283,.4609,5.6865,1.3838,2.9414,2.2471,3.8496,3.9717c.9082,1.7236,1.3623,3.7148,1.3623,5.9717v1.0283Zm-5.3438-1.0439c0-2.415-.4805-4.25-1.4414-5.5059-.9609-1.2549-2.332-1.8828-4.1133-1.8828-1.7695,0-3.1348,.6201-4.0957,1.8594s-1.4473,3.0557-1.459,5.4502v1.123c0,2.3516,.4805,4.1768,1.4414,5.4736,.9609,1.2979,2.3438,1.9463,4.1484,1.9463,1.7695,0,3.1289-.625,4.0781-1.875s1.4297-3.0713,1.4414-5.4658v-1.123Z"/></g><g><path class="cls-10" d="M26.6182,201.7816c0-.8672,.3135-1.5791,.9404-2.1357s1.4092-.835,2.3467-.835,1.7197,.2783,2.3467,.835,.9404,1.2686,.9404,2.1357-.3135,1.5791-.9404,2.1357-1.4092,.835-2.3467,.835-1.7197-.2783-2.3467-.835-.9404-1.2686-.9404-2.1357Zm5.7305-5.4492h-4.7988l-.7559-17.4902h6.3105l-.7559,17.4902Z"/><circle class="cls-9" cx="29.3652" cy="191.2091" r="20"/></g><g><rect class="cls-10" x="491.3471" y="48.1746" width="75.623" height="107.5949" rx="7.335" ry="7.335"/><polygon class="cls-1" points="578.8833 51.9785 562.8416 35.1488 551.713 46.8241 567.7547 63.6537 578.8833 51.9785"/><polygon class="cls-5" points="552.0421 64.0265 576.4968 63.1634 551.7008 38.3586 552.0421 64.0265"/><line class="cls-5" x1="497.0447" y1="75.8884" x2="560.2365" y2="75.8884"/><line class="cls-5" x1="497.0447" y1="86.7566" x2="560.2365" y2="86.7566"/><line class="cls-5" x1="497.0447" y1="97.6248" x2="560.2365" y2="97.6248"/><line class="cls-5" x1="497.0447" y1="108.4929" x2="560.2365" y2="108.4929"/><line class="cls-5" x1="497.0447" y1="119.3611" x2="560.2365" y2="119.3611"/><line class="cls-5" x1="497.0447" y1="130.2293" x2="560.2365" y2="130.2293"/><line class="cls-5" x1="497.0447" y1="141.0975" x2="560.2365" y2="141.0975"/></g></g></svg>