<?xml version="1.0" encoding="UTF-8"?><svg id="slide_1" xmlns="http://www.w3.org/2000/svg" viewBox="0 0 800 426"><defs><style>.cls-1{fill:#fff;}.cls-2{fill:#e2e4e6;}.cls-3{fill:#232323;}.cls-4{stroke:#fff;stroke-width:2px;}.cls-4,.cls-5,.cls-6,.cls-7{stroke-miterlimit:10;}.cls-4,.cls-5,.cls-7{fill:none;}.cls-8{fill:#f6a6b0;}.cls-5{stroke-width:8px;}.cls-5,.cls-7{stroke:#f6a6b0;}.cls-6{stroke:#606060;stroke-width:7px;}.cls-6,.cls-9{fill:#606060;}.cls-7{stroke-width:5px;}</style></defs><g><g><path class="cls-6" d="M463.8676,294.355h255.9896s2.2788,27.9962-30.3845,27.9962h-197.8792c-23.548,0-28.1057-27.9962-27.7259-27.9962Z"/><rect class="cls-1" x="560.3385" y="296.8675" width="63.8075" height="13.6392"/></g><path class="cls-9" d="M698.2427,132.3512c8.1616,0,14.7781,6.6164,14.7781,14.7782v114.0139c0,8.1617-6.6165,14.7781-14.7781,14.7781h-212.0009c-8.1617,0-14.7781-6.6164-14.7781-14.7781v-114.0139c0-8.1618,6.6163-14.7782,14.7781-14.7782h212.0009m0-10h-212.0009c-13.6627,0-24.7781,11.1154-24.7781,24.7782v114.0139c0,13.6627,11.1154,24.7781,24.7781,24.7781h212.0009c13.6627,0,24.7781-11.1154,24.7781-24.7781v-114.0139c0-13.6627-11.1154-24.7782-24.7781-24.7782h0Z"/></g><rect class="cls-9" x="138.8464" y="106.3512" width="132" height="234" rx="20.8337" ry="20.8337"/><rect class="cls-2" x="157.8464" y="125.3512" width="94" height="94" rx="20.8337" ry="20.8337"/><rect class="cls-2" x="178.2342" y="308.3512" width="52.6122" height="22.6519" rx="8.4945" ry="8.4945"/><rect class="cls-2" x="141.4256" y="299.7022" width="7.4208" height="7.649" rx="2.85" ry="2.85"/><rect class="cls-2" x="141.4256" y="279.7022" width="7.4208" height="7.649" rx="2.85" ry="2.85"/><rect class="cls-2" x="141.4256" y="259.7022" width="7.4208" height="7.649" rx="2.85" ry="2.85"/><rect class="cls-2" x="141.4256" y="239.7022" width="7.4208" height="7.649" rx="2.85" ry="2.85"/><rect class="cls-2" x="141.4256" y="219.7022" width="7.4208" height="7.649" rx="2.85" ry="2.85"/><rect class="cls-2" x="141.4256" y="199.7022" width="7.4208" height="7.649" rx="2.85" ry="2.85"/><rect class="cls-2" x="141.4256" y="179.7022" width="7.4208" height="7.649" rx="2.85" ry="2.85"/><rect class="cls-2" x="141.4256" y="159.7022" width="7.4208" height="7.649" rx="2.85" ry="2.85"/><rect class="cls-2" x="141.4256" y="139.7022" width="7.4208" height="7.649" rx="2.85" ry="2.85"/><rect class="cls-2" x="261.4256" y="299.7022" width="7.4208" height="7.649" rx="2.85" ry="2.85"/><rect class="cls-2" x="261.4256" y="279.7022" width="7.4208" height="7.649" rx="2.85" ry="2.85"/><rect class="cls-2" x="261.4256" y="259.7022" width="7.4208" height="7.649" rx="2.85" ry="2.85"/><rect class="cls-2" x="261.4256" y="239.7022" width="7.4208" height="7.649" rx="2.85" ry="2.85"/><rect class="cls-2" x="261.4256" y="219.7022" width="7.4208" height="7.649" rx="2.85" ry="2.85"/><rect class="cls-2" x="261.4256" y="199.7022" width="7.4208" height="7.649" rx="2.85" ry="2.85"/><rect class="cls-2" x="261.4256" y="179.7022" width="7.4208" height="7.649" rx="2.85" ry="2.85"/><rect class="cls-2" x="261.4256" y="159.7022" width="7.4208" height="7.649" rx="2.85" ry="2.85"/><rect class="cls-2" x="261.4256" y="139.7022" width="7.4208" height="7.649" rx="2.85" ry="2.85"/><g><g><rect class="cls-2" x="164.8464" y="268.8395" width="24.9722" height="12.0556" rx="3.9187" ry="3.9187" transform="translate(354.6651 549.7346) rotate(-180)"/><rect class="cls-3" x="170.5826" y="267.8975" width="28.1696" height="14.6389" rx="5.5697" ry="5.5697" transform="translate(-90.5495 459.8843) rotate(-90)"/></g><rect class="cls-2" x="187.2353" y="282.6173" width="8.6111" height="3.2712" rx=".6689" ry=".6689" transform="translate(383.0818 568.5058) rotate(-180)"/><rect class="cls-2" x="187.2353" y="274.0062" width="8.6111" height="3.2712" rx=".6689" ry=".6689" transform="translate(383.0818 551.2836) rotate(-180)"/><rect class="cls-2" x="187.2353" y="265.3951" width="8.6111" height="3.2712" rx=".6689" ry=".6689" transform="translate(383.0818 534.0614) rotate(-180)"/></g><rect class="cls-3" x="208.1443" y="256.649" width="37.7171" height="37.6873" rx="5.5697" ry="5.5697" transform="translate(-48.4899 502.4955) rotate(-90)"/><rect class="cls-3" x="169.7309" y="220.4359" width="23.8566" height="37.6873" rx="5.5697" ry="5.5697" transform="translate(-57.6203 420.9387) rotate(-90)"/><g><line class="cls-5" x1="287.038" y1="212.5604" x2="440.531" y2="212.5604"/><polygon class="cls-8" points="420.65 237.0994 416.5573 232.7049 438.2283 212.5662 416.5573 192.4217 420.65 188.0271 447.038 212.5662 420.65 237.0994"/></g><g><path class="cls-8" d="M93.2162,160.0303c-3.6095,0-6.5462,2.9364-6.5462,6.5462s2.9364,6.5462,6.5462,6.5462,6.5462-2.9364,6.5462-6.5462-2.9367-6.5462-6.5462-6.5462Zm0,9.5041c-1.631,0-2.9582-1.3269-2.9582-2.9582s1.3269-2.9582,2.9582-2.9582,2.9582,1.3269,2.9582,2.9582-1.3272,2.9582-2.9582,2.9582Z"/><path class="cls-8" d="M93.2162,129.6493c-11.6231,0-22.7032,5.5885-29.6593,14.9539-.5806,.7816-.5062,1.9034,.2455,2.5223,.337,.2778,.7412,.4114,1.1416,.4114,.5498,0,1.0925-.2521,1.4444-.728,6.2789-8.498,16.3083-13.5716,26.8281-13.5716,9.9583,0,19.4767,4.5465,25.7909,12.2402,.6022,.734,1.6789,.8578,2.4422,.2936h0c.8306-.6138,.9675-1.7961,.3116-2.5938-6.9923-8.5037-17.5246-13.528-28.5449-13.528Z"/><path class="cls-8" d="M93.2162,139.5815c-9.2093,0-17.7258,4.6245-22.7818,12.3709-.5415,.8297-.308,1.9414,.5217,2.4828,.8291,.5418,1.9414,.3083,2.4828-.5217,4.391-6.7274,11.7845-10.744,19.7772-10.744s15.3862,4.0164,19.7772,10.744c.3441,.5271,.9182,.8136,1.5039,.8136,.3364,0,.6763-.0942,.9789-.2918,.8297-.5415,1.0632-1.6531,.5217-2.4828-5.056-7.7463-13.5728-12.3709-22.7818-12.3709Z"/><path class="cls-8" d="M93.2162,148.9185c-6.7779,0-13.0816,3.9473-16.0515,10.0402-.3609,.7218-.1943,1.6011,.4054,2.1411,.7361,.6626,1.8705,.6031,2.5337-.1334,.1399-.1555,.2476-.3289,.3238-.5116,2.3988-4.832,7.407-7.9484,12.7886-7.9484,5.3756,0,10.3793,3.1101,12.7889,7.9487,.0759,.1827,.1836,.3555,.3235,.511,.3543,.3935,.8432,.5938,1.3341,.5938,.4276,0,.8566-.1519,1.1996-.4604,.595-.5355,.7642-1.4053,.4135-2.1247-2.978-6.109-9.2817-10.0564-16.0595-10.0564Z"/></g><path class="cls-8" d="M352.0977,178.3872c0-2.124,.2402-3.8018,.7207-5.0312s1.2578-2.2949,2.335-3.1973,1.8955-1.7275,2.4561-2.4775c.5596-.749,.8398-1.5742,.8398-2.4766,0-2.1973-.9463-3.2959-2.8369-3.2959-.873,0-1.5791,.3203-2.1172,.96-.5391,.6406-.8223,1.5059-.8516,2.5977h-7.377c.0293-2.9102,.9453-5.1768,2.75-6.7988,1.8037-1.6221,4.3359-2.4336,7.5957-2.4336,3.2441,0,5.7578,.749,7.54,2.248s2.6738,3.6309,2.6738,6.3945c0,1.208-.2402,2.3066-.7197,3.2959-.4805,.9902-1.252,2.001-2.3135,3.0342l-2.5107,2.335c-.7129,.6846-1.208,1.3857-1.4834,2.1064-.2773,.7197-.4297,1.6338-.459,2.7393h-6.2422Zm-.8945,6.6348c0-1.0762,.3887-1.9609,1.168-2.6514,.7783-.6914,1.749-1.0371,2.9131-1.0371s2.1357,.3457,2.9141,1.0371c.7783,.6904,1.168,1.5752,1.168,2.6514,0,1.0771-.3896,1.9609-1.168,2.6523-.7783,.6904-1.75,1.0361-2.9141,1.0361s-2.1348-.3457-2.9131-1.0361c-.7793-.6914-1.168-1.5752-1.168-2.6523Z"/><g><path class="cls-8" d="M73.7666,237.4482h-5.2734v-23.0342h5.2734v23.0342Z"/><path class="cls-8" d="M82.6191,239.4258h-3.7793l9.4219-25.0117h3.7793l-9.4219,25.0117Z"/><path class="cls-8" d="M118.5244,226.4531c0,2.2676-.4453,4.2559-1.3359,5.9639-.8906,1.709-2.165,3.0273-3.8232,3.9551-1.6582,.9287-3.5596,1.3926-5.7041,1.3926-2.1211,0-4.0137-.459-5.6777-1.376-1.6641-.918-2.9531-2.2285-3.8672-3.9316s-1.377-3.6621-1.3887-5.877v-1.1396c0-2.2676,.4541-4.2637,1.3623-5.9873,.9082-1.7246,2.1914-3.0488,3.8496-3.9717s3.5537-1.3838,5.6865-1.3838,4.0283,.4609,5.6865,1.3838,2.9414,2.2471,3.8496,3.9717c.9082,1.7236,1.3623,3.7148,1.3623,5.9717v1.0283Zm-5.3438-1.0439c0-2.415-.4805-4.25-1.4414-5.5059-.9609-1.2549-2.332-1.8828-4.1133-1.8828-1.7695,0-3.1348,.6201-4.0957,1.8594s-1.4473,3.0557-1.459,5.4502v1.123c0,2.3516,.4805,4.1768,1.4414,5.4736,.9609,1.2979,2.3438,1.9463,4.1484,1.9463,1.7695,0,3.1289-.625,4.0781-1.875s1.4297-3.0713,1.4414-5.4658v-1.123Z"/></g><g><path class="cls-8" d="M89.791,307.6328c0-.8672,.3135-1.5791,.9404-2.1357s1.4092-.835,2.3467-.835,1.7197,.2783,2.3467,.835,.9404,1.2686,.9404,2.1357-.3135,1.5791-.9404,2.1357-1.4092,.835-2.3467,.835-1.7197-.2783-2.3467-.835-.9404-1.2686-.9404-2.1357Zm5.7305-5.4492h-4.7988l-.7559-17.4902h6.3105l-.7559,17.4902Z"/><circle class="cls-7" cx="92.538" cy="297.0604" r="20"/></g><g><rect class="cls-8" x="566.538" y="167.0095" width="54.858" height="78.0509" rx="7.335" ry="7.335"/><polygon class="cls-1" points="630.038 169.7688 618.4012 157.5604 610.3283 166.0298 621.9652 178.2383 630.038 169.7688"/><polygon class="cls-4" points="610.567 178.5087 628.3068 177.8825 610.3194 159.8888 610.567 178.5087"/><line class="cls-4" x1="570.6712" y1="187.1135" x2="616.5114" y2="187.1135"/><line class="cls-4" x1="570.6712" y1="194.9974" x2="616.5114" y2="194.9974"/><line class="cls-4" x1="570.6712" y1="202.8813" x2="616.5114" y2="202.8813"/><line class="cls-4" x1="570.6712" y1="210.7653" x2="616.5114" y2="210.7653"/><line class="cls-4" x1="570.6712" y1="218.6492" x2="616.5114" y2="218.6492"/><line class="cls-4" x1="570.6712" y1="226.5331" x2="616.5114" y2="226.5331"/><line class="cls-4" x1="570.6712" y1="234.417" x2="616.5114" y2="234.417"/></g></svg>