<?xml version="1.0" encoding="UTF-8"?><svg id="Layer_18" xmlns="http://www.w3.org/2000/svg" viewBox="0 0 800 426"><defs><style>.cls-1{fill:#fff;}.cls-2{font-size:44.7px;letter-spacing:.15em;}.cls-2,.cls-3,.cls-4,.cls-5,.cls-6,.cls-7,.cls-8,.cls-9{stroke-miterlimit:10;}.cls-2,.cls-3,.cls-4,.cls-5,.cls-9{stroke:#e85e71;}.cls-2,.cls-3,.cls-4,.cls-10{fill:#e85e71;}.cls-2,.cls-3,.cls-7{font-family:Roboto;}.cls-3,.cls-7{font-size:36px;letter-spacing:.08em;}.cls-11{fill:#e2e4e6;}.cls-12{fill:#232323;}.cls-5{stroke-width:5px;}.cls-5,.cls-6,.cls-9{fill:none;}.cls-6{stroke:#fff;stroke-width:2px;}.cls-7{fill:#f6a6b0;stroke:#f6a6b0;}.cls-8{stroke:#606060;stroke-width:7px;}.cls-8,.cls-13{fill:#606060;}.cls-9{stroke-width:8px;}</style></defs><g><g><path class="cls-8" d="M437.83,283.79h255.99s2.28,28-30.38,28h-197.88c-23.55,0-28.11-28-27.73-28Z"/><rect class="cls-1" x="534.3" y="286.31" width="63.81" height="13.64"/></g><path class="cls-13" d="M672.2,121.79c8.16,0,14.78,6.62,14.78,14.78v114.01c0,8.16-6.62,14.78-14.78,14.78h-212c-8.16,0-14.78-6.62-14.78-14.78v-114.01c0-8.16,6.62-14.78,14.78-14.78h212m0-10h-212c-13.66,0-24.78,11.12-24.78,24.78v114.01c0,13.66,11.12,24.78,24.78,24.78h212c13.66,0,24.78-11.12,24.78-24.78v-114.01c0-13.66-11.12-24.78-24.78-24.78h0Z"/></g><rect class="cls-13" x="112.81" y="95.79" width="132" height="234" rx="20.83" ry="20.83"/><rect class="cls-11" x="131.81" y="114.79" width="94" height="94" rx="20.83" ry="20.83"/><rect class="cls-11" x="152.2" y="297.79" width="52.61" height="22.65" rx="8.49" ry="8.49"/><rect class="cls-11" x="115.39" y="289.14" width="7.42" height="7.65" rx="2.85" ry="2.85"/><rect class="cls-11" x="115.39" y="269.14" width="7.42" height="7.65" rx="2.85" ry="2.85"/><rect class="cls-11" x="115.39" y="249.14" width="7.42" height="7.65" rx="2.85" ry="2.85"/><rect class="cls-11" x="115.39" y="229.14" width="7.42" height="7.65" rx="2.85" ry="2.85"/><rect class="cls-11" x="115.39" y="209.14" width="7.42" height="7.65" rx="2.85" ry="2.85"/><rect class="cls-11" x="115.39" y="189.14" width="7.42" height="7.65" rx="2.85" ry="2.85"/><rect class="cls-11" x="115.39" y="169.14" width="7.42" height="7.65" rx="2.85" ry="2.85"/><rect class="cls-11" x="115.39" y="149.14" width="7.42" height="7.65" rx="2.85" ry="2.85"/><rect class="cls-11" x="115.39" y="129.14" width="7.42" height="7.65" rx="2.85" ry="2.85"/><rect class="cls-11" x="235.39" y="289.14" width="7.42" height="7.65" rx="2.85" ry="2.85"/><rect class="cls-11" x="235.39" y="269.14" width="7.42" height="7.65" rx="2.85" ry="2.85"/><rect class="cls-11" x="235.39" y="249.14" width="7.42" height="7.65" rx="2.85" ry="2.85"/><rect class="cls-11" x="235.39" y="229.14" width="7.42" height="7.65" rx="2.85" ry="2.85"/><rect class="cls-11" x="235.39" y="209.14" width="7.42" height="7.65" rx="2.85" ry="2.85"/><rect class="cls-11" x="235.39" y="189.14" width="7.42" height="7.65" rx="2.85" ry="2.85"/><rect class="cls-11" x="235.39" y="169.14" width="7.42" height="7.65" rx="2.85" ry="2.85"/><rect class="cls-11" x="235.39" y="149.14" width="7.42" height="7.65" rx="2.85" ry="2.85"/><rect class="cls-11" x="235.39" y="129.14" width="7.42" height="7.65" rx="2.85" ry="2.85"/><g><g><rect class="cls-11" x="138.81" y="258.28" width="24.97" height="12.06" rx="3.92" ry="3.92" transform="translate(302.59 528.61) rotate(-180)"/><rect class="cls-12" x="144.54" y="257.34" width="28.17" height="14.64" rx="5.57" ry="5.57" transform="translate(-106.03 423.29) rotate(-90)"/></g><rect class="cls-11" x="161.2" y="272.06" width="8.61" height="3.27" rx=".67" ry=".67" transform="translate(331.01 547.39) rotate(-180)"/><rect class="cls-11" x="161.2" y="263.45" width="8.61" height="3.27" rx=".67" ry=".67" transform="translate(331.01 530.16) rotate(-180)"/><rect class="cls-11" x="161.2" y="254.83" width="8.61" height="3.27" rx=".67" ry=".67" transform="translate(331.01 512.94) rotate(-180)"/></g><rect class="cls-12" x="182.11" y="246.09" width="37.72" height="37.69" rx="5.57" ry="5.57" transform="translate(-63.97 465.9) rotate(-90)"/><rect class="cls-12" x="143.69" y="209.88" width="23.86" height="37.69" rx="5.57" ry="5.57" transform="translate(-73.1 384.34) rotate(-90)"/><g><line class="cls-9" x1="261" y1="202" x2="414.49" y2="202"/><polygon class="cls-10" points="394.61 226.54 390.52 222.14 412.19 202.01 390.52 181.86 394.61 177.47 421 202.01 394.61 226.54"/></g><g><path class="cls-4" d="M67.18,149.47c-3.61,0-6.55,2.94-6.55,6.55s2.94,6.55,6.55,6.55,6.55-2.94,6.55-6.55-2.94-6.55-6.55-6.55Zm0,9.5c-1.63,0-2.96-1.33-2.96-2.96s1.33-2.96,2.96-2.96,2.96,1.33,2.96,2.96-1.33,2.96-2.96,2.96Z"/><path class="cls-4" d="M67.18,119.09c-11.62,0-22.7,5.59-29.66,14.95-.58,.78-.51,1.9,.25,2.52,.34,.28,.74,.41,1.14,.41,.55,0,1.09-.25,1.44-.73,6.28-8.5,16.31-13.57,26.83-13.57,9.96,0,19.48,4.55,25.79,12.24,.6,.73,1.68,.86,2.44,.29h0c.83-.61,.97-1.8,.31-2.59-6.99-8.5-17.52-13.53-28.54-13.53Z"/><path class="cls-4" d="M67.18,129.02c-9.21,0-17.73,4.62-22.78,12.37-.54,.83-.31,1.94,.52,2.48,.83,.54,1.94,.31,2.48-.52,4.39-6.73,11.78-10.74,19.78-10.74s15.39,4.02,19.78,10.74c.34,.53,.92,.81,1.5,.81,.34,0,.68-.09,.98-.29,.83-.54,1.06-1.65,.52-2.48-5.06-7.75-13.57-12.37-22.78-12.37Z"/><path class="cls-4" d="M67.18,138.36c-6.78,0-13.08,3.95-16.05,10.04-.36,.72-.19,1.6,.41,2.14,.74,.66,1.87,.6,2.53-.13,.14-.16,.25-.33,.32-.51,2.4-4.83,7.41-7.95,12.79-7.95s10.38,3.11,12.79,7.95c.08,.18,.18,.36,.32,.51,.35,.39,.84,.59,1.33,.59,.43,0,.86-.15,1.2-.46,.59-.54,.76-1.41,.41-2.12-2.98-6.11-9.28-10.06-16.06-10.06Z"/></g><text class="cls-2" transform="translate(318.55 177.89)"><tspan x="0" y="0">?</tspan></text><text class="cls-7" transform="translate(40.06 226.89) scale(1 .9)"><tspan x="0" y="0">I/O</tspan></text><g><text class="cls-3" transform="translate(61.94 299.73)"><tspan x="0" y="0">!</tspan></text><circle class="cls-5" cx="66.5" cy="286.5" r="20"/></g><text class="cls-3" transform="translate(40.06 226.89) scale(1 .9)"><tspan x="0" y="0">I/O</tspan></text><g><rect class="cls-4" x="540.5" y="156.45" width="54.86" height="78.05" rx="7.33" ry="7.33"/><polygon class="cls-1" points="604 159.21 592.36 147 584.29 155.47 595.93 167.68 604 159.21"/><polygon class="cls-6" points="584.53 167.95 602.27 167.32 584.28 149.33 584.53 167.95"/><line class="cls-6" x1="544.63" y1="176.55" x2="590.47" y2="176.55"/><line class="cls-6" x1="544.63" y1="184.44" x2="590.47" y2="184.44"/><line class="cls-6" x1="544.63" y1="192.32" x2="590.47" y2="192.32"/><line class="cls-6" x1="544.63" y1="200.2" x2="590.47" y2="200.2"/><line class="cls-6" x1="544.63" y1="208.09" x2="590.47" y2="208.09"/><line class="cls-6" x1="544.63" y1="215.97" x2="590.47" y2="215.97"/><line class="cls-6" x1="544.63" y1="223.86" x2="590.47" y2="223.86"/></g></svg>
