<?xml version="1.0" encoding="UTF-8"?>
<svg id="Layer_18" xmlns="http://www.w3.org/2000/svg" viewBox="0 0 800 426">
    <defs>
        <style>
            .cls-1{fill:#fff;}.cls-2{fill:#bdbdbd;}.cls-3{fill:#232323;}.cls-4{fill:#E85E71;}.cls-5{fill:none;stroke:#E85E71;stroke-width:8px;}.cls-5,.cls-6{stroke-miterlimit:10;}.cls-6{stroke:#606060;stroke-width:7px;}.cls-6,.cls-7{fill:#606060;}
        </style>
    </defs>
    <g>
        <g>
            <path class="cls-6" d="M437.83,283.79h255.99s2.28,28-30.38,28h-197.88c-23.55,0-28.11-28-27.73-28Z"/>
            <rect class="cls-1" x="534.3" y="286.31" width="63.81" height="13.64"/>
        </g>
        <path class="cls-7"
              d="M672.2,121.79c8.16,0,14.78,6.62,14.78,14.78v114.01c0,8.16-6.62,14.78-14.78,14.78h-212c-8.16,0-14.78-6.62-14.78-14.78v-114.01c0-8.16,6.62-14.78,14.78-14.78h212m0-10h-212c-13.66,0-24.78,11.12-24.78,24.78v114.01c0,13.66,11.12,24.78,24.78,24.78h212c13.66,0,24.78-11.12,24.78-24.78v-114.01c0-13.66-11.12-24.78-24.78-24.78h0Z"/>
    </g>
    <rect class="cls-7" x="112.81" y="95.79" width="132" height="234" rx="20.83" ry="20.83"/>
    <rect class="cls-2" x="131.81" y="114.79" width="94" height="94" rx="20.83" ry="20.83"/>
    <rect class="cls-2" x="152.2" y="297.79" width="52.61" height="22.65" rx="8.49" ry="8.49"/>
    <rect class="cls-2" x="115.39" y="289.14" width="7.42" height="7.65" rx="2.85" ry="2.85"/>
    <rect class="cls-2" x="115.39" y="269.14" width="7.42" height="7.65" rx="2.85" ry="2.85"/>
    <rect class="cls-2" x="115.39" y="249.14" width="7.42" height="7.65" rx="2.85" ry="2.85"/>
    <rect class="cls-2" x="115.39" y="229.14" width="7.42" height="7.65" rx="2.85" ry="2.85"/>
    <rect class="cls-2" x="115.39" y="209.14" width="7.42" height="7.65" rx="2.85" ry="2.85"/>
    <rect class="cls-2" x="115.39" y="189.14" width="7.42" height="7.65" rx="2.85" ry="2.85"/>
    <rect class="cls-2" x="115.39" y="169.14" width="7.42" height="7.65" rx="2.85" ry="2.85"/>
    <rect class="cls-2" x="115.39" y="149.14" width="7.42" height="7.65" rx="2.85" ry="2.85"/>
    <rect class="cls-2" x="115.39" y="129.14" width="7.42" height="7.65" rx="2.85" ry="2.85"/>
    <rect class="cls-2" x="235.39" y="289.14" width="7.42" height="7.65" rx="2.85" ry="2.85"/>
    <rect class="cls-2" x="235.39" y="269.14" width="7.42" height="7.65" rx="2.85" ry="2.85"/>
    <rect class="cls-2" x="235.39" y="249.14" width="7.42" height="7.65" rx="2.85" ry="2.85"/>
    <rect class="cls-2" x="235.39" y="229.14" width="7.42" height="7.65" rx="2.85" ry="2.85"/>
    <rect class="cls-2" x="235.39" y="209.14" width="7.42" height="7.65" rx="2.85" ry="2.85"/>
    <rect class="cls-2" x="235.39" y="189.14" width="7.42" height="7.65" rx="2.85" ry="2.85"/>
    <rect class="cls-2" x="235.39" y="169.14" width="7.42" height="7.65" rx="2.85" ry="2.85"/>
    <rect class="cls-2" x="235.39" y="149.14" width="7.42" height="7.65" rx="2.85" ry="2.85"/>
    <rect class="cls-2" x="235.39" y="129.14" width="7.42" height="7.65" rx="2.85" ry="2.85"/>
    <g>
        <g>
            <rect class="cls-2" x="138.81" y="258.28" width="24.97" height="12.06" rx="3.92" ry="3.92"
                  transform="translate(302.59 528.61) rotate(-180)"/>
            <rect class="cls-3" x="144.54" y="257.34" width="28.17" height="14.64" rx="5.57" ry="5.57"
                  transform="translate(-106.03 423.29) rotate(-90)"/>
        </g>
        <rect class="cls-2" x="161.2" y="272.06" width="8.61" height="3.27" rx=".67" ry=".67"
              transform="translate(331.01 547.39) rotate(-180)"/>
        <rect class="cls-2" x="161.2" y="263.45" width="8.61" height="3.27" rx=".67" ry=".67"
              transform="translate(331.01 530.16) rotate(-180)"/>
        <rect class="cls-2" x="161.2" y="254.83" width="8.61" height="3.27" rx=".67" ry=".67"
              transform="translate(331.01 512.94) rotate(-180)"/>
    </g>
    <rect class="cls-3" x="182.11" y="246.09" width="37.72" height="37.69" rx="5.57" ry="5.57"
          transform="translate(-63.97 465.9) rotate(-90)"/>
    <rect class="cls-3" x="143.69" y="209.88" width="23.86" height="37.69" rx="5.57" ry="5.57"
          transform="translate(-73.1 384.34) rotate(-90)"/>
    <g>
        <line class="cls-5" x1="261" y1="202" x2="414.49" y2="202"/>
        <polygon class="cls-4"
                 points="394.61 226.54 390.52 222.14 412.19 202.01 390.52 181.86 394.61 177.47 421 202.01 394.61 226.54"/>
    </g>
    <g>
        <path class="cls-4"
              d="M162.35,152.55l-3.4-3.37c-.63-.63-1.65-.61-2.29,.02-.63,.63-.63,1.66,0,2.3l3.87,3.64c.3,.3,.72,.23,1.14,.23h3.35c-2.2,2.76-3.64,6.07-4.18,9.38h-5.44c-1.04,0-1.85,1.12-1.48,2.17,.23,.68,.9,1.11,1.62,1.11h5.06c.03,2.76,.73,5.53,1.95,7.74h-1.2c-.42,0-.83,.25-1.13,.55l-3.82,3.95c-.62,.64-.62,1.69,0,2.32,.31,.32,.72,.48,1.13,.48s.82-.16,1.13-.48l3.35-3.43h2.58c3.14,3.97,8.07,6.54,13.06,6.83v-33.45h-15.31Z"/>
        <path class="cls-4"
              d="M202.23,164.74h-5.56c-.68-3.31-2.45-6.62-4.51-9.38h3.72c.43,0,.84,.08,1.14-.23l3.87-3.76c.63-.63,.63-1.59,0-2.22-.63-.63-1.66-.64-2.29,0l-3.4,3.4h-15.31v33.44c5-.33,9.84-3.42,12.97-6.82h2.66l3.35,3.43c.31,.32,.72,.48,1.13,.48s.81-.16,1.13-.47c.62-.63,.62-1.67,0-2.3l-3.82-3.99c-.3-.31-.71-.55-1.13-.55h-1.18c1.23-2.21,1.94-4.98,1.97-7.74h5.1c.72,0,1.39-.43,1.62-1.11,.37-1.06-.44-2.17-1.48-2.17h0Z"/>
        <path class="cls-4"
              d="M168.5,150.32h20.64c0-3.89-1.93-6.81-4.82-8.64l2.08-2.04c.62-.62,.62-1.61,0-2.23-.62-.62-1.63-.61-2.26,.01l-3.01,3.02c-.74-.17-1.51-.27-2.31-.27s-1.57,.1-2.31,.27l-3.01-3.01c-.62-.62-1.63-.62-2.26,0-.62,.62-.62,1.63,0,2.26l2.08,2c-2.89,1.83-4.82,4.75-4.82,8.64h0Z"/>
    </g>
    <g>
        <path class="cls-4"
              d="M549.35,187.55l-3.4-3.37c-.63-.63-1.65-.61-2.29,.02-.63,.63-.63,1.66,0,2.3l3.87,3.64c.3,.3,.72,.23,1.14,.23h3.35c-2.2,2.76-3.64,6.07-4.18,9.38h-5.44c-1.04,0-1.85,1.12-1.48,2.17,.23,.68,.9,1.11,1.62,1.11h5.06c.03,2.76,.73,5.53,1.95,7.74h-1.2c-.42,0-.83,.25-1.13,.55l-3.82,3.95c-.62,.64-.62,1.69,0,2.32,.31,.32,.72,.48,1.13,.48s.82-.16,1.13-.48l3.35-3.43h2.58c3.14,3.97,8.07,6.54,13.06,6.83v-33.45h-15.31Z"/>
        <path class="cls-4"
              d="M589.23,199.74h-5.56c-.68-3.31-2.45-6.62-4.51-9.38h3.72c.43,0,.84,.08,1.14-.23l3.87-3.76c.63-.63,.63-1.59,0-2.22-.63-.63-1.66-.64-2.29,0l-3.4,3.4h-15.31v33.44c5-.33,9.84-3.42,12.97-6.82h2.66l3.35,3.43c.31,.32,.72,.48,1.13,.48s.81-.16,1.13-.47c.62-.63,.62-1.67,0-2.3l-3.82-3.99c-.3-.31-.71-.55-1.13-.55h-1.18c1.23-2.21,1.94-4.98,1.97-7.74h5.1c.72,0,1.39-.43,1.62-1.11,.37-1.06-.44-2.17-1.48-2.17h0Z"/>
        <path class="cls-4"
              d="M555.5,185.32h20.64c0-3.89-1.93-6.81-4.82-8.64l2.08-2.04c.62-.62,.62-1.61,0-2.23-.62-.62-1.63-.61-2.26,.01l-3.01,3.02c-.74-.17-1.51-.27-2.31-.27s-1.57,.1-2.31,.27l-3.01-3.01c-.62-.62-1.63-.62-2.26,0-.62,.62-.62,1.63,0,2.26l2.08,2c-2.89,1.83-4.82,4.75-4.82,8.64h0Z"/>
    </g>
</svg>
