<?xml version="1.0" encoding="UTF-8"?><svg id="Layer_11" xmlns="http://www.w3.org/2000/svg" viewBox="0 0 800 426"><defs><style>.cls-1{fill:#fff;}.cls-2{fill:#e2e4e6;}.cls-3{fill:#232323;}.cls-4{fill:#f6a6b0;}.cls-5{fill:none;stroke:#f6a6b0;stroke-width:8px;}.cls-5,.cls-6{stroke-miterlimit:10;}.cls-6{stroke:#606060;stroke-width:7px;}.cls-6,.cls-7{fill:#606060;}</style></defs><g><g><path class="cls-6" d="M462.8676,294.632h255.9896s2.2788,27.9962-30.3845,27.9962h-197.8792c-23.548,0-28.1057-27.9962-27.7259-27.9962Z"/><rect class="cls-1" x="559.3385" y="297.1445" width="63.8075" height="13.6392"/></g><path class="cls-7" d="M697.2427,132.6282c8.1616,0,14.7781,6.6164,14.7781,14.7781v114.0139c0,8.1618-6.6165,14.7782-14.7781,14.7782h-212.0007c-8.1619,0-14.7781-6.6164-14.7781-14.7782v-114.0139c0-8.1617,6.6162-14.7781,14.7781-14.7781h212.0007m0-10h-212.0007c-13.6626,0-24.7781,11.1154-24.7781,24.7781v114.0139c0,13.6627,11.1155,24.7782,24.7781,24.7782h212.0007c13.6626,0,24.7781-11.1154,24.7781-24.7782v-114.0139c0-13.6627-11.1155-24.7781-24.7781-24.7781h0Z"/></g><rect class="cls-7" x="137.8464" y="106.6282" width="132" height="234" rx="20.8337" ry="20.8337"/><rect class="cls-2" x="156.8464" y="125.6282" width="94" height="94" rx="20.8337" ry="20.8337"/><rect class="cls-2" x="177.2342" y="308.6282" width="52.6122" height="22.6519" rx="8.4945" ry="8.4945"/><rect class="cls-2" x="140.4256" y="299.9792" width="7.4208" height="7.649" rx="2.85" ry="2.85"/><rect class="cls-2" x="140.4256" y="279.9792" width="7.4208" height="7.649" rx="2.85" ry="2.85"/><rect class="cls-2" x="140.4256" y="259.9792" width="7.4208" height="7.649" rx="2.85" ry="2.85"/><rect class="cls-2" x="140.4256" y="239.9792" width="7.4208" height="7.649" rx="2.85" ry="2.85"/><rect class="cls-2" x="140.4256" y="219.9792" width="7.4208" height="7.649" rx="2.85" ry="2.85"/><rect class="cls-2" x="140.4256" y="199.9792" width="7.4208" height="7.649" rx="2.85" ry="2.85"/><rect class="cls-2" x="140.4256" y="179.9792" width="7.4208" height="7.649" rx="2.85" ry="2.85"/><rect class="cls-2" x="140.4256" y="159.9792" width="7.4208" height="7.649" rx="2.85" ry="2.85"/><rect class="cls-2" x="140.4256" y="139.9792" width="7.4208" height="7.649" rx="2.85" ry="2.85"/><rect class="cls-2" x="260.4256" y="299.9792" width="7.4208" height="7.649" rx="2.85" ry="2.85"/><rect class="cls-2" x="260.4256" y="279.9792" width="7.4208" height="7.649" rx="2.85" ry="2.85"/><rect class="cls-2" x="260.4256" y="259.9792" width="7.4208" height="7.649" rx="2.85" ry="2.85"/><rect class="cls-2" x="260.4256" y="239.9792" width="7.4208" height="7.649" rx="2.85" ry="2.85"/><rect class="cls-2" x="260.4256" y="219.9792" width="7.4208" height="7.649" rx="2.85" ry="2.85"/><rect class="cls-2" x="260.4256" y="199.9792" width="7.4208" height="7.649" rx="2.85" ry="2.85"/><rect class="cls-2" x="260.4256" y="179.9792" width="7.4208" height="7.649" rx="2.85" ry="2.85"/><rect class="cls-2" x="260.4256" y="159.9792" width="7.4208" height="7.649" rx="2.85" ry="2.85"/><rect class="cls-2" x="260.4256" y="139.9792" width="7.4208" height="7.649" rx="2.85" ry="2.85"/><g><g><rect class="cls-2" x="163.8464" y="269.1165" width="24.9722" height="12.0556" rx="3.9187" ry="3.9187" transform="translate(352.6651 550.2886) rotate(-180)"/><rect class="cls-3" x="169.5826" y="268.1745" width="28.1696" height="14.6389" rx="5.5697" ry="5.5697" transform="translate(-91.8265 459.1613) rotate(-90)"/></g><rect class="cls-2" x="186.2353" y="282.8943" width="8.6111" height="3.2712" rx=".6689" ry=".6689" transform="translate(381.0818 569.0598) rotate(-180)"/><rect class="cls-2" x="186.2353" y="274.2832" width="8.6111" height="3.2712" rx=".6689" ry=".6689" transform="translate(381.0818 551.8376) rotate(-180)"/><rect class="cls-2" x="186.2353" y="265.6721" width="8.6111" height="3.2712" rx=".6689" ry=".6689" transform="translate(381.0818 534.6154) rotate(-180)"/></g><rect class="cls-3" x="207.1443" y="256.926" width="37.7171" height="37.6873" rx="5.5697" ry="5.5697" transform="translate(-49.7669 501.7725) rotate(-90)"/><rect class="cls-3" x="168.7309" y="220.7129" width="23.8566" height="37.6873" rx="5.5697" ry="5.5697" transform="translate(-58.8973 420.2157) rotate(-90)"/><g><line class="cls-5" x1="286.0381" y1="212.8373" x2="439.531" y2="212.8373"/><polygon class="cls-4" points="419.6501 237.3764 415.5574 232.9819 437.2283 212.8432 415.5574 192.6986 419.6501 188.3041 446.0381 212.8432 419.6501 237.3764"/></g><g><path class="cls-4" d="M187.5642,163.784l-3.3976-3.3698c-.6314-.6328-1.6538-.6147-2.2866,.0158-.6319,.6305-.6337,1.664-.0037,2.2958l3.8721,3.6409c.3032,.3041,.7155,.2317,1.1449,.2317h3.353c-2.1989,2.7593-3.6428,6.0703-4.1767,9.3812l-5.4444,.0005c-1.0428,0-1.8475,1.1151-1.482,2.171,.2349,.6786,.9025,1.112,1.6206,1.112h5.0615c.0278,2.7642,.7268,5.5283,1.9471,7.7395h-1.1969c-.4237,0-.83,.2473-1.1296,.5535l-3.8198,3.9476c-.6221,.6363-.6207,1.6863,.0027,2.3212,.3119,.317,.7187,.4848,1.1264,.4848,.4086,0,.8181-.1575,1.1291-.4769l3.3535-3.4296h2.5757c3.1378,3.9677,8.0651,6.5432,13.0633,6.8326v-33.4518h-15.3128Z"/><path class="cls-4" d="M227.4387,175.9796h-5.5574c-.6841-3.3109-2.447-6.6219-4.5117-9.3812h3.7153c.4294,0,.8411,.0771,1.1446-.2274l3.8712-3.7584c.6299-.6327,.628-1.5935-.0037-2.2239-.6331-.6308-1.6553-.6364-2.286-.0037l-3.3973,3.3991h-15.3086v33.4392c4.9979-.3319,9.837-3.4194,12.9742-6.8201h2.6646l3.3531,3.4343c.3115,.3193,.7201,.4801,1.1291,.4801,.4077,0,.8149-.158,1.1264-.4745,.6234-.6349,.6248-1.6653,.0027-2.3015l-3.8198-3.9851c-.2991-.3067-.7059-.554-1.1291-.554h-1.1797c1.2348-2.211,1.9443-4.9753,1.9722-7.7395h5.1012c.7183,0,1.3861-.4335,1.6211-1.1123,.3656-1.0563-.4393-2.1717-1.4825-2.1717l.0002,.0006Z"/><path class="cls-4" d="M193.7147,161.5561h20.6351c0-3.8876-1.9289-6.8105-4.8244-8.6382l2.0824-2.0398c.623-.6225,.623-1.6115,0-2.235-.623-.6225-1.6321-.612-2.2559,.011l-3.0123,3.0177c-.743-.1699-1.5139-.2657-2.3087-.2657s-1.5657,.0994-2.3087,.2693l-3.0127-3.0118c-.623-.6225-1.6321-.6225-2.2559,0-.6234,.6225-.623,1.6335,0,2.2564l2.0824,1.9976c-2.8932,1.8282-4.8216,4.7506-4.8216,8.6382l.0004,.0002Z"/></g><g><path class="cls-4" d="M575.0965,203.9651l-3.3976-3.3698c-.6314-.6328-1.6538-.6147-2.2866,.0158-.6319,.6305-.6337,1.664-.0037,2.2958l3.8721,3.6409c.3032,.3041,.7155,.2317,1.1449,.2317h3.353c-2.1989,2.7593-3.6428,6.0703-4.1767,9.3812l-5.4444,.0005c-1.0428,0-1.8475,1.1151-1.482,2.171,.2349,.6786,.9025,1.112,1.6206,1.112h5.0615c.0278,2.7642,.7268,5.5283,1.9471,7.7395h-1.1969c-.4237,0-.83,.2473-1.1296,.5535l-3.8198,3.9476c-.6221,.6363-.6207,1.6863,.0027,2.3212,.3119,.317,.7187,.4848,1.1264,.4848,.4086,0,.8181-.1575,1.1291-.4769l3.3535-3.4296h2.5757c3.1378,3.9677,8.0651,6.5432,13.0633,6.8326v-33.4518h-15.3128Z"/><path class="cls-4" d="M614.971,216.1606h-5.5574c-.6841-3.3109-2.447-6.6219-4.5117-9.3812h3.7153c.4294,0,.8411,.0771,1.1446-.2274l3.8712-3.7584c.6299-.6327,.628-1.5935-.0037-2.2239-.6331-.6308-1.6553-.6364-2.286-.0037l-3.3973,3.3991h-15.3086v33.4392c4.9979-.3319,9.837-3.4194,12.9742-6.8201h2.6646l3.3531,3.4343c.3115,.3193,.7201,.4801,1.1291,.4801,.4077,0,.8149-.158,1.1264-.4745,.6234-.6349,.6248-1.6653,.0027-2.3015l-3.8198-3.9851c-.2991-.3067-.7059-.554-1.1291-.554h-1.1797c1.2348-2.211,1.9443-4.9753,1.9722-7.7395h5.1012c.7183,0,1.3861-.4335,1.6211-1.1123,.3656-1.0563-.4393-2.1717-1.4825-2.1717l.0002,.0006Z"/><path class="cls-4" d="M581.247,201.7371h20.6351c0-3.8876-1.9289-6.8105-4.8244-8.6382l2.0824-2.0398c.623-.6225,.623-1.6115,0-2.235-.623-.6225-1.6321-.612-2.2559,.011l-3.0123,3.0177c-.743-.1699-1.5139-.2657-2.3087-.2657s-1.5657,.0994-2.3087,.2693l-3.0127-3.0118c-.623-.6225-1.6321-.6225-2.2559,0-.6234,.6225-.623,1.6335,0,2.2564l2.0824,1.9976c-2.8932,1.8282-4.8216,4.7506-4.8216,8.6382l.0004,.0002Z"/></g></svg>