<?xml version="1.0" encoding="UTF-8"?><svg id="slide_9" xmlns="http://www.w3.org/2000/svg" viewBox="0 0 800 426"><defs><style>.cls-1{fill:#a7d4c5;}.cls-1,.cls-2,.cls-3,.cls-4,.cls-5,.cls-6,.cls-7,.cls-8,.cls-9{stroke:#404041;}.cls-1,.cls-2,.cls-3,.cls-4,.cls-5,.cls-6,.cls-8,.cls-9{stroke-miterlimit:10;}.cls-2{fill:#fff1a3;}.cls-3,.cls-4,.cls-7{fill:none;}.cls-10{fill:#404041;}.cls-4,.cls-7{stroke-linecap:round;stroke-width:2px;}.cls-5{fill:#e2e4e6;}.cls-6{fill:#fff;}.cls-7{stroke-dasharray:0 0 14 21;stroke-linejoin:round;}.cls-8{fill:#a7ddef;}.cls-9{fill:#f6a6b0;}</style></defs><g><line class="cls-7" x1="400.2374" y1="75.2493" x2="400.0002" y2="369.7498"/><g><path class="cls-10" d="M192.7842,71.6484v-12.7969h3.9375c1.125,0,2.1318,.2539,3.0195,.7598,.8877,.5078,1.5801,1.2285,2.0781,2.1621,.498,.9355,.7471,1.9971,.7471,3.1865v.5889c0,1.1895-.2441,2.2471-.7334,3.1729s-1.1797,1.6436-2.0703,2.1533-1.8955,.7676-3.0146,.7734h-3.9639Zm2.6367-10.6611v8.543h1.2744c1.0312,0,1.8193-.3369,2.3643-1.0107s.8232-1.6377,.835-2.8916v-.6768c0-1.3008-.2695-2.2861-.8086-2.957s-1.3271-1.0068-2.3643-1.0068h-1.3008Z"/><path class="cls-10" d="M210.1328,71.8242c-1.3945,0-2.5303-.4277-3.4062-1.2832s-1.3135-1.9951-1.3135-3.4189v-.2461c0-.9551,.1846-1.8086,.5537-2.5615s.8916-1.333,1.5684-1.7402,1.4492-.6113,2.3164-.6113c1.3008,0,2.3242,.4102,3.0713,1.2305s1.1211,1.9834,1.1211,3.4893v1.0371h-6.0557c.082,.6211,.3291,1.1191,.7422,1.4941s.9365,.5625,1.5693,.5625c.9785,0,1.7432-.3545,2.2939-1.0635l1.248,1.3975c-.3809,.5391-.8965,.96-1.5469,1.2607-.6504,.3018-1.3711,.4531-2.1621,.4531Zm-.29-7.8135c-.5039,0-.9131,.1709-1.2266,.5117-.3135,.3418-.5137,.8301-.6016,1.4658h3.5332v-.2031c-.0117-.5654-.1641-1.002-.457-1.3105-.293-.3096-.709-.4639-1.248-.4639Z"/><path class="cls-10" d="M220.3701,68.5459l1.7666-6.4072h2.6543l-3.208,9.5098h-2.4258l-3.208-9.5098h2.6543l1.7666,6.4072Z"/><path class="cls-10" d="M231.6104,71.8242c-1.3945,0-2.5303-.4277-3.4062-1.2832s-1.3135-1.9951-1.3135-3.4189v-.2461c0-.9551,.1846-1.8086,.5537-2.5615s.8916-1.333,1.5684-1.7402,1.4492-.6113,2.3164-.6113c1.3008,0,2.3242,.4102,3.0713,1.2305s1.1211,1.9834,1.1211,3.4893v1.0371h-6.0557c.082,.6211,.3291,1.1191,.7422,1.4941s.9365,.5625,1.5693,.5625c.9785,0,1.7432-.3545,2.2939-1.0635l1.248,1.3975c-.3809,.5391-.8965,.96-1.5469,1.2607-.6504,.3018-1.3711,.4531-2.1621,.4531Zm-.29-7.8135c-.5039,0-.9131,.1709-1.2266,.5117-.3135,.3418-.5137,.8301-.6016,1.4658h3.5332v-.2031c-.0117-.5654-.1641-1.002-.457-1.3105-.293-.3096-.709-.4639-1.248-.4639Z"/><path class="cls-10" d="M241.083,71.6484h-2.5488v-13.5h2.5488v13.5Z"/><path class="cls-10" d="M244.2197,66.8057c0-.9434,.1816-1.7842,.5449-2.5225s.8867-1.3096,1.5693-1.7139,1.4746-.6064,2.377-.6064c1.2832,0,2.3311,.3926,3.1426,1.1777s1.2637,1.8516,1.3574,3.1992l.0176,.6504c0,1.459-.4072,2.6299-1.2217,3.5117s-1.9072,1.3223-3.2783,1.3223-2.4648-.4395-3.2822-1.3184-1.2266-2.0742-1.2266-3.5859v-.1143Zm2.54,.1807c0,.9033,.1699,1.5947,.5098,2.0723,.3398,.4785,.8262,.7178,1.459,.7178,.6152,0,1.0957-.2363,1.4414-.709,.3457-.4717,.5186-1.2275,.5186-2.2666,0-.8857-.1729-1.5723-.5186-2.0596s-.832-.7305-1.459-.7305c-.6211,0-1.1016,.2422-1.4414,.7266-.3398,.4834-.5098,1.2334-.5098,2.249Z"/><path class="cls-10" d="M264.793,66.9814c0,1.4648-.332,2.6387-.9961,3.5205-.666,.8818-1.5645,1.3223-2.6943,1.3223-.9609,0-1.7373-.334-2.3291-1.002v4.4824h-2.54v-13.166h2.3555l.0879,.9316c.6152-.7383,1.418-1.1074,2.4082-1.1074,1.1709,0,2.083,.4336,2.7334,1.3008s.9746,2.0625,.9746,3.5859v.1318Zm-2.5391-.1846c0-.8848-.1572-1.5674-.4707-2.0479s-.7686-.7207-1.3662-.7207c-.7969,0-1.3447,.3047-1.6436,.9141v3.8936c.3105,.627,.8643,.9404,1.6611,.9404,1.2129,0,1.8193-.9932,1.8193-2.9795Z"/><path class="cls-10" d="M272.1836,71.8242c-1.3945,0-2.5303-.4277-3.4053-1.2832-.877-.8555-1.3145-1.9951-1.3145-3.4189v-.2461c0-.9551,.1846-1.8086,.5537-2.5615s.8916-1.333,1.5693-1.7402c.6758-.4072,1.4482-.6113,2.3154-.6113,1.3008,0,2.3252,.4102,3.0713,1.2305,.748,.8203,1.1211,1.9834,1.1211,3.4893v1.0371h-6.0557c.082,.6211,.3291,1.1191,.7432,1.4941,.4121,.375,.9355,.5625,1.5684,.5625,.9785,0,1.7432-.3545,2.2939-1.0635l1.248,1.3975c-.3809,.5391-.8965,.96-1.5469,1.2607-.6504,.3018-1.3711,.4531-2.1621,.4531Zm-.29-7.8135c-.5039,0-.9131,.1709-1.2266,.5117-.3135,.3418-.5137,.8301-.6016,1.4658h3.5332v-.2031c-.0117-.5654-.1641-1.002-.457-1.3105-.293-.3096-.709-.4639-1.248-.4639Z"/><path class="cls-10" d="M284.3193,64.5205c-.3457-.0469-.6504-.0703-.9141-.0703-.9609,0-1.5908,.3252-1.8896,.9756v6.2227h-2.54v-9.5098h2.3994l.0703,1.1338c.5098-.873,1.2158-1.3096,2.1182-1.3096,.2812,0,.5449,.0381,.791,.1143l-.0352,2.4434Z"/><path class="cls-10" d="M287.8516,62.7803l-1.1953-.6943c.5039-.791,.7646-1.6084,.7822-2.4521v-1.4854h2.0215v1.3623c0,.5273-.1465,1.0986-.4395,1.7139s-.6826,1.1338-1.1689,1.5557Z"/><path class="cls-10" d="M295.8047,69.0205c0-.3105-.1533-.5547-.4619-.7334-.3066-.1787-.8008-.3389-1.4805-.4795-2.2617-.4746-3.3926-1.4355-3.3926-2.8828,0-.8438,.3496-1.5479,1.0508-2.1143,.6992-.5645,1.6152-.8477,2.7461-.8477,1.207,0,2.1719,.2842,2.8965,.8525,.7227,.5684,1.085,1.3066,1.085,2.2148h-2.54c0-.3633-.1172-.6631-.3516-.9014-.2344-.2363-.6006-.3555-1.0986-.3555-.4277,0-.7588,.0967-.9932,.29s-.3516,.4395-.3516,.7383c0,.2812,.1328,.5088,.4004,.6807,.2656,.1738,.7158,.3232,1.3486,.4492s1.166,.2676,1.5996,.4258c1.3418,.4922,2.0127,1.3447,2.0127,2.5576,0,.8672-.3721,1.5693-1.1162,2.1045-.7441,.5371-1.7051,.8047-2.8828,.8047-.7969,0-1.5049-.1426-2.1221-.4258-.6191-.2842-1.1035-.6738-1.4551-1.1699-.3516-.4941-.5273-1.0293-.5273-1.6035h2.4082c.0234,.4512,.1904,.7969,.501,1.0371s.7266,.3604,1.248,.3604c.4863,0,.8535-.0928,1.1025-.2764,.249-.1855,.374-.4268,.374-.7256Z"/><path class="cls-10" d="M310.8838,58.8516l3.2871,9.2812,3.2695-9.2812h3.4629v12.7969h-2.6455v-3.498l.2637-6.0381-3.4541,9.5361h-1.8105l-3.4453-9.5273,.2637,6.0293v3.498h-2.6367v-12.7969h3.4453Z"/><path class="cls-10" d="M329.9893,71.6484c-.1172-.2285-.2021-.5127-.2549-.8525-.6152,.6855-1.415,1.0283-2.3994,1.0283-.9316,0-1.7041-.2695-2.3164-.8086s-.918-1.2188-.918-2.0391c0-1.0078,.373-1.7812,1.1211-2.3203,.7461-.5391,1.8262-.8115,3.2383-.8174h1.1689v-.5449c0-.4395-.1133-.791-.3389-1.0547s-.5811-.3955-1.0674-.3955c-.4277,0-.7637,.1025-1.0068,.3076s-.3643,.4863-.3643,.8438h-2.54c0-.5508,.1699-1.0605,.5098-1.5293s.8203-.8359,1.4414-1.1025,1.3184-.4004,2.0918-.4004c1.1719,0,2.1016,.2949,2.791,.8828,.6875,.5898,1.0322,1.417,1.0322,2.4834v4.1221c.0059,.9023,.1318,1.585,.3779,2.0479v.1494h-2.5664Zm-2.1006-1.7666c.375,0,.7207-.083,1.0371-.251,.3164-.166,.5508-.3906,.7031-.6719v-1.6348h-.9492c-1.2715,0-1.9482,.4395-2.0303,1.3184l-.0088,.1494c0,.3164,.1113,.5771,.334,.7822s.5273,.3076,.9141,.3076Z"/><path class="cls-10" d="M339.5244,69.7764c.4688,0,.8496-.1289,1.1426-.3867s.4453-.6006,.457-1.0283h2.3818c-.0059,.6445-.1816,1.2344-.5273,1.7715-.3457,.5352-.8193,.9521-1.4199,1.248-.6006,.2949-1.2637,.4434-1.9902,.4434-1.3594,0-2.4316-.4316-3.2168-1.2969-.7852-.8633-1.1777-2.0576-1.1777-3.5811v-.167c0-1.4648,.3896-2.6338,1.1689-3.5068s1.8486-1.3096,3.208-1.3096c1.1895,0,2.1426,.3379,2.8613,1.0156,.7168,.6758,1.082,1.5771,1.0938,2.7021h-2.3818c-.0117-.4951-.1641-.8965-.457-1.2061s-.6797-.4639-1.1602-.4639c-.5918,0-1.0391,.2158-1.3408,.6465-.3018,.4316-.4521,1.1318-.4521,2.0996v.2646c0,.9795,.1494,1.6836,.4482,2.1123s.7529,.6426,1.3623,.6426Z"/><path class="cls-10" d="M348.874,63.1758c.6738-.8086,1.5205-1.2129,2.54-1.2129,2.0625,0,3.1084,1.1982,3.1377,3.5947v6.0908h-2.54v-6.0205c0-.5449-.1172-.9473-.3516-1.208s-.624-.3916-1.1689-.3916c-.7441,0-1.2832,.2871-1.6172,.8613v6.7588h-2.54v-13.5h2.54v5.0273Z"/><path class="cls-10" d="M357.8906,59.6777c0-.3809,.1279-.6943,.3818-.9404,.2559-.2461,.6025-.3691,1.042-.3691,.4336,0,.7793,.123,1.0371,.3691s.3867,.5596,.3867,.9404c0,.3867-.1309,.7031-.3916,.9492s-.6045,.3691-1.0322,.3691-.7725-.123-1.0322-.3691c-.2617-.2461-.3916-.5625-.3916-.9492Zm2.6982,11.9707h-2.5488v-9.5098h2.5488v9.5098Z"/><path class="cls-10" d="M366.459,62.1387l.0791,1.0986c.6797-.8496,1.5908-1.2744,2.7334-1.2744,1.0078,0,1.7578,.2959,2.25,.8877s.7441,1.4766,.7559,2.6543v6.1436h-2.54v-6.082c0-.5391-.1172-.9297-.3516-1.1738-.2344-.2422-.624-.3643-1.1689-.3643-.7148,0-1.251,.3047-1.6084,.9141v6.7061h-2.54v-9.5098h2.3906Z"/><path class="cls-10" d="M380.0186,71.8242c-1.3945,0-2.5303-.4277-3.4053-1.2832-.877-.8555-1.3145-1.9951-1.3145-3.4189v-.2461c0-.9551,.1846-1.8086,.5537-2.5615s.8916-1.333,1.5693-1.7402c.6758-.4072,1.4482-.6113,2.3154-.6113,1.3008,0,2.3252,.4102,3.0713,1.2305,.748,.8203,1.1211,1.9834,1.1211,3.4893v1.0371h-6.0557c.082,.6211,.3291,1.1191,.7432,1.4941,.4121,.375,.9355,.5625,1.5684,.5625,.9785,0,1.7432-.3545,2.2939-1.0635l1.248,1.3975c-.3809,.5391-.8965,.96-1.5469,1.2607-.6504,.3018-1.3711,.4531-2.1621,.4531Zm-.29-7.8135c-.5039,0-.9131,.1709-1.2266,.5117-.3135,.3418-.5137,.8301-.6016,1.4658h3.5332v-.2031c-.0117-.5654-.1641-1.002-.457-1.3105-.293-.3096-.709-.4639-1.248-.4639Z"/></g><g><path class="cls-10" d="M420.2754,66.9639h-2.1006v4.6846h-2.6367v-12.7969h4.7549c1.5117,0,2.6777,.3369,3.498,1.0107s1.2305,1.626,1.2305,2.8564c0,.873-.1885,1.6016-.5674,2.1836-.377,.584-.9502,1.0479-1.7178,1.3936l2.7686,5.2295v.123h-2.8301l-2.3994-4.6846Zm-2.1006-2.1357h2.127c.6621,0,1.1748-.168,1.5381-.5059,.3633-.3359,.5449-.8008,.5449-1.3926,0-.6035-.1709-1.0781-.5146-1.4238-.3418-.3457-.8682-.5186-1.5771-.5186h-2.1182v3.8408Z"/><path class="cls-10" d="M432.6758,71.8242c-1.3945,0-2.5303-.4277-3.4053-1.2832-.877-.8555-1.3145-1.9951-1.3145-3.4189v-.2461c0-.9551,.1846-1.8086,.5537-2.5615s.8916-1.333,1.5693-1.7402c.6758-.4072,1.4482-.6113,2.3154-.6113,1.3008,0,2.3252,.4102,3.0713,1.2305,.748,.8203,1.1211,1.9834,1.1211,3.4893v1.0371h-6.0557c.082,.6211,.3291,1.1191,.7432,1.4941,.4121,.375,.9355,.5625,1.5684,.5625,.9785,0,1.7432-.3545,2.2939-1.0635l1.248,1.3975c-.3809,.5391-.8965,.96-1.5469,1.2607-.6504,.3018-1.3711,.4531-2.1621,.4531Zm-.29-7.8135c-.5039,0-.9131,.1709-1.2266,.5117-.3135,.3418-.5137,.8301-.6016,1.4658h3.5332v-.2031c-.0117-.5654-.1641-1.002-.457-1.3105-.293-.3096-.709-.4639-1.248-.4639Z"/><path class="cls-10" d="M441.8496,62.1387l.0791,1.0635c.6738-.8262,1.585-1.2393,2.7334-1.2393,1.2246,0,2.0654,.4834,2.5225,1.4502,.668-.9668,1.6201-1.4502,2.8564-1.4502,1.0312,0,1.7988,.3008,2.3027,.9004,.5039,.6016,.7559,1.5049,.7559,2.7119v6.0732h-2.5488v-6.0645c0-.5391-.1055-.9326-.3164-1.1816s-.583-.374-1.1162-.374c-.7617,0-1.2891,.3633-1.582,1.0898l.0088,6.5303h-2.54v-6.0557c0-.5508-.1084-.9492-.3252-1.1953s-.5859-.3691-1.1074-.3691c-.7207,0-1.2422,.2988-1.5645,.8965v6.7236h-2.54v-9.5098h2.3818Z"/><path class="cls-10" d="M456.0957,66.8057c0-.9434,.1816-1.7842,.5449-2.5225s.8857-1.3096,1.5684-1.7139,1.4756-.6064,2.3779-.6064c1.2832,0,2.3301,.3926,3.1416,1.1777s1.2646,1.8516,1.3584,3.1992l.0176,.6504c0,1.459-.4072,2.6299-1.2217,3.5117s-1.9072,1.3223-3.2783,1.3223-2.4658-.4395-3.2822-1.3184c-.8184-.8789-1.2266-2.0742-1.2266-3.5859v-.1143Zm2.54,.1807c0,.9033,.1699,1.5947,.5098,2.0723,.3398,.4785,.8262,.7178,1.459,.7178,.6152,0,1.0957-.2363,1.4414-.709,.3457-.4717,.5186-1.2275,.5186-2.2666,0-.8857-.1729-1.5723-.5186-2.0596s-.832-.7305-1.459-.7305c-.6211,0-1.1016,.2422-1.4414,.7266-.3398,.4834-.5098,1.2334-.5098,2.249Z"/><path class="cls-10" d="M471.1494,59.8008v2.3379h1.626v1.8633h-1.626v4.7461c0,.3516,.0674,.6035,.2021,.7559s.3926,.2285,.7734,.2285c.2812,0,.5303-.0205,.7471-.0615v1.9248c-.498,.1523-1.0107,.2285-1.5381,.2285-1.7812,0-2.6895-.8994-2.7246-2.6982v-5.124h-1.3887v-1.8633h1.3887v-2.3379h2.54Z"/><path class="cls-10" d="M480.0078,71.8242c-1.3945,0-2.5303-.4277-3.4053-1.2832-.877-.8555-1.3145-1.9951-1.3145-3.4189v-.2461c0-.9551,.1846-1.8086,.5537-2.5615s.8916-1.333,1.5693-1.7402c.6758-.4072,1.4482-.6113,2.3154-.6113,1.3008,0,2.3252,.4102,3.0713,1.2305,.748,.8203,1.1211,1.9834,1.1211,3.4893v1.0371h-6.0557c.082,.6211,.3291,1.1191,.7432,1.4941,.4121,.375,.9355,.5625,1.5684,.5625,.9785,0,1.7432-.3545,2.2939-1.0635l1.248,1.3975c-.3809,.5391-.8965,.96-1.5469,1.2607-.6504,.3018-1.3711,.4531-2.1621,.4531Zm-.29-7.8135c-.5039,0-.9131,.1709-1.2266,.5117-.3135,.3418-.5137,.8301-.6016,1.4658h3.5332v-.2031c-.0117-.5654-.1641-1.002-.457-1.3105-.293-.3096-.709-.4639-1.248-.4639Z"/><path class="cls-10" d="M492.8896,71.6484v-12.7969h3.9375c1.125,0,2.1309,.2539,3.0195,.7598,.8867,.5078,1.5801,1.2285,2.0781,2.1621,.498,.9355,.7471,1.9971,.7471,3.1865v.5889c0,1.1895-.2451,2.2471-.7334,3.1729-.4902,.9258-1.1797,1.6436-2.0703,2.1533s-1.8955,.7676-3.0146,.7734h-3.9639Zm2.6367-10.6611v8.543h1.2744c1.0312,0,1.8193-.3369,2.3643-1.0107s.8232-1.6377,.835-2.8916v-.6768c0-1.3008-.2695-2.2861-.8086-2.957s-1.3271-1.0068-2.3643-1.0068h-1.3008Z"/><path class="cls-10" d="M510.2373,71.8242c-1.3945,0-2.5303-.4277-3.4053-1.2832-.877-.8555-1.3145-1.9951-1.3145-3.4189v-.2461c0-.9551,.1846-1.8086,.5537-2.5615s.8916-1.333,1.5693-1.7402c.6758-.4072,1.4482-.6113,2.3154-.6113,1.3008,0,2.3252,.4102,3.0713,1.2305,.748,.8203,1.1211,1.9834,1.1211,3.4893v1.0371h-6.0557c.082,.6211,.3291,1.1191,.7432,1.4941,.4121,.375,.9355,.5625,1.5684,.5625,.9785,0,1.7432-.3545,2.2939-1.0635l1.248,1.3975c-.3809,.5391-.8965,.96-1.5469,1.2607-.6504,.3018-1.3711,.4531-2.1621,.4531Zm-.29-7.8135c-.5039,0-.9131,.1709-1.2266,.5117-.3135,.3418-.5137,.8301-.6016,1.4658h3.5332v-.2031c-.0117-.5654-.1641-1.002-.457-1.3105-.293-.3096-.709-.4639-1.248-.4639Z"/><path class="cls-10" d="M520.4756,68.5459l1.7666-6.4072h2.6543l-3.208,9.5098h-2.4258l-3.208-9.5098h2.6543l1.7666,6.4072Z"/><path class="cls-10" d="M527.4355,59.6777c0-.3809,.1279-.6943,.3818-.9404,.2559-.2461,.6025-.3691,1.042-.3691,.4336,0,.7793,.123,1.0371,.3691s.3867,.5596,.3867,.9404c0,.3867-.1309,.7031-.3916,.9492s-.6045,.3691-1.0322,.3691-.7725-.123-1.0322-.3691c-.2617-.2461-.3916-.5625-.3916-.9492Zm2.6982,11.9707h-2.5488v-9.5098h2.5488v9.5098Z"/><path class="cls-10" d="M537.6201,69.7764c.4688,0,.8496-.1289,1.1426-.3867s.4453-.6006,.457-1.0283h2.3818c-.0059,.6445-.1816,1.2344-.5273,1.7715-.3457,.5352-.8193,.9521-1.4199,1.248-.6006,.2949-1.2637,.4434-1.9902,.4434-1.3594,0-2.4316-.4316-3.2168-1.2969-.7852-.8633-1.1777-2.0576-1.1777-3.5811v-.167c0-1.4648,.3896-2.6338,1.1689-3.5068s1.8486-1.3096,3.208-1.3096c1.1895,0,2.1426,.3379,2.8613,1.0156,.7168,.6758,1.082,1.5771,1.0938,2.7021h-2.3818c-.0117-.4951-.1641-.8965-.457-1.2061s-.6797-.4639-1.1602-.4639c-.5918,0-1.0391,.2158-1.3408,.6465-.3018,.4316-.4521,1.1318-.4521,2.0996v.2646c0,.9795,.1494,1.6836,.4482,2.1123s.7529,.6426,1.3623,.6426Z"/><path class="cls-10" d="M548.8691,71.8242c-1.3945,0-2.5303-.4277-3.4053-1.2832-.877-.8555-1.3145-1.9951-1.3145-3.4189v-.2461c0-.9551,.1846-1.8086,.5537-2.5615s.8916-1.333,1.5693-1.7402c.6758-.4072,1.4482-.6113,2.3154-.6113,1.3008,0,2.3252,.4102,3.0713,1.2305,.748,.8203,1.1211,1.9834,1.1211,3.4893v1.0371h-6.0557c.082,.6211,.3291,1.1191,.7432,1.4941,.4121,.375,.9355,.5625,1.5684,.5625,.9785,0,1.7432-.3545,2.2939-1.0635l1.248,1.3975c-.3809,.5391-.8965,.96-1.5469,1.2607-.6504,.3018-1.3711,.4531-2.1621,.4531Zm-.29-7.8135c-.5039,0-.9131,.1709-1.2266,.5117-.3135,.3418-.5137,.8301-.6016,1.4658h3.5332v-.2031c-.0117-.5654-.1641-1.002-.457-1.3105-.293-.3096-.709-.4639-1.248-.4639Z"/></g></g><g><rect class="cls-3" x="68.1497" y="117.2493" width="293.7007" height="212.757" rx="10" ry="10"/><g><rect class="cls-2" x="223.0354" y="231.1648" width="130.2001" height="89.8651" rx="10" ry="10"/><g><path class="cls-10" d="M261.9648,271.4043v-11.2598c0-.5977,.2627-.8965,.7871-.8965h4.5c.7383,0,1.3965,.043,1.9766,.1279,.5791,.0859,1.1777,.2656,1.7969,.54s1.1348,.6465,1.5459,1.1152c.4121,.4697,.749,1.1133,1.0107,1.9307,.2627,.8174,.3936,1.7832,.3936,2.8994,0,1.1592-.1621,2.1572-.4844,2.9961-.3242,.8379-.708,1.4697-1.1533,1.8936s-1.001,.7578-1.6689,1.001c-.668,.2441-1.2256,.3877-1.6738,.4297-.4482,.043-.9619,.0645-1.541,.0645h-4.6201c-.2744,0-.4873-.0566-.6396-.1689-.1533-.1133-.2295-.3369-.2295-.6729Zm2.6074-.7686h2.0762c.6104,0,1.1162-.0205,1.5186-.0635s.8506-.1826,1.3447-.4209,.8906-.5762,1.1895-1.0156c.4268-.6465,.6494-1.6123,.667-2.8994v-.21c0-.5977-.0146-1.084-.0449-1.459-.0312-.375-.1182-.8154-.2607-1.3223-.1436-.5059-.3525-.9082-.627-1.207s-.6768-.5645-1.207-.7959c-.5312-.2314-1.1709-.3604-1.9209-.3848h-2.7168l-.0186,.54v9.2383Z"/><path class="cls-10" d="M275.6953,267.8828c0-1.5244,.4082-2.6621,1.2236-3.4121s1.9336-1.125,3.3545-1.125c.7891,0,1.4629,.1162,2.0215,.3477s.9854,.5508,1.2812,.9561c.2949,.4053,.5049,.834,.6309,1.2852,.125,.4512,.1875,.9512,.1875,1.5,0,.5371-.2842,.8047-.8506,.8047h-5.3418c.0479,1.8975,.8389,2.8447,2.3721,2.8447,.5762,0,1.1025-.0898,1.5791-.2695s.8672-.3799,1.1709-.5986c.3037-.2197,.4834-.3359,.5371-.3477h.0801l.1006,.0361c.0674,.0615,.1191,.2012,.1562,.4209s.0557,.4238,.0557,.6133l.0195,.2744c0,.1641-.1064,.3018-.3184,.4111-1.0166,.5488-2.1562,.8262-3.417,.832-1.5859,0-2.79-.3867-3.6113-1.1611s-1.2314-1.9121-1.2314-3.4121Zm2.5244-.8594h3.8691c-.0361-.7256-.1787-1.292-.4287-1.6973-.249-.4053-.7119-.6084-1.3867-.6084-1.2168,0-1.9014,.7686-2.0537,2.3057Z"/><path class="cls-10" d="M285.8301,271.3867v-11.8008c0-.2744,.0596-.4873,.1787-.6396s.3457-.2285,.6816-.2285h.8232c.5488,0,.8232,.2744,.8232,.8242v4.6738c.7861-.5068,1.6553-.7598,2.6064-.7598,1.7822,0,2.8984,.8457,3.3486,2.5381,.1396,.5137,.21,1.1855,.21,2.0166v.0547c0,.8525-.1172,1.5752-.3516,2.168-.2344,.5938-.5537,1.0469-.958,1.3604s-.8242,.5361-1.2598,.666c-.4346,.1309-.9141,.1963-1.4375,.1963-.7861,0-1.4941-.2373-2.1221-.7129-.0977,.2012-.1992,.335-.3057,.4023-.1074,.0674-.2793,.1006-.5176,.1006h-.8594c-.5732,0-.8604-.2861-.8604-.8594Zm2.5615-1.0322l.0645,.0732c.0488,.0488,.082,.084,.1006,.1045,.0176,.0215,.0547,.0566,.1094,.1055s.1025,.085,.1416,.1094c.04,.0244,.0898,.0596,.1514,.1045,.0605,.0459,.1201,.0781,.1777,.0957,.0586,.0186,.124,.04,.1973,.0645s.1533,.042,.2422,.0547c.0879,.0117,.1816,.0176,.2793,.0176,.4023,0,.7441-.0713,1.0244-.2139s.4863-.3008,.6172-.4746c.1309-.1729,.2334-.4258,.3066-.7568s.1143-.5928,.123-.7842c.0098-.1914,.0137-.4697,.0137-.835v-.1455c0-.3711-.0078-.666-.0225-.8848-.0156-.2188-.0537-.4854-.1143-.7979-.0615-.3135-.1543-.5537-.2793-.7207s-.3125-.3164-.5625-.4473c-.25-.1299-.5488-.1953-.8965-.1953-.585,0-1.1436,.2188-1.6738,.6562v4.8701Z"/><path class="cls-10" d="M296.3135,269.6387v-5.1494c0-.5488,.2744-.8232,.8232-.8232h.8594c.2744,0,.4805,.0566,.6172,.1689,.1377,.1133,.2119,.2109,.2246,.293,.0117,.082,.0244,.209,.0361,.3799v4.9854c0,.0488-.0029,.123-.0088,.2236s-.0088,.1758-.0088,.2246c0,.5488,.0684,.9141,.2051,1.0977,.1377,.1826,.4678,.2744,.9932,.2744,.5,0,.9521-.1846,1.3584-.5537,.4053-.3691,.6074-1.0049,.6074-1.9072v-4.208c0-.1885,.0078-.3301,.0234-.4248s.0352-.1602,.0596-.1973c.0244-.0361,.0791-.1006,.165-.1914,.1406-.1104,.3555-.165,.6426-.165h.8262c.5508,0,.833,.2627,.8447,.7871v6.9883c0,.5361-.2812,.8047-.8447,.8047h-.8809c-.5146,0-.7715-.2744-.7715-.8232-.4268,.415-.8525,.6904-1.2764,.8281-.4238,.1367-.9219,.2051-1.4951,.2051-.5488,0-1.0215-.0586-1.418-.1777s-.6934-.2607-.8916-.4258c-.1982-.1641-.3535-.3867-.4668-.668-.1133-.2803-.1787-.5244-.1963-.7314-.0186-.207-.0273-.4785-.0273-.8145Z"/><path class="cls-10" d="M306.1553,273.4551c0-.7812,.3604-1.3594,1.0801-1.7334-.3418-.4814-.5127-.9697-.5127-1.4639,0-.5332,.1768-1.0537,.5312-1.5615l-.0195-.0381c-.5059-.5723-.7588-1.2666-.7588-2.084,0-.3604,.0479-.7002,.1426-1.0176,.0957-.3184,.2656-.6465,.5107-.9863,.2461-.3398,.6387-.6104,1.1787-.8115,.54-.2021,1.2002-.3027,1.9795-.3027h.0557c.5029,0,.9326,.041,1.2891,.123,.3555,.082,.6191,.1621,.791,.2383s.2832,.1143,.332,.1143c.0352,0,.167-.0381,.3955-.1143s.5303-.1562,.9043-.2383,.7344-.123,1.082-.123c.1768,0,.29,.0479,.3389,.1436s.1035,.3281,.1641,.6992c.0127,.0986,.0273,.1787,.0459,.2412,.0127,.2402-.0947,.3613-.3203,.3613-.0244,0-.0928-.0098-.2051-.0283-.1133-.0176-.2676-.0332-.4619-.0449-.1953-.0127-.4062-.0186-.6318-.0186l-.4844,.0186c.2871,.5938,.4307,1.1709,.4307,1.7285,0,2.0732-1.2363,3.1104-3.709,3.1104-.7988,0-1.5176-.1279-2.1572-.3828-.0771,.1426-.1162,.2646-.1162,.3633,0,.6045,.3789,.9092,1.1348,.916h1.6504c.4697,0,.8486,.0059,1.1377,.0176s.6436,.0449,1.0615,.0996c.4189,.0537,.7549,.1426,1.0078,.2656s.5059,.2861,.7588,.4902c.2529,.2051,.4385,.4717,.5557,.8027,.1172,.3301,.1758,.7236,.1758,1.1797,0,1.0879-.5654,1.8525-1.6973,2.293-.6807,.2627-1.6494,.3945-2.9072,.3945-.2783,0-.5088-.0029-.6914-.0098-.1826-.0059-.4492-.0215-.7988-.0459s-.6543-.0742-.9141-.1514c-.2598-.0762-.5352-.1709-.8262-.2842s-.5479-.2715-.7705-.4766-.3955-.4395-.5195-.7021c-.1553-.3057-.2324-.6328-.2324-.9814Zm1.9307-.0361c0,.877,.9248,1.3154,2.7754,1.3154h.0732c.6904,0,1.2451-.0742,1.6631-.2227,.4189-.1484,.6875-.3057,.8066-.4717s.1787-.3486,.1787-.5488c0-.3564-.2061-.5996-.6182-.7295-.4131-.1309-1.0674-.1953-1.9658-.1953h-1.8418c-.5254,0-.8516,.1299-.9805,.3896-.0605,.1211-.0908,.2754-.0908,.4629Zm.8965-6.708c0,.5225,.083,.916,.25,1.1836,.167,.2666,.5273,.4004,1.0811,.4004,.5586,0,.9307-.1182,1.1162-.3555,.1855-.2363,.2783-.6455,.2783-1.2285v-.2998c0-.5342-.0869-.9316-.2598-1.1924-.1738-.2607-.5273-.3906-1.0625-.3906-.5469,0-.918,.1182-1.1123,.3545s-.291,.6465-.291,1.2285v.2998Z"/><path class="cls-10" d="M252.1826,289.9463v-11.1416c0-.5488,.2832-.8232,.8506-.8232h1.5273c.5127,0,.8818,.1738,1.1074,.5215,.0977,.1641,.7344,1.6924,1.9111,4.583,1.1768,2.8896,1.8447,4.5977,2.0039,5.1221,.1211-.4512,1.3535-3.5371,3.6953-9.2568,.0977-.2256,.1748-.3877,.2334-.4854,.0576-.0977,.1768-.2021,.3564-.3154,.1797-.1123,.4131-.1689,.7002-.1689h1.6641c.5615,0,.8447,.2861,.8506,.8594v11.2422c0,.2871-.0557,.5078-.1689,.6631s-.3457,.2334-.6992,.2334h-.5947c-.2139,0-.3828-.0273-.5078-.082-.125-.0557-.209-.1455-.252-.2705s-.0674-.2217-.0732-.292-.0088-.1787-.0088-.3252v-9.165c0-.0615-.0029-.1484-.0088-.2607-.0068-.1133-.0098-.2002-.0098-.2607-.1221,.5732-1.3418,3.6553-3.6582,9.248-.1777,.4268-.3584,.6992-.5449,.8184-.1855,.1191-.4404,.1777-.7637,.1777h-.375c-.165,0-.3037-.0088-.416-.0273-.1133-.0176-.2178-.0625-.3154-.1318-.0977-.0703-.1758-.1299-.2334-.1787-.0586-.0488-.127-.1602-.2061-.334s-.1445-.3174-.1963-.4297c-.0518-.1133-.1348-.3174-.2471-.6133-.1133-.2959-.2119-.541-.2979-.7363l-1.9482-4.8203c-.6221-1.6338-.9785-2.625-1.0703-2.9727v9.7969c0,.5732-.2803,.8594-.8408,.8594h-.6133c-.2139,0-.3828-.0273-.5078-.082-.125-.0557-.21-.1455-.2559-.2705s-.0723-.2256-.0781-.3018-.0088-.2021-.0088-.3789Z"/><path class="cls-10" d="M269.3516,288.4092c0-.4883,.1455-.9121,.4375-1.2715s.6416-.6406,1.0498-.8418,.8916-.3613,1.4502-.4805c.5586-.1182,1.042-.1963,1.4502-.2324,.4082-.0371,.8203-.0557,1.2383-.0557v-.3828c0-.5225-.0889-.9355-.2646-1.2383-.1768-.3037-.5322-.4551-1.0674-.4551-.4893,0-.9346,.0635-1.335,.1885-.4014,.126-.6973,.2656-.8906,.4209-.1924,.1543-.374,.2979-.5449,.4287-.1709,.1318-.2969,.1973-.377,.1973l-.0752-.0127-.0742-.0371c-.0371-.0605-.0713-.2129-.1025-.457-.0312-.2432-.0527-.4658-.0654-.666l-.0273-.3203c0-.0605,.0039-.1064,.0137-.1367,.0088-.0303,.0322-.0654,.0693-.1045,.0381-.04,.0654-.0654,.084-.0781,.0186-.0117,.0732-.0361,.1631-.0732,.0898-.0361,.1602-.0674,.21-.0928,.9014-.4189,1.8857-.6289,2.9521-.6289,1.4258,0,2.4316,.2686,3.0156,.8047,.585,.5371,.877,1.3115,.877,2.3242v4.9297c0,.5615-.2822,.8418-.8477,.8418h-.9023c-.2764,0-.4746-.0742-.5947-.2236s-.1797-.3252-.1797-.5264c-.8281,.6338-1.7979,.9541-2.9092,.96-.8408,0-1.5098-.2881-2.0068-.8643s-.7461-1.2148-.7461-1.916Zm2.5068,0c0,.3594,.1182,.6846,.3555,.9746,.2373,.2891,.5469,.4336,.9307,.4336,.4248,0,.8369-.1338,1.2354-.4023,.3984-.2676,.5977-.707,.5977-1.3174v-1.4629c-.3838,.0361-.7129,.0762-.9902,.1191-.2764,.042-.6016,.123-.9756,.2422s-.6602,.2998-.8574,.5439-.2959,.5342-.2959,.8691Z"/><path class="cls-10" d="M279.7344,290.1377v-6.9883c0-.2373,.0498-.4248,.1504-.5625,.1006-.1367,.2031-.2178,.3066-.2422s.2314-.0371,.3838-.0371h.75c.1221,0,.2188,.0068,.2881,.0186,.0703,.0127,.1592,.04,.2656,.082,.1064,.043,.1846,.124,.2334,.2432,.0488,.1182,.0732,.2725,.0732,.4619v.375c.8613-.8604,1.875-1.293,3.041-1.2988,.4521,0,.8438,.041,1.1729,.123,.3301,.082,.5928,.207,.7881,.375s.3525,.3311,.4717,.4893c.1191,.1592,.2002,.3779,.2432,.6592,.043,.2803,.0703,.5039,.082,.6719,.0127,.168,.0186,.4014,.0186,.7002v4.9482c0,.5488-.2695,.8232-.8076,.8232h-.8809c-.3369,0-.5664-.0713-.6895-.2148-.1221-.1436-.1836-.3457-.1836-.6084v-5.1318c0-.1885-.0029-.334-.0088-.4346s-.0273-.2256-.0635-.375c-.0371-.1494-.0918-.2646-.165-.3477-.0732-.082-.1826-.1533-.3291-.2148-.1465-.0605-.3232-.0908-.5312-.0908-.5244,0-.9492,.1582-1.2754,.4756-.3262,.3164-.5449,.6641-.6543,1.042-.0732,.2744-.1133,.6104-.1191,1.0068v3.8965c0,.0244-.0029,.0596-.0088,.1055s-.0244,.1279-.0547,.2471c-.0312,.1182-.0703,.2207-.1191,.3057-.0488,.0859-.1328,.1641-.252,.2334-.1182,.0703-.2607,.1055-.4248,.1055h-.8232c-.5859,0-.8779-.2803-.8779-.8418Z"/><path class="cls-10" d="M289.6865,288.4092c0-.4883,.1455-.9121,.4365-1.2715,.292-.3594,.6416-.6406,1.0498-.8418s.8916-.3613,1.4502-.4805c.5586-.1182,1.042-.1963,1.4502-.2324,.4082-.0371,.8213-.0557,1.2383-.0557v-.3828c0-.5225-.0879-.9355-.2646-1.2383-.1758-.3037-.5312-.4551-1.0664-.4551-.4902,0-.9346,.0635-1.3359,.1885-.4004,.126-.6973,.2656-.8896,.4209-.1924,.1543-.375,.2979-.5459,.4287-.1699,.1318-.2959,.1973-.377,.1973l-.0742-.0127-.0752-.0371c-.0371-.0605-.0713-.2129-.1016-.457-.0312-.2432-.0537-.4658-.0654-.666l-.0283-.3203c0-.0605,.0049-.1064,.0137-.1367,.0098-.0303,.0332-.0654,.0703-.1045,.0371-.04,.0654-.0654,.084-.0781,.0186-.0117,.0732-.0361,.1631-.0732,.0898-.0361,.1602-.0674,.209-.0928,.9014-.4189,1.8857-.6289,2.9531-.6289,1.4258,0,2.4307,.2686,3.0156,.8047,.585,.5371,.877,1.3115,.877,2.3242v4.9297c0,.5615-.2822,.8418-.8477,.8418h-.9033c-.2764,0-.4746-.0742-.5938-.2236-.1201-.1494-.1797-.3252-.1797-.5264-.8291,.6338-1.7988,.9541-2.9102,.96-.8408,0-1.5098-.2881-2.0068-.8643s-.7451-1.2148-.7451-1.916Zm2.5059,0c0,.3594,.1182,.6846,.3555,.9746,.2373,.2891,.5479,.4336,.9307,.4336,.4258,0,.8379-.1338,1.2354-.4023,.3984-.2676,.5977-.707,.5977-1.3174v-1.4629c-.3828,.0361-.7129,.0762-.9893,.1191-.2773,.042-.6025,.123-.9766,.2422-.373,.1191-.6592,.2998-.8564,.5439-.1982,.2441-.2969,.5342-.2969,.8691Z"/><path class="cls-10" d="M299.4092,292.1885c0-.7812,.3604-1.3594,1.0801-1.7334-.3418-.4814-.5127-.9697-.5127-1.4639,0-.5332,.1768-1.0537,.5312-1.5615l-.0195-.0381c-.5059-.5723-.7588-1.2666-.7588-2.084,0-.3604,.0479-.7002,.1426-1.0176,.0957-.3184,.2656-.6465,.5107-.9863,.2461-.3398,.6387-.6104,1.1787-.8115,.54-.2021,1.2002-.3027,1.9795-.3027h.0557c.5029,0,.9326,.041,1.2891,.123,.3555,.082,.6191,.1621,.791,.2383s.2832,.1143,.332,.1143c.0352,0,.167-.0381,.3955-.1143s.5303-.1562,.9043-.2383,.7344-.123,1.082-.123c.1768,0,.29,.0479,.3389,.1436s.1035,.3281,.1641,.6992c.0127,.0986,.0273,.1787,.0459,.2412,.0127,.2402-.0947,.3613-.3203,.3613-.0244,0-.0928-.0098-.2051-.0283-.1133-.0176-.2676-.0332-.4619-.0449-.1953-.0127-.4062-.0186-.6318-.0186l-.4844,.0186c.2871,.5938,.4307,1.1709,.4307,1.7285,0,2.0732-1.2363,3.1104-3.709,3.1104-.7988,0-1.5176-.1279-2.1572-.3828-.0771,.1426-.1162,.2646-.1162,.3633,0,.6045,.3789,.9092,1.1348,.916h1.6504c.4697,0,.8486,.0059,1.1377,.0176s.6436,.0449,1.0615,.0996c.4189,.0537,.7549,.1426,1.0078,.2656s.5059,.2861,.7588,.4902c.2529,.2051,.4385,.4717,.5557,.8027,.1172,.3301,.1758,.7236,.1758,1.1797,0,1.0879-.5654,1.8525-1.6973,2.293-.6807,.2627-1.6494,.3945-2.9072,.3945-.2783,0-.5088-.0029-.6914-.0098-.1826-.0059-.4492-.0215-.7988-.0459s-.6543-.0742-.9141-.1514c-.2598-.0762-.5352-.1709-.8262-.2842s-.5479-.2715-.7705-.4766-.3955-.4395-.5195-.7021c-.1553-.3057-.2324-.6328-.2324-.9814Zm1.9307-.0361c0,.877,.9248,1.3154,2.7754,1.3154h.0732c.6904,0,1.2451-.0742,1.6631-.2227,.4189-.1484,.6875-.3057,.8066-.4717s.1787-.3486,.1787-.5488c0-.3564-.2061-.5996-.6182-.7295-.4131-.1309-1.0674-.1953-1.9658-.1953h-1.8418c-.5254,0-.8516,.1299-.9805,.3896-.0605,.1211-.0908,.2754-.0908,.4629Zm.8965-6.708c0,.5225,.083,.916,.25,1.1836,.167,.2666,.5273,.4004,1.0811,.4004,.5586,0,.9307-.1182,1.1162-.3555,.1855-.2363,.2783-.6455,.2783-1.2285v-.2998c0-.5342-.0869-.9316-.2598-1.1924-.1738-.2607-.5273-.3906-1.0625-.3906-.5469,0-.918,.1182-1.1123,.3545s-.291,.6465-.291,1.2285v.2998Z"/><path class="cls-10" d="M309.8193,286.6162c0-1.5244,.4072-2.6621,1.2236-3.4121,.8154-.75,1.9336-1.125,3.3535-1.125,.79,0,1.4639,.1162,2.0225,.3477s.9854,.5508,1.2803,.9561c.2959,.4053,.5059,.834,.6309,1.2852s.1875,.9512,.1875,1.5c0,.5371-.2832,.8047-.8506,.8047h-5.3418c.0488,1.8975,.8398,2.8447,2.373,2.8447,.5752,0,1.1016-.0898,1.5791-.2695,.4766-.1797,.8662-.3799,1.1709-.5986,.3037-.2197,.4824-.3359,.5361-.3477h.0811l.1006,.0361c.0664,.0615,.1191,.2012,.1553,.4209,.0371,.2197,.0557,.4238,.0557,.6133l.0205,.2744c0,.1641-.1064,.3018-.3193,.4111-1.0166,.5488-2.1553,.8262-3.417,.832-1.5859,0-2.79-.3867-3.6104-1.1611-.8213-.7744-1.2314-1.9121-1.2314-3.4121Zm2.5244-.8594h3.8691c-.0361-.7256-.1797-1.292-.4287-1.6973-.25-.4053-.7119-.6084-1.3877-.6084-1.2168,0-1.9004,.7686-2.0527,2.3057Z"/><path class="cls-10" d="M319.9541,290.1748v-7.0254c0-.3594,.0771-.5898,.2334-.6904,.1553-.1006,.3643-.1514,.626-.1514h.6221c.3359,0,.5859,.0791,.75,.2354,.0859,.0967,.1348,.1963,.1465,.2988,.0127,.1025,.0244,.3857,.0371,.8506,.2988-.4111,.6602-.7383,1.084-.9824,.4238-.2451,.7568-.3926,1.001-.4443,.2441-.0508,.4609-.0762,.6494-.0762h.0186c.165,0,.2686,.0312,.3115,.0947,.042,.0635,.0635,.1699,.0635,.3213v1.0322c0,.1387-.0303,.251-.0918,.335-.0732,.0615-.2373,.1084-.4932,.1426-.2568,.0332-.4854,.0811-.6865,.1416-.4268,.1533-.7959,.3857-1.1064,.6973-.3115,.3115-.5127,.6729-.6035,1.082-.0371,.165-.0557,.4033-.0557,.7158v3.292c0,.2627-.0176,.4346-.0547,.5137-.0361,.0791-.1309,.1836-.2832,.3115-.1523,.0742-.3262,.1104-.5215,.1104h-.8047c-.3359,0-.5596-.0742-.6729-.2236-.1123-.1494-.1689-.3438-.1689-.5811Z"/></g></g><g><rect class="cls-8" x="76.2965" y="231.1648" width="130.2001" height="89.8651" rx="10" ry="10"/><g><path class="cls-10" d="M115.0156,271.4043v-11.2598c0-.5977,.2627-.8965,.7871-.8965h4.5c.7383,0,1.3965,.043,1.9766,.1279,.5791,.0859,1.1777,.2656,1.7969,.54s1.1348,.6465,1.5459,1.1152c.4121,.4697,.749,1.1133,1.0107,1.9307,.2627,.8174,.3936,1.7832,.3936,2.8994,0,1.1592-.1621,2.1572-.4844,2.9961-.3242,.8379-.708,1.4697-1.1533,1.8936s-1.001,.7578-1.6689,1.001c-.668,.2441-1.2256,.3877-1.6738,.4297-.4482,.043-.9619,.0645-1.541,.0645h-4.6201c-.2744,0-.4873-.0566-.6396-.1689-.1533-.1133-.2295-.3369-.2295-.6729Zm2.6074-.7686h2.0762c.6104,0,1.1162-.0205,1.5186-.0635s.8506-.1826,1.3447-.4209,.8906-.5762,1.1895-1.0156c.4268-.6465,.6494-1.6123,.667-2.8994v-.21c0-.5977-.0146-1.084-.0449-1.459-.0312-.375-.1182-.8154-.2607-1.3223-.1436-.5059-.3525-.9082-.627-1.207s-.6768-.5645-1.207-.7959c-.5312-.2314-1.1709-.3604-1.9209-.3848h-2.7168l-.0186,.54v9.2383Z"/><path class="cls-10" d="M128.7461,267.8828c0-1.5244,.4082-2.6621,1.2236-3.4121s1.9336-1.125,3.3545-1.125c.7891,0,1.4629,.1162,2.0215,.3477s.9854,.5508,1.2812,.9561c.2949,.4053,.5049,.834,.6309,1.2852,.125,.4512,.1875,.9512,.1875,1.5,0,.5371-.2842,.8047-.8506,.8047h-5.3418c.0479,1.8975,.8389,2.8447,2.3721,2.8447,.5762,0,1.1025-.0898,1.5791-.2695s.8672-.3799,1.1709-.5986c.3037-.2197,.4834-.3359,.5371-.3477h.0801l.1006,.0361c.0674,.0615,.1191,.2012,.1562,.4209s.0557,.4238,.0557,.6133l.0195,.2744c0,.1641-.1064,.3018-.3184,.4111-1.0166,.5488-2.1562,.8262-3.417,.832-1.5859,0-2.79-.3867-3.6113-1.1611s-1.2314-1.9121-1.2314-3.4121Zm2.5244-.8594h3.8691c-.0361-.7256-.1787-1.292-.4287-1.6973-.249-.4053-.7119-.6084-1.3867-.6084-1.2168,0-1.9014,.7686-2.0537,2.3057Z"/><path class="cls-10" d="M138.8809,271.3867v-11.8008c0-.2744,.0596-.4873,.1787-.6396s.3457-.2285,.6816-.2285h.8232c.5488,0,.8232,.2744,.8232,.8242v4.6738c.7861-.5068,1.6553-.7598,2.6064-.7598,1.7822,0,2.8984,.8457,3.3486,2.5381,.1396,.5137,.21,1.1855,.21,2.0166v.0547c0,.8525-.1172,1.5752-.3516,2.168-.2344,.5938-.5537,1.0469-.958,1.3604s-.8242,.5361-1.2598,.666c-.4346,.1309-.9141,.1963-1.4375,.1963-.7861,0-1.4941-.2373-2.1221-.7129-.0977,.2012-.1992,.335-.3057,.4023-.1074,.0674-.2793,.1006-.5176,.1006h-.8594c-.5732,0-.8604-.2861-.8604-.8594Zm2.5615-1.0322l.0645,.0732c.0488,.0488,.082,.084,.1006,.1045,.0176,.0215,.0547,.0566,.1094,.1055s.1025,.085,.1416,.1094c.04,.0244,.0898,.0596,.1514,.1045,.0605,.0459,.1201,.0781,.1777,.0957,.0586,.0186,.124,.04,.1973,.0645s.1533,.042,.2422,.0547c.0879,.0117,.1816,.0176,.2793,.0176,.4023,0,.7441-.0713,1.0244-.2139s.4863-.3008,.6172-.4746c.1309-.1729,.2334-.4258,.3066-.7568s.1143-.5928,.123-.7842c.0098-.1914,.0137-.4697,.0137-.835v-.1455c0-.3711-.0078-.666-.0225-.8848-.0156-.2188-.0537-.4854-.1143-.7979-.0615-.3135-.1543-.5537-.2793-.7207s-.3125-.3164-.5625-.4473c-.25-.1299-.5488-.1953-.8965-.1953-.585,0-1.1436,.2188-1.6738,.6562v4.8701Z"/><path class="cls-10" d="M149.3643,269.6387v-5.1494c0-.5488,.2744-.8232,.8232-.8232h.8594c.2744,0,.4805,.0566,.6172,.1689,.1377,.1133,.2119,.2109,.2246,.293,.0117,.082,.0244,.209,.0361,.3799v4.9854c0,.0488-.0029,.123-.0088,.2236s-.0088,.1758-.0088,.2246c0,.5488,.0684,.9141,.2051,1.0977,.1377,.1826,.4678,.2744,.9932,.2744,.5,0,.9521-.1846,1.3584-.5537,.4053-.3691,.6074-1.0049,.6074-1.9072v-4.208c0-.1885,.0078-.3301,.0234-.4248s.0352-.1602,.0596-.1973c.0244-.0361,.0791-.1006,.165-.1914,.1406-.1104,.3555-.165,.6426-.165h.8262c.5508,0,.833,.2627,.8447,.7871v6.9883c0,.5361-.2812,.8047-.8447,.8047h-.8809c-.5146,0-.7715-.2744-.7715-.8232-.4268,.415-.8525,.6904-1.2764,.8281-.4238,.1367-.9219,.2051-1.4951,.2051-.5488,0-1.0215-.0586-1.418-.1777s-.6934-.2607-.8916-.4258c-.1982-.1641-.3535-.3867-.4668-.668-.1133-.2803-.1787-.5244-.1963-.7314-.0186-.207-.0273-.4785-.0273-.8145Z"/><path class="cls-10" d="M159.2061,273.4551c0-.7812,.3604-1.3594,1.0801-1.7334-.3418-.4814-.5127-.9697-.5127-1.4639,0-.5332,.1768-1.0537,.5312-1.5615l-.0195-.0381c-.5059-.5723-.7588-1.2666-.7588-2.084,0-.3604,.0479-.7002,.1426-1.0176,.0957-.3184,.2656-.6465,.5107-.9863,.2461-.3398,.6387-.6104,1.1787-.8115,.54-.2021,1.2002-.3027,1.9795-.3027h.0557c.5029,0,.9326,.041,1.2891,.123,.3555,.082,.6191,.1621,.791,.2383s.2832,.1143,.332,.1143c.0352,0,.167-.0381,.3955-.1143s.5303-.1562,.9043-.2383,.7344-.123,1.082-.123c.1768,0,.29,.0479,.3389,.1436s.1035,.3281,.1641,.6992c.0127,.0986,.0273,.1787,.0459,.2412,.0127,.2402-.0947,.3613-.3203,.3613-.0244,0-.0928-.0098-.2051-.0283-.1133-.0176-.2676-.0332-.4619-.0449-.1953-.0127-.4062-.0186-.6318-.0186l-.4844,.0186c.2871,.5938,.4307,1.1709,.4307,1.7285,0,2.0732-1.2363,3.1104-3.709,3.1104-.7988,0-1.5176-.1279-2.1572-.3828-.0771,.1426-.1162,.2646-.1162,.3633,0,.6045,.3789,.9092,1.1348,.916h1.6504c.4697,0,.8486,.0059,1.1377,.0176s.6436,.0449,1.0615,.0996c.4189,.0537,.7549,.1426,1.0078,.2656s.5059,.2861,.7588,.4902c.2529,.2051,.4385,.4717,.5557,.8027,.1172,.3301,.1758,.7236,.1758,1.1797,0,1.0879-.5654,1.8525-1.6973,2.293-.6807,.2627-1.6494,.3945-2.9072,.3945-.2783,0-.5088-.0029-.6914-.0098-.1826-.0059-.4492-.0215-.7988-.0459s-.6543-.0742-.9141-.1514c-.2598-.0762-.5352-.1709-.8262-.2842s-.5479-.2715-.7705-.4766-.3955-.4395-.5195-.7021c-.1553-.3057-.2324-.6328-.2324-.9814Zm1.9307-.0361c0,.877,.9248,1.3154,2.7754,1.3154h.0732c.6904,0,1.2451-.0742,1.6631-.2227,.4189-.1484,.6875-.3057,.8066-.4717s.1787-.3486,.1787-.5488c0-.3564-.2061-.5996-.6182-.7295-.4131-.1309-1.0674-.1953-1.9658-.1953h-1.8418c-.5254,0-.8516,.1299-.9805,.3896-.0605,.1211-.0908,.2754-.0908,.4629Zm.8965-6.708c0,.5225,.083,.916,.25,1.1836,.167,.2666,.5273,.4004,1.0811,.4004,.5586,0,.9307-.1182,1.1162-.3555,.1855-.2363,.2783-.6455,.2783-1.2285v-.2998c0-.5342-.0869-.9316-.2598-1.1924-.1738-.2607-.5273-.3906-1.0625-.3906-.5469,0-.918,.1182-1.1123,.3545s-.291,.6465-.291,1.2285v.2998Z"/><path class="cls-10" d="M116.7354,278.4844c0-.335,.2197-.5029,.6592-.5029h1.0332c.0859,0,.1699,.0059,.252,.0186,.082,.0117,.1533,.0244,.2148,.0361,.0605,.0127,.1191,.04,.1738,.082,.0547,.043,.1016,.0732,.1416,.0918s.0811,.0596,.124,.123c.042,.0645,.0732,.1055,.0908,.124,.0186,.0186,.0479,.0713,.0869,.1602,.04,.0879,.0625,.1387,.0684,.1504,.0068,.0127,.0283,.0693,.0645,.1699,.0371,.1006,.0547,.1572,.0547,.1689l3.5039,9.5312c.1221-.4629,1.2773-3.6279,3.4668-9.4951,.085-.25,.1494-.4219,.1914-.5166,.043-.0947,.1143-.2041,.2158-.3291,.1006-.125,.2217-.209,.3652-.252,.1436-.042,.3281-.0635,.5537-.0635h.7861c.4268,0,.6406,.168,.6406,.5029,0,.0732-.0244,.1865-.0732,.3389l-4.125,11.0674c-.0732,.2012-.1299,.3467-.1699,.4346-.0391,.0889-.1045,.1953-.1963,.3203s-.209,.2119-.3525,.2607c-.1426,.0488-.3271,.0732-.5527,.0732h-1.7109c-.1406,0-.2686-.0088-.3838-.0273-.1162-.0186-.2148-.0566-.2979-.1143-.082-.0576-.1475-.0996-.1963-.124s-.1006-.0898-.1553-.1963-.0938-.1719-.1143-.1963c-.0215-.0244-.0566-.1055-.1055-.2432-.0488-.1367-.0732-.2119-.0732-.2236l-4.1074-11.0312c-.0488-.1523-.0732-.2656-.0732-.3389Z"/><path class="cls-10" d="M131.0146,279.2529v-.9336c0-.2012,.0215-.3643,.0635-.4893,.043-.125,.1211-.2129,.2334-.2646,.1133-.0518,.1973-.0811,.252-.0869s.1523-.0156,.293-.0273h.9512c.2617,0,.4727,.0586,.6309,.1777s.2383,.3496,.2383,.6904v.9697c0,.0977-.0107,.1875-.0322,.2705-.0215,.082-.0479,.1504-.0781,.2051-.0303,.0557-.0674,.1055-.1094,.1514-.043,.0459-.0869,.0781-.1328,.0957-.0459,.0186-.0957,.0371-.1514,.0547-.0547,.0186-.0967,.0283-.1279,.0283-.0303,0-.0703,.0059-.1182,.0176h-1.0527c-.2617,0-.4707-.0596-.626-.1777-.1553-.1191-.2334-.3467-.2334-.6816Zm.0732,10.7939v-6.8057c0-.5615,.2744-.8418,.8232-.8418h.7686c.2744,0,.4824,.0508,.626,.1514s.2275,.207,.252,.3193c.0244,.1133,.0361,.2676,.0361,.4619v6.8057c0,.5615-.2744,.8418-.8232,.8418h-.8594c-.2627,0-.459-.0625-.5898-.1875-.1318-.125-.2031-.2363-.2148-.334-.0127-.0977-.0186-.2344-.0186-.4111Z"/><path class="cls-10" d="M135.2959,286.6162c0-1.5244,.4072-2.6621,1.2236-3.4121,.8154-.75,1.9336-1.125,3.3535-1.125,.79,0,1.4639,.1162,2.0225,.3477s.9854,.5508,1.2803,.9561c.2959,.4053,.5059,.834,.6309,1.2852s.1875,.9512,.1875,1.5c0,.5371-.2832,.8047-.8506,.8047h-5.3418c.0488,1.8975,.8398,2.8447,2.373,2.8447,.5752,0,1.1016-.0898,1.5791-.2695,.4766-.1797,.8662-.3799,1.1709-.5986,.3037-.2197,.4824-.3359,.5361-.3477h.0811l.1006,.0361c.0664,.0615,.1191,.2012,.1553,.4209,.0371,.2197,.0557,.4238,.0557,.6133l.0205,.2744c0,.1641-.1064,.3018-.3193,.4111-1.0166,.5488-2.1553,.8262-3.417,.832-1.5859,0-2.79-.3867-3.6104-1.1611-.8213-.7744-1.2314-1.9121-1.2314-3.4121Zm2.5244-.8594h3.8691c-.0361-.7256-.1797-1.292-.4287-1.6973-.25-.4053-.7119-.6084-1.3877-.6084-1.2168,0-1.9004,.7686-2.0527,2.3057Z"/><path class="cls-10" d="M144.7715,282.9395c0-.3604,.2285-.54,.6846-.54h.5137c.3057,0,.543,.0625,.7109,.1875s.3008,.3613,.3965,.709c.9014,3.2197,1.3975,4.9756,1.4893,5.2686l1.5088-5.3418c.1533-.5488,.5117-.8232,1.0762-.8232h.0732c.3008,0,.5762,.0889,.8271,.2656l.166,.2744,1.6826,5.9092h.0186l1.5732-5.626c.1523-.5488,.5107-.8232,1.0752-.8232h.5283c.4492,0,.6748,.1797,.6748,.5371,0,.0371-.0098,.0869-.0273,.1523-.0176,.0645-.0283,.1025-.0322,.1143l-1.8662,6.7051c-.0488,.1895-.0869,.3193-.1143,.3887-.0273,.0703-.0811,.1748-.1611,.3115-.0791,.1377-.1924,.2334-.3389,.2891-.1475,.0547-.3252,.082-.5332,.082h-1.4873c-.1221,0-.2305-.0088-.3262-.0273-.0947-.0186-.1768-.04-.2471-.0645-.0713-.0244-.1338-.0742-.1885-.1504-.0557-.0762-.1025-.1357-.1426-.1787-.04-.042-.0811-.1289-.124-.2607-.043-.1309-.0732-.2285-.0918-.293-.0186-.0635-.0518-.1885-.1006-.375-.0488-.1855-.0889-.3242-.1191-.416-.5518-1.9873-.8818-3.4023-.9922-4.2441-.0371,.5615-.4502,2.2715-1.2393,5.1318-.0859,.3105-.2109,.5352-.377,.6719-.165,.1377-.4033,.2061-.7158,.2061h-.7344c-.0859,0-.1729-.0059-.2617-.0186-.0889-.0117-.1602-.0273-.2158-.0459-.0547-.0176-.1113-.0498-.1699-.0957-.0576-.0459-.1055-.0781-.1406-.0957-.0361-.0186-.0723-.0615-.1084-.1279-.0361-.0674-.0645-.1104-.0859-.1289-.0205-.0176-.043-.0684-.0674-.1504-.0234-.082-.0391-.1328-.0449-.1514-.0059-.0176-.0205-.0713-.0449-.1602-.0244-.0879-.0361-.1387-.0361-.1504l-1.8096-6.5771c-.0361-.1152-.0547-.2285-.0547-.3379Z"/><path class="cls-10" d="M158.8125,290.0469c0-.0488,.0762-.4883,.2295-1.3174,.0361-.2871,.124-.4297,.2646-.4297,.0615,0,.207,.1172,.4395,.3516,.2314,.2344,.5713,.4727,1.0195,.7139s.9648,.3613,1.5508,.3613c.9756,0,1.4629-.334,1.4629-1,0-.3486-.1494-.6045-.4473-.7666-.2998-.1621-.7373-.29-1.3135-.3848s-.9619-.1787-1.1562-.252c-.4883-.1904-.9355-.4912-1.3408-.9043-.4053-.4121-.6084-.959-.6084-1.6377,0-1.752,1.0488-2.6533,3.1475-2.7021h.4844c.7988,.0127,1.5605,.168,2.2871,.4668,.1885,.0732,.3105,.1357,.3652,.1875,.0557,.0518,.083,.1416,.083,.2695,0,.0732-.0615,.4678-.1836,1.1826-.0488,.1895-.125,.2812-.2285,.2754-.085,0-.2314-.084-.4385-.2529-.208-.168-.5049-.3359-.8926-.5049-.3867-.168-.8486-.252-1.3857-.252-.9268,0-1.3906,.2998-1.3906,.8994,0,.3242,.1758,.5605,.5264,.7109,.3506,.1494,.8232,.2783,1.418,.3848,.5947,.1074,1.0293,.2373,1.3037,.3906,.2373,.1094,.4619,.2539,.6719,.4307,.2109,.1777,.4258,.457,.6445,.8398,.2197,.3818,.3301,.8027,.3301,1.2607,0,1.0439-.3008,1.7754-.9014,2.1934-.6006,.4189-1.4258,.6279-2.4746,.6279-1.2988,0-2.4141-.3018-3.3477-.9053l-.0732-.0918c-.0303-.0723-.0459-.1211-.0459-.1455Z"/></g></g><g><line class="cls-3" x1="194.9531" y1="276.0974" x2="232.8533" y2="276.0974"/><polygon class="cls-10" points="195.6826 278.5905 191.365 276.0974 195.6826 273.6042 195.6826 278.5905"/><polygon class="cls-10" points="232.1238 278.5905 236.4414 276.0974 232.1238 273.6042 232.1238 278.5905"/></g><g><rect class="cls-5" x="76.3419" y="125.4796" width="276.8935" height="89.8651" rx="10" ry="10"/><g><g><line class="cls-3" x1="179.7124" y1="170.4121" x2="249.865" y2="170.4121"/><polygon class="cls-10" points="249.1355 172.9053 253.4531 170.4121 249.1355 167.9189 249.1355 172.9053"/></g><g><g><polygon class="cls-6" points="165.0304 149.7805 165.0304 197.8691 129.3753 197.8691 129.3753 156.578 137.9349 149.7805 165.0304 149.7805"/><polyline class="cls-3" points="129.3753 156.578 137.6008 158.1005 137.945 149.5983"/><line class="cls-3" x1="142.6059" y1="155.4569" x2="161.3023" y2="155.4569"/><line class="cls-3" x1="142.6059" y1="160.1979" x2="161.3023" y2="160.1979"/><line class="cls-3" x1="133.5339" y1="176.2427" x2="161.3023" y2="176.2427"/><line class="cls-3" x1="133.5339" y1="180.4816" x2="161.3023" y2="180.4816"/><rect class="cls-5" x="129.3753" y="184.5924" width="35.6551" height="13.2767"/><g><path class="cls-10" d="M139.6133,172.4502c0-.0576,.0156-.1387,.0488-.2422l2.6953-7.6562c.0664-.1943,.1553-.3398,.2666-.4375,.1123-.0967,.29-.1455,.5342-.1455h1.1494c.1523,0,.2803,.0166,.3818,.0498,.1006,.0332,.1855,.1025,.2539,.208s.1113,.1777,.1279,.2168c.0156,.04,.0488,.1357,.0986,.2891l2.6328,7.501c.0332,.1035,.0498,.1758,.0498,.2168,0,.2275-.1572,.3418-.4717,.3418h-.6709c-.0742,0-.1416-.002-.2012-.0059-.0605-.0049-.1182-.0215-.1738-.0498-.0566-.0293-.1006-.0547-.1338-.0781-.0332-.0225-.0713-.0693-.1152-.1396-.043-.0703-.0771-.1289-.1025-.1768-.0244-.0479-.0605-.1328-.1084-.2549s-.0859-.2275-.1152-.3164c-.0283-.0889-.0752-.2246-.1396-.4062-.0635-.1826-.1211-.3457-.1709-.4912h-3.626c-.0576,.1533-.1191,.3291-.1826,.5283-.0645,.1982-.1133,.3447-.1465,.4375s-.0732,.2012-.1211,.3232-.0879,.209-.1211,.2607-.0732,.1094-.1211,.1738c-.0479,.0635-.0957,.1045-.1455,.1211s-.1094,.0332-.1768,.0498c-.0684,.0166-.1484,.0244-.2393,.0244h-.4717c-.3232,0-.4844-.1143-.4844-.3418Zm2.5947-2.6699h2.8633c-.8652-2.4756-1.3418-3.8828-1.4287-4.2227-.083,.3066-.5605,1.7139-1.4346,4.2227Z"/><path class="cls-10" d="M148.9521,172.001c0-.0664,.0605-.4219,.1816-1.0674,.041-.2529,.1104-.3789,.2061-.3789,.0498,0,.1523,.0586,.3066,.1768s.3252,.252,.5127,.4014c.1885,.1494,.4736,.2832,.8574,.4014s.8076,.1777,1.2705,.1777c.9727,0,1.458-.4189,1.458-1.2559,0-.5039-.2451-.875-.7363-1.1123-.0928-.042-.1846-.0732-.2773-.0957s-.2734-.0664-.5439-.1318c-.2695-.0645-.5537-.1328-.8516-.2051-.542-.1367-1.04-.4258-1.4932-.8682s-.6797-1.0156-.6797-1.7188c0-.3066,.0352-.5918,.1074-.8545,.0713-.2627,.2061-.541,.4023-.833s.5146-.5254,.9551-.6992c.4395-.1738,.9834-.2607,1.6299-.2607,.4268,0,.8486,.0527,1.2656,.1582,.416,.1055,.7334,.2119,.9502,.3174,.2178,.1055,.335,.1875,.3516,.2451,.0078,.0166,.0137,.0479,.0176,.0938,0,.1367-.0742,.582-.2236,1.3359-.0332,.0947-.0752,.1406-.1279,.1367-.0645,0-.1504-.0508-.2578-.1523-.1064-.1016-.2266-.2119-.3584-.3301-.1328-.1182-.3545-.2285-.666-.3301-.3125-.1016-.6768-.1523-1.0938-.1523-.5186,0-.8799,.1084-1.083,.3232-.2031,.2158-.3047,.4688-.3047,.7578,0,.2197,.0547,.4062,.165,.5596,.1094,.1533,.2695,.2744,.4805,.3633s.415,.1572,.6123,.2051c.1963,.0479,.4287,.1045,.6982,.1689,.2695,.0654,.4775,.1162,.627,.1523,.54,.1777,1.0088,.5059,1.4053,.9834s.5947,1.0625,.5947,1.7559c0,.3711-.0469,.7139-.1396,1.0273-.0938,.3135-.25,.6094-.4688,.8877-.2197,.2783-.542,.4961-.9658,.6523-.4248,.1572-.9326,.2354-1.5244,.2354-.5098,0-1.0225-.0664-1.54-.2002-.5176-.1328-.9199-.2734-1.208-.4209-.2871-.1475-.4502-.2607-.4873-.3389-.0166-.0654-.0244-.1025-.0244-.1104Z"/></g></g><g><path class="cls-10" d="M104.1611,143.8984c0-.0811,.0742-.5156,.2217-1.3047,.0508-.3086,.1348-.4629,.252-.4629,.0615,0,.1865,.0723,.375,.2168s.3975,.3076,.627,.4902,.5791,.3457,1.0479,.4902c.4697,.1445,.9873,.2168,1.5527,.2168,1.1885,0,1.7822-.5117,1.7822-1.5352,0-.6162-.2998-1.0684-.9004-1.3594-.1123-.0508-.2256-.0898-.3389-.1172s-.334-.0801-.6641-.1602c-.3301-.0791-.6768-.1631-1.041-.251-.6631-.167-1.2715-.5205-1.8252-1.0615s-.8311-1.2412-.8311-2.1006c0-.374,.0439-.7227,.1318-1.0439,.0869-.3223,.251-.6611,.4912-1.0186,.2402-.3564,.6299-.6416,1.167-.8545,.5381-.2119,1.2021-.3184,1.9932-.3184,.5215,0,1.0371,.0645,1.5459,.1934s.8965,.2588,1.1621,.3877,.4092,.2285,.4287,.2998c.0098,.0205,.0176,.0576,.0225,.1143,0,.167-.0908,.7109-.2744,1.6328-.0391,.1162-.0908,.1719-.1553,.167-.0791,0-.1846-.0625-.3154-.1865s-.2764-.2588-.4385-.4033c-.1611-.1436-.4326-.2783-.8135-.4023-.3818-.124-.8271-.1865-1.3369-.1865-.6338,0-1.0752,.1318-1.3232,.3945-.248,.2637-.3721,.5723-.3721,.9268,0,.2686,.0664,.4961,.2012,.6836,.1338,.1875,.3301,.335,.5879,.4443,.2578,.1084,.5068,.1924,.7471,.25,.2402,.0586,.5254,.1279,.8535,.207,.3291,.0801,.585,.1416,.7666,.1855,.6602,.2178,1.2324,.6191,1.7178,1.2021,.4844,.584,.7266,1.2988,.7266,2.1455,0,.4541-.0576,.873-.1709,1.2559-.1143,.3838-.3047,.7451-.5732,1.085-.2686,.3408-.6611,.6064-1.1797,.7979-.5186,.1924-1.1396,.2881-1.8633,.2881-.6221,0-1.25-.082-1.8818-.2451-.6328-.1621-1.125-.334-1.4766-.5146s-.5498-.3184-.5957-.4141c-.0205-.0801-.0303-.125-.0303-.1348Z"/><path class="cls-10" d="M113.4424,141.3818c0-.7441,.1016-1.3799,.3037-1.9092,.2021-.5283,.4795-.9326,.834-1.2139,.3535-.2803,.7256-.4805,1.1172-.5996s.8252-.1787,1.3008-.1787c.2676,0,.5039,.0059,.709,.0156,.2041,.0098,.4531,.0439,.7461,.1025,.2939,.0586,.5488,.1387,.7666,.2432,.2168,.1035,.4463,.2539,.6855,.4512,.2402,.1973,.4375,.4297,.5918,.6982s.2803,.6123,.3789,1.0322,.1484,.8926,.1484,1.4189c0,2.3936-1.2588,3.5928-3.7754,3.5977-2.5381-.0049-3.8066-1.2246-3.8066-3.6582Zm2.125,.1592c.0107,.2686,.0205,.4697,.0303,.6035,.0107,.1338,.0469,.3291,.1104,.584,.0635,.2559,.1475,.4482,.251,.5771,.1045,.1289,.2656,.248,.4834,.3564,.2178,.1094,.4834,.1631,.7949,.1631s.5771-.0537,.7949-.1631c.2178-.1084,.3818-.2334,.4902-.375,.1094-.1416,.1943-.334,.2549-.5771s.0967-.4492,.1064-.6182c.0107-.1699,.0156-.3857,.0156-.6494v-.5391c0-.2168-.0049-.3799-.0156-.4893-.0098-.1084-.0273-.2715-.0527-.4893s-.0752-.3887-.1484-.5127-.1699-.2568-.2891-.3984-.2773-.2422-.4756-.3037c-.1973-.0605-.4307-.0908-.6992-.0908-.3203,0-.5908,.0566-.8145,.1709-.2227,.1143-.3867,.2402-.4902,.3799-.1045,.1387-.1855,.3467-.2441,.6221-.0576,.2754-.0898,.4883-.0947,.6377s-.0078,.3779-.0078,.6865v.4248Z"/><path class="cls-10" d="M122.4434,142.7021v-4.2725c0-.4551,.2275-.6836,.6836-.6836h.7129c.2275,0,.3984,.0469,.5127,.1406,.1133,.0938,.1758,.1748,.1855,.2432s.0205,.1729,.0303,.3145v4.1367c0,.04-.0029,.1025-.0078,.1855-.0049,.084-.0068,.1455-.0068,.1865,0,.4551,.0566,.7588,.1699,.9102,.1143,.1523,.3887,.2275,.8242,.2275,.4141,0,.79-.1523,1.127-.459,.3359-.3057,.5039-.833,.5039-1.582v-3.4912c0-.1572,.0068-.2744,.0195-.3525,.0127-.0791,.0293-.1328,.0498-.1631,.0195-.0312,.0654-.084,.1367-.1602,.1162-.0908,.2939-.1367,.5332-.1367h.6855c.457,0,.6904,.2178,.7002,.6533v5.7979c0,.4453-.2334,.668-.7002,.668h-.7314c-.4268,0-.6396-.2275-.6396-.6826-.3545,.3438-.707,.5723-1.0586,.6865-.3516,.1133-.7656,.1709-1.2412,.1709-.4551,0-.8477-.0498-1.1758-.1484-.3291-.0986-.5762-.2158-.7402-.3525-.165-.1367-.2939-.3213-.3877-.5537-.0928-.2334-.1475-.4355-.1631-.6074-.0146-.1719-.0225-.3975-.0225-.6758Z"/><path class="cls-10" d="M131.1709,144.1973v-5.8281c0-.2988,.0645-.4902,.1934-.5732s.3027-.125,.5205-.125h.5156c.2783,0,.4854,.0645,.6221,.1953,.0713,.0801,.1113,.1621,.1221,.2471,.0098,.085,.0195,.3203,.0303,.7061,.248-.3408,.5479-.6123,.8994-.8154s.6279-.3252,.8311-.3682c.2021-.042,.3818-.0635,.5381-.0635h.0156c.1367,0,.2227,.0264,.2578,.0781,.0352,.0527,.0537,.1416,.0537,.2676v.8564c0,.1152-.0254,.207-.0762,.2773-.0605,.0508-.1973,.0898-.4102,.1182-.2119,.0283-.4023,.0674-.5693,.1182-.3535,.127-.6602,.3193-.918,.5781s-.4248,.5576-.501,.8975c-.0303,.1377-.0459,.335-.0459,.5938v2.7314c0,.2188-.0146,.3604-.0449,.4268-.0303,.0654-.1094,.1514-.2354,.2588-.127,.0605-.2705,.0908-.4326,.0908h-.668c-.2783,0-.4639-.0615-.5576-.1855s-.1406-.2852-.1406-.4824Z"/><path class="cls-10" d="M136.5742,141.3213c0-2.5605,1.2627-3.8408,3.7871-3.8408,.9004,0,1.7402,.2129,2.5195,.6377,.0811,.0508,.124,.1348,.1289,.251-.0498,.8096-.1768,1.2139-.3789,1.2139-.0713,0-.2324-.1035-.4863-.3105-.2529-.208-.498-.3545-.7354-.4404-.2686-.0908-.668-.1367-1.1992-.1367-.2783,.0098-.5186,.0771-.7207,.2012-.2031,.124-.3535,.2646-.4521,.4209-.0986,.1572-.1768,.3594-.2354,.6074-.0576,.248-.0898,.4463-.0947,.5957s-.0078,.3428-.0078,.5801v.2959c0,.2588,.0049,.4707,.0156,.6377,.0098,.167,.0439,.375,.1025,.623,.0576,.2471,.1416,.4473,.25,.5986,.1094,.1523,.2695,.2852,.4824,.3984,.2119,.1143,.4678,.1709,.7666,.1709,.374,0,.7168-.0488,1.0283-.1475,.3105-.0986,.5488-.208,.7129-.3262,.1641-.1191,.3174-.2334,.459-.3418s.2432-.168,.3037-.1787l.0762,.0156c.0605,.04,.0977,.0977,.1104,.1709,.0117,.0732,.0439,.3779,.0947,.9141v.1289c0,.1475-.1045,.2764-.3115,.3877-.7588,.3945-1.5986,.5918-2.5195,.5918-2.4639-.0049-3.6963-1.2451-3.6963-3.7188Z"/><path class="cls-10" d="M144.0723,141.2451c0-1.2646,.3389-2.208,1.0156-2.8311,.6768-.6221,1.6045-.9336,2.7832-.9336,.6543,0,1.2139,.0967,1.6768,.2891,.4639,.1924,.8184,.4561,1.0635,.793,.2441,.3369,.4189,.6914,.5225,1.0664,.1045,.374,.1562,.7891,.1562,1.2441,0,.4453-.2354,.668-.7061,.668h-4.4316c.04,1.5732,.6963,2.3604,1.9678,2.3604,.4785,0,.915-.0742,1.3105-.2236s.7197-.3154,.9717-.4971c.252-.1826,.4004-.2783,.4453-.2891h.0664l.084,.0312c.0547,.0498,.0986,.167,.1289,.3486,.0303,.1826,.0459,.3516,.0459,.5088l.0166,.2275c0,.1367-.0879,.25-.2637,.3418-.8438,.4551-1.7891,.6855-2.835,.6904-1.3164,0-2.3154-.3213-2.9961-.9639-.6816-.6426-1.0225-1.5859-1.0225-2.8311Zm2.0947-.7129h3.21c-.0303-.6025-.1484-1.0713-.3555-1.4082s-.5908-.5049-1.1504-.5049c-1.0098,0-1.5781,.6377-1.7041,1.9131Z"/><path class="cls-10" d="M158.1807,139.4727c0-3.832,1.9131-5.748,5.7373-5.748,.8398,0,1.7607,.1494,2.7627,.4473,.1768,.0605,.2959,.124,.3564,.1895,.0303,.0615,.0459,.1113,.0459,.1523,0,.04-.0762,.4854-.2275,1.3359-.0605,.2988-.1396,.4512-.2354,.4561-.0508,0-.1523-.0518-.3037-.1562-.1514-.1035-.3174-.2207-.4971-.3525s-.4443-.25-.793-.3535c-.3496-.1035-.7236-.1553-1.123-.1553-2.3428,0-3.5137,1.3896-3.5137,4.1699,0,.6123,.0537,1.1582,.1631,1.6367,.1084,.4785,.2891,.917,.542,1.3145s.6211,.7051,1.1045,.9229,1.0713,.3262,1.7646,.3262c.5059,0,.9531-.0518,1.3428-.1562s.6699-.2197,.8389-.3447c.1699-.124,.3281-.2393,.4746-.3438s.2656-.1562,.3564-.1562c.0205,0,.0381,.002,.0537,.0068,.0146,.0059,.0303,.0156,.0449,.0303,.0156,.0156,.0254,.0322,.0303,.0498s.0137,.042,.0264,.0723,.0215,.0576,.0273,.083c.0049,.0254,.0098,.0586,.0146,.0986,.0049,.041,.0098,.0771,.0156,.1104,.0049,.0332,.0098,.0771,.0146,.1328s.0078,.0986,.0078,.1289c.0098,.127,.0205,.2393,.0303,.3379s.0176,.166,.0225,.2012c.0059,.0352,.0078,.0654,.0078,.0908v.0762c0,.0508-.0049,.0908-.0146,.1211-.0107,.0303-.0332,.0635-.0684,.0986-.0361,.0352-.0596,.0596-.0723,.0723s-.0498,.0342-.1104,.0645l-.1064,.0605c-.5059,.2891-.9688,.4824-1.3887,.5811s-.9639,.1475-1.6318,.1475c-3.7988,0-5.6992-1.916-5.6992-5.749Z"/><path class="cls-10" d="M168.6309,141.3818c0-.7441,.1016-1.3799,.3037-1.9092,.2021-.5283,.4795-.9326,.834-1.2139,.3535-.2803,.7256-.4805,1.1172-.5996s.8252-.1787,1.3008-.1787c.2676,0,.5039,.0059,.709,.0156,.2041,.0098,.4531,.0439,.7461,.1025,.2939,.0586,.5488,.1387,.7666,.2432,.2168,.1035,.4463,.2539,.6855,.4512,.2402,.1973,.4375,.4297,.5918,.6982s.2803,.6123,.3789,1.0322,.1484,.8926,.1484,1.4189c0,2.3936-1.2588,3.5928-3.7754,3.5977-2.5381-.0049-3.8066-1.2246-3.8066-3.6582Zm2.125,.1592c.0107,.2686,.0205,.4697,.0303,.6035,.0107,.1338,.0469,.3291,.1104,.584,.0635,.2559,.1475,.4482,.251,.5771,.1045,.1289,.2656,.248,.4834,.3564,.2178,.1094,.4834,.1631,.7949,.1631s.5771-.0537,.7949-.1631c.2178-.1084,.3818-.2334,.4902-.375,.1094-.1416,.1943-.334,.2549-.5771s.0967-.4492,.1064-.6182c.0107-.1699,.0156-.3857,.0156-.6494v-.5391c0-.2168-.0049-.3799-.0156-.4893-.0098-.1084-.0273-.2715-.0527-.4893s-.0752-.3887-.1484-.5127-.1699-.2568-.2891-.3984-.2773-.2422-.4756-.3037c-.1973-.0605-.4307-.0908-.6992-.0908-.3203,0-.5908,.0566-.8145,.1709-.2227,.1143-.3867,.2402-.4902,.3799-.1045,.1387-.1855,.3467-.2441,.6221-.0576,.2754-.0898,.4883-.0947,.6377s-.0078,.3779-.0078,.6865v.4248Z"/><path class="cls-10" d="M177.7539,141.1543c.0195-1.2852,.3223-2.2031,.9072-2.7549,.584-.5518,1.3389-.8271,2.2646-.8271,.7139,0,1.3613,.1865,1.9434,.5615v-3.8096c0-.4561,.2266-.6836,.6807-.6836h.6201c.2266,0,.3984,.0391,.5176,.1182,.1182,.0781,.1904,.1621,.2158,.25,.0244,.0889,.0371,.2012,.0371,.3379v9.8047c0,.4766-.2314,.7139-.6953,.7139h-.7109c-.3828,0-.623-.167-.7188-.501-.6221,.4453-1.2793,.6709-1.9727,.6758-1.5635,0-2.5381-.7314-2.9219-2.1934-.1113-.4355-.167-.999-.167-1.6924Zm2.125,.2734c0,.2881,.0049,.5186,.0146,.6904,.0107,.1719,.0449,.3857,.1025,.6406,.0586,.2559,.1396,.4561,.2432,.5996,.1035,.1445,.2588,.2715,.4668,.3799,.207,.1084,.4551,.1631,.7432,.1631,.3447,0,.6582-.0957,.9414-.2881s.4248-.4023,.4248-.6299v-3.8105c-.0098,0-.0352-.0176-.0752-.0527-.041-.0352-.0811-.0684-.1221-.0986-.04-.0303-.0977-.0674-.1709-.1104s-.1484-.0771-.2275-.1025c-.0781-.0244-.1719-.0479-.2803-.0674-.1094-.0205-.2188-.0312-.3301-.0312-.3193,0-.5957,.0576-.8311,.1709-.2354,.1143-.4102,.2432-.5244,.3877-.1133,.1436-.1992,.3438-.2578,.5996-.0576,.2549-.0918,.46-.1025,.6143-.0098,.1543-.0146,.3604-.0146,.6182v.3271Z"/><path class="cls-10" d="M186.3672,141.2451c0-1.2646,.3389-2.208,1.0156-2.8311,.6768-.6221,1.6045-.9336,2.7832-.9336,.6543,0,1.2139,.0967,1.6768,.2891,.4639,.1924,.8184,.4561,1.0635,.793,.2441,.3369,.4189,.6914,.5225,1.0664,.1045,.374,.1562,.7891,.1562,1.2441,0,.4453-.2354,.668-.7061,.668h-4.4316c.04,1.5732,.6963,2.3604,1.9678,2.3604,.4785,0,.915-.0742,1.3105-.2236s.7197-.3154,.9717-.4971c.252-.1826,.4004-.2783,.4453-.2891h.0664l.084,.0312c.0547,.0498,.0986,.167,.1289,.3486,.0303,.1826,.0459,.3516,.0459,.5088l.0166,.2275c0,.1367-.0879,.25-.2637,.3418-.8438,.4551-1.7891,.6855-2.835,.6904-1.3164,0-2.3154-.3213-2.9961-.9639-.6816-.6426-1.0225-1.5859-1.0225-2.8311Zm2.0947-.7129h3.21c-.0303-.6025-.1484-1.0713-.3555-1.4082s-.5908-.5049-1.1504-.5049c-1.0098,0-1.5781,.6377-1.7041,1.9131Z"/></g></g><g><g><polygon class="cls-6" points="306.3276 149.7805 306.3276 197.8691 270.6725 197.8691 270.6725 156.578 279.2321 149.7805 306.3276 149.7805"/><polyline class="cls-3" points="270.6725 156.578 278.898 158.1005 279.2422 149.5983"/><line class="cls-3" x1="283.9031" y1="155.4569" x2="302.5995" y2="155.4569"/><line class="cls-3" x1="283.9031" y1="160.1979" x2="302.5995" y2="160.1979"/><line class="cls-3" x1="274.8311" y1="176.2427" x2="302.5995" y2="176.2427"/><line class="cls-3" x1="274.8311" y1="180.4816" x2="302.5995" y2="180.4816"/><line class="cls-3" x1="274.8311" y1="184.7205" x2="302.5995" y2="184.7205"/><g><path class="cls-10" d="M274.9609,166.2139c0-.1895,.123-.2842,.3691-.2842h.3223c.3027,0,.4854,.1309,.5479,.3926l1.0176,3.9141c.126,.4453,.2402,.8877,.3457,1.3271,.0264-.1582,.1396-.623,.3398-1.3955,.2002-.7715,.417-1.584,.6494-2.4375,.2334-.8525,.3535-1.2949,.3594-1.3271,.0195-.0645,.0371-.1172,.0518-.1572s.043-.0898,.085-.1504c.043-.0596,.1006-.1016,.1738-.1279,.0732-.0254,.167-.0381,.2812-.0381h.6943c.1201,0,.2207,.0127,.2998,.0381,.0801,.0254,.1416,.0732,.1836,.1416,.042,.0693,.0713,.124,.0879,.1641s.0391,.1113,.0684,.2139l.9258,3.5088c.1904,.6865,.3271,1.2051,.4111,1.5566l1.375-5.1758c.0449-.1592,.1094-.2734,.1943-.3428,.0859-.0703,.2119-.1045,.3789-.1045h.2461c.25,0,.376,.0986,.376,.2959,0,.0254-.0117,.0859-.0342,.1797l-1.5488,5.7764c-.0654,.2559-.1377,.4199-.2188,.4902-.0938,.0801-.2266,.1201-.3975,.1201h-.7666c-.1455,0-.2646-.0332-.3564-.0986-.0928-.0664-.1504-.1279-.1748-.1836-.0244-.0566-.0498-.1416-.0752-.2539l-.8984-3.3809c-.0186-.0684-.084-.3154-.1973-.7402s-.1992-.748-.2578-.9688l-1.3584,5.0898c0,.0068-.0049,.0303-.0137,.0703-.0098,.04-.0186,.0684-.0244,.084-.0068,.0166-.0166,.043-.0293,.0801s-.0254,.0635-.0381,.0801c-.0137,.0156-.0322,.0381-.0557,.0674-.0244,.0283-.0498,.0508-.0752,.0654-.0254,.0137-.0557,.0293-.0898,.0449-.0332,.0166-.0732,.0283-.1182,.0342-.0449,.0068-.0947,.0098-.1494,.0098h-.7109c-.0869,0-.1621-.0117-.2246-.0342s-.1123-.0449-.1475-.0693-.0684-.0635-.0986-.1182c-.0312-.0547-.0508-.0957-.0605-.123s-.0244-.0791-.0439-.1543c-.0195-.0762-.0322-.1201-.0381-.1328l-1.5527-5.7676c-.0195-.0605-.0293-.1201-.0293-.1787Z"/><path class="cls-10" d="M284.9873,171.4346c0-.2568,.0771-.4805,.2305-.6709,.1543-.1904,.3389-.3379,.5547-.4443s.4707-.1904,.7656-.2539c.2949-.0625,.5498-.1035,.7656-.123s.4336-.0283,.6533-.0283v-.2031c0-.2754-.0459-.4941-.1396-.6533-.0928-.1602-.2803-.2402-.5635-.2402-.2578,0-.4932,.0332-.7041,.0996-.2119,.0664-.3691,.1396-.4707,.2217s-.1973,.1572-.2881,.2266c-.0898,.0693-.1562,.1045-.1992,.1045l-.0391-.0068-.0391-.0195c-.0195-.0322-.0381-.1123-.0547-.2412-.0156-.1289-.0273-.2461-.0342-.3525l-.0146-.168c0-.0322,.0029-.0566,.0078-.0723,.0049-.0166,.0166-.0352,.0361-.0557,.0205-.0215,.0352-.0352,.0449-.041,.0098-.0068,.0381-.0195,.0859-.0391,.0479-.0186,.084-.0352,.1104-.0488,.4766-.2217,.9961-.332,1.5586-.332,.7529,0,1.2842,.1416,1.5928,.4248s.4629,.6924,.4629,1.2266v2.6035c0,.2959-.1494,.4443-.4473,.4443h-.4766c-.1465,0-.251-.0391-.3145-.1182s-.0947-.1719-.0947-.2783c-.4375,.335-.9492,.5039-1.5361,.5078-.4434,0-.7969-.1523-1.0596-.457-.2627-.3037-.3936-.6406-.3936-1.0117Zm1.3232,0c0,.1904,.0625,.3613,.1875,.5146s.2891,.2295,.4912,.2295c.2246,0,.4424-.0713,.6523-.2129,.2109-.1416,.3154-.373,.3154-.6953v-.7725c-.2021,.0195-.376,.04-.5225,.0625-.1455,.0225-.3174,.0654-.5146,.1279-.1973,.0635-.3486,.1592-.4531,.2881-.1045,.1279-.1562,.2812-.1562,.458Z"/><path class="cls-10" d="M290.1885,172.2998c0-.0264,.04-.2578,.1201-.6963,.0195-.1504,.0664-.2266,.1406-.2266,.0322,0,.1094,.0625,.2314,.1855,.1221,.124,.3018,.25,.5391,.377,.2363,.127,.5088,.1904,.8184,.1904,.5146,0,.7725-.1758,.7725-.5273,0-.1846-.0791-.3193-.2363-.4043-.1582-.0859-.3887-.1533-.6934-.2041-.3037-.0498-.5078-.0938-.6104-.1328-.2578-.0996-.4941-.2588-.708-.4775-.2139-.2178-.3213-.5059-.3213-.8643,0-.9248,.5537-1.4004,1.6611-1.4268h.2568c.4209,.0068,.8232,.0889,1.207,.2461,.0996,.0391,.1641,.0723,.1934,.0996,.0283,.0273,.043,.0742,.043,.1426,0,.0381-.0322,.2461-.0967,.624-.0254,.0996-.0654,.1484-.1201,.1455-.0459,0-.123-.0449-.2324-.1338s-.2666-.1777-.4707-.2666-.4482-.1328-.7314-.1328c-.4893,0-.7344,.1582-.7344,.4746,0,.1709,.0928,.2959,.2783,.375,.1846,.0791,.4346,.1475,.748,.2041,.3145,.0566,.543,.125,.6885,.2061,.125,.0576,.2441,.1338,.3545,.2275,.1113,.0938,.2246,.2412,.3408,.4424,.1162,.2021,.1738,.4238,.1738,.666,0,.5518-.1582,.9375-.4756,1.1582-.3174,.2217-.7529,.332-1.3066,.332-.6855,0-1.2744-.1592-1.7676-.4785l-.0381-.0479c-.0166-.0391-.0244-.0645-.0244-.0771Z"/><path class="cls-10" d="M294.6416,172.3477v-3.6992c0-.29,.1475-.4346,.4443-.4346h.3955c.0645,0,.1152,.0029,.1523,.0098,.0371,.0059,.084,.0205,.1396,.043,.0566,.0225,.0977,.0654,.123,.1279,.0264,.0635,.0391,.1445,.0391,.2441v.1982c.126-.1191,.2246-.21,.2969-.2734,.0723-.0625,.2373-.1475,.4951-.2529,.2578-.1064,.5312-.1602,.8213-.1602,.3877,0,.6885,.0586,.9023,.1748,.2139,.1152,.3701,.3018,.4697,.5596,.4092-.4893,.958-.7344,1.6455-.7344,.2852,0,.5234,.0352,.7178,.1045,.1934,.0693,.3389,.1484,.4355,.2393,.0977,.0898,.1709,.2188,.2207,.3857,.0508,.168,.0781,.3057,.085,.416,.0068,.1094,.0098,.2617,.0098,.458v2.5938c0,.1445-.0312,.2549-.0947,.3311-.0625,.0752-.1846,.1133-.3652,.1133h-.4365c-.0518,0-.0996-.0029-.1436-.0098-.043-.0059-.0791-.0156-.1084-.0293-.0293-.0127-.0537-.0273-.0732-.0459-.0195-.0176-.0381-.0371-.0557-.0596s-.0312-.042-.041-.0586c-.0098-.0156-.0166-.041-.0195-.0742-.0029-.0342-.0059-.0557-.0098-.0654-.0029-.0098-.0049-.0303-.0049-.0625v-2.748c0-.126-.0029-.2217-.0098-.2881-.0059-.0654-.0273-.1416-.0625-.2266s-.0957-.1484-.1797-.1885-.1953-.0605-.334-.0605c-.2715,0-.4951,.084-.6729,.251-.1777,.168-.3008,.3574-.3682,.5703-.0322,.1123-.0488,.2832-.0488,.5117v2.1035c0,.0244-.0078,.0674-.0234,.1299-.0166,.0635-.0381,.1172-.0654,.1621s-.0693,.0879-.127,.1279c-.0586,.04-.1309,.0605-.2168,.0605h-.4521c-.1836,0-.3066-.0381-.3711-.1133-.0645-.0762-.0957-.1865-.0957-.3311v-2.7529c0-.2578-.04-.4414-.1191-.5527-.0781-.1113-.2285-.167-.4512-.167-.29,0-.5439,.1104-.7627,.3311-.2197,.2207-.3291,.5293-.3291,.9248v2.2168c0,.2959-.1475,.4443-.4443,.4443h-.4443c-.3086,0-.4629-.1484-.4629-.4443Z"/></g><line class="cls-3" x1="274.8311" y1="188.9594" x2="302.5995" y2="188.9594"/><line class="cls-3" x1="274.8311" y1="193.1983" x2="302.5995" y2="193.1983"/></g><g><path class="cls-10" d="M258.0488,144.1514v-9.3574c0-.1465,.0137-.2637,.042-.3525s.0996-.1709,.2139-.2471c.1143-.0752,.2754-.1133,.4834-.1133h3.3242c.5176,0,.9385,.0098,1.2617,.0303,.3223,.0205,.7363,.0996,1.2422,.2393,.5059,.1387,.9082,.3477,1.208,.625,.5391,.4961,.8105,1.1279,.8154,1.8965,0,.1973-.0215,.3867-.0654,.5684s-.1064,.3398-.1885,.4736c-.083,.1348-.1689,.2578-.2588,.3721-.0898,.1133-.2031,.2148-.3398,.3027-.1357,.0889-.2539,.165-.3545,.2275-.1006,.0635-.2227,.1201-.3662,.1709-.1445,.0508-.25,.0859-.3164,.1064-.0674,.0205-.1602,.0449-.2783,.0752l-.1699,.0537c.8447,.1016,1.5195,.377,2.0225,.8281,.5039,.4512,.7559,1.0615,.7559,1.832,0,1.1582-.4971,1.9932-1.4902,2.5039-.6328,.3193-1.6318,.4785-2.9951,.4785h-3.8086c-.2783,0-.4707-.0596-.5771-.1787-.1064-.1182-.1602-.2969-.1602-.5352Zm2.125-5.4639h1.46c.6338,0,1.1221-.0361,1.4668-.1094s.6816-.2441,1.0117-.5117c.2988-.3633,.4482-.7471,.4482-1.1504,0-.6006-.3145-1.0225-.9424-1.2646-.416-.1562-1.0186-.2344-1.8096-.2344h-1.6348v3.2705Zm0,4.8418h2.0977c1.1709,0,1.9619-.2324,2.3721-.6982,.2383-.2783,.3574-.6191,.3574-1.0244,0-.2275-.0342-.4404-.1025-.6377s-.1855-.3994-.3496-.6064c-.165-.208-.4219-.376-.7715-.5049s-.7734-.2061-1.2695-.2314h-2.334v3.7031Z"/><path class="cls-10" d="M268.4922,138.1338c0-.2578,.1768-.3877,.5312-.3877h.5312c.374,0,.6523,.125,.835,.373,.0498,.0498,.2031,.3428,.459,.877,.2549,.5342,.5283,1.1777,.8184,1.9297s.4707,1.3555,.541,1.8115c.041-.5371,.4287-1.9004,1.165-4.0898,.165-.3936,.3096-.6357,.4346-.7266,.165-.1162,.3984-.1748,.6992-.1748h.4863c.4033,0,.6055,.1543,.6055,.4609,0,.0781-.0234,.1875-.0684,.3271l-2.4053,7.0127c-.1572,.373-.2773,.6289-.3594,.7666-.6953,1.1699-1.6367,1.7549-2.8242,1.7549-.6523,0-1.0469-.0684-1.1836-.2051-.0508-.0508-.1016-.4053-.1523-1.0654-.0098-.1963,.0156-.3242,.0762-.3848l.0762-.0303h.0605c.04,.0098,.1211,.0469,.2432,.1113,.1211,.0645,.2588,.1201,.4131,.168,.1543,.0469,.3252,.0703,.5127,.0703,.2168,0,.4072-.0469,.5693-.1406,.1611-.0938,.29-.2236,.3867-.3906,.0957-.167,.1807-.3408,.2539-.5205s.1406-.3672,.2012-.5654c.0205-.0703,.0381-.1279,.0537-.1738,.0098-.0908-.0127-.1895-.0684-.2959l-2.7471-6.0713c-.0967-.2129-.1445-.3594-.1445-.4404Z"/><path class="cls-10" d="M276.1572,138.3086c0-.375,.2207-.5625,.6631-.5625h.3613v-1.335c0-.4658,.2539-.6982,.7627-.6982h.5625c.4717,0,.708,.2324,.708,.6982v1.335h1.3994c.1846,0,.333,.042,.4443,.126,.1123,.083,.1816,.1602,.2061,.2314,.0254,.0703,.0371,.1426,.0371,.2158s-.0117,.1475-.0371,.2207c-.0244,.0732-.0908,.1484-.1982,.2275-.1074,.0781-.248,.1172-.4229,.1172h-1.4287v3.1045c0,.0508-.002,.1172-.0078,.2012-.0049,.083-.0068,.1504-.0068,.2012,0,.5508,.0518,.9277,.1553,1.1299,.1035,.2031,.2695,.3037,.4971,.3037,.2881,0,.5898-.0908,.9033-.2725,.3135-.1826,.4805-.2734,.501-.2734,.0703,0,.1348,.0723,.1934,.2158,.0586,.1445,.1025,.29,.1328,.4365l.0303,.2051c0,.1973-.3242,.3975-.9717,.5996s-1.2695,.3037-1.8652,.3037c-.7705,0-1.2686-.375-1.4941-1.123-.0928-.3086-.1416-.7793-.1465-1.4121v-3.6201h-.3164c-.4414,0-.6621-.1924-.6621-.5762Z"/><path class="cls-10" d="M282.5391,141.2451c0-1.2646,.3389-2.208,1.0156-2.8311,.6768-.6221,1.6045-.9336,2.7832-.9336,.6543,0,1.2139,.0967,1.6768,.2891,.4639,.1924,.8184,.4561,1.0635,.793,.2441,.3369,.4189,.6914,.5225,1.0664,.1045,.374,.1562,.7891,.1562,1.2441,0,.4453-.2354,.668-.7061,.668h-4.4316c.04,1.5732,.6963,2.3604,1.9678,2.3604,.4785,0,.915-.0742,1.3105-.2236s.7197-.3154,.9717-.4971c.252-.1826,.4004-.2783,.4453-.2891h.0664l.084,.0312c.0547,.0498,.0986,.167,.1289,.3486,.0303,.1826,.0459,.3516,.0459,.5088l.0166,.2275c0,.1367-.0879,.25-.2637,.3418-.8438,.4551-1.7891,.6855-2.835,.6904-1.3164,0-2.3154-.3213-2.9961-.9639-.6816-.6426-1.0225-1.5859-1.0225-2.8311Zm2.0947-.7129h3.21c-.0303-.6025-.1484-1.0713-.3555-1.4082s-.5908-.5049-1.1504-.5049c-1.0098,0-1.5781,.6377-1.7041,1.9131Z"/><path class="cls-10" d="M290.5762,141.3213c0-2.5605,1.2627-3.8408,3.7871-3.8408,.9004,0,1.7402,.2129,2.5195,.6377,.0811,.0508,.124,.1348,.1289,.251-.0498,.8096-.1768,1.2139-.3789,1.2139-.0713,0-.2324-.1035-.4863-.3105-.2529-.208-.498-.3545-.7354-.4404-.2686-.0908-.668-.1367-1.1992-.1367-.2783,.0098-.5186,.0771-.7207,.2012-.2031,.124-.3535,.2646-.4521,.4209-.0986,.1572-.1768,.3594-.2354,.6074-.0576,.248-.0898,.4463-.0947,.5957s-.0078,.3428-.0078,.5801v.2959c0,.2588,.0049,.4707,.0156,.6377,.0098,.167,.0439,.375,.1025,.623,.0576,.2471,.1416,.4473,.25,.5986,.1094,.1523,.2695,.2852,.4824,.3984,.2119,.1143,.4678,.1709,.7666,.1709,.374,0,.7168-.0488,1.0283-.1475,.3105-.0986,.5488-.208,.7129-.3262,.1641-.1191,.3174-.2334,.459-.3418s.2432-.168,.3037-.1787l.0762,.0156c.0605,.04,.0977,.0977,.1104,.1709,.0117,.0732,.0439,.3779,.0947,.9141v.1289c0,.1475-.1045,.2764-.3115,.3877-.7588,.3945-1.5986,.5918-2.5195,.5918-2.4639-.0049-3.6963-1.2451-3.6963-3.7188Z"/><path class="cls-10" d="M298.0742,141.3818c0-.7441,.1016-1.3799,.3037-1.9092,.2021-.5283,.4795-.9326,.834-1.2139,.3535-.2803,.7256-.4805,1.1172-.5996s.8252-.1787,1.3008-.1787c.2676,0,.5039,.0059,.709,.0156,.2041,.0098,.4531,.0439,.7461,.1025,.2939,.0586,.5488,.1387,.7666,.2432,.2168,.1035,.4463,.2539,.6855,.4512,.2402,.1973,.4375,.4297,.5918,.6982s.2803,.6123,.3789,1.0322,.1484,.8926,.1484,1.4189c0,2.3936-1.2588,3.5928-3.7754,3.5977-2.5381-.0049-3.8066-1.2246-3.8066-3.6582Zm2.125,.1592c.0107,.2686,.0205,.4697,.0303,.6035,.0107,.1338,.0469,.3291,.1104,.584,.0635,.2559,.1475,.4482,.251,.5771,.1045,.1289,.2656,.248,.4834,.3564,.2178,.1094,.4834,.1631,.7949,.1631s.5771-.0537,.7949-.1631c.2178-.1084,.3818-.2334,.4902-.375,.1094-.1416,.1943-.334,.2549-.5771s.0967-.4492,.1064-.6182c.0107-.1699,.0156-.3857,.0156-.6494v-.5391c0-.2168-.0049-.3799-.0156-.4893-.0098-.1084-.0273-.2715-.0527-.4893s-.0752-.3887-.1484-.5127-.1699-.2568-.2891-.3984-.2773-.2422-.4756-.3037c-.1973-.0605-.4307-.0908-.6992-.0908-.3203,0-.5908,.0566-.8145,.1709-.2227,.1143-.3867,.2402-.4902,.3799-.1045,.1387-.1855,.3467-.2441,.6221-.0576,.2754-.0898,.4883-.0947,.6377s-.0078,.3779-.0078,.6865v.4248Z"/><path class="cls-10" d="M307.1963,141.1543c.0205-1.2852,.3232-2.2031,.9072-2.7549s1.3398-.8271,2.2656-.8271c.7129,0,1.3604,.1865,1.9424,.5615v-3.8096c0-.4561,.2275-.6836,.6807-.6836h.6201c.2266,0,.3994,.0391,.5176,.1182,.1191,.0781,.1904,.1621,.2158,.25,.0254,.0889,.0381,.2012,.0381,.3379v9.8047c0,.4766-.2324,.7139-.6963,.7139h-.7109c-.3828,0-.6221-.167-.7178-.501-.6221,.4453-1.2803,.6709-1.9736,.6758-1.5635,0-2.5371-.7314-2.9219-2.1934-.1113-.4355-.167-.999-.167-1.6924Zm2.125,.2734c0,.2881,.0049,.5186,.0156,.6904,.0098,.1719,.0439,.3857,.1025,.6406,.0576,.2559,.1387,.4561,.2422,.5996,.1045,.1445,.2598,.2715,.4668,.3799,.208,.1084,.4561,.1631,.7441,.1631,.3438,0,.6572-.0957,.9414-.2881,.2832-.1924,.4248-.4023,.4248-.6299v-3.8105c-.0107,0-.0352-.0176-.0762-.0527-.04-.0352-.0811-.0684-.1211-.0986-.041-.0303-.0977-.0674-.1709-.1104s-.1494-.0771-.2275-.1025c-.0791-.0244-.1719-.0479-.2812-.0674-.1084-.0205-.2188-.0312-.3301-.0312-.3184,0-.5957,.0576-.8311,.1709-.2354,.1143-.4092,.2432-.5234,.3877-.1143,.1436-.2002,.3438-.2578,.5996-.0586,.2549-.0928,.46-.1025,.6143-.0107,.1543-.0156,.3604-.0156,.6182v.3271Z"/><path class="cls-10" d="M315.8105,141.2451c0-1.2646,.3379-2.208,1.0146-2.8311,.6768-.6221,1.6045-.9336,2.7832-.9336,.6553,0,1.2139,.0967,1.6777,.2891,.4629,.1924,.8174,.4561,1.0625,.793s.4189,.6914,.5234,1.0664c.1035,.374,.1553,.7891,.1553,1.2441,0,.4453-.2354,.668-.7061,.668h-4.4316c.04,1.5732,.6963,2.3604,1.9688,2.3604,.4775,0,.9141-.0742,1.3096-.2236s.7197-.3154,.9717-.4971c.2529-.1826,.4004-.2783,.4453-.2891h.0674l.083,.0312c.0557,.0498,.0986,.167,.1299,.3486,.0303,.1826,.0459,.3516,.0459,.5088l.0166,.2275c0,.1367-.0879,.25-.2646,.3418-.8438,.4551-1.7891,.6855-2.835,.6904-1.3164,0-2.3145-.3213-2.9961-.9639-.6807-.6426-1.0215-1.5859-1.0215-2.8311Zm2.0947-.7129h3.21c-.0303-.6025-.1494-1.0713-.3555-1.4082-.207-.3369-.5908-.5049-1.1514-.5049-1.0098,0-1.5771,.6377-1.7031,1.9131Z"/></g></g></g></g></g><g><rect class="cls-3" x="438.1497" y="117.2493" width="293.7007" height="212.757" rx="10" ry="10"/><g><rect class="cls-1" x="593.0354" y="231.1648" width="130.2001" height="89.8651" rx="10" ry="10"/><g><path class="cls-10" d="M642.4814,270.5176c0-.335,.2197-.5029,.6592-.5029h1.0332c.085,0,.1689,.0059,.252,.0186,.082,.0117,.1533,.0244,.2148,.0361,.0605,.0127,.1182,.04,.1738,.082,.0547,.043,.1016,.0732,.1416,.0918,.0391,.0186,.0811,.0596,.123,.123,.043,.0645,.0732,.1055,.0918,.124s.0469,.0713,.0869,.1602c.04,.0879,.0625,.1387,.0684,.1504,.0059,.0127,.0273,.0693,.0645,.1699,.0361,.1006,.0547,.1572,.0547,.1689l3.5029,9.5312c.1221-.4629,1.2783-3.6279,3.4668-9.4951,.0859-.25,.1494-.4219,.1924-.5166s.1143-.2041,.2148-.3291,.2227-.209,.3662-.252c.1436-.042,.3281-.0635,.5537-.0635h.7861c.4268,0,.6406,.168,.6406,.5029,0,.0732-.0244,.1865-.0732,.3389l-4.125,11.0674c-.0732,.2012-.1299,.3467-.1699,.4346-.0391,.0889-.1055,.1953-.1963,.3203-.0918,.125-.209,.2119-.3525,.2607s-.3281,.0732-.5527,.0732h-1.7109c-.1406,0-.2686-.0088-.3838-.0273-.1162-.0186-.2158-.0566-.2979-.1143s-.1475-.0996-.1963-.124-.1006-.0898-.1553-.1963c-.0557-.1064-.0938-.1719-.1152-.1963s-.0557-.1055-.1045-.2432c-.0488-.1367-.0732-.2119-.0732-.2236l-4.1074-11.0312c-.0488-.1523-.0732-.2656-.0732-.3389Z"/><path class="cls-10" d="M657.4092,281.9795v-11.1416c0-.5488,.2842-.8232,.8506-.8232h1.5283c.5117,0,.8809,.1738,1.1064,.5215,.0977,.1641,.7344,1.6924,1.9121,4.583,1.1768,2.8896,1.8438,4.5977,2.0029,5.1221,.1221-.4512,1.3535-3.5371,3.6953-9.2568,.0977-.2256,.1748-.3877,.2334-.4854,.0576-.0977,.1768-.2021,.3564-.3154,.1797-.1123,.4131-.1689,.7002-.1689h1.665c.5605,0,.8438,.2861,.8506,.8594v11.2422c0,.2871-.0566,.5078-.1699,.6631-.1123,.1553-.3457,.2334-.6992,.2334h-.5947c-.2139,0-.3828-.0273-.5078-.082-.125-.0557-.209-.1455-.251-.2705-.043-.125-.0674-.2217-.0732-.292-.0068-.0703-.0098-.1787-.0098-.3252v-9.165c0-.0615-.0029-.1484-.0088-.2607-.0059-.1133-.0098-.2002-.0098-.2607-.1221,.5732-1.3408,3.6553-3.6582,9.248-.1768,.4268-.3584,.6992-.5449,.8184-.1855,.1191-.4404,.1777-.7637,.1777h-.375c-.1641,0-.3027-.0088-.416-.0273-.1133-.0176-.2178-.0625-.3154-.1318-.0977-.0703-.1758-.1299-.2334-.1787s-.127-.1602-.2061-.334-.1445-.3174-.1963-.4297c-.0518-.1133-.1338-.3174-.2471-.6133s-.2119-.541-.2969-.7363l-1.9482-4.8203c-.6221-1.6338-.9795-2.625-1.0703-2.9727v9.7969c0,.5732-.2812,.8594-.8418,.8594h-.6133c-.2129,0-.3828-.0273-.5078-.082-.125-.0557-.21-.1455-.2559-.2705s-.0713-.2256-.0771-.3018c-.0068-.0762-.0098-.2021-.0098-.3789Z"/></g></g><g><rect class="cls-2" x="446.2965" y="231.1648" width="130.2001" height="89.8651" rx="10" ry="10"/><g><path class="cls-10" d="M485.0938,272.5293v-11.2598c0-.5977,.2627-.8965,.7871-.8965h4.5c.7383,0,1.3965,.043,1.9756,.1279,.5801,.0859,1.1787,.2656,1.7979,.54s1.1338,.6465,1.5459,1.1152c.4111,.4697,.748,1.1133,1.0107,1.9307,.2617,.8174,.3936,1.7832,.3936,2.8994,0,1.1592-.1621,2.1572-.4854,2.9961-.3232,.8379-.707,1.4697-1.1523,1.8936s-1.002,.7578-1.6689,1.001c-.668,.2441-1.2256,.3877-1.6738,.4297-.4482,.043-.9629,.0645-1.542,.0645h-4.6191c-.2744,0-.4883-.0566-.6406-.1689-.1523-.1133-.2285-.3369-.2285-.6729Zm2.6074-.7686h2.0762c.6094,0,1.1162-.0205,1.5186-.0635s.8506-.1826,1.3447-.4209,.8896-.5762,1.1885-1.0156c.4268-.6465,.6494-1.6123,.668-2.8994v-.21c0-.5977-.0146-1.084-.0459-1.459-.0303-.375-.1172-.8154-.2607-1.3223-.1426-.5059-.3516-.9082-.626-1.207s-.6768-.5645-1.208-.7959c-.5303-.2314-1.1709-.3604-1.9209-.3848h-2.7168l-.0176,.54v9.2383Z"/><path class="cls-10" d="M498.8232,269.0078c0-1.5244,.4082-2.6621,1.2236-3.4121,.8164-.75,1.9346-1.125,3.3545-1.125,.79,0,1.4639,.1162,2.0225,.3477s.9854,.5508,1.2803,.9561,.5059,.834,.6309,1.2852,.1875,.9512,.1875,1.5c0,.5371-.2832,.8047-.8506,.8047h-5.3418c.0488,1.8975,.8398,2.8447,2.3721,2.8447,.5762,0,1.1025-.0898,1.5791-.2695,.4775-.1797,.8672-.3799,1.1719-.5986,.3037-.2197,.4824-.3359,.5361-.3477h.0801l.1006,.0361c.0674,.0615,.1191,.2012,.1562,.4209s.0557,.4238,.0557,.6133l.0195,.2744c0,.1641-.1055,.3018-.3184,.4111-1.0166,.5488-2.1553,.8262-3.417,.832-1.5859,0-2.79-.3867-3.6104-1.1611-.8213-.7744-1.2324-1.9121-1.2324-3.4121Zm2.5254-.8594h3.8691c-.0371-.7256-.1797-1.292-.4287-1.6973-.25-.4053-.7119-.6084-1.3877-.6084-1.2168,0-1.9014,.7686-2.0527,2.3057Z"/><path class="cls-10" d="M508.959,272.5117v-11.8008c0-.2744,.0596-.4873,.1787-.6396s.3457-.2285,.6816-.2285h.8232c.5488,0,.8232,.2744,.8232,.8242v4.6738c.7861-.5068,1.6553-.7598,2.6064-.7598,1.7822,0,2.8984,.8457,3.3486,2.5381,.1396,.5137,.21,1.1855,.21,2.0166v.0547c0,.8525-.1172,1.5752-.3516,2.168-.2344,.5938-.5537,1.0469-.958,1.3604-.4053,.3135-.8242,.5361-1.2598,.666-.4346,.1309-.9141,.1963-1.4375,.1963-.7861,0-1.4941-.2373-2.1221-.7129-.0977,.2012-.2002,.335-.3066,.4023s-.2783,.1006-.5166,.1006h-.8594c-.5732,0-.8604-.2861-.8604-.8594Zm2.5615-1.0322l.0635,.0732c.0488,.0488,.083,.084,.1006,.1045,.0186,.0215,.0557,.0566,.1104,.1055s.1016,.085,.1416,.1094,.0898,.0596,.1514,.1045c.0605,.0459,.1201,.0781,.1777,.0957,.0576,.0186,.124,.04,.1973,.0645s.1533,.042,.2422,.0547c.0879,.0117,.1816,.0176,.2783,.0176,.4033,0,.7441-.0713,1.0254-.2139,.2803-.1426,.4854-.3008,.6172-.4746,.1309-.1729,.2334-.4258,.3066-.7568s.1143-.5928,.123-.7842,.0137-.4697,.0137-.835v-.1455c0-.3711-.0078-.666-.0225-.8848-.0156-.2188-.0537-.4854-.1143-.7979-.0615-.3135-.1543-.5537-.2793-.7207s-.3125-.3164-.5625-.4473c-.25-.1299-.5488-.1953-.8965-.1953-.5859,0-1.1436,.2188-1.6738,.6562v4.8701Z"/><path class="cls-10" d="M519.4414,270.7637v-5.1494c0-.5488,.2744-.8232,.8232-.8232h.8604c.2744,0,.4805,.0566,.6172,.1689,.1377,.1133,.2119,.2109,.2246,.293,.0117,.082,.0234,.209,.0361,.3799v4.9854c0,.0488-.0029,.123-.0088,.2236-.0068,.1006-.0098,.1758-.0098,.2246,0,.5488,.0693,.9141,.2061,1.0977,.1377,.1826,.4678,.2744,.9922,.2744,.5,0,.9531-.1846,1.3584-.5537,.4062-.3691,.6084-1.0049,.6084-1.9072v-4.208c0-.1885,.0078-.3301,.0234-.4248,.0146-.0947,.0352-.1602,.0596-.1973,.0244-.0361,.0791-.1006,.165-.1914,.1406-.1104,.3545-.165,.6426-.165h.8262c.5508,0,.832,.2627,.8447,.7871v6.9883c0,.5361-.2812,.8047-.8447,.8047h-.8809c-.5146,0-.7715-.2744-.7715-.8232-.4268,.415-.8525,.6904-1.2764,.8281-.4238,.1367-.9219,.2051-1.4951,.2051-.5488,0-1.0215-.0586-1.418-.1777s-.6943-.2607-.8916-.4258c-.1982-.1641-.3545-.3867-.4668-.668-.1133-.2803-.1787-.5244-.1973-.7314-.0176-.207-.0273-.4785-.0273-.8145Z"/><path class="cls-10" d="M529.2842,274.5801c0-.7812,.3594-1.3594,1.0801-1.7334-.3418-.4814-.5127-.9697-.5127-1.4639,0-.5332,.1768-1.0537,.5312-1.5615l-.0195-.0381c-.5059-.5723-.7588-1.2666-.7588-2.084,0-.3604,.0469-.7002,.1426-1.0176,.0947-.3184,.2656-.6465,.5107-.9863,.2461-.3398,.6387-.6104,1.1787-.8115,.54-.2021,1.2002-.3027,1.9795-.3027h.0557c.5029,0,.9326,.041,1.2881,.123,.3564,.082,.6201,.1621,.792,.2383s.2822,.1143,.332,.1143c.0352,0,.167-.0381,.3955-.1143s.5303-.1562,.9043-.2383,.7344-.123,1.082-.123c.1768,0,.2891,.0479,.3389,.1436,.0479,.0957,.1035,.3281,.1641,.6992,.0127,.0986,.0273,.1787,.0459,.2412,.0117,.2402-.0947,.3613-.3203,.3613-.0244,0-.0928-.0098-.2061-.0283-.1123-.0176-.2666-.0332-.4619-.0449-.1953-.0127-.4053-.0186-.6309-.0186l-.4844,.0186c.2871,.5938,.4307,1.1709,.4307,1.7285,0,2.0732-1.2363,3.1104-3.71,3.1104-.7979,0-1.5166-.1279-2.1562-.3828-.0771,.1426-.1162,.2646-.1162,.3633,0,.6045,.3779,.9092,1.1348,.916h1.6494c.4697,0,.8496,.0059,1.1387,.0176s.6426,.0449,1.0615,.0996c.4189,.0537,.7549,.1426,1.0078,.2656s.5059,.2861,.7588,.4902c.2529,.2051,.4375,.4717,.5557,.8027,.1172,.3301,.1758,.7236,.1758,1.1797,0,1.0879-.5654,1.8525-1.6973,2.293-.6807,.2627-1.6494,.3945-2.9072,.3945-.2793,0-.5098-.0029-.6924-.0098-.1826-.0059-.4482-.0215-.7979-.0459s-.6543-.0742-.9141-.1514c-.2598-.0762-.5361-.1709-.8262-.2842-.291-.1133-.5479-.2715-.7705-.4766s-.3965-.4395-.5195-.7021c-.1553-.3057-.2324-.6328-.2324-.9814Zm1.9297-.0361c0,.877,.9258,1.3154,2.7764,1.3154h.0732c.6904,0,1.2451-.0742,1.6631-.2227,.4189-.1484,.6875-.3057,.8066-.4717s.1787-.3486,.1787-.5488c0-.3564-.2061-.5996-.6191-.7295-.4121-.1309-1.0674-.1953-1.9648-.1953h-1.8418c-.5254,0-.8525,.1299-.9805,.3896-.0605,.1211-.0918,.2754-.0918,.4629Zm.8965-6.708c0,.5225,.084,.916,.251,1.1836,.167,.2666,.5273,.4004,1.0801,.4004,.5596,0,.9316-.1182,1.1172-.3555,.1855-.2363,.2783-.6455,.2783-1.2285v-.2998c0-.5342-.0869-.9316-.2598-1.1924-.1738-.2607-.5273-.3906-1.0625-.3906-.5469,0-.918,.1182-1.1123,.3545s-.292,.6465-.292,1.2285v.2998Z"/><path class="cls-10" d="M478.8965,291.0713v-11.1416c0-.5488,.2842-.8232,.8506-.8232h1.5283c.5117,0,.8809,.1738,1.1064,.5215,.0977,.1641,.7344,1.6924,1.9121,4.583,1.1768,2.8896,1.8438,4.5977,2.0029,5.1221,.1221-.4512,1.3535-3.5371,3.6953-9.2568,.0977-.2256,.1748-.3877,.2334-.4854,.0576-.0977,.1768-.2021,.3564-.3154,.1797-.1123,.4131-.1689,.7002-.1689h1.665c.5605,0,.8438,.2861,.8506,.8594v11.2422c0,.2871-.0566,.5078-.1699,.6631-.1123,.1553-.3457,.2334-.6992,.2334h-.5947c-.2139,0-.3828-.0273-.5078-.082-.125-.0557-.209-.1455-.251-.2705-.043-.125-.0674-.2217-.0732-.292-.0068-.0703-.0098-.1787-.0098-.3252v-9.165c0-.0615-.0029-.1484-.0088-.2607-.0059-.1133-.0098-.2002-.0098-.2607-.1221,.5732-1.3408,3.6553-3.6582,9.248-.1768,.4268-.3584,.6992-.5449,.8184-.1855,.1191-.4404,.1777-.7637,.1777h-.375c-.1641,0-.3027-.0088-.416-.0273-.1133-.0176-.2178-.0625-.3154-.1318-.0977-.0703-.1758-.1299-.2334-.1787s-.127-.1602-.2061-.334-.1445-.3174-.1963-.4297c-.0518-.1133-.1338-.3174-.2471-.6133s-.2119-.541-.2969-.7363l-1.9482-4.8203c-.6221-1.6338-.9795-2.625-1.0703-2.9727v9.7969c0,.5732-.2812,.8594-.8418,.8594h-.6133c-.2129,0-.3828-.0273-.5078-.082-.125-.0557-.21-.1455-.2559-.2705s-.0713-.2256-.0771-.3018c-.0068-.0762-.0098-.2021-.0098-.3789Z"/><path class="cls-10" d="M496.0654,287.9062c0-.8965,.1221-1.6631,.3662-2.3008,.2432-.6377,.5781-1.125,1.0049-1.4639,.4258-.3379,.875-.5791,1.3467-.7227,.4727-.1426,.9951-.2148,1.5674-.2148,.3232,0,.6074,.0059,.8545,.0186,.2471,.0117,.5469,.0537,.9004,.123,.3535,.0703,.6611,.168,.9229,.293s.5381,.3066,.8271,.5439c.29,.2383,.5273,.5186,.7129,.8418s.3379,.7383,.457,1.2441,.1787,1.0762,.1787,1.7109c0,2.8838-1.5176,4.3291-4.5508,4.335-3.0586-.0059-4.5879-1.4756-4.5879-4.4082Zm2.5615,.1914c.0117,.3232,.0244,.5664,.0371,.7275,.0117,.1621,.0557,.3965,.1328,.7041,.0762,.3086,.1768,.54,.3027,.6953,.125,.1553,.3193,.2988,.582,.4297,.2627,.1318,.582,.1973,.958,.1973s.6953-.0654,.958-.1973c.2627-.1309,.46-.2812,.5908-.4521,.1318-.1709,.2344-.4023,.3076-.6953s.1162-.541,.1279-.7461c.0127-.2041,.0186-.4648,.0186-.7812v-.6494c0-.2627-.0059-.459-.0186-.5908-.0117-.1309-.0332-.3271-.0645-.5898-.0303-.2617-.0898-.4678-.1777-.6172-.0889-.1494-.2051-.3096-.3486-.4805s-.335-.292-.5732-.3652-.5195-.1104-.8438-.1104c-.3848,0-.7119,.0684-.9805,.2061-.2695,.1367-.4668,.29-.5918,.457-.125,.168-.2227,.418-.293,.75-.0703,.333-.1084,.5889-.1152,.7686-.0059,.1797-.0088,.4561-.0088,.8281v.5117Z"/><path class="cls-10" d="M506.9141,291.2627v-6.9883c0-.2373,.0508-.4248,.1514-.5625,.1006-.1367,.2021-.2178,.3066-.2422,.1035-.0244,.2314-.0371,.3838-.0371h.75c.1221,0,.2178,.0068,.2881,.0186,.0703,.0127,.1592,.04,.2656,.082,.1064,.043,.1846,.124,.2334,.2432,.0488,.1182,.0732,.2725,.0732,.4619v.375c.8604-.8604,1.875-1.293,3.041-1.2988,.4521,0,.8428,.041,1.1729,.123s.5928,.207,.7881,.375,.3525,.3311,.4717,.4893c.1191,.1592,.2002,.3779,.2432,.6592,.042,.2803,.0703,.5039,.082,.6719,.0127,.168,.0186,.4014,.0186,.7002v4.9482c0,.5488-.2695,.8232-.8076,.8232h-.8818c-.3369,0-.5664-.0713-.6885-.2148s-.1836-.3457-.1836-.6084v-5.1318c0-.1885-.0029-.334-.0088-.4346s-.0273-.2256-.0645-.375c-.0361-.1494-.0908-.2646-.1641-.3477-.0732-.082-.1836-.1533-.3301-.2148-.1455-.0605-.3232-.0908-.5303-.0908-.5244,0-.9492,.1582-1.2754,.4756-.3271,.3164-.5449,.6641-.6543,1.042-.0732,.2744-.1133,.6104-.1191,1.0068v3.8965c0,.0244-.0029,.0596-.0088,.1055-.0068,.0459-.0244,.1279-.0557,.2471-.0303,.1182-.0693,.2207-.1182,.3057-.0488,.0859-.1328,.1641-.252,.2334-.1191,.0703-.2607,.1055-.4248,.1055h-.8232c-.5859,0-.8789-.2803-.8789-.8418Z"/><path class="cls-10" d="M517.3604,280.3779v-.9336c0-.2012,.0215-.3643,.0645-.4893,.042-.125,.1201-.2129,.2334-.2646,.1123-.0518,.1963-.0811,.251-.0869s.1523-.0156,.293-.0273h.9512c.2617,0,.4727,.0586,.6309,.1777,.1592,.1191,.2383,.3496,.2383,.6904v.9697c0,.0977-.0107,.1875-.0322,.2705-.0215,.082-.0469,.1504-.0781,.2051-.0303,.0557-.0664,.1055-.1094,.1514s-.0869,.0781-.1328,.0957c-.0459,.0186-.0957,.0371-.1504,.0547-.0547,.0186-.0977,.0283-.1279,.0283-.0312,0-.0703,.0059-.1191,.0176h-1.0518c-.2627,0-.4717-.0596-.627-.1777-.1553-.1191-.2334-.3467-.2334-.6816Zm.0732,10.7939v-6.8057c0-.5615,.2744-.8418,.8232-.8418h.7686c.2744,0,.4834,.0508,.627,.1514,.1426,.1006,.2266,.207,.251,.3193,.0244,.1133,.0371,.2676,.0371,.4619v6.8057c0,.5615-.2744,.8418-.8232,.8418h-.8604c-.2617,0-.459-.0625-.5898-.1875s-.2031-.2363-.2148-.334c-.0127-.0977-.0186-.2344-.0186-.4111Z"/><path class="cls-10" d="M521.5127,284.2012c0-.4512,.2666-.6768,.7998-.6768h.4355v-1.6104c0-.5605,.3066-.8408,.9189-.8408h.6777c.5693,0,.8545,.2803,.8545,.8408v1.6104h1.6855c.2227,0,.4014,.0508,.5371,.1514,.1348,.1006,.2178,.1934,.248,.2783,.0293,.0859,.0449,.1729,.0449,.2607,0,.0889-.0156,.1768-.0449,.2656-.0303,.0879-.1104,.1797-.2393,.2744s-.2988,.1416-.5098,.1416h-1.7217v3.7412c0,.0615-.0029,.1416-.0088,.2422-.0068,.1006-.0098,.1816-.0098,.2422,0,.665,.0625,1.1191,.1875,1.3633s.3252,.3662,.5996,.3662c.3477,0,.71-.1104,1.0879-.3291,.3789-.2197,.5801-.3301,.6045-.3301,.085,0,.1631,.0869,.2334,.2607,.0693,.1738,.123,.3496,.1592,.5264l.0371,.2471c0,.2373-.3906,.4785-1.1709,.7227-.7803,.2432-1.5303,.3652-2.249,.3652-.9277,0-1.5283-.4512-1.8008-1.3535-.1113-.3721-.1699-.9385-.1758-1.7012v-4.3633h-.3818c-.5322,0-.7988-.2314-.7988-.6953Z"/><path class="cls-10" d="M529.2051,287.9062c0-.8965,.1221-1.6631,.3662-2.3008,.2432-.6377,.5781-1.125,1.0049-1.4639,.4258-.3379,.875-.5791,1.3467-.7227,.4727-.1426,.9951-.2148,1.5674-.2148,.3232,0,.6074,.0059,.8545,.0186,.2471,.0117,.5469,.0537,.9004,.123,.3535,.0703,.6611,.168,.9229,.293s.5381,.3066,.8271,.5439c.29,.2383,.5273,.5186,.7129,.8418s.3379,.7383,.457,1.2441,.1787,1.0762,.1787,1.7109c0,2.8838-1.5176,4.3291-4.5508,4.335-3.0586-.0059-4.5879-1.4756-4.5879-4.4082Zm2.5615,.1914c.0117,.3232,.0244,.5664,.0371,.7275,.0117,.1621,.0557,.3965,.1328,.7041,.0762,.3086,.1768,.54,.3027,.6953,.125,.1553,.3193,.2988,.582,.4297,.2627,.1318,.582,.1973,.958,.1973s.6953-.0654,.958-.1973c.2627-.1309,.46-.2812,.5908-.4521,.1318-.1709,.2344-.4023,.3076-.6953s.1162-.541,.1279-.7461c.0127-.2041,.0186-.4648,.0186-.7812v-.6494c0-.2627-.0059-.459-.0186-.5908-.0117-.1309-.0332-.3271-.0645-.5898-.0303-.2617-.0898-.4678-.1777-.6172-.0889-.1494-.2051-.3096-.3486-.4805s-.335-.292-.5732-.3652-.5195-.1104-.8438-.1104c-.3848,0-.7119,.0684-.9805,.2061-.2695,.1367-.4668,.29-.5918,.457-.125,.168-.2227,.418-.293,.75-.0703,.333-.1084,.5889-.1152,.7686-.0059,.1797-.0088,.4561-.0088,.8281v.5117Z"/><path class="cls-10" d="M539.4961,291.2998v-7.0254c0-.3594,.0781-.5898,.2334-.6904s.3643-.1514,.627-.1514h.6221c.335,0,.585,.0791,.75,.2354,.085,.0967,.1338,.1963,.1455,.2988,.0127,.1025,.0244,.3857,.0371,.8506,.2988-.4111,.6602-.7383,1.084-.9824,.4238-.2451,.7578-.3926,1.002-.4443,.2432-.0508,.46-.0762,.6494-.0762h.0176c.165,0,.2686,.0312,.3115,.0947,.042,.0635,.0635,.1699,.0635,.3213v1.0322c0,.1387-.0303,.251-.0908,.335-.0732,.0615-.2383,.1084-.4941,.1426-.2559,.0332-.4854,.0811-.6865,.1416-.4268,.1533-.7959,.3857-1.1064,.6973s-.5127,.6729-.6035,1.082c-.0371,.165-.0547,.4033-.0547,.7158v3.292c0,.2627-.0186,.4346-.0557,.5137-.0361,.0791-.1309,.1836-.2832,.3115-.1523,.0742-.3262,.1104-.5215,.1104h-.8047c-.3359,0-.5596-.0742-.6729-.2236-.1123-.1494-.1689-.3438-.1689-.5811Z"/></g></g><g><line class="cls-3" x1="564.9531" y1="276.0974" x2="602.8533" y2="276.0974"/><polygon class="cls-10" points="565.6826 278.5905 561.365 276.0974 565.6826 273.6042 565.6826 278.5905"/><polygon class="cls-10" points="602.1238 278.5905 606.4414 276.0974 602.1238 273.6042 602.1238 278.5905"/></g><g><rect class="cls-9" x="446.3419" y="125.4796" width="276.8935" height="89.8651" rx="10" ry="10"/><g><g><path class="cls-10" d="M536.2451,173.3623c0-.0859,.0244-.2041,.0732-.3564l3.9697-11.2793c.0977-.2861,.2295-.501,.3936-.6445,.165-.1436,.4268-.2148,.7871-.2148h1.6924c.2246,0,.4131,.0244,.5625,.0732s.2744,.1504,.375,.3066c.1006,.1553,.1631,.2617,.1875,.3193,.0244,.0586,.0732,.2002,.1465,.4258l3.8779,11.0498c.0488,.1523,.0732,.2588,.0732,.3203,0,.335-.2314,.5029-.6953,.5029h-.9883c-.1094,0-.209-.0029-.2969-.0088-.0889-.0068-.1738-.0312-.2559-.0732-.083-.043-.1484-.0811-.1973-.1143-.0488-.0342-.1045-.1025-.1689-.2061-.0635-.1035-.1143-.1904-.1504-.2607-.0371-.0703-.0908-.1953-.1602-.375-.0703-.1797-.127-.335-.1699-.4668-.042-.1309-.1113-.3301-.2051-.5986-.0947-.2686-.1787-.5098-.252-.7227h-5.3418c-.0859,.2256-.1758,.4844-.2695,.7773-.0947,.293-.167,.5078-.2158,.6445-.0488,.1377-.1084,.2959-.1777,.4756-.0703,.1807-.1299,.3086-.1787,.3848s-.1084,.1611-.1787,.2559c-.0693,.0947-.1416,.1543-.2148,.1787s-.1602,.0488-.2607,.0732-.2178,.0361-.3516,.0361h-.6953c-.4756,0-.7139-.168-.7139-.5029Zm3.8242-3.9336h4.2168c-1.2754-3.6465-1.9766-5.7197-2.1045-6.2197-.1221,.4512-.8262,2.5244-2.1123,6.2197Z"/><path class="cls-10" d="M550.3135,176.6553v-10.5107c0-.5723,.2812-.8594,.8418-.8594h.7871c.4756,0,.7617,.1953,.8594,.585,.8477-.5244,1.7656-.7891,2.7529-.7949,1.7139,0,2.79,.8379,3.2295,2.5146,.1338,.5254,.2012,1.1836,.2012,1.9766v.1006c0,.8477-.1162,1.5713-.3477,2.1719s-.5508,1.0586-.9561,1.3721c-.4053,.3145-.8262,.5371-1.2617,.668-.4365,.1309-.917,.1963-1.4414,.1963-.7617,0-1.4629-.2314-2.1035-.6943v3.2373c0,.3477-.0713,.584-.2148,.709s-.3643,.1875-.6631,.1875h-.8604c-.5488,0-.8232-.2861-.8232-.8594Zm2.5615-4.665l.1006,.1094c.0732,.0615,.1279,.1113,.165,.1514,.0361,.0391,.0986,.0947,.1875,.1641,.0879,.0703,.1768,.1211,.2646,.1514,.0889,.0303,.1953,.0605,.3203,.0918,.125,.0303,.2549,.0449,.3887,.0449,.7383,0,1.2812-.2744,1.6289-.8232,.3223-.5117,.4873-1.2861,.4932-2.3232v-.2285c0-1.8594-.6367-2.79-1.9111-2.79-.1221,0-.2383,.0068-.3477,.0186-.1104,.0127-.2139,.0352-.3115,.0684-.0977,.0342-.1777,.0625-.2422,.0869s-.1436,.0645-.2373,.1191c-.0947,.0547-.1543,.0889-.1787,.1006-.0244,.0127-.0859,.0518-.1826,.1191l-.1377,.1094v4.8301Z"/><path class="cls-10" d="M560.8145,176.6553v-10.5107c0-.5723,.2812-.8594,.8418-.8594h.7871c.4756,0,.7617,.1953,.8594,.585,.8477-.5244,1.7656-.7891,2.7529-.7949,1.7139,0,2.79,.8379,3.2295,2.5146,.1338,.5254,.2012,1.1836,.2012,1.9766v.1006c0,.8477-.1162,1.5713-.3477,2.1719s-.5508,1.0586-.9561,1.3721c-.4053,.3145-.8262,.5371-1.2617,.668-.4365,.1309-.917,.1963-1.4414,.1963-.7617,0-1.4629-.2314-2.1035-.6943v3.2373c0,.3477-.0713,.584-.2148,.709s-.3643,.1875-.6631,.1875h-.8604c-.5488,0-.8232-.2861-.8232-.8594Zm2.5615-4.665l.1006,.1094c.0732,.0615,.1279,.1113,.165,.1514,.0361,.0391,.0986,.0947,.1875,.1641,.0879,.0703,.1768,.1211,.2646,.1514,.0889,.0303,.1953,.0605,.3203,.0918,.125,.0303,.2549,.0449,.3887,.0449,.7383,0,1.2812-.2744,1.6289-.8232,.3223-.5117,.4873-1.2861,.4932-2.3232v-.2285c0-1.8594-.6367-2.79-1.9111-2.79-.1221,0-.2383,.0068-.3477,.0186-.1104,.0127-.2139,.0352-.3115,.0684-.0977,.0342-.1777,.0625-.2422,.0869s-.1436,.0645-.2373,.1191c-.0947,.0547-.1543,.0889-.1787,.1006-.0244,.0127-.0859,.0518-.1826,.1191l-.1377,.1094v4.8301Z"/><path class="cls-10" d="M571.3154,173.0234v-11.7998c0-.585,.2627-.8809,.7871-.8867h.8594c.5732,0,.8604,.2832,.8604,.8506v11.7627c0,.1523-.0059,.2715-.0186,.3574-.0117,.085-.043,.1748-.0918,.2695s-.1318,.1631-.251,.2061c-.1191,.042-.2793,.0703-.4805,.082h-.7686c-.2861,0-.5078-.0566-.6631-.1689-.1553-.1133-.2334-.3369-.2334-.6729Z"/><path class="cls-10" d="M576.0176,162.1387v-.9336c0-.2012,.0215-.3643,.0635-.4893,.043-.125,.1211-.2129,.2334-.2646,.1133-.0518,.1973-.0811,.252-.0869s.1523-.0156,.293-.0273h.9512c.2617,0,.4727,.0586,.6309,.1777s.2383,.3496,.2383,.6904v.9697c0,.0977-.0107,.1875-.0322,.2705-.0215,.082-.0479,.1504-.0781,.2051-.0303,.0557-.0674,.1055-.1094,.1514-.043,.0459-.0869,.0781-.1328,.0957-.0459,.0186-.0957,.0371-.1514,.0547-.0547,.0186-.0967,.0283-.1279,.0283-.0303,0-.0703,.0059-.1182,.0176h-1.0527c-.2617,0-.4707-.0596-.626-.1777-.1553-.1191-.2334-.3467-.2334-.6816Zm.0732,10.7939v-6.8057c0-.5615,.2744-.8418,.8232-.8418h.7686c.2744,0,.4824,.0508,.626,.1514s.2275,.207,.252,.3193c.0244,.1133,.0361,.2676,.0361,.4619v6.8057c0,.5615-.2744,.8418-.8232,.8418h-.8594c-.2627,0-.459-.0625-.5898-.1875-.1318-.125-.2031-.2363-.2148-.334-.0127-.0977-.0186-.2344-.0186-.4111Z"/><path class="cls-10" d="M580.417,169.5938c0-3.0859,1.5215-4.6289,4.5645-4.6289,1.0859,0,2.0977,.2559,3.0371,.7686,.0977,.0605,.1494,.1611,.1553,.3018-.0605,.9756-.2129,1.4639-.457,1.4639-.085,0-.2803-.125-.585-.375-.3057-.25-.6016-.4268-.8877-.5312-.3232-.1094-.8047-.1641-1.4453-.1641-.335,.0117-.625,.0928-.8691,.2422s-.4248,.3184-.5439,.5078-.2139,.4326-.2832,.7314c-.0703,.2988-.1084,.5381-.1152,.7188-.0059,.1797-.0088,.4131-.0088,.6992v.3564c0,.3115,.0059,.5674,.0186,.7686,.0117,.2012,.0527,.4512,.123,.75s.1709,.54,.3018,.7227c.1318,.1836,.3252,.3438,.5811,.4805,.2559,.1377,.5645,.2061,.9238,.2061,.4512,0,.8643-.0596,1.2393-.1787s.6621-.25,.8604-.3936c.1982-.1426,.3828-.2803,.5537-.4111,.1699-.1309,.292-.2031,.3652-.2148l.0918,.0176c.0732,.0498,.1172,.1182,.1328,.2061,.0146,.0889,.0527,.4561,.1143,1.1025v.1553c0,.1768-.125,.333-.375,.4668-.915,.4756-1.9277,.7129-3.0371,.7129-2.9697-.0059-4.4551-1.5-4.4551-4.4814Z"/><path class="cls-10" d="M589.4551,171.2949c0-.4883,.1455-.9121,.4365-1.2715,.292-.3594,.6416-.6406,1.0498-.8418s.8916-.3613,1.4502-.4805c.5586-.1182,1.042-.1963,1.4502-.2324,.4082-.0371,.8213-.0557,1.2383-.0557v-.3828c0-.5225-.0879-.9355-.2646-1.2383-.1758-.3037-.5312-.4551-1.0664-.4551-.4902,0-.9346,.0635-1.3359,.1885-.4004,.126-.6973,.2656-.8896,.4209-.1924,.1543-.375,.2979-.5459,.4287-.1699,.1318-.2959,.1973-.377,.1973l-.0742-.0127-.0752-.0371c-.0371-.0605-.0713-.2129-.1016-.457-.0312-.2432-.0537-.4658-.0654-.666l-.0283-.3203c0-.0605,.0049-.1064,.0137-.1367,.0098-.0303,.0332-.0654,.0703-.1045,.0371-.04,.0654-.0654,.084-.0781,.0186-.0117,.0732-.0361,.1631-.0732,.0898-.0361,.1602-.0674,.209-.0928,.9014-.4189,1.8857-.6289,2.9531-.6289,1.4258,0,2.4307,.2686,3.0156,.8047,.585,.5371,.877,1.3115,.877,2.3242v4.9297c0,.5615-.2822,.8418-.8477,.8418h-.9033c-.2764,0-.4746-.0742-.5938-.2236-.1201-.1494-.1797-.3252-.1797-.5264-.8291,.6338-1.7988,.9541-2.9102,.96-.8408,0-1.5098-.2881-2.0068-.8643s-.7451-1.2148-.7451-1.916Zm2.5059,0c0,.3594,.1182,.6846,.3555,.9746,.2373,.2891,.5479,.4336,.9307,.4336,.4258,0,.8379-.1338,1.2354-.4023,.3984-.2676,.5977-.707,.5977-1.3174v-1.4629c-.3828,.0361-.7129,.0762-.9893,.1191-.2773,.042-.6025,.123-.9766,.2422-.373,.1191-.6592,.2998-.8564,.5439-.1982,.2441-.2969,.5342-.2969,.8691Z"/><path class="cls-10" d="M599.1592,165.9619c0-.4512,.2666-.6768,.7998-.6768h.4355v-1.6104c0-.5605,.3066-.8408,.9189-.8408h.6787c.5693,0,.8535,.2803,.8535,.8408v1.6104h1.6865c.2217,0,.4014,.0508,.5361,.1514s.2178,.1934,.248,.2783c.0303,.0859,.0449,.1729,.0449,.2607,0,.0889-.0146,.1768-.0449,.2656-.0303,.0879-.1094,.1797-.2393,.2744-.1289,.0947-.2988,.1416-.5088,.1416h-1.7227v3.7412c0,.0615-.0029,.1416-.0088,.2422-.0068,.1006-.0098,.1816-.0098,.2422,0,.665,.0625,1.1191,.1875,1.3633s.3252,.3662,.5996,.3662c.3477,0,.71-.1104,1.0889-.3291,.3779-.2197,.5791-.3301,.6035-.3301,.085,0,.1631,.0869,.2334,.2607,.0693,.1738,.123,.3496,.1602,.5264l.0361,.2471c0,.2373-.3906,.4785-1.1709,.7227-.7803,.2432-1.5303,.3652-2.249,.3652-.9277,0-1.5283-.4512-1.8008-1.3535-.1113-.3721-.1699-.9385-.1758-1.7012v-4.3633h-.3818c-.5322,0-.7988-.2314-.7988-.6953Z"/><path class="cls-10" d="M607.3467,162.1387v-.9336c0-.2012,.0215-.3643,.0635-.4893,.043-.125,.1211-.2129,.2334-.2646,.1133-.0518,.1973-.0811,.252-.0869s.1523-.0156,.293-.0273h.9512c.2617,0,.4727,.0586,.6309,.1777s.2383,.3496,.2383,.6904v.9697c0,.0977-.0107,.1875-.0322,.2705-.0215,.082-.0479,.1504-.0781,.2051-.0303,.0557-.0674,.1055-.1094,.1514-.043,.0459-.0869,.0781-.1328,.0957-.0459,.0186-.0957,.0371-.1514,.0547-.0547,.0186-.0967,.0283-.1279,.0283-.0303,0-.0703,.0059-.1182,.0176h-1.0527c-.2617,0-.4707-.0596-.626-.1777-.1553-.1191-.2334-.3467-.2334-.6816Zm.0732,10.7939v-6.8057c0-.5615,.2744-.8418,.8232-.8418h.7686c.2744,0,.4824,.0508,.626,.1514s.2275,.207,.252,.3193c.0244,.1133,.0361,.2676,.0361,.4619v6.8057c0,.5615-.2744,.8418-.8232,.8418h-.8594c-.2627,0-.459-.0625-.5898-.1875-.1318-.125-.2031-.2363-.2148-.334-.0127-.0977-.0186-.2344-.0186-.4111Z"/><path class="cls-10" d="M611.6279,169.667c0-.8965,.1211-1.6631,.3652-2.3008,.2432-.6377,.5781-1.125,1.0049-1.4639,.4258-.3379,.875-.5791,1.3477-.7227,.4717-.1426,.9941-.2148,1.5664-.2148,.3232,0,.6084,.0059,.8545,.0186,.2471,.0117,.5469,.0537,.9004,.123,.3535,.0703,.6611,.168,.9229,.293,.2627,.125,.5381,.3066,.8271,.5439,.29,.2383,.5273,.5186,.7129,.8418,.1865,.3232,.3389,.7383,.457,1.2441,.1191,.5059,.1787,1.0762,.1787,1.7109,0,2.8838-1.5166,4.3291-4.5508,4.335-3.0586-.0059-4.5869-1.4756-4.5869-4.4082Zm2.5605,.1914c.0127,.3232,.0244,.5664,.0371,.7275,.0117,.1621,.0566,.3965,.1328,.7041,.0762,.3086,.1777,.54,.3027,.6953s.3193,.2988,.582,.4297c.2627,.1318,.582,.1973,.958,.1973s.6953-.0654,.958-.1973c.2627-.1309,.46-.2812,.5918-.4521,.1309-.1709,.2334-.4023,.3066-.6953s.1162-.541,.1279-.7461c.0127-.2041,.0186-.4648,.0186-.7812v-.6494c0-.2627-.0059-.459-.0186-.5908-.0117-.1309-.0332-.3271-.0635-.5898-.0312-.2617-.0898-.4678-.1787-.6172s-.2051-.3096-.3486-.4805-.335-.292-.5732-.3652-.5195-.1104-.8428-.1104c-.3857,0-.7129,.0684-.9814,.2061-.2686,.1367-.4658,.29-.5908,.457-.126,.168-.2236,.418-.2939,.75-.0703,.333-.1084,.5889-.1143,.7686-.0068,.1797-.0098,.4561-.0098,.8281v.5117Z"/><path class="cls-10" d="M622.4766,173.0234v-6.9883c0-.2373,.0498-.4248,.1504-.5625,.1006-.1367,.2031-.2178,.3066-.2422s.2314-.0371,.3838-.0371h.75c.1221,0,.2188,.0068,.2881,.0186,.0703,.0127,.1592,.04,.2656,.082,.1064,.043,.1846,.124,.2334,.2432,.0488,.1182,.0732,.2725,.0732,.4619v.375c.8613-.8604,1.875-1.293,3.041-1.2988,.4521,0,.8438,.041,1.1729,.123,.3301,.082,.5928,.207,.7881,.375s.3525,.3311,.4717,.4893c.1191,.1592,.2002,.3779,.2432,.6592,.043,.2803,.0703,.5039,.082,.6719,.0127,.168,.0186,.4014,.0186,.7002v4.9482c0,.5488-.2695,.8232-.8076,.8232h-.8809c-.3369,0-.5664-.0713-.6895-.2148-.1221-.1436-.1836-.3457-.1836-.6084v-5.1318c0-.1885-.0029-.334-.0088-.4346s-.0273-.2256-.0635-.375c-.0371-.1494-.0918-.2646-.165-.3477-.0732-.082-.1826-.1533-.3291-.2148-.1465-.0605-.3232-.0908-.5312-.0908-.5244,0-.9492,.1582-1.2754,.4756-.3262,.3164-.5449,.6641-.6543,1.042-.0732,.2744-.1133,.6104-.1191,1.0068v3.8965c0,.0244-.0029,.0596-.0088,.1055s-.0244,.1279-.0547,.2471c-.0312,.1182-.0703,.2207-.1191,.3057-.0488,.0859-.1328,.1641-.252,.2334-.1182,.0703-.2607,.1055-.4248,.1055h-.8232c-.5859,0-.8779-.2803-.8779-.8418Z"/></g><g><line class="cls-4" x1="649.6389" y1="165.226" x2="649.6389" y2="173.632"/><line class="cls-4" x1="644.6389" y1="165.226" x2="644.6389" y2="173.632"/></g></g></g></g><g><line class="cls-3" x1="339.7124" y1="170.4121" x2="455.9119" y2="170.4121"/><polygon class="cls-10" points="455.1824 172.9053 459.5 170.4121 455.1824 167.9189 455.1824 172.9053"/></g><g><line class="cls-3" x1="339.7124" y1="268.4121" x2="455.9119" y2="268.4121"/><polygon class="cls-10" points="455.1824 270.9053 459.5 268.4121 455.1824 265.9189 455.1824 270.9053"/></g><g><line class="cls-3" x1="343.3005" y1="279.4121" x2="459.5" y2="279.4121"/><polygon class="cls-10" points="344.03 281.9053 339.7124 279.4121 344.03 276.9189 344.03 281.9053"/></g></svg>