<?xml version="1.0" encoding="UTF-8"?><svg id="Layer_2" xmlns="http://www.w3.org/2000/svg" xmlns:xlink="http://www.w3.org/1999/xlink" viewBox="0 0 242.5488 79.8926"><defs><style>.cls-1{fill:#404041;}.cls-2{clip-path:url(#clippath-2);}.cls-3{stroke:gray;stroke-width:.3635px;}.cls-3,.cls-4,.cls-5,.cls-6,.cls-7{fill:none;}.cls-3,.cls-5,.cls-6{stroke-miterlimit:18.2447;}.cls-8{clip-path:url(#clippath-1);}.cls-4{stroke-miterlimit:10;stroke-width:.25px;}.cls-4,.cls-6{stroke:#000;}.cls-5{stroke:#bfbfbf;}.cls-5,.cls-6{stroke-width:.7271px;}.cls-9{clip-path:url(#clippath-3);}</style><clipPath id="clippath-1"><rect class="cls-7" x="143.7145" y="9.7471" width="96.3362" height="54.6336"/></clipPath><clipPath id="clippath-2"><rect class="cls-7" x="143.7145" y="9.7471" width="96.3362" height="54.6336"/></clipPath><clipPath id="clippath-3"><rect class="cls-7" x="18.964" y="7.9531" width="99.0603" height="56.1785"/></clipPath></defs><g id="Layer_22"><g><g id="g52835"><path id="path50852" class="cls-5" d="M143.7145,64.2191h96.3362m-96.3362-15.5172h96.3362m-96.3362-15.5172h96.3362m-96.3362-15.8405h96.3362"/><path id="path50858" class="cls-3" d="M144.6843,65.9971v-1.6164m.9698,1.6164v-1.6164m.9698,1.6164v-1.6164m.9698,1.6164v-1.6164m.6466,1.6164v-1.6164m.9698,1.6164v-1.6164m.9698,1.6164v-1.6164m.9698,1.6164v-1.6164m.9698,1.6164v-1.6164m1.9397,1.6164v-1.6164m.9698,1.6164v-1.6164m.9698,1.6164v-1.6164m.9698,1.6164v-1.6164m.9698,1.6164v-1.6164m.9698,1.6164v-1.6164m.9698,1.6164v-1.6164m.9698,1.6164v-1.6164m.9698,1.6164v-1.6164m1.9397,1.6164v-1.6164m.9698,1.6164v-1.6164m.9698,1.6164v-1.6164m.9698,1.6164v-1.6164m.9698,1.6164v-1.6164m.9698,1.6164v-1.6164m.6466,1.6164v-1.6164m.9698,1.6164v-1.6164m.9698,1.6164v-1.6164m1.9397,1.6164v-1.6164m.9698,1.6164v-1.6164m.9698,1.6164v-1.6164m.9698,1.6164v-1.6164m.9698,1.6164v-1.6164m.9698,1.6164v-1.6164m.9698,1.6164v-1.6164m.9698,1.6164v-1.6164m.9698,1.6164v-1.6164m1.9397,1.6164v-1.6164m.9698,1.6164v-1.6164m.9698,1.6164v-1.6164m.9698,1.6164v-1.6164m.9698,1.6164v-1.6164m.9698,1.6164v-1.6164m.9698,1.6164v-1.6164m.6466,1.6164v-1.6164m.9698,1.6164v-1.6164m1.9397,1.6164v-1.6164m.9698,1.6164v-1.6164m.9698,1.6164v-1.6164m.9698,1.6164v-1.6164m.9698,1.6164v-1.6164m.9698,1.6164v-1.6164m.9698,1.6164v-1.6164m.9698,1.6164v-1.6164m.9698,1.6164v-1.6164m1.9397,1.6164v-1.6164m.9698,1.6164v-1.6164m.9698,1.6164v-1.6164m.9698,1.6164v-1.6164m.9698,1.6164v-1.6164m.9698,1.6164v-1.6164m.9698,1.6164v-1.6164m.9698,1.6164v-1.6164m.9698,1.6164v-1.6164m1.6164,1.6164v-1.6164m.9698,1.6164v-1.6164m.9698,1.6164v-1.6164m.9698,1.6164v-1.6164m.9698,1.6164v-1.6164m.9698,1.6164v-1.6164m.9698,1.6164v-1.6164m.9698,1.6164v-1.6164m.9698,1.6164v-1.6164m1.9397,1.6164v-1.6164m.9698,1.6164v-1.6164m.9698,1.6164v-1.6164m.9698,1.6164v-1.6164m.9698,1.6164v-1.6164m.9698,1.6164v-1.6164m.9698,1.6164v-1.6164m.9698,1.6164v-1.6164m.9698,1.6164v-1.6164m1.9397,1.6164v-1.6164m.6466,1.6164v-1.6164m.9698,1.6164v-1.6164m.9698,1.6164v-1.6164m.9698,1.6164v-1.6164m.9698,1.6164v-1.6164m.9698,1.6164v-1.6164m.9698,1.6164v-1.6164m.9698,1.6164v-1.6164"/><path id="path50862" class="cls-3" d="M143.7145,66.6436v-2.2629m9.375,2.2629v-2.2629m9.6983,2.2629v-2.2629m9.375,2.2629v-2.2629m9.6983,2.2629v-2.2629m9.375,2.2629v-2.2629m9.6983,2.2629v-2.2629m9.375,2.2629v-2.2629m9.6983,2.2629v-2.2629m9.6983,2.2629v-2.2629m9.375,2.2629v-2.2629"/><path id="path50868" class="cls-3" d="M142.0981,60.5014h1.6164m-1.6164-4.2026h1.6164m-1.6164-3.8793h1.6164m-1.6164-7.7586h1.6164m-1.6164-3.8793h1.6164m-1.6164-3.8793h1.6164m-1.6164-7.7586h1.6164m-1.6164-3.8793h1.6164m-1.6164-3.8793h1.6164m-1.6164-7.7586h1.6164m-1.6164-3.8793h1.6164"/><path id="path50872" class="cls-3" d="M141.1283,64.3807h2.5862m-2.5862-15.8405h2.5862m-2.5862-15.5172h2.5862m-2.5862-15.5172h2.5862"/><path id="path50874" class="cls-6" d="M143.7145,64.2191h96.3362"/><path id="path50876" class="cls-6" d="M143.5529,64.3807V9.7471"/><g class="cls-8"><g class="cls-2"><path id="path51126" d="M144.3611,64.3807h.6466V14.273h-.6466v50.1078Zm.8118,0h0Zm.9549,0h0Zm.9549,0h0Zm.9549,0h0Zm.8495,0h.6466v-7.1121h-.6466v7.1121Zm1.0603,0h0Zm.9549,0h0Zm.9549,0h0Zm.9549,0h0Zm.9549,0h0Zm.9549,0h0Zm.9541-.3233h.6466v-7.1121h-.6466v7.1121Zm.9557,.3233h0Zm.9549,0h0Zm.9549,0h0Zm.9549,0h0Zm.9549,0h0Zm.9549,0h0Zm.9549,0h0Zm.9549,0h0Zm1.0886,0h.6466v-10.0216h-.6466v10.0216Zm.8211,0h0Zm.9549,0h0Zm1.1335-.3233h.6466v-4.2026h-.6466v4.2026Zm.7763,.3233h0Zm.9549,0h0Zm.9549,0h0Zm.9549,0h0Zm.9549,0h0Zm.9549,0h0Zm.9549,0h0Zm.9549,0h0Zm.9549,0h0Zm.9597,0h.6466v-8.4052h-.6466v8.4052Zm.9501,0h0Zm.9549,0h0Zm.9549,0h0Zm.9549,0h0Zm.9549,0h0Zm1.0494,0h.6466v-8.4052h-.6466v8.4052Zm.8604,0h0Zm.9549,0h0Zm.9549,0h0Zm1.1092-.3233h.6466v-4.2026h-.6466v4.2026Zm.8006,.3233h0Zm.9549,0h0Zm.9549,0h0Zm.9549,0h0Zm.9549,0h0Zm.9549,0h0Zm.9549,0h0Zm.9549,0h0Zm.9549,0h0Zm.9354-.3233h.6466v-8.0819h-.6466v8.0819Zm.9744,.3233h0Zm.9549,0h0Zm.9549,0h0Zm.9549,0h0Zm1.0101-.3233h.6466v-8.0819h-.6466v8.0819Zm.8996,.3233h0Zm.9549,0h0Zm.9549,0h0Zm.9549,0h0Zm.9549,0h0Zm.9549,0h0Zm1.1148,0h.6466v-8.4052h-.6466v8.4052Zm.795,0h0Zm.9549,0h0Zm.9549,0h0Zm.9549,0h0Zm.9549,0h0Zm.9549,0h0Zm.8961-.3233h.6466v-8.0819h-.6466v8.0819Zm1.0136,.3233h0Zm.926,0h.6466v-4.5259h-.6466v4.5259Zm.9837,0h0Zm.9549,0h0Zm.9549,0h0Zm.9549,0h0Zm.9549,0h0Zm.9549,0h0Zm.9549,0h0Zm.9549,0h0Zm.9549,0h0Zm1.0755,0h.6466v-8.4052h-.6466v8.4052Zm.8342,0h0Zm.9549,0h0Zm.9549,0h0Zm.9549,0h0Zm.9549,0h0Zm.9549,0h0Zm.9549,0h0Zm.9549,0h0Zm.9549,0h0Zm.9549,0h0Zm.9549,0h0Zm.9549,0h0Zm.9549,0h0Zm.9549,0h0Z"/></g></g></g><g><path class="cls-1" d="M188.0381,77.3906c0-.1035-.0518-.1846-.1533-.2451-.1035-.0586-.2676-.1123-.4941-.1592-.7539-.1582-1.1309-.4785-1.1309-.9609,0-.2812,.1162-.5156,.3496-.7041s.5391-.2832,.916-.2832c.4023,0,.7236,.0947,.9648,.2842s.3623,.4355,.3623,.7383h-.8467c0-.1211-.0391-.2217-.1172-.2998-.0781-.0801-.2002-.1191-.3662-.1191-.1426,0-.2529,.0322-.3311,.0967s-.1172,.1465-.1172,.2461c0,.0938,.0439,.1699,.1328,.2275s.2393,.1074,.4502,.1484c.2109,.043,.3887,.0898,.5332,.1426,.4473,.1641,.6709,.4482,.6709,.8525,0,.2891-.124,.5225-.3721,.7021-.248,.1777-.5684,.2676-.9609,.2676-.2656,0-.502-.0479-.708-.1426-.2061-.0938-.3672-.2236-.4844-.3887s-.1758-.3438-.1758-.5352h.8027c.0078,.1504,.0635,.2656,.167,.3457s.2422,.1201,.416,.1201c.1621,0,.2842-.0303,.3682-.0928,.082-.0605,.124-.1416,.124-.2412Z"/><path class="cls-1" d="M190.9004,74.3174v.7793h.542v.6211h-.542v1.582c0,.1172,.0225,.2012,.0674,.252s.1309,.0762,.2578,.0762c.0938,0,.1768-.0068,.249-.0205v.6416c-.166,.0508-.3369,.0762-.5127,.0762-.5938,0-.8965-.2998-.9082-.8994v-1.708h-.4629v-.6211h.4629v-.7793h.8467Z"/><path class="cls-1" d="M193.8525,78.3252c-.4648,0-.8438-.1426-1.1357-.4277s-.4375-.665-.4375-1.1396v-.082c0-.3184,.0615-.6025,.1846-.8545,.123-.25,.2979-.4434,.5225-.5801,.2266-.1348,.4834-.2031,.7725-.2031,.4336,0,.7744,.1367,1.0244,.4102,.248,.2734,.373,.6611,.373,1.1631v.3457h-2.0186c.0273,.207,.1104,.373,.2471,.498,.1387,.125,.3125,.1875,.5234,.1875,.3262,0,.5811-.1182,.7646-.3545l.416,.4658c-.127,.1797-.2988,.3203-.5156,.4209-.2168,.0996-.457,.1504-.7207,.1504Zm-.0967-2.6045c-.168,0-.3047,.0566-.4082,.1709-.1055,.1133-.1719,.2764-.2012,.4883h1.1777v-.0674c-.0039-.1885-.0547-.334-.1523-.4375-.0977-.1025-.2363-.1543-.416-.1543Z"/><path class="cls-1" d="M198.9707,76.7109c0,.4883-.1113,.8799-.333,1.1729-.2217,.2949-.5205,.4414-.8975,.4414-.3203,0-.5791-.1113-.7764-.334v1.4941h-.8467v-4.3887h.7852l.0293,.3105c.2051-.2461,.4727-.3691,.8027-.3691,.3906,0,.6943,.1445,.9111,.4336s.3252,.6875,.3252,1.1953v.0439Zm-.8467-.0615c0-.2949-.0527-.5225-.1562-.6826-.1055-.1602-.2568-.2402-.4561-.2402-.2656,0-.4482,.1016-.5479,.3047v1.2979c.1035,.209,.2881,.3135,.5537,.3135,.4043,0,.6064-.3311,.6064-.9932Z"/></g><g><path class="cls-1" d="M145.6377,5.1709h-1.6875v1.1426h1.9805v.7061h-2.8594V2.7539h2.8535v.7119h-1.9746v1.0166h1.6875v.6885Z"/><path class="cls-1" d="M147.501,5.9854l.5889-2.1357h.8848l-1.0693,3.1699h-.8086l-1.0693-3.1699h.8848l.5889,2.1357Z"/><path class="cls-1" d="M150.7676,7.0781c-.4648,0-.8438-.1426-1.1357-.4277s-.4375-.665-.4375-1.1396v-.082c0-.3184,.0615-.6025,.1846-.8545,.123-.25,.2979-.4434,.5225-.5801,.2266-.1348,.4834-.2031,.7725-.2031,.4336,0,.7744,.1367,1.0244,.4102,.248,.2734,.373,.6611,.373,1.1631v.3457h-2.0186c.0273,.207,.1104,.373,.2471,.498,.1387,.125,.3125,.1875,.5234,.1875,.3262,0,.5811-.1182,.7646-.3545l.416,.4658c-.127,.1797-.2988,.3203-.5156,.4209-.2168,.0996-.457,.1504-.7207,.1504Zm-.0967-2.6045c-.168,0-.3047,.0566-.4082,.1709-.1055,.1133-.1719,.2764-.2012,.4883h1.1777v-.0674c-.0039-.1885-.0547-.334-.1523-.4375-.0977-.1025-.2363-.1543-.416-.1543Z"/><path class="cls-1" d="M153.3311,3.8496l.0264,.3662c.2266-.2832,.5303-.4248,.9111-.4248,.3359,0,.5859,.0986,.75,.2959s.248,.4922,.252,.8848v2.0479h-.8467v-2.0273c0-.1797-.0391-.3096-.1172-.3906s-.208-.1221-.3896-.1221c-.2383,0-.417,.1016-.5361,.3047v2.2354h-.8467V3.8496h.7969Z"/><path class="cls-1" d="M156.9258,3.0703v.7793h.542v.6211h-.542v1.582c0,.1172,.0225,.2012,.0674,.252s.1309,.0762,.2578,.0762c.0938,0,.1768-.0068,.249-.0205v.6416c-.166,.0508-.3369,.0762-.5127,.0762-.5938,0-.8965-.2998-.9082-.8994v-1.708h-.4629v-.6211h.4629v-.7793h.8467Z"/><path class="cls-1" d="M159.5859,5.5342h-1.6494v-.6826h1.6494v.6826Z"/><path class="cls-1" d="M160.3213,7.0195V2.7539h1.4941c.5176,0,.9102,.0996,1.1777,.2969,.2676,.1992,.4014,.4893,.4014,.8721,0,.209-.0537,.3936-.1611,.5518-.1074,.1602-.2568,.2764-.4482,.3506,.2188,.0547,.3916,.165,.5166,.3311,.127,.166,.1895,.3691,.1895,.6094,0,.4102-.1309,.7207-.3926,.9316s-.6348,.3184-1.1191,.3223h-1.6582Zm.8789-2.4785h.6504c.4434-.0078,.665-.1846,.665-.5303,0-.1934-.0566-.333-.1689-.417-.1123-.0859-.2891-.1279-.5312-.1279h-.6152v1.0752Zm0,.6211v1.1514h.7529c.207,0,.3682-.0488,.4854-.1475,.1152-.0986,.1738-.2354,.1738-.4092,0-.3906-.2021-.5889-.6064-.5947h-.8057Z"/><path class="cls-1" d="M165.9316,7.0195c-.0391-.0762-.0674-.1709-.085-.2842-.2051,.2285-.4717,.3428-.7998,.3428-.3105,0-.5684-.0898-.7715-.2695-.2051-.1797-.3066-.4062-.3066-.6797,0-.3359,.125-.5938,.373-.7734,.25-.1797,.6094-.2705,1.0801-.2725h.3896v-.1816c0-.1465-.0381-.2637-.1123-.3516-.0762-.0879-.1943-.1318-.3564-.1318-.1426,0-.2549,.0342-.335,.1025-.082,.0684-.1221,.1621-.1221,.2812h-.8467c0-.1836,.0566-.3535,.1699-.5098s.2734-.2783,.4805-.3682c.207-.0879,.4395-.1328,.6973-.1328,.3906,0,.7002,.0977,.9297,.2949,.2295,.1953,.3447,.4717,.3447,.8271v1.374c.002,.3008,.0439,.5283,.126,.6826v.0498h-.8555Zm-.7002-.5889c.125,0,.2402-.0283,.3457-.083,.1055-.0566,.1836-.1309,.2344-.2246v-.5449h-.3164c-.4238,0-.6494,.1465-.6768,.4395l-.0029,.0498c0,.1055,.0371,.1924,.1113,.2607s.1758,.1025,.3047,.1025Z"/><path class="cls-1" d="M169.0283,6.1436c0-.1035-.0518-.1846-.1533-.2451-.1035-.0586-.2676-.1123-.4941-.1592-.7539-.1582-1.1309-.4785-1.1309-.9609,0-.2812,.1162-.5156,.3496-.7041s.5391-.2832,.916-.2832c.4023,0,.7236,.0947,.9648,.2842s.3623,.4355,.3623,.7383h-.8467c0-.1211-.0391-.2217-.1172-.2998-.0781-.0801-.2002-.1191-.3662-.1191-.1426,0-.2529,.0322-.3311,.0967s-.1172,.1465-.1172,.2461c0,.0938,.0439,.1699,.1328,.2275s.2393,.1074,.4502,.1484c.2109,.043,.3887,.0898,.5332,.1426,.4473,.1641,.6709,.4482,.6709,.8525,0,.2891-.124,.5225-.3721,.7021-.248,.1777-.5684,.2676-.9609,.2676-.2656,0-.502-.0479-.708-.1426-.2061-.0938-.3672-.2236-.4844-.3887s-.1758-.3438-.1758-.5352h.8027c.0078,.1504,.0635,.2656,.167,.3457s.2422,.1201,.416,.1201c.1621,0,.2842-.0303,.3682-.0928,.082-.0605,.124-.1416,.124-.2412Z"/><path class="cls-1" d="M171.8555,7.0781c-.4648,0-.8438-.1426-1.1357-.4277s-.4375-.665-.4375-1.1396v-.082c0-.3184,.0615-.6025,.1846-.8545,.123-.25,.2979-.4434,.5225-.5801,.2266-.1348,.4834-.2031,.7725-.2031,.4336,0,.7744,.1367,1.0244,.4102,.248,.2734,.373,.6611,.373,1.1631v.3457h-2.0186c.0273,.207,.1104,.373,.2471,.498,.1387,.125,.3125,.1875,.5234,.1875,.3262,0,.5811-.1182,.7646-.3545l.416,.4658c-.127,.1797-.2988,.3203-.5156,.4209-.2168,.0996-.457,.1504-.7207,.1504Zm-.0967-2.6045c-.168,0-.3047,.0566-.4082,.1709-.1055,.1133-.1719,.2764-.2012,.4883h1.1777v-.0674c-.0039-.1885-.0547-.334-.1523-.4375-.0977-.1025-.2363-.1543-.416-.1543Z"/><path class="cls-1" d="M173.5078,5.4111c0-.4941,.1104-.8877,.332-1.1807s.5254-.4395,.9102-.4395c.3086,0,.5635,.1152,.7646,.3457v-1.6172h.8496V7.0195h-.7646l-.041-.3369c-.2109,.2637-.4824,.3955-.8145,.3955-.373,0-.6719-.1465-.8984-.4414-.2246-.293-.3379-.7021-.3379-1.2256Zm.8467,.0635c0,.2969,.0518,.5244,.1553,.6836,.1035,.1582,.2539,.2373,.4512,.2373,.2617,0,.4463-.1104,.5537-.332v-1.252c-.1055-.2217-.2881-.332-.5479-.332-.4082,0-.6123,.332-.6123,.9951Z"/><path class="cls-1" d="M182.0742,4.9834c0,.4199-.0742,.7881-.2227,1.1045s-.3613,.5605-.6367,.7324c-.2773,.1719-.5938,.2578-.9512,.2578-.3535,0-.6689-.085-.9463-.2549s-.4922-.4121-.6445-.7275-.2295-.6787-.2314-1.0889v-.2109c0-.4199,.0752-.79,.2266-1.1084,.1514-.3203,.3652-.5645,.6426-.7363,.2754-.1699,.5918-.2559,.9473-.2559s.6709,.0859,.9473,.2559c.2764,.1719,.4902,.416,.6426,.7363,.1504,.3184,.2266,.6875,.2266,1.1055v.1904Zm-.8906-.1934c0-.4473-.0801-.7871-.2402-1.0195s-.3887-.3486-.6855-.3486c-.2949,0-.5225,.1152-.6826,.3438-.1602,.2305-.2412,.5664-.2432,1.0098v.208c0,.4355,.0801,.7734,.2402,1.0137s.3906,.3604,.6914,.3604c.2949,0,.5215-.1152,.6797-.3477,.1582-.2305,.2383-.5684,.2402-1.0117v-.208Z"/><path class="cls-1" d="M184.5557,6.6973c-.209,.2539-.498,.3809-.8672,.3809-.3398,0-.5986-.0977-.7783-.293-.1777-.1953-.2695-.4814-.2734-.8584V3.8496h.8467v2.0498c0,.3311,.1504,.4961,.4512,.4961,.2871,0,.4844-.0996,.5918-.2988V3.8496h.8496v3.1699h-.7969l-.0234-.3223Z"/><path class="cls-1" d="M187.0283,3.0703v.7793h.542v.6211h-.542v1.582c0,.1172,.0225,.2012,.0674,.252s.1309,.0762,.2578,.0762c.0938,0,.1768-.0068,.249-.0205v.6416c-.166,.0508-.3369,.0762-.5127,.0762-.5938,0-.8965-.2998-.9082-.8994v-1.708h-.4629v-.6211h.4629v-.7793h.8467Z"/><path class="cls-1" d="M189.6885,5.5342h-1.6494v-.6826h1.6494v.6826Z"/><path class="cls-1" d="M190.2363,5.4053c0-.3145,.0605-.5947,.1816-.8408s.2949-.4365,.5234-.5713c.2266-.1348,.4912-.2021,.792-.2021,.4277,0,.7764,.1309,1.0479,.3926,.2695,.2617,.4209,.6172,.4521,1.0664l.0059,.2168c0,.4863-.1357,.877-.4072,1.1699-.2715,.2949-.6357,.4414-1.0928,.4414s-.8213-.1465-1.0947-.4395c-.2715-.293-.4082-.6914-.4082-1.1953v-.0381Zm.8467,.0605c0,.3008,.0566,.5312,.1699,.6904s.2754,.2393,.4863,.2393c.2051,0,.3652-.0791,.4805-.2363s.1729-.4092,.1729-.7559c0-.2949-.0576-.5234-.1729-.6865-.1152-.1621-.2773-.2432-.4863-.2432-.207,0-.3672,.0811-.4805,.2422s-.1699,.4111-.1699,.75Z"/><path class="cls-1" d="M193.9922,7.0195v-2.5488h-.4717v-.6211h.4717v-.2695c0-.3555,.1016-.6309,.3066-.8281,.2031-.1953,.4893-.2939,.8564-.2939,.1172,0,.2607,.0195,.4307,.0586l-.0088,.6562c-.0703-.0176-.1562-.0264-.2578-.0264-.3184,0-.4775,.1494-.4775,.4482v.2549h.6299v.6211h-.6299v2.5488h-.8496Z"/><path class="cls-1" d="M197.5576,5.5342h-1.6494v-.6826h1.6494v.6826Z"/><path class="cls-1" d="M201.0908,5.4639c0,.4883-.1113,.8799-.333,1.1729-.2217,.2949-.5205,.4414-.8975,.4414-.3203,0-.5791-.1113-.7764-.334v1.4941h-.8467V3.8496h.7852l.0293,.3105c.2051-.2461,.4727-.3691,.8027-.3691,.3906,0,.6943,.1445,.9111,.4336s.3252,.6875,.3252,1.1953v.0439Zm-.8467-.0615c0-.2949-.0527-.5225-.1562-.6826-.1055-.1602-.2568-.2402-.4561-.2402-.2656,0-.4482,.1016-.5479,.3047v1.2979c.1035,.209,.2881,.3135,.5537,.3135,.4043,0,.6064-.3311,.6064-.9932Z"/><path class="cls-1" d="M202.5088,7.0195h-.8496V2.5195h.8496V7.0195Z"/><path class="cls-1" d="M205.043,7.0195c-.0391-.0762-.0674-.1709-.085-.2842-.2051,.2285-.4717,.3428-.7998,.3428-.3105,0-.5684-.0898-.7715-.2695-.2051-.1797-.3066-.4062-.3066-.6797,0-.3359,.125-.5938,.373-.7734,.25-.1797,.6094-.2705,1.0801-.2725h.3896v-.1816c0-.1465-.0381-.2637-.1123-.3516-.0762-.0879-.1943-.1318-.3564-.1318-.1426,0-.2549,.0342-.335,.1025-.082,.0684-.1221,.1621-.1221,.2812h-.8467c0-.1836,.0566-.3535,.1699-.5098s.2734-.2783,.4805-.3682c.207-.0879,.4395-.1328,.6973-.1328,.3906,0,.7002,.0977,.9297,.2949,.2295,.1953,.3447,.4717,.3447,.8271v1.374c.002,.3008,.0439,.5283,.126,.6826v.0498h-.8555Zm-.7002-.5889c.125,0,.2402-.0283,.3457-.083,.1055-.0566,.1836-.1309,.2344-.2246v-.5449h-.3164c-.4238,0-.6494,.1465-.6768,.4395l-.0029,.0498c0,.1055,.0371,.1924,.1113,.2607s.1758,.1025,.3047,.1025Z"/><path class="cls-1" d="M207.7412,6.3955c.1562,0,.2832-.043,.3809-.1289s.1484-.2002,.1523-.3428h.7939c-.002,.2148-.0605,.4121-.1758,.5898-.1152,.1797-.2734,.3184-.4727,.416-.2012,.0986-.4219,.1484-.6641,.1484-.4531,0-.8105-.1436-1.0723-.4316s-.3926-.6865-.3926-1.1943v-.0557c0-.4883,.1299-.8779,.3896-1.1689s.6162-.4365,1.0693-.4365c.3965,0,.7139,.1133,.9531,.3379,.2393,.2266,.3613,.5264,.3652,.9014h-.7939c-.0039-.165-.0547-.2988-.1523-.4023-.0977-.1025-.2266-.1543-.3867-.1543-.1973,0-.3467,.0723-.4463,.2158-.1016,.1436-.1514,.377-.1514,.6992v.0889c0,.3262,.0498,.5605,.1494,.7041,.0996,.1426,.251,.2139,.4541,.2139Z"/><path class="cls-1" d="M211.0107,7.0781c-.4648,0-.8438-.1426-1.1357-.4277s-.4375-.665-.4375-1.1396v-.082c0-.3184,.0615-.6025,.1846-.8545,.123-.25,.2979-.4434,.5225-.5801,.2266-.1348,.4834-.2031,.7725-.2031,.4336,0,.7744,.1367,1.0244,.4102,.248,.2734,.373,.6611,.373,1.1631v.3457h-2.0186c.0273,.207,.1104,.373,.2471,.498,.1387,.125,.3125,.1875,.5234,.1875,.3262,0,.5811-.1182,.7646-.3545l.416,.4658c-.127,.1797-.2988,.3203-.5156,.4209-.2168,.0996-.457,.1504-.7207,.1504Zm-.0967-2.6045c-.168,0-.3047,.0566-.4082,.1709-.1055,.1133-.1719,.2764-.2012,.4883h1.1777v-.0674c-.0039-.1885-.0547-.334-.1523-.4375-.0977-.1025-.2363-.1543-.416-.1543Z"/><path class="cls-1" d="M214.1572,5.4111c0-.4941,.1104-.8877,.332-1.1807s.5254-.4395,.9102-.4395c.3086,0,.5635,.1152,.7646,.3457v-1.6172h.8496V7.0195h-.7646l-.041-.3369c-.2109,.2637-.4824,.3955-.8145,.3955-.373,0-.6719-.1465-.8984-.4414-.2246-.293-.3379-.7021-.3379-1.2256Zm.8467,.0635c0,.2969,.0518,.5244,.1553,.6836,.1035,.1582,.2539,.2373,.4512,.2373,.2617,0,.4463-.1104,.5537-.332v-1.252c-.1055-.2217-.2881-.332-.5479-.332-.4082,0-.6123,.332-.6123,.9951Z"/><path class="cls-1" d="M219.1289,7.0781c-.4648,0-.8438-.1426-1.1357-.4277s-.4375-.665-.4375-1.1396v-.082c0-.3184,.0615-.6025,.1846-.8545,.123-.25,.2979-.4434,.5225-.5801,.2266-.1348,.4834-.2031,.7725-.2031,.4336,0,.7744,.1367,1.0244,.4102,.248,.2734,.373,.6611,.373,1.1631v.3457h-2.0186c.0273,.207,.1104,.373,.2471,.498,.1387,.125,.3125,.1875,.5234,.1875,.3262,0,.5811-.1182,.7646-.3545l.416,.4658c-.127,.1797-.2988,.3203-.5156,.4209-.2168,.0996-.457,.1504-.7207,.1504Zm-.0967-2.6045c-.168,0-.3047,.0566-.4082,.1709-.1055,.1133-.1719,.2764-.2012,.4883h1.1777v-.0674c-.0039-.1885-.0547-.334-.1523-.4375-.0977-.1025-.2363-.1543-.416-.1543Z"/><path class="cls-1" d="M223.7695,5.4639c0,.5078-.1084,.9033-.3252,1.1885-.2168,.2832-.5195,.4258-.9082,.4258-.3438,0-.6182-.1318-.8232-.3955l-.0381,.3369h-.7617V2.5195h.8467v1.6143c.1953-.2285,.4521-.3428,.7705-.3428,.3867,0,.6904,.1426,.9092,.4258,.2207,.2852,.3301,.6846,.3301,1.2002v.0469Zm-.8467-.0615c0-.3203-.0508-.5537-.1523-.7012s-.2529-.2217-.4541-.2217c-.2695,0-.4551,.1104-.5566,.3311v1.251c.1035,.2227,.291,.334,.5625,.334,.2734,0,.4531-.1348,.5391-.4043,.041-.1289,.0615-.3252,.0615-.5889Z"/><path class="cls-1" d="M226.1895,6.6973c-.209,.2539-.498,.3809-.8672,.3809-.3398,0-.5986-.0977-.7783-.293-.1777-.1953-.2695-.4814-.2734-.8584V3.8496h.8467v2.0498c0,.3311,.1504,.4961,.4512,.4961,.2871,0,.4844-.0996,.5918-.2988V3.8496h.8496v3.1699h-.7969l-.0234-.3223Z"/><path class="cls-1" d="M227.5254,5.4111c0-.4863,.1162-.8779,.3467-1.1748,.2324-.2969,.5439-.4453,.9365-.4453,.3477,0,.6182,.1191,.8115,.3574l.0352-.2988h.7676v3.0645c0,.2773-.0625,.5186-.1895,.7236-.125,.2051-.3027,.3613-.5312,.4688s-.4961,.1611-.8027,.1611c-.2324,0-.459-.0469-.6797-.1387-.2207-.0938-.3877-.2129-.501-.3594l.375-.5156c.2109,.2363,.4668,.3545,.7676,.3545,.2246,0,.3994-.0596,.5244-.1807,.125-.1191,.1875-.29,.1875-.5107v-.1699c-.1953,.2207-.4521,.3311-.7705,.3311-.3809,0-.6895-.1484-.9248-.4473-.2354-.2969-.3525-.6924-.3525-1.1846v-.0352Zm.8467,.0635c0,.2871,.0576,.5127,.1729,.6758s.2734,.2451,.4746,.2451c.2578,0,.4424-.0967,.5537-.29v-1.3359c-.1133-.1934-.2959-.29-.5479-.29-.2031,0-.3633,.083-.4795,.249-.1162,.167-.1738,.415-.1738,.7461Z"/><path class="cls-1" d="M230.9502,5.4111c0-.4863,.1162-.8779,.3467-1.1748,.2324-.2969,.5439-.4453,.9365-.4453,.3477,0,.6182,.1191,.8115,.3574l.0352-.2988h.7676v3.0645c0,.2773-.0625,.5186-.1895,.7236-.125,.2051-.3027,.3613-.5312,.4688s-.4961,.1611-.8027,.1611c-.2324,0-.459-.0469-.6797-.1387-.2207-.0938-.3877-.2129-.501-.3594l.375-.5156c.2109,.2363,.4668,.3545,.7676,.3545,.2246,0,.3994-.0596,.5244-.1807,.125-.1191,.1875-.29,.1875-.5107v-.1699c-.1953,.2207-.4521,.3311-.7705,.3311-.3809,0-.6895-.1484-.9248-.4473-.2354-.2969-.3525-.6924-.3525-1.1846v-.0352Zm.8467,.0635c0,.2871,.0576,.5127,.1729,.6758s.2734,.2451,.4746,.2451c.2578,0,.4424-.0967,.5537-.29v-1.3359c-.1133-.1934-.2959-.29-.5479-.29-.2031,0-.3633,.083-.4795,.249-.1162,.167-.1738,.415-.1738,.7461Z"/><path class="cls-1" d="M234.4922,3.0293c0-.127,.042-.2314,.1279-.3135,.084-.082,.2002-.123,.3467-.123,.1445,0,.2598,.041,.3457,.123s.1289,.1865,.1289,.3135c0,.1289-.0439,.2344-.1299,.3164-.0879,.082-.2021,.123-.3447,.123s-.2578-.041-.3447-.123-.1299-.1875-.1299-.3164Zm.8994,3.9902h-.8496V3.8496h.8496v3.1699Z"/><path class="cls-1" d="M236.8682,3.8496l.0264,.3662c.2266-.2832,.5303-.4248,.9111-.4248,.3359,0,.5859,.0986,.75,.2959s.248,.4922,.252,.8848v2.0479h-.8467v-2.0273c0-.1797-.0391-.3096-.1172-.3906s-.208-.1221-.3896-.1221c-.2383,0-.417,.1016-.5361,.3047v2.2354h-.8467V3.8496h.7969Z"/><path class="cls-1" d="M239.3262,5.4111c0-.4863,.1162-.8779,.3467-1.1748,.2324-.2969,.5439-.4453,.9365-.4453,.3477,0,.6182,.1191,.8115,.3574l.0352-.2988h.7676v3.0645c0,.2773-.0625,.5186-.1895,.7236-.125,.2051-.3027,.3613-.5312,.4688s-.4961,.1611-.8027,.1611c-.2324,0-.459-.0469-.6797-.1387-.2207-.0938-.3877-.2129-.501-.3594l.375-.5156c.2109,.2363,.4668,.3545,.7676,.3545,.2246,0,.3994-.0596,.5244-.1807,.125-.1191,.1875-.29,.1875-.5107v-.1699c-.1953,.2207-.4521,.3311-.7705,.3311-.3809,0-.6895-.1484-.9248-.4473-.2354-.2969-.3525-.6924-.3525-1.1846v-.0352Zm.8467,.0635c0,.2871,.0576,.5127,.1729,.6758s.2734,.2451,.4746,.2451c.2578,0,.4424-.0967,.5537-.29v-1.3359c-.1133-.1934-.2959-.29-.5479-.29-.2031,0-.3633,.083-.4795,.249-.1162,.167-.1738,.415-.1738,.7461Z"/></g><g><path class="cls-1" d="M164.6885,27.4131h-.6152v-3.5547h.6152v3.5547Z"/><path class="cls-1" d="M166.3408,24.7715l.0166,.3057c.1953-.2363,.4521-.3545,.7695-.3545,.5498,0,.8301,.3154,.8398,.9443v1.7461h-.5938v-1.7109c0-.168-.0361-.292-.1084-.373-.0723-.0801-.1904-.1211-.3545-.1211-.2402,0-.418,.1084-.5352,.3252v1.8799h-.5938v-2.6416h.5596Z"/><path class="cls-1" d="M168.9717,24.085c0-.0908,.0293-.166,.0869-.2266s.1406-.0898,.248-.0898,.1904,.0293,.249,.0898,.0879,.1357,.0879,.2266c0,.0898-.0293,.1641-.0879,.2236s-.1416,.0889-.249,.0889-.1904-.0293-.248-.0889-.0869-.1338-.0869-.2236Zm.6309,3.3281h-.5938v-2.6416h.5938v2.6416Z"/><path class="cls-1" d="M171.3906,24.1299v.6416h.4668v.4395h-.4668v1.4746c0,.1006,.0205,.1738,.0605,.2188s.1113,.0674,.2129,.0674c.0684,0,.1377-.0088,.208-.0254v.459c-.1348,.0381-.2656,.0566-.3906,.0566-.4561,0-.6836-.252-.6836-.7539v-1.4971h-.4346v-.4395h.4346v-.6416h.5928Z"/><path class="cls-1" d="M172.7109,24.085c0-.0908,.0293-.166,.0869-.2266s.1406-.0898,.248-.0898,.1904,.0293,.249,.0898,.0879,.1357,.0879,.2266c0,.0898-.0293,.1641-.0879,.2236s-.1416,.0889-.249,.0889-.1904-.0293-.248-.0889-.0869-.1338-.0869-.2236Zm.6309,3.3281h-.5938v-2.6416h.5938v2.6416Z"/><path class="cls-1" d="M175.9658,27.4131c-.0264-.0508-.0488-.1328-.0684-.2461-.1895,.1963-.4199,.2949-.6934,.2949-.2656,0-.4824-.0762-.6504-.2266-.167-.1523-.251-.3389-.251-.5625,0-.2812,.1045-.4971,.3135-.6475s.5088-.2256,.8975-.2256h.3643v-.1738c0-.1367-.0391-.2461-.1152-.3281s-.1934-.123-.3496-.123c-.1348,0-.2451,.0332-.332,.1006-.0859,.0674-.1289,.1533-.1289,.2578h-.5938c0-.1445,.0488-.2803,.1445-.4062s.2266-.2256,.3916-.2969,.3496-.1074,.5537-.1074c.3086,0,.5557,.0781,.7393,.2334s.2783,.374,.2832,.6553v1.1914c0,.2373,.0332,.4268,.1006,.5693v.041h-.6055Zm-.6523-.4277c.1172,0,.2275-.0283,.3311-.085s.1807-.1338,.2334-.2295v-.498h-.3203c-.2197,0-.3848,.0381-.4961,.1152-.1104,.0762-.166,.1846-.166,.3242,0,.1143,.0381,.2051,.1143,.2725,.0752,.0674,.1768,.1006,.3037,.1006Z"/><path class="cls-1" d="M178.124,27.4131h-.5938v-3.75h.5938v3.75Z"/><path class="cls-1" d="M181.5566,24.1299v.6416h.4668v.4395h-.4668v1.4746c0,.1006,.0205,.1738,.0605,.2188s.1113,.0674,.2129,.0674c.0684,0,.1377-.0088,.208-.0254v.459c-.1348,.0381-.2656,.0566-.3906,.0566-.4561,0-.6836-.252-.6836-.7539v-1.4971h-.4346v-.4395h.4346v-.6416h.5928Z"/><path class="cls-1" d="M184.2598,25.3135c-.0781-.0127-.1592-.0195-.2422-.0195-.2715,0-.4551,.1045-.5488,.3125v1.8066h-.5938v-2.6416h.5664l.0146,.2959c.1436-.2305,.3418-.3447,.5957-.3447,.085,0,.1543,.0117,.21,.0342l-.002,.5566Z"/><path class="cls-1" d="M186.54,27.4131c-.0264-.0508-.0488-.1328-.0684-.2461-.1895,.1963-.4199,.2949-.6934,.2949-.2656,0-.4824-.0762-.6504-.2266-.167-.1523-.251-.3389-.251-.5625,0-.2812,.1045-.4971,.3135-.6475s.5088-.2256,.8975-.2256h.3643v-.1738c0-.1367-.0391-.2461-.1152-.3281s-.1934-.123-.3496-.123c-.1348,0-.2451,.0332-.332,.1006-.0859,.0674-.1289,.1533-.1289,.2578h-.5938c0-.1445,.0488-.2803,.1445-.4062s.2266-.2256,.3916-.2969,.3496-.1074,.5537-.1074c.3086,0,.5557,.0781,.7393,.2334s.2783,.374,.2832,.6553v1.1914c0,.2373,.0332,.4268,.1006,.5693v.041h-.6055Zm-.6523-.4277c.1172,0,.2275-.0283,.3311-.085s.1807-.1338,.2334-.2295v-.498h-.3203c-.2197,0-.3848,.0381-.4961,.1152-.1104,.0762-.166,.1846-.166,.3242,0,.1143,.0381,.2051,.1143,.2725,.0752,.0674,.1768,.1006,.3037,.1006Z"/><path class="cls-1" d="M188.6172,24.7715l.0166,.3057c.1953-.2363,.4521-.3545,.7695-.3545,.5498,0,.8301,.3154,.8398,.9443v1.7461h-.5938v-1.7109c0-.168-.0361-.292-.1084-.373-.0723-.0801-.1904-.1211-.3545-.1211-.2402,0-.418,.1084-.5352,.3252v1.8799h-.5938v-2.6416h.5596Z"/><path class="cls-1" d="M192.7285,26.6953c0-.1055-.0439-.1865-.1309-.2412-.0869-.0557-.2314-.1045-.4336-.1465-.2021-.043-.3701-.0967-.5059-.1621-.2959-.1426-.4434-.3506-.4434-.6221,0-.2275,.0957-.418,.2871-.5713,.1924-.1533,.4365-.2295,.7324-.2295,.3164,0,.5713,.0781,.7656,.2344s.292,.3584,.292,.6084h-.5928c0-.1143-.043-.209-.127-.2852-.085-.0752-.1973-.1133-.3379-.1133-.1299,0-.2363,.0303-.3184,.0898-.082,.0605-.123,.1416-.123,.2422,0,.0908,.0381,.1621,.1152,.2129,.0762,.0498,.2305,.1006,.4629,.1523,.2334,.0508,.416,.1123,.5488,.1826,.1328,.0713,.2305,.1562,.2949,.2549,.0645,.0996,.0967,.2207,.0967,.3613,0,.2383-.0986,.4307-.2959,.5781-.1963,.1475-.4541,.2207-.7734,.2207-.2168,0-.4092-.0391-.5781-.1172-.1699-.0781-.3018-.1855-.3965-.3223-.0938-.1367-.1406-.2842-.1406-.4414h.5762c.0078,.1396,.0605,.2471,.1582,.3232,.0977,.0752,.2266,.1133,.3887,.1133,.1562,0,.2744-.0293,.3555-.0889,.082-.0596,.123-.1377,.123-.2334Z"/><path class="cls-1" d="M194.4365,27.4131v-2.2021h-.4033v-.4395h.4033v-.2412c0-.293,.0811-.5195,.2441-.6797,.1631-.1592,.3906-.2383,.6836-.2383,.1045,0,.2148,.0137,.332,.043l-.0146,.4648c-.0654-.0137-.1406-.0195-.2266-.0195-.2832,0-.4258,.1455-.4258,.4365v.2344h.5371v.4395h-.5371v2.2021h-.5928Z"/><path class="cls-1" d="M197.5039,27.4619c-.375,0-.6807-.1182-.9141-.3555-.2334-.2363-.3496-.5518-.3496-.9453v-.0742c0-.2637,.0508-.499,.1523-.7061,.1016-.208,.2441-.3691,.4277-.4854,.1846-.1152,.3896-.1729,.6152-.1729,.3604,0,.6377,.1143,.834,.3447,.1963,.2285,.2949,.5537,.2949,.9736v.2393h-1.7266c.0176,.2178,.0908,.3906,.2188,.5176s.2881,.1904,.4824,.1904c.2715,0,.4922-.1104,.6641-.3291l.3193,.3047c-.1055,.1582-.2471,.2803-.4238,.3672s-.374,.1309-.5947,.1309Zm-.0703-2.2637c-.1631,0-.2939,.0576-.3945,.1719-.0996,.1133-.1641,.2725-.1914,.4756h1.1309v-.0439c-.0137-.1982-.0664-.3486-.1592-.4502s-.2217-.1533-.3857-.1533Z"/><path class="cls-1" d="M200.8086,25.3135c-.0781-.0127-.1592-.0195-.2422-.0195-.2715,0-.4551,.1045-.5488,.3125v1.8066h-.5938v-2.6416h.5664l.0146,.2959c.1436-.2305,.3418-.3447,.5957-.3447,.085,0,.1543,.0117,.21,.0342l-.002,.5566Z"/></g></g><g><g id="g52598"><path id="path50484" class="cls-5" d="M18.964,63.9654H118.0243M18.964,48.0094H118.0243M18.964,32.0534H118.0243M18.964,15.7649H118.0243"/><path id="path50490" class="cls-3" d="M19.9613,65.7937v-1.6621m.9973,1.6621v-1.6621m.9973,1.6621v-1.6621m.9973,1.6621v-1.6621m.9973,1.6621v-1.6621m.9973,1.6621v-1.6621m.6648,1.6621v-1.6621m.9973,1.6621v-1.6621m.9973,1.6621v-1.6621m1.9945,1.6621v-1.6621m.9973,1.6621v-1.6621m.9973,1.6621v-1.6621m.9973,1.6621v-1.6621m.9973,1.6621v-1.6621m.9973,1.6621v-1.6621m.9973,1.6621v-1.6621m.9973,1.6621v-1.6621m.9973,1.6621v-1.6621m1.9945,1.6621v-1.6621m.9973,1.6621v-1.6621m.9973,1.6621v-1.6621m.9973,1.6621v-1.6621m.9973,1.6621v-1.6621m.9973,1.6621v-1.6621m.9973,1.6621v-1.6621m.9973,1.6621v-1.6621m.6648,1.6621v-1.6621m1.9945,1.6621v-1.6621m.9973,1.6621v-1.6621m.9973,1.6621v-1.6621m.9973,1.6621v-1.6621m.9973,1.6621v-1.6621m.9973,1.6621v-1.6621m.9973,1.6621v-1.6621m.9973,1.6621v-1.6621m.9973,1.6621v-1.6621m1.9945,1.6621v-1.6621m.9973,1.6621v-1.6621m.9973,1.6621v-1.6621m.9973,1.6621v-1.6621m.9973,1.6621v-1.6621m.9973,1.6621v-1.6621m.9973,1.6621v-1.6621m.9973,1.6621v-1.6621m.9973,1.6621v-1.6621m1.6621,1.6621v-1.6621m.9973,1.6621v-1.6621m.9973,1.6621v-1.6621m.9973,1.6621v-1.6621m.9973,1.6621v-1.6621m.9973,1.6621v-1.6621m.9973,1.6621v-1.6621m.9973,1.6621v-1.6621m.9973,1.6621v-1.6621m1.9945,1.6621v-1.6621m.9973,1.6621v-1.6621m.9973,1.6621v-1.6621m.9973,1.6621v-1.6621m.9973,1.6621v-1.6621m.9973,1.6621v-1.6621m.9973,1.6621v-1.6621m.9973,1.6621v-1.6621m.9973,1.6621v-1.6621m1.9945,1.6621v-1.6621m.6648,1.6621v-1.6621m.9973,1.6621v-1.6621m.9973,1.6621v-1.6621m.9973,1.6621v-1.6621m.9973,1.6621v-1.6621m.9973,1.6621v-1.6621m.9973,1.6621v-1.6621m.9973,1.6621v-1.6621m1.9945,1.6621v-1.6621m.9973,1.6621v-1.6621m.9973,1.6621v-1.6621m.9973,1.6621v-1.6621m.9973,1.6621v-1.6621m.9973,1.6621v-1.6621m.9973,1.6621v-1.6621m.9973,1.6621v-1.6621m.9973,1.6621v-1.6621m1.9945,1.6621v-1.6621m.9973,1.6621v-1.6621m.9973,1.6621v-1.6621m.6648,1.6621v-1.6621m.9973,1.6621v-1.6621m.9973,1.6621v-1.6621m.9973,1.6621v-1.6621m.9973,1.6621v-1.6621m.9973,1.6621v-1.6621"/><path id="path50494" class="cls-3" d="M18.964,66.4585v-2.3269m9.6401,2.3269v-2.3269m9.9725,2.3269v-2.3269m9.6401,2.3269v-2.3269m9.9725,2.3269v-2.3269m9.9725,2.3269v-2.3269m9.6401,2.3269v-2.3269m9.9725,2.3269v-2.3269m9.6401,2.3269v-2.3269m9.9725,2.3269v-2.3269m9.6401,2.3269v-2.3269"/><path id="path50500" class="cls-3" d="M17.3019,60.1426h1.6621m-1.6621-4.3214h1.6621m-1.6621-3.989h1.6621m-1.6621-7.978h1.6621m-1.6621-3.989h1.6621m-1.6621-3.989h1.6621m-1.6621-7.978h1.6621m-1.6621-3.989h1.6621m-1.6621-3.989h1.6621m-1.6621-7.978h1.6621m-1.6621-3.989h1.6621"/><path id="path50504" class="cls-3" d="M16.3047,64.1316h2.6593m-2.6593-16.2884h2.6593m-2.6593-15.956h2.6593m-2.6593-15.956h2.6593"/><path id="path50506" class="cls-6" d="M18.964,63.9654H118.0243"/><path id="path50508" class="cls-6" d="M18.7978,64.1316V7.9531"/><g class="cls-9"><path id="path50758" d="M19.6288,63.7992h.6648v-20.2774h-.6648v20.2774Zm.9973,0h.6648v-20.2774h-.6648v20.2774Zm.9973,.3324h.6648v-21.9395h-.6648v21.9395Zm.9973,0h.6648v-21.9395h-.6648v21.9395Zm.9973,0h.6648v-21.9395h-.6648v21.9395Zm.9973,0h.6648v-21.9395h-.6648v21.9395Zm.6648-.3324h.6648v-20.2774h-.6648v20.2774Zm.9973,0h.6648v-20.2774h-.6648v20.2774Zm.9973,0h.6648v-20.2774h-.6648v20.2774Zm.9973,.3324h.6648v-21.9395h-.6648v21.9395Zm.9973,0h.6648v-21.9395h-.6648v21.9395Zm.9973,0h.6648v-21.9395h-.6648v21.9395Zm.9973,0h.6648v-21.9395h-.6648v21.9395Zm.9973-.3324h.6648v-20.2774h-.6648v20.2774Zm.9973,.3324h.6648v-20.2774h-.6648v20.2774Zm.9973-.3324h.6648v-20.2774h-.6648v20.2774Zm.9973,.3324h.6648v-20.2774h-.6648v20.2774Zm.9973,0h.6648v-21.9395h-.6648v21.9395Zm.9973,0h.6648v-21.9395h-.6648v21.9395Zm.9973,0h.6648v-21.9395h-.6648v21.9395Zm.9973,0h.6648v-21.9395h-.6648v21.9395Zm.9973,0h.6648v-22.9368h-.6648v22.9368Zm.9973,0h.6648v-20.2774h-.6648v20.2774Zm.9973-.3324h.6648v-20.2774h-.6648v20.2774Zm.9973,.3324h.6648v-20.2774h-.6648v20.2774Zm.9973,0h.6648v-23.6016h-.6648v23.6016Zm.9973-.3324h.6648v-22.9368h-.6648v22.9368Zm.9973,.3324h.6648v-22.9368h-.6648v22.9368Zm.6648,0h.6648v-22.9368h-.6648v22.9368Zm.9973,0h.6648v-22.9368h-.6648v22.9368Zm.9973-.3324h.6648v-22.9368h-.6648v22.9368Zm.9973,.3324h.6648v-22.9368h-.6648v22.9368Zm.9973,0h.6648v-24.5989h-.6648v24.5989Zm.9973,0h.6648v-24.5989h-.6648v24.5989Zm.9973,0h.6648v-24.5989h-.6648v24.5989Zm.9973,0h.6648v-24.5989h-.6648v24.5989Zm.9973,0h.6648v-22.9368h-.6648v22.9368Zm.9973,0h.6648v-21.9395h-.6648v21.9395Zm.9973,0h.6648v-21.9395h-.6648v21.9395Zm.9973,0h.6648v-21.9395h-.6648v21.9395Zm.9973,0h.6648v-21.9395h-.6648v21.9395Zm.9973,0h.6648v-21.9395h-.6648v21.9395Zm.9973,0h.6648v-21.9395h-.6648v21.9395Zm.9973-.3324h.6648v-23.2692h-.6648v23.2692Zm.9973,0h.6648v-23.2692h-.6648v23.2692Zm.9973,.3324h.6648v-23.2692h-.6648v23.2692Zm.9973,0h.6648v-23.6016h-.6648v23.6016Zm.9973-.3324h.6648v-21.6071h-.6648v21.6071Zm.9973,.3324h.6648v-20.2774h-.6648v20.2774Zm.9973,0h.6648v-21.9395h-.6648v21.9395Zm.6648,0h.6648v-21.9395h-.6648v21.9395Zm.9973,0h.6648v-24.9313h-.6648v24.9313Zm.9973,0h.6648v-24.2665h-.6648v24.2665Zm.9973,0h.6648v-24.2665h-.6648v24.2665Zm.9973,0h.6648v-24.2665h-.6648v24.2665Zm.9973,0h.6648v-24.2665h-.6648v24.2665Zm.9973,0h.6648v-24.2665h-.6648v24.2665Zm.9973,0h.6648v-24.2665h-.6648v24.2665Zm.9973-.3324h.6648v-25.2637h-.6648v25.2637Zm.9973,.3324h.6648v-25.5961h-.6648v25.5961Zm.9973,0h.6648v-25.2637h-.6648v25.2637Zm.9973-.3324h.6648v-25.2637h-.6648v25.2637Zm.9973,0h.6648v-23.934h-.6648v23.934Zm.9973,0h.6648v-22.9368h-.6648v22.9368Zm.9973,0h.6648v-22.9368h-.6648v22.9368Zm.9973,0h.6648v-22.9368h-.6648v22.9368Zm.9973,0h.6648v-22.9368h-.6648v22.9368Zm.9973,.3324h.6648v-23.2692h-.6648v23.2692Zm.9973-.3324h.6648v-22.9368h-.6648v22.9368Zm.9973,0h.6648v-24.2665h-.6648v24.2665Zm.9973,0h.6648v-24.2665h-.6648v24.2665Zm.6648,.3324h.6648v-24.2665h-.6648v24.2665Zm.9973-.3324h.6648v-24.2665h-.6648v24.2665Zm.9973,.3324h.6648v-22.9368h-.6648v22.9368Zm.9973,0h.6648v-21.9395h-.6648v21.9395Zm.9973-.3324h.6648v-22.9368h-.6648v22.9368Zm.9973,0h.6648v-22.9368h-.6648v22.9368Zm.9973,0h.6648v-22.9368h-.6648v22.9368Zm.9973,0h.6648v-22.9368h-.6648v22.9368Zm.9973,.3324h.6648v-23.2692h-.6648v23.2692Zm.9973-.3324h.6648v-22.9368h-.6648v22.9368Zm.9973,0h.6648v-24.2665h-.6648v24.2665Zm.9973,0h.6648v-24.2665h-.6648v24.2665Zm.9973,.3324h.6648v-24.2665h-.6648v24.2665Zm.9973-.3324h.6648v-24.2665h-.6648v24.2665Zm.9973,.3324h.6648v-22.9368h-.6648v22.9368Zm.9973,0h.6648v-21.9395h-.6648v21.9395Zm.9973,0h.6648v-21.9395h-.6648v21.9395Zm.9973,0h.6648v-21.9395h-.6648v21.9395Zm.9973,0h.6648v-20.2774h-.6648v20.2774Zm.9972,0h.6648v-20.2774h-.6648v20.2774Zm.9973,0h.6648v-20.2774h-.6648v20.2774Zm.9973,0h.6648v-21.9395h-.6648v21.9395Zm.6648,0h.6648v-21.9395h-.6648v21.9395Zm.9973,0h.6648v-21.9395h-.6648v21.9395Zm.9973,0h.6648v-21.9395h-.6648v21.9395Zm.9973-.3324h.6648v-20.2774h-.6648v20.2774Zm.9973,0h.6648v-20.2774h-.6648v20.2774Zm.9973,.3324h.6648v-20.2774h-.6648v20.2774Zm.9973,0h.6648v-21.9395h-.6648v21.9395Z"/></g></g><g><path class="cls-1" d="M44.3271,3.5713h-.7002v1.5615h-.8789V.8672h1.585c.5039,0,.8926,.1123,1.166,.3369s.4102,.542,.4102,.9521c0,.291-.0635,.5342-.1885,.7285-.127,.1943-.3174,.3486-.5732,.4639l.9229,1.7432v.041h-.9434l-.7998-1.5615Zm-.7002-.7119h.709c.2207,0,.3916-.0557,.5127-.168s.1816-.2676,.1816-.4648c0-.2012-.0576-.3594-.1709-.4746-.1152-.1152-.29-.1729-.5264-.1729h-.7061v1.2803Z"/><path class="cls-1" d="M48.4609,5.1914c-.4648,0-.8438-.1426-1.1357-.4277s-.4375-.665-.4375-1.1396v-.082c0-.3184,.0615-.6025,.1846-.8545,.123-.25,.2979-.4434,.5225-.5801,.2266-.1348,.4834-.2031,.7725-.2031,.4336,0,.7744,.1367,1.0244,.4102,.248,.2734,.373,.6611,.373,1.1631v.3457h-2.0186c.0273,.207,.1104,.373,.2471,.498,.1387,.125,.3125,.1875,.5234,.1875,.3262,0,.5811-.1182,.7646-.3545l.416,.4658c-.127,.1797-.2988,.3203-.5156,.4209-.2168,.0996-.457,.1504-.7207,.1504Zm-.0967-2.6045c-.168,0-.3047,.0566-.4082,.1709-.1055,.1133-.1719,.2764-.2012,.4883h1.1777v-.0674c-.0039-.1885-.0547-.334-.1523-.4375-.0977-.1025-.2363-.1543-.416-.1543Z"/><path class="cls-1" d="M51.5186,1.9629l.0264,.3545c.2246-.2754,.5283-.4131,.9111-.4131,.4082,0,.6885,.1611,.8408,.4834,.2227-.3223,.54-.4834,.9521-.4834,.3438,0,.5996,.1006,.7676,.3008s.252,.501,.252,.9033v2.0244h-.8496V3.1113c0-.1797-.0352-.3105-.1055-.3945-.0703-.082-.1943-.124-.3721-.124-.2539,0-.4297,.1211-.5273,.3633l.0029,2.1768h-.8467V3.1143c0-.1836-.0361-.3164-.1084-.3984s-.1953-.123-.3691-.123c-.2402,0-.4141,.0996-.5215,.2988v2.2412h-.8467V1.9629h.7939Z"/><path class="cls-1" d="M56.2676,3.5186c0-.3145,.0605-.5947,.1816-.8408s.2949-.4365,.5234-.5713c.2266-.1348,.4912-.2021,.792-.2021,.4277,0,.7764,.1309,1.0479,.3926,.2695,.2617,.4209,.6172,.4521,1.0664l.0059,.2168c0,.4863-.1357,.877-.4072,1.1699-.2715,.2949-.6357,.4414-1.0928,.4414s-.8213-.1465-1.0947-.4395c-.2715-.293-.4082-.6914-.4082-1.1953v-.0381Zm.8467,.0605c0,.3008,.0566,.5312,.1699,.6904s.2754,.2393,.4863,.2393c.2051,0,.3652-.0791,.4805-.2363s.1729-.4092,.1729-.7559c0-.2949-.0576-.5234-.1729-.6865-.1152-.1621-.2773-.2432-.4863-.2432-.207,0-.3672,.0811-.4805,.2422s-.1699,.4111-.1699,.75Z"/><path class="cls-1" d="M61.2852,1.1836v.7793h.542v.6211h-.542v1.582c0,.1172,.0225,.2012,.0674,.252s.1309,.0762,.2578,.0762c.0938,0,.1768-.0068,.249-.0205v.6416c-.166,.0508-.3369,.0762-.5127,.0762-.5938,0-.8965-.2998-.9082-.8994v-1.708h-.4629v-.6211h.4629v-.7793h.8467Z"/><path class="cls-1" d="M64.2383,5.1914c-.4648,0-.8438-.1426-1.1357-.4277s-.4375-.665-.4375-1.1396v-.082c0-.3184,.0615-.6025,.1846-.8545,.123-.25,.2979-.4434,.5225-.5801,.2266-.1348,.4834-.2031,.7725-.2031,.4336,0,.7744,.1367,1.0244,.4102,.248,.2734,.373,.6611,.373,1.1631v.3457h-2.0186c.0273,.207,.1104,.373,.2471,.498,.1387,.125,.3125,.1875,.5234,.1875,.3262,0,.5811-.1182,.7646-.3545l.416,.4658c-.127,.1797-.2988,.3203-.5156,.4209-.2168,.0996-.457,.1504-.7207,.1504Zm-.0967-2.6045c-.168,0-.3047,.0566-.4082,.1709-.1055,.1133-.1719,.2764-.2012,.4883h1.1777v-.0674c-.0039-.1885-.0547-.334-.1523-.4375-.0977-.1025-.2363-.1543-.416-.1543Z"/><path class="cls-1" d="M68.3447,3.5244c0-.4941,.1104-.8877,.332-1.1807s.5254-.4395,.9102-.4395c.3086,0,.5635,.1152,.7646,.3457V.6328h.8496V5.1328h-.7646l-.041-.3369c-.2109,.2637-.4824,.3955-.8145,.3955-.373,0-.6719-.1465-.8984-.4414-.2246-.293-.3379-.7021-.3379-1.2256Zm.8467,.0635c0,.2969,.0518,.5244,.1553,.6836,.1035,.1582,.2539,.2373,.4512,.2373,.2617,0,.4463-.1104,.5537-.332v-1.252c-.1055-.2217-.2881-.332-.5479-.332-.4082,0-.6123,.332-.6123,.9951Z"/><path class="cls-1" d="M73.7959,5.1914c-.4648,0-.8438-.1426-1.1357-.4277s-.4375-.665-.4375-1.1396v-.082c0-.3184,.0615-.6025,.1846-.8545,.123-.25,.2979-.4434,.5225-.5801,.2266-.1348,.4834-.2031,.7725-.2031,.4336,0,.7744,.1367,1.0244,.4102,.248,.2734,.373,.6611,.373,1.1631v.3457h-2.0186c.0273,.207,.1104,.373,.2471,.498,.1387,.125,.3125,.1875,.5234,.1875,.3262,0,.5811-.1182,.7646-.3545l.416,.4658c-.127,.1797-.2988,.3203-.5156,.4209-.2168,.0996-.457,.1504-.7207,.1504Zm-.0967-2.6045c-.168,0-.3047,.0566-.4082,.1709-.1055,.1133-.1719,.2764-.2012,.4883h1.1777v-.0674c-.0039-.1885-.0547-.334-.1523-.4375-.0977-.1025-.2363-.1543-.416-.1543Z"/><path class="cls-1" d="M78.917,3.5771c0,.5078-.1084,.9033-.3252,1.1885-.2168,.2832-.5195,.4258-.9082,.4258-.3438,0-.6182-.1318-.8232-.3955l-.0381,.3369h-.7617V.6328h.8467v1.6143c.1953-.2285,.4521-.3428,.7705-.3428,.3867,0,.6904,.1426,.9092,.4258,.2207,.2852,.3301,.6846,.3301,1.2002v.0469Zm-.8467-.0615c0-.3203-.0508-.5537-.1523-.7012s-.2529-.2217-.4541-.2217c-.2695,0-.4551,.1104-.5566,.3311v1.251c.1035,.2227,.291,.334,.5625,.334,.2734,0,.4531-.1348,.5391-.4043,.041-.1289,.0615-.3252,.0615-.5889Z"/><path class="cls-1" d="M81.8164,4.8105c-.209,.2539-.498,.3809-.8672,.3809-.3398,0-.5986-.0977-.7783-.293-.1777-.1953-.2695-.4814-.2734-.8584V1.9629h.8467v2.0498c0,.3311,.1504,.4961,.4512,.4961,.2871,0,.4844-.0996,.5918-.2988V1.9629h.8496v3.1699h-.7969l-.0234-.3223Z"/><path class="cls-1" d="M83.6328,3.5244c0-.4863,.1162-.8779,.3467-1.1748,.2324-.2969,.5439-.4453,.9365-.4453,.3477,0,.6182,.1191,.8115,.3574l.0352-.2988h.7676v3.0645c0,.2773-.0625,.5186-.1895,.7236-.125,.2051-.3027,.3613-.5312,.4688s-.4961,.1611-.8027,.1611c-.2324,0-.459-.0469-.6797-.1387-.2207-.0938-.3877-.2129-.501-.3594l.375-.5156c.2109,.2363,.4668,.3545,.7676,.3545,.2246,0,.3994-.0596,.5244-.1807,.125-.1191,.1875-.29,.1875-.5107v-.1699c-.1953,.2207-.4521,.3311-.7705,.3311-.3809,0-.6895-.1484-.9248-.4473-.2354-.2969-.3525-.6924-.3525-1.1846v-.0352Zm.8467,.0635c0,.2871,.0576,.5127,.1729,.6758s.2734,.2451,.4746,.2451c.2578,0,.4424-.0967,.5537-.29v-1.3359c-.1133-.1934-.2959-.29-.5479-.29-.2031,0-.3633,.083-.4795,.249-.1162,.167-.1738,.415-.1738,.7461Z"/><path class="cls-1" d="M87.5371,3.5244c0-.4863,.1162-.8779,.3467-1.1748,.2324-.2969,.5439-.4453,.9365-.4453,.3477,0,.6182,.1191,.8115,.3574l.0352-.2988h.7676v3.0645c0,.2773-.0625,.5186-.1895,.7236-.125,.2051-.3027,.3613-.5312,.4688s-.4961,.1611-.8027,.1611c-.2324,0-.459-.0469-.6797-.1387-.2207-.0938-.3877-.2129-.501-.3594l.375-.5156c.2109,.2363,.4668,.3545,.7676,.3545,.2246,0,.3994-.0596,.5244-.1807,.125-.1191,.1875-.29,.1875-.5107v-.1699c-.1953,.2207-.4521,.3311-.7705,.3311-.3809,0-.6895-.1484-.9248-.4473-.2354-.2969-.3525-.6924-.3525-1.1846v-.0352Zm.8467,.0635c0,.2871,.0576,.5127,.1729,.6758s.2734,.2451,.4746,.2451c.2578,0,.4424-.0967,.5537-.29v-1.3359c-.1133-.1934-.2959-.29-.5479-.29-.2031,0-.3633,.083-.4795,.249-.1162,.167-.1738,.415-.1738,.7461Z"/><path class="cls-1" d="M91.5596,1.1426c0-.127,.042-.2314,.1279-.3135,.084-.082,.2002-.123,.3467-.123,.1445,0,.2598,.041,.3457,.123s.1289,.1865,.1289,.3135c0,.1289-.0439,.2344-.1299,.3164-.0879,.082-.2021,.123-.3447,.123s-.2578-.041-.3447-.123-.1299-.1875-.1299-.3164Zm.8994,3.9902h-.8496V1.9629h.8496v3.1699Z"/><path class="cls-1" d="M94.415,1.9629l.0264,.3662c.2266-.2832,.5303-.4248,.9111-.4248,.3359,0,.5859,.0986,.75,.2959s.248,.4922,.252,.8848v2.0479h-.8467V3.1055c0-.1797-.0391-.3096-.1172-.3906s-.208-.1221-.3896-.1221c-.2383,0-.417,.1016-.5361,.3047v2.2354h-.8467V1.9629h.7969Z"/><path class="cls-1" d="M97.3535,3.5244c0-.4863,.1162-.8779,.3467-1.1748,.2324-.2969,.5439-.4453,.9365-.4453,.3477,0,.6182,.1191,.8115,.3574l.0352-.2988h.7676v3.0645c0,.2773-.0625,.5186-.1895,.7236-.125,.2051-.3027,.3613-.5312,.4688s-.4961,.1611-.8027,.1611c-.2324,0-.459-.0469-.6797-.1387-.2207-.0938-.3877-.2129-.501-.3594l.375-.5156c.2109,.2363,.4668,.3545,.7676,.3545,.2246,0,.3994-.0596,.5244-.1807,.125-.1191,.1875-.29,.1875-.5107v-.1699c-.1953,.2207-.4521,.3311-.7705,.3311-.3809,0-.6895-.1484-.9248-.4473-.2354-.2969-.3525-.6924-.3525-1.1846v-.0352Zm.8467,.0635c0,.2871,.0576,.5127,.1729,.6758s.2734,.2451,.4746,.2451c.2578,0,.4424-.0967,.5537-.29v-1.3359c-.1133-.1934-.2959-.29-.5479-.29-.2031,0-.3633,.083-.4795,.249-.1162,.167-.1738,.415-.1738,.7461Z"/></g><g><path class="cls-1" d="M5.1328,58.1562H.8672v-1.4941c0-.5176,.0986-.9102,.2969-1.1777s.4883-.4014,.8711-.4014c.209,0,.3936,.0537,.5527,.1611s.2754,.2568,.3496,.4482c.0547-.2188,.166-.3916,.332-.5166,.166-.127,.3691-.1895,.6094-.1895,.4102,0,.7207,.1309,.9316,.3926s.3184,.6348,.3223,1.1191v1.6582Zm-2.4785-.8789v-.6504c-.0078-.4434-.1855-.665-.5312-.665-.1934,0-.332,.0566-.417,.1689s-.1279,.2891-.1279,.5312v.6152h1.0762Zm.6211,0h1.1504v-.7529c0-.207-.0488-.3682-.1475-.4854-.0986-.1152-.2354-.1738-.4092-.1738-.3906,0-.5879,.2021-.5938,.6064v.8057Z"/><path class="cls-1" d="M3.9336,52.7188l-1.9707-.5859v-.9082l3.6621,1.2744,.166,.0703c.4141,.1895,.6211,.502,.6211,.9375,0,.123-.0176,.248-.0547,.375h-.6426l.0039-.1289c0-.1602-.0254-.2793-.0742-.3594-.0488-.0781-.1289-.1406-.2422-.1855l-.2617-.0996-3.1777,1.1104v-.9111l1.9707-.5889Z"/><path class="cls-1" d="M1.1836,49.3975h.7793v-.542h.6211v.542h1.582c.1172,0,.2012-.0225,.252-.0674s.0762-.1309,.0762-.2578c0-.0938-.0078-.1768-.0215-.249h.6426c.0508,.166,.0762,.3369,.0762,.5127,0,.5938-.3008,.8965-.9004,.9082h-1.707v.4629h-.6211v-.4629h-.7793v-.8467Z"/><path class="cls-1" d="M5.1914,46.4443c0,.4648-.1426,.8438-.4277,1.1357s-.666,.4375-1.1406,.4375h-.082c-.3184,0-.6025-.0615-.8535-.1846s-.4443-.2979-.5801-.5225c-.1357-.2266-.2031-.4834-.2031-.7725,0-.4336,.1367-.7744,.4102-1.0244,.2734-.248,.6602-.373,1.1621-.373h.3457v2.0186c.207-.0273,.373-.1104,.498-.2471,.125-.1387,.1875-.3125,.1875-.5234,0-.3262-.1172-.5811-.3535-.7646l.4648-.416c.1797,.127,.3203,.2988,.4209,.5156s.1514,.457,.1514,.7207Zm-2.6055,.0967c0,.168,.0576,.3047,.1719,.4082,.1133,.1055,.2754,.1719,.4883,.2012v-1.1777h-.0684c-.1875,.0039-.334,.0547-.4375,.1523-.1025,.0977-.1543,.2363-.1543,.416Z"/><path class="cls-1" d="M4.2559,42.4639c-.1035,0-.1846,.0518-.2441,.1533-.0596,.1035-.1133,.2676-.1602,.4941-.1582,.7539-.4785,1.1309-.9609,1.1309-.2812,0-.5156-.1162-.7041-.3496s-.2822-.5391-.2822-.916c0-.4023,.0938-.7236,.2832-.9648s.4355-.3623,.7383-.3623v.8467c-.1211,0-.2207,.0391-.2998,.1172s-.1182,.2002-.1182,.3662c0,.1426,.0312,.2529,.0957,.3311s.1465,.1172,.2461,.1172c.0938,0,.1699-.0439,.2275-.1328s.1074-.2393,.1494-.4502,.0898-.3887,.1426-.5332c.1641-.4473,.4473-.6709,.8516-.6709,.2891,0,.5234,.124,.7021,.3721s.2686,.5684,.2686,.9609c0,.2656-.0479,.502-.1426,.708s-.2246,.3672-.3896,.4844-.3428,.1758-.5342,.1758v-.8027c.1504-.0078,.2656-.0635,.3457-.167s.1191-.2422,.1191-.416c0-.1621-.0303-.2842-.0918-.3682-.0615-.082-.1426-.124-.2422-.124Z"/><path class="cls-1" d="M5.498,38.375v.6299l-4.6309-1.5703v-.6299l4.6309,1.5703Z"/><path class="cls-1" d="M4.2559,32.2295c-.1035,0-.1846,.0518-.2441,.1533-.0596,.1035-.1133,.2676-.1602,.4941-.1582,.7539-.4785,1.1309-.9609,1.1309-.2812,0-.5156-.1162-.7041-.3496s-.2822-.5391-.2822-.916c0-.4023,.0938-.7236,.2832-.9648s.4355-.3623,.7383-.3623v.8467c-.1211,0-.2207,.0391-.2998,.1172s-.1182,.2002-.1182,.3662c0,.1426,.0312,.2529,.0957,.3311s.1465,.1172,.2461,.1172c.0938,0,.1699-.0439,.2275-.1328s.1074-.2393,.1494-.4502,.0898-.3887,.1426-.5332c.1641-.4473,.4473-.6709,.8516-.6709,.2891,0,.5234,.124,.7021,.3721s.2686,.5684,.2686,.9609c0,.2656-.0479,.502-.1426,.708s-.2246,.3672-.3896,.4844-.3428,.1758-.5342,.1758v-.8027c.1504-.0078,.2656-.0635,.3457-.167s.1191-.2422,.1191-.416c0-.1621-.0303-.2842-.0918-.3682-.0615-.082-.1426-.124-.2422-.124Z"/><path class="cls-1" d="M1.1836,29.3672h.7793v-.542h.6211v.542h1.582c.1172,0,.2012-.0225,.252-.0674s.0762-.1309,.0762-.2578c0-.0938-.0078-.1768-.0215-.249h.6426c.0508,.166,.0762,.3369,.0762,.5127,0,.5938-.3008,.8965-.9004,.9082h-1.707v.4629h-.6211v-.4629h-.7793v-.8467Z"/><path class="cls-1" d="M5.1914,26.415c0,.4648-.1426,.8438-.4277,1.1357s-.666,.4375-1.1406,.4375h-.082c-.3184,0-.6025-.0615-.8535-.1846s-.4443-.2979-.5801-.5225c-.1357-.2266-.2031-.4834-.2031-.7725,0-.4336,.1367-.7744,.4102-1.0244,.2734-.248,.6602-.373,1.1621-.373h.3457v2.0186c.207-.0273,.373-.1104,.498-.2471,.125-.1387,.1875-.3125,.1875-.5234,0-.3262-.1172-.5811-.3535-.7646l.4648-.416c.1797,.127,.3203,.2988,.4209,.5156s.1514,.457,.1514,.7207Zm-2.6055,.0967c0,.168,.0576,.3047,.1719,.4082,.1133,.1055,.2754,.1719,.4883,.2012v-1.1777h-.0684c-.1875,.0039-.334,.0547-.4375,.1523-.1025,.0977-.1543,.2363-.1543,.416Z"/><path class="cls-1" d="M3.5762,21.2969c.4883,0,.8799,.1113,1.1738,.333s.4414,.5205,.4414,.8975c0,.3203-.1113,.5791-.334,.7764h1.4941v.8467H1.9629v-.7852l.3105-.0293c-.2461-.2051-.3691-.4727-.3691-.8027,0-.3906,.1445-.6943,.4336-.9111s.6875-.3252,1.1953-.3252h.043Zm-.0605,.8467c-.2949,0-.5234,.0527-.6836,.1562-.1602,.1055-.2402,.2568-.2402,.4561,0,.2656,.1016,.4482,.3047,.5479h1.2988c.209-.1035,.3125-.2881,.3125-.5537,0-.4043-.3301-.6064-.9922-.6064Z"/></g></g><g><line class="cls-4" x1="147.9651" y1="25.8672" x2="162.8887" y2="25.8672"/><polygon points="148.184 26.6151 146.8887 25.8672 148.184 25.1193 148.184 26.6151"/></g><g><path class="cls-1" d="M64.0381,76.3906c0-.1035-.0518-.1846-.1533-.2451-.1035-.0586-.2676-.1123-.4941-.1592-.7539-.1582-1.1309-.4785-1.1309-.9609,0-.2812,.1162-.5156,.3496-.7041s.5391-.2832,.916-.2832c.4023,0,.7236,.0947,.9648,.2842s.3623,.4355,.3623,.7383h-.8467c0-.1211-.0391-.2217-.1172-.2998-.0781-.0801-.2002-.1191-.3662-.1191-.1426,0-.2529,.0322-.3311,.0967s-.1172,.1465-.1172,.2461c0,.0938,.0439,.1699,.1328,.2275s.2393,.1074,.4502,.1484c.2109,.043,.3887,.0898,.5332,.1426,.4473,.1641,.6709,.4482,.6709,.8525,0,.2891-.124,.5225-.3721,.7021-.248,.1777-.5684,.2676-.9609,.2676-.2656,0-.502-.0479-.708-.1426-.2061-.0938-.3672-.2236-.4844-.3887s-.1758-.3438-.1758-.5352h.8027c.0078,.1504,.0635,.2656,.167,.3457s.2422,.1201,.416,.1201c.1621,0,.2842-.0303,.3682-.0928,.082-.0605,.124-.1416,.124-.2412Z"/><path class="cls-1" d="M66.9004,73.3174v.7793h.542v.6211h-.542v1.582c0,.1172,.0225,.2012,.0674,.252s.1309,.0762,.2578,.0762c.0938,0,.1768-.0068,.249-.0205v.6416c-.166,.0508-.3369,.0762-.5127,.0762-.5938,0-.8965-.2998-.9082-.8994v-1.708h-.4629v-.6211h.4629v-.7793h.8467Z"/><path class="cls-1" d="M69.8525,77.3252c-.4648,0-.8438-.1426-1.1357-.4277s-.4375-.665-.4375-1.1396v-.082c0-.3184,.0615-.6025,.1846-.8545,.123-.25,.2979-.4434,.5225-.5801,.2266-.1348,.4834-.2031,.7725-.2031,.4336,0,.7744,.1367,1.0244,.4102,.248,.2734,.373,.6611,.373,1.1631v.3457h-2.0186c.0273,.207,.1104,.373,.2471,.498,.1387,.125,.3125,.1875,.5234,.1875,.3262,0,.5811-.1182,.7646-.3545l.416,.4658c-.127,.1797-.2988,.3203-.5156,.4209-.2168,.0996-.457,.1504-.7207,.1504Zm-.0967-2.6045c-.168,0-.3047,.0566-.4082,.1709-.1055,.1133-.1719,.2764-.2012,.4883h1.1777v-.0674c-.0039-.1885-.0547-.334-.1523-.4375-.0977-.1025-.2363-.1543-.416-.1543Z"/><path class="cls-1" d="M74.9707,75.7109c0,.4883-.1113,.8799-.333,1.1729-.2217,.2949-.5205,.4414-.8975,.4414-.3203,0-.5791-.1113-.7764-.334v1.4941h-.8467v-4.3887h.7852l.0293,.3105c.2051-.2461,.4727-.3691,.8027-.3691,.3906,0,.6943,.1445,.9111,.4336s.3252,.6875,.3252,1.1953v.0439Zm-.8467-.0615c0-.2949-.0527-.5225-.1562-.6826-.1055-.1602-.2568-.2402-.4561-.2402-.2656,0-.4482,.1016-.5479,.3047v1.2979c.1035,.209,.2881,.3135,.5537,.3135,.4043,0,.6064-.3311,.6064-.9932Z"/></g><g><path class="cls-1" d="M129.1328,54.1562h-4.2656v-1.4941c0-.5176,.0986-.9102,.2969-1.1777s.4883-.4014,.8711-.4014c.209,0,.3936,.0537,.5527,.1611s.2754,.2568,.3496,.4482c.0547-.2188,.166-.3916,.332-.5166,.166-.127,.3691-.1895,.6094-.1895,.4102,0,.7207,.1309,.9316,.3926s.3184,.6348,.3223,1.1191v1.6582Zm-2.4785-.8789v-.6504c-.0078-.4434-.1855-.665-.5312-.665-.1934,0-.332,.0566-.417,.1689s-.1279,.2891-.1279,.5312v.6152h1.0762Zm.6211,0h1.1504v-.7529c0-.207-.0488-.3682-.1475-.4854-.0986-.1152-.2354-.1738-.4092-.1738-.3906,0-.5879,.2021-.5938,.6064v.8057Z"/><path class="cls-1" d="M127.9336,48.7188l-1.9707-.5859v-.9082l3.6621,1.2744,.166,.0703c.4141,.1895,.6211,.502,.6211,.9375,0,.123-.0176,.248-.0547,.375h-.6426l.0039-.1289c0-.1602-.0254-.2793-.0742-.3594-.0488-.0781-.1289-.1406-.2422-.1855l-.2617-.0996-3.1777,1.1104v-.9111l1.9707-.5889Z"/><path class="cls-1" d="M125.1836,45.3975h.7793v-.542h.6211v.542h1.582c.1172,0,.2012-.0225,.252-.0674s.0762-.1309,.0762-.2578c0-.0938-.0078-.1768-.0215-.249h.6426c.0508,.166,.0762,.3369,.0762,.5127,0,.5938-.3008,.8965-.9004,.9082h-1.707v.4629h-.6211v-.4629h-.7793v-.8467Z"/><path class="cls-1" d="M129.1914,42.4443c0,.4648-.1426,.8438-.4277,1.1357s-.666,.4375-1.1406,.4375h-.082c-.3184,0-.6025-.0615-.8535-.1846s-.4443-.2979-.5801-.5225c-.1357-.2266-.2031-.4834-.2031-.7725,0-.4336,.1367-.7744,.4102-1.0244,.2734-.248,.6602-.373,1.1621-.373h.3457v2.0186c.207-.0273,.373-.1104,.498-.2471,.125-.1387,.1875-.3125,.1875-.5234,0-.3262-.1172-.5811-.3535-.7646l.4648-.416c.1797,.127,.3203,.2988,.4209,.5156s.1514,.457,.1514,.7207Zm-2.6055,.0967c0,.168,.0576,.3047,.1719,.4082,.1133,.1055,.2754,.1719,.4883,.2012v-1.1777h-.0684c-.1875,.0039-.334,.0547-.4375,.1523-.1025,.0977-.1543,.2363-.1543,.416Z"/><path class="cls-1" d="M128.2559,38.4639c-.1035,0-.1846,.0518-.2441,.1533-.0596,.1035-.1133,.2676-.1602,.4941-.1582,.7539-.4785,1.1309-.9609,1.1309-.2812,0-.5156-.1162-.7041-.3496s-.2822-.5391-.2822-.916c0-.4023,.0938-.7236,.2832-.9648s.4355-.3623,.7383-.3623v.8467c-.1211,0-.2207,.0391-.2998,.1172s-.1182,.2002-.1182,.3662c0,.1426,.0312,.2529,.0957,.3311s.1465,.1172,.2461,.1172c.0938,0,.1699-.0439,.2275-.1328s.1074-.2393,.1494-.4502,.0898-.3887,.1426-.5332c.1641-.4473,.4473-.6709,.8516-.6709,.2891,0,.5234,.124,.7021,.3721s.2686,.5684,.2686,.9609c0,.2656-.0479,.502-.1426,.708s-.2246,.3672-.3896,.4844-.3428,.1758-.5342,.1758v-.8027c.1504-.0078,.2656-.0635,.3457-.167s.1191-.2422,.1191-.416c0-.1621-.0303-.2842-.0918-.3682-.0615-.082-.1426-.124-.2422-.124Z"/><path class="cls-1" d="M129.498,34.375v.6299l-4.6309-1.5703v-.6299l4.6309,1.5703Z"/><path class="cls-1" d="M128.2559,28.2295c-.1035,0-.1846,.0518-.2441,.1533-.0596,.1035-.1133,.2676-.1602,.4941-.1582,.7539-.4785,1.1309-.9609,1.1309-.2812,0-.5156-.1162-.7041-.3496s-.2822-.5391-.2822-.916c0-.4023,.0938-.7236,.2832-.9648s.4355-.3623,.7383-.3623v.8467c-.1211,0-.2207,.0391-.2998,.1172s-.1182,.2002-.1182,.3662c0,.1426,.0312,.2529,.0957,.3311s.1465,.1172,.2461,.1172c.0938,0,.1699-.0439,.2275-.1328s.1074-.2393,.1494-.4502,.0898-.3887,.1426-.5332c.1641-.4473,.4473-.6709,.8516-.6709,.2891,0,.5234,.124,.7021,.3721s.2686,.5684,.2686,.9609c0,.2656-.0479,.502-.1426,.708s-.2246,.3672-.3896,.4844-.3428,.1758-.5342,.1758v-.8027c.1504-.0078,.2656-.0635,.3457-.167s.1191-.2422,.1191-.416c0-.1621-.0303-.2842-.0918-.3682-.0615-.082-.1426-.124-.2422-.124Z"/><path class="cls-1" d="M125.1836,25.3672h.7793v-.542h.6211v.542h1.582c.1172,0,.2012-.0225,.252-.0674s.0762-.1309,.0762-.2578c0-.0938-.0078-.1768-.0215-.249h.6426c.0508,.166,.0762,.3369,.0762,.5127,0,.5938-.3008,.8965-.9004,.9082h-1.707v.4629h-.6211v-.4629h-.7793v-.8467Z"/><path class="cls-1" d="M129.1914,22.415c0,.4648-.1426,.8438-.4277,1.1357s-.666,.4375-1.1406,.4375h-.082c-.3184,0-.6025-.0615-.8535-.1846s-.4443-.2979-.5801-.5225c-.1357-.2266-.2031-.4834-.2031-.7725,0-.4336,.1367-.7744,.4102-1.0244,.2734-.248,.6602-.373,1.1621-.373h.3457v2.0186c.207-.0273,.373-.1104,.498-.2471,.125-.1387,.1875-.3125,.1875-.5234,0-.3262-.1172-.5811-.3535-.7646l.4648-.416c.1797,.127,.3203,.2988,.4209,.5156s.1514,.457,.1514,.7207Zm-2.6055,.0967c0,.168,.0576,.3047,.1719,.4082,.1133,.1055,.2754,.1719,.4883,.2012v-1.1777h-.0684c-.1875,.0039-.334,.0547-.4375,.1523-.1025,.0977-.1543,.2363-.1543,.416Z"/><path class="cls-1" d="M127.5762,17.2969c.4883,0,.8799,.1113,1.1738,.333s.4414,.5205,.4414,.8975c0,.3203-.1113,.5791-.334,.7764h1.4941v.8467h-4.3887v-.7852l.3105-.0293c-.2461-.2051-.3691-.4727-.3691-.8027,0-.3906,.1445-.6943,.4336-.9111s.6875-.3252,1.1953-.3252h.043Zm-.0605,.8467c-.2949,0-.5234,.0527-.6836,.1562-.1602,.1055-.2402,.2568-.2402,.4561,0,.2656,.1016,.4482,.3047,.5479h1.2988c.209-.1035,.3125-.2881,.3125-.5537,0-.4043-.3301-.6064-.9922-.6064Z"/></g></g></svg>